<?xml version="1.0" encoding="UTF-8" standalone="no"?>
<!-- Created with Inkscape (http://www.inkscape.org/) -->

<svg
   xmlns:dc="http://purl.org/dc/elements/1.1/"
   xmlns:cc="http://creativecommons.org/ns#"
   xmlns:rdf="http://www.w3.org/1999/02/22-rdf-syntax-ns#"
   xmlns:svg="http://www.w3.org/2000/svg"
   xmlns="http://www.w3.org/2000/svg"
   xmlns:sodipodi="http://sodipodi.sourceforge.net/DTD/sodipodi-0.dtd"
   xmlns:inkscape="http://www.inkscape.org/namespaces/inkscape"
   width="744.09448819"
   height="1052.3622047"
   id="svg5022"
   version="1.1"
   inkscape:version="0.48.4 r9939"
   sodipodi:docname="modelado_2.svg">
  <defs
     id="defs5024" />
  <sodipodi:namedview
     id="base"
     pagecolor="#ffffff"
     bordercolor="#666666"
     borderopacity="1.0"
     inkscape:pageopacity="0.0"
     inkscape:pageshadow="2"
     inkscape:zoom="2.6078982"
     inkscape:cx="329.84605"
     inkscape:cy="896.53406"
     inkscape:document-units="px"
     inkscape:current-layer="layer1"
     showgrid="false"
     inkscape:window-width="1851"
     inkscape:window-height="1053"
     inkscape:window-x="69"
     inkscape:window-y="27"
     inkscape:window-maximized="1" />
  <metadata
     id="metadata5027">
    <rdf:RDF>
      <cc:Work
         rdf:about="">
        <dc:format>image/svg+xml</dc:format>
        <dc:type
           rdf:resource="http://purl.org/dc/dcmitype/StillImage" />
        <dc:title />
      </cc:Work>
    </rdf:RDF>
  </metadata>
  <g
     inkscape:label="Layer 1"
     inkscape:groupmode="layer"
     id="layer1">
    <path
       sodipodi:type="arc"
       style="fill:#000000;fill-opacity:1;stroke:#000000;stroke-width:1.58500004;stroke-miterlimit:4;stroke-opacity:0;stroke-dasharray:none;stroke-dashoffset:0"
       id="path2985-5-97"
       sodipodi:cx="112.85714"
       sodipodi:cy="152.00504"
       sodipodi:rx="55.714287"
       sodipodi:ry="66.785713"
       d="m 168.57143,152.00504 a 55.714287,66.785713 0 1 1 -111.428577,0 55.714287,66.785713 0 1 1 111.428577,0 z"
       transform="matrix(0.04845087,0,0,0.03819192,59.581802,164.12033)" />
    <path
       sodipodi:type="arc"
       style="fill:#000000;fill-opacity:1;stroke:#000000;stroke-width:1.58500004;stroke-miterlimit:4;stroke-opacity:0;stroke-dasharray:none;stroke-dashoffset:0"
       id="path2985-5-0-8"
       sodipodi:cx="112.85714"
       sodipodi:cy="152.00504"
       sodipodi:rx="55.714287"
       sodipodi:ry="66.785713"
       d="m 168.57143,152.00504 a 55.714287,66.785713 0 1 1 -111.428577,0 55.714287,66.785713 0 1 1 111.428577,0 z"
       transform="matrix(0.04845087,0,0,0.03819192,90.655562,164.12033)" />
    <path
       style="fill:none;stroke:#000000;stroke-width:0.61326164px;stroke-linecap:butt;stroke-linejoin:miter;stroke-opacity:1"
       d="m 64.673563,170.04664 c 31.004531,0 31.004531,0 31.004531,0"
       id="path3156-5"
       inkscape:connector-curvature="0" />
    <path
       sodipodi:type="arc"
       style="fill:#000000;fill-opacity:1;stroke:#000000;stroke-width:1.58500004;stroke-miterlimit:4;stroke-opacity:0;stroke-dasharray:none;stroke-dashoffset:0"
       id="path2985-5-2-6"
       sodipodi:cx="112.85714"
       sodipodi:cy="152.00504"
       sodipodi:rx="55.714287"
       sodipodi:ry="66.785713"
       d="m 168.57143,152.00504 a 55.714287,66.785713 0 1 1 -111.428577,0 55.714287,66.785713 0 1 1 111.428577,0 z"
       transform="matrix(0.04813499,0,0,0.03824124,122.1637,191.587)" />
    <path
       sodipodi:type="arc"
       style="fill:#000000;fill-opacity:1;stroke:#000000;stroke-width:1.58500004;stroke-miterlimit:4;stroke-opacity:0;stroke-dasharray:none;stroke-dashoffset:0"
       id="path2985-5-0-0-0"
       sodipodi:cx="112.85714"
       sodipodi:cy="152.00504"
       sodipodi:rx="55.714287"
       sodipodi:ry="66.785713"
       d="m 168.57143,152.00504 a 55.714287,66.785713 0 1 1 -111.428577,0 55.714287,66.785713 0 1 1 111.428577,0 z"
       transform="matrix(0.04813499,0,0,0.03824124,153.33399,191.587)" />
    <path
       style="fill:none;stroke:#000000;stroke-width:0.61165386px;stroke-linecap:butt;stroke-linejoin:miter;stroke-opacity:1"
       d="m 127.22222,197.42548 c 30.80241,0 30.80241,0 30.80241,0"
       id="path3156-6-0"
       inkscape:connector-curvature="0" />
    <path
       sodipodi:type="arc"
       style="fill:#000000;fill-opacity:1;stroke:#000000;stroke-width:1.58500004;stroke-miterlimit:4;stroke-opacity:0;stroke-dasharray:none;stroke-dashoffset:0"
       id="path2985-5-21-1"
       sodipodi:cx="112.85714"
       sodipodi:cy="152.00504"
       sodipodi:rx="55.714287"
       sodipodi:ry="66.785713"
       d="m 168.57143,152.00504 a 55.714287,66.785713 0 1 1 -111.428577,0 55.714287,66.785713 0 1 1 111.428577,0 z"
       transform="matrix(0.04845087,0,0,0.03819192,59.581802,191.24444)" />
    <path
       sodipodi:type="arc"
       style="fill:#000000;fill-opacity:1;stroke:#000000;stroke-width:1.58500004;stroke-miterlimit:4;stroke-opacity:0;stroke-dasharray:none;stroke-dashoffset:0"
       id="path2985-5-0-6-7"
       sodipodi:cx="112.85714"
       sodipodi:cy="152.00504"
       sodipodi:rx="55.714287"
       sodipodi:ry="66.785713"
       d="m 168.57143,152.00504 a 55.714287,66.785713 0 1 1 -111.428577,0 55.714287,66.785713 0 1 1 111.428577,0 z"
       transform="matrix(0.04845087,0,0,0.03819192,90.655562,191.24444)" />
    <path
       style="fill:none;stroke:#ff0000;stroke-width:1.52160251;stroke-linecap:butt;stroke-linejoin:miter;stroke-miterlimit:4;stroke-opacity:1;stroke-dasharray:none"
       d="m 67.666752,197.17076 c 25.742386,0 25.742386,0 25.742386,0"
       id="path3156-0-0"
       inkscape:connector-curvature="0" />
    <path
       sodipodi:type="arc"
       style="fill:#000000;fill-opacity:1;stroke:#000000;stroke-width:1.58500004;stroke-miterlimit:4;stroke-opacity:0;stroke-dasharray:none;stroke-dashoffset:0"
       id="path2985-5-9-6-4"
       sodipodi:cx="112.85714"
       sodipodi:cy="152.00504"
       sodipodi:rx="55.714287"
       sodipodi:ry="66.785713"
       d="m 168.57143,152.00504 a 55.714287,66.785713 0 1 1 -111.428577,0 55.714287,66.785713 0 1 1 111.428577,0 z"
       transform="matrix(0.04845087,0,0,0.03819192,122.14565,164.31005)" />
    <path
       sodipodi:type="arc"
       style="fill:#000000;fill-opacity:1;stroke:#000000;stroke-width:1.58500004;stroke-miterlimit:4;stroke-opacity:0;stroke-dasharray:none;stroke-dashoffset:0"
       id="path2985-5-0-7-5-1"
       sodipodi:cx="112.85714"
       sodipodi:cy="152.00504"
       sodipodi:rx="55.714287"
       sodipodi:ry="66.785713"
       d="m 168.57143,152.00504 a 55.714287,66.785713 0 1 1 -111.428577,0 55.714287,66.785713 0 1 1 111.428577,0 z"
       transform="matrix(0.04845087,0,0,0.03819192,153.51856,164.31005)" />
    <path
       style="fill:none;stroke:#000000;stroke-width:0.6132617px;stroke-linecap:butt;stroke-linejoin:miter;stroke-opacity:1"
       d="m 127.2374,170.23636 c 31.00452,0 31.00452,0 31.00452,0"
       id="path3156-2-8-6"
       inkscape:connector-curvature="0" />
    <path
       sodipodi:type="arc"
       style="fill:#000000;fill-opacity:1;stroke:#000000;stroke-width:1.58500004;stroke-miterlimit:4;stroke-opacity:0;stroke-dasharray:none;stroke-dashoffset:0"
       id="path2985-5-2-7-5"
       sodipodi:cx="112.85714"
       sodipodi:cy="152.00504"
       sodipodi:rx="55.714287"
       sodipodi:ry="66.785713"
       d="m 168.57143,152.00504 a 55.714287,66.785713 0 1 1 -111.428577,0 55.714287,66.785713 0 1 1 111.428577,0 z"
       transform="matrix(0.04813499,0,0,0.03824124,184.95176,191.74925)" />
    <path
       sodipodi:type="arc"
       style="fill:#000000;fill-opacity:1;stroke:#000000;stroke-width:1.58500004;stroke-miterlimit:4;stroke-opacity:0;stroke-dasharray:none;stroke-dashoffset:0"
       id="path2985-5-9-6-8-2"
       sodipodi:cx="112.85714"
       sodipodi:cy="152.00504"
       sodipodi:rx="55.714287"
       sodipodi:ry="66.785713"
       d="m 168.57143,152.00504 a 55.714287,66.785713 0 1 1 -111.428577,0 55.714287,66.785713 0 1 1 111.428577,0 z"
       transform="matrix(0.04845087,0,0,0.03819192,184.93371,164.4723)" />
    <path
       style="fill:none;stroke:#000000;stroke-width:0.61326164px;stroke-linecap:butt;stroke-linejoin:miter;stroke-opacity:1"
       d="m 97.835564,170.21318 c 31.004526,0 31.004526,0 31.004526,0"
       id="path3156-5-9"
       inkscape:connector-curvature="0" />
    <path
       style="fill:none;stroke:#000000;stroke-width:0.61326164px;stroke-linecap:butt;stroke-linejoin:miter;stroke-opacity:1"
       d="m 158.16737,170.20843 c 31.00453,0 31.00453,0 31.00453,0"
       id="path3156-5-9-5"
       inkscape:connector-curvature="0" />
    <path
       style="fill:none;stroke:#000000;stroke-width:0.61326164px;stroke-linecap:butt;stroke-linejoin:miter;stroke-opacity:1"
       d="m 97.734798,197.24464 c 31.004532,0 31.004532,0 31.004532,0"
       id="path3156-5-9-1"
       inkscape:connector-curvature="0" />
    <path
       style="fill:none;stroke:#000000;stroke-width:0.61326164px;stroke-linecap:butt;stroke-linejoin:miter;stroke-opacity:1"
       d="m 158.45892,197.63077 c 31.00454,0 31.00454,0 31.00454,0"
       id="path3156-5-9-5-1"
       inkscape:connector-curvature="0" />
    <path
       sodipodi:type="arc"
       style="fill:#000000;fill-opacity:1;stroke:#000000;stroke-width:1.58500004;stroke-miterlimit:4;stroke-opacity:0;stroke-dasharray:none;stroke-dashoffset:0"
       id="path2985-5-97-9"
       sodipodi:cx="112.85714"
       sodipodi:cy="152.00504"
       sodipodi:rx="55.714287"
       sodipodi:ry="66.785713"
       d="m 168.57143,152.00504 a 55.714287,66.785713 0 1 1 -111.428577,0 55.714287,66.785713 0 1 1 111.428577,0 z"
       transform="matrix(0.04845087,0,0,0.03819192,59.392742,217.86573)" />
    <path
       sodipodi:type="arc"
       style="fill:#000000;fill-opacity:1;stroke:#000000;stroke-width:1.58500004;stroke-miterlimit:4;stroke-opacity:0;stroke-dasharray:none;stroke-dashoffset:0"
       id="path2985-5-0-8-5"
       sodipodi:cx="112.85714"
       sodipodi:cy="152.00504"
       sodipodi:rx="55.714287"
       sodipodi:ry="66.785713"
       d="m 168.57143,152.00504 a 55.714287,66.785713 0 1 1 -111.428577,0 55.714287,66.785713 0 1 1 111.428577,0 z"
       transform="matrix(0.04845087,0,0,0.03819192,90.466501,217.86573)" />
    <path
       style="fill:none;stroke:#000000;stroke-width:0.61326164px;stroke-linecap:butt;stroke-linejoin:miter;stroke-opacity:1"
       d="m 64.484501,223.79204 c 31.004532,0 31.004532,0 31.004532,0"
       id="path3156-5-5"
       inkscape:connector-curvature="0" />
    <path
       sodipodi:type="arc"
       style="fill:#000000;fill-opacity:1;stroke:#000000;stroke-width:1.58500004;stroke-miterlimit:4;stroke-opacity:0;stroke-dasharray:none;stroke-dashoffset:0"
       id="path2985-5-2-6-1"
       sodipodi:cx="112.85714"
       sodipodi:cy="152.00504"
       sodipodi:rx="55.714287"
       sodipodi:ry="66.785713"
       d="m 168.57143,152.00504 a 55.714287,66.785713 0 1 1 -111.428577,0 55.714287,66.785713 0 1 1 111.428577,0 z"
       transform="matrix(0.04813499,0,0,0.03824124,121.97462,245.33239)" />
    <path
       sodipodi:type="arc"
       style="fill:#000000;fill-opacity:1;stroke:#000000;stroke-width:1.58500004;stroke-miterlimit:4;stroke-opacity:0;stroke-dasharray:none;stroke-dashoffset:0"
       id="path2985-5-0-0-0-9"
       sodipodi:cx="112.85714"
       sodipodi:cy="152.00504"
       sodipodi:rx="55.714287"
       sodipodi:ry="66.785713"
       d="m 168.57143,152.00504 a 55.714287,66.785713 0 1 1 -111.428577,0 55.714287,66.785713 0 1 1 111.428577,0 z"
       transform="matrix(0.04813499,0,0,0.03824124,153.14493,245.33239)" />
    <path
       style="fill:none;stroke:#000000;stroke-width:0.61165386px;stroke-linecap:butt;stroke-linejoin:miter;stroke-opacity:1"
       d="m 127.03316,251.17089 c 30.80241,0 30.80241,0 30.80241,0"
       id="path3156-6-0-7"
       inkscape:connector-curvature="0" />
    <path
       sodipodi:type="arc"
       style="fill:#000000;fill-opacity:1;stroke:#000000;stroke-width:1.58500004;stroke-miterlimit:4;stroke-opacity:0;stroke-dasharray:none;stroke-dashoffset:0"
       id="path2985-5-21-1-6"
       sodipodi:cx="112.85714"
       sodipodi:cy="152.00504"
       sodipodi:rx="55.714287"
       sodipodi:ry="66.785713"
       d="m 168.57143,152.00504 a 55.714287,66.785713 0 1 1 -111.428577,0 55.714287,66.785713 0 1 1 111.428577,0 z"
       transform="matrix(0.04845087,0,0,0.03819192,59.392742,244.98984)" />
    <path
       sodipodi:type="arc"
       style="fill:#000000;fill-opacity:1;stroke:#000000;stroke-width:1.58500004;stroke-miterlimit:4;stroke-opacity:0;stroke-dasharray:none;stroke-dashoffset:0"
       id="path2985-5-0-6-7-6"
       sodipodi:cx="112.85714"
       sodipodi:cy="152.00504"
       sodipodi:rx="55.714287"
       sodipodi:ry="66.785713"
       d="m 168.57143,152.00504 a 55.714287,66.785713 0 1 1 -111.428577,0 55.714287,66.785713 0 1 1 111.428577,0 z"
       transform="matrix(0.04845087,0,0,0.03819192,90.466501,244.98984)" />
    <path
       style="fill:none;stroke:#000000;stroke-width:0.61326164px;stroke-linecap:butt;stroke-linejoin:miter;stroke-opacity:1"
       d="m 64.484501,250.91617 c 31.004532,0 31.004532,0 31.004532,0"
       id="path3156-0-0-9"
       inkscape:connector-curvature="0" />
    <path
       sodipodi:type="arc"
       style="fill:#000000;fill-opacity:1;stroke:#000000;stroke-width:1.58500004;stroke-miterlimit:4;stroke-opacity:0;stroke-dasharray:none;stroke-dashoffset:0"
       id="path2985-5-9-6-4-1"
       sodipodi:cx="112.85714"
       sodipodi:cy="152.00504"
       sodipodi:rx="55.714287"
       sodipodi:ry="66.785713"
       d="m 168.57143,152.00504 a 55.714287,66.785713 0 1 1 -111.428577,0 55.714287,66.785713 0 1 1 111.428577,0 z"
       transform="matrix(0.04845087,0,0,0.03819192,121.95658,218.05546)" />
    <path
       sodipodi:type="arc"
       style="fill:#000000;fill-opacity:1;stroke:#000000;stroke-width:1.58500004;stroke-miterlimit:4;stroke-opacity:0;stroke-dasharray:none;stroke-dashoffset:0"
       id="path2985-5-0-7-5-1-2"
       sodipodi:cx="112.85714"
       sodipodi:cy="152.00504"
       sodipodi:rx="55.714287"
       sodipodi:ry="66.785713"
       d="m 168.57143,152.00504 a 55.714287,66.785713 0 1 1 -111.428577,0 55.714287,66.785713 0 1 1 111.428577,0 z"
       transform="matrix(0.04845087,0,0,0.03819192,153.3295,218.05546)" />
    <path
       style="fill:none;stroke:#000000;stroke-width:0.6132617px;stroke-linecap:butt;stroke-linejoin:miter;stroke-opacity:1"
       d="m 127.04833,223.98176 c 31.00452,0 31.00452,0 31.00452,0"
       id="path3156-2-8-6-4"
       inkscape:connector-curvature="0" />
    <path
       sodipodi:type="arc"
       style="fill:#000000;fill-opacity:1;stroke:#000000;stroke-width:1.58500004;stroke-miterlimit:4;stroke-opacity:0;stroke-dasharray:none;stroke-dashoffset:0"
       id="path2985-5-2-7-5-5"
       sodipodi:cx="112.85714"
       sodipodi:cy="152.00504"
       sodipodi:rx="55.714287"
       sodipodi:ry="66.785713"
       d="m 168.57143,152.00504 a 55.714287,66.785713 0 1 1 -111.428577,0 55.714287,66.785713 0 1 1 111.428577,0 z"
       transform="matrix(0.04813499,0,0,0.03824124,184.90677,245.49464)" />
    <path
       sodipodi:type="arc"
       style="fill:#000000;fill-opacity:1;stroke:#000000;stroke-width:1.58500004;stroke-miterlimit:4;stroke-opacity:0;stroke-dasharray:none;stroke-dashoffset:0"
       id="path2985-5-9-6-8-2-0"
       sodipodi:cx="112.85714"
       sodipodi:cy="152.00504"
       sodipodi:rx="55.714287"
       sodipodi:ry="66.785713"
       d="m 168.57143,152.00504 a 55.714287,66.785713 0 1 1 -111.428577,0 55.714287,66.785713 0 1 1 111.428577,0 z"
       transform="matrix(0.04845087,0,0,0.03819192,184.88872,218.21771)" />
    <path
       style="fill:none;stroke:#000000;stroke-width:0.61326164px;stroke-linecap:butt;stroke-linejoin:miter;stroke-opacity:1"
       d="m 97.646502,223.95858 c 31.004528,0 31.004528,0 31.004528,0"
       id="path3156-5-9-59"
       inkscape:connector-curvature="0" />
    <path
       style="fill:none;stroke:#000000;stroke-width:0.61326164px;stroke-linecap:butt;stroke-linejoin:miter;stroke-opacity:1"
       d="m 158.12239,223.95383 c 31.00453,0 31.00453,0 31.00453,0"
       id="path3156-5-9-5-3"
       inkscape:connector-curvature="0" />
    <path
       style="fill:none;stroke:#000000;stroke-width:0.61326164px;stroke-linecap:butt;stroke-linejoin:miter;stroke-opacity:1"
       d="m 97.545736,250.99005 c 31.004534,0 31.004534,0 31.004534,0"
       id="path3156-5-9-1-2"
       inkscape:connector-curvature="0" />
    <path
       style="fill:none;stroke:#000000;stroke-width:0.61326164px;stroke-linecap:butt;stroke-linejoin:miter;stroke-opacity:1"
       d="m 158.41394,251.37617 c 31.00454,0 31.00454,0 31.00454,0"
       id="path3156-5-9-5-1-5"
       inkscape:connector-curvature="0" />
    <path
       sodipodi:type="arc"
       style="fill:#000000;fill-opacity:1;stroke:#000000;stroke-width:1.58500004;stroke-miterlimit:4;stroke-opacity:0;stroke-dasharray:none;stroke-dashoffset:0"
       id="path2985-5-2-6-1-1"
       sodipodi:cx="112.85714"
       sodipodi:cy="152.00504"
       sodipodi:rx="55.714287"
       sodipodi:ry="66.785713"
       d="m 168.57143,152.00504 a 55.714287,66.785713 0 1 1 -111.428577,0 55.714287,66.785713 0 1 1 111.428577,0 z"
       transform="matrix(0.04813499,0,0,0.03824124,121.97462,273.14825)" />
    <path
       sodipodi:type="arc"
       style="fill:#000000;fill-opacity:1;stroke:#000000;stroke-width:1.58500004;stroke-miterlimit:4;stroke-opacity:0;stroke-dasharray:none;stroke-dashoffset:0"
       id="path2985-5-0-0-0-9-3"
       sodipodi:cx="112.85714"
       sodipodi:cy="152.00504"
       sodipodi:rx="55.714287"
       sodipodi:ry="66.785713"
       d="m 168.57143,152.00504 a 55.714287,66.785713 0 1 1 -111.428577,0 55.714287,66.785713 0 1 1 111.428577,0 z"
       transform="matrix(0.04813499,0,0,0.03824124,153.14493,273.14825)" />
    <path
       style="fill:none;stroke:#ff0000;stroke-width:1.52741921;stroke-linecap:butt;stroke-linejoin:miter;stroke-miterlimit:4;stroke-opacity:1;stroke-dasharray:none"
       d="m 130.03195,278.98674 c 25.77047,0 25.77047,0 25.77047,0"
       id="path3156-6-0-7-0"
       inkscape:connector-curvature="0" />
    <path
       sodipodi:type="arc"
       style="fill:#000000;fill-opacity:1;stroke:#000000;stroke-width:1.58500004;stroke-miterlimit:4;stroke-opacity:0;stroke-dasharray:none;stroke-dashoffset:0"
       id="path2985-5-21-1-6-6"
       sodipodi:cx="112.85714"
       sodipodi:cy="152.00504"
       sodipodi:rx="55.714287"
       sodipodi:ry="66.785713"
       d="m 168.57143,152.00504 a 55.714287,66.785713 0 1 1 -111.428577,0 55.714287,66.785713 0 1 1 111.428577,0 z"
       transform="matrix(0.04845087,0,0,0.03819192,59.392742,272.80569)" />
    <path
       sodipodi:type="arc"
       style="fill:#000000;fill-opacity:1;stroke:#000000;stroke-width:1.58500004;stroke-miterlimit:4;stroke-opacity:0;stroke-dasharray:none;stroke-dashoffset:0"
       id="path2985-5-0-6-7-6-4"
       sodipodi:cx="112.85714"
       sodipodi:cy="152.00504"
       sodipodi:rx="55.714287"
       sodipodi:ry="66.785713"
       d="m 168.57143,152.00504 a 55.714287,66.785713 0 1 1 -111.428577,0 55.714287,66.785713 0 1 1 111.428577,0 z"
       transform="matrix(0.04845087,0,0,0.03819192,90.466501,272.80569)" />
    <path
       style="fill:none;stroke:#000000;stroke-width:0.61326164px;stroke-linecap:butt;stroke-linejoin:miter;stroke-opacity:1"
       d="m 64.484501,278.73202 c 31.004532,0 31.004532,0 31.004532,0"
       id="path3156-0-0-9-1"
       inkscape:connector-curvature="0" />
    <path
       sodipodi:type="arc"
       style="fill:#000000;fill-opacity:1;stroke:#000000;stroke-width:1.58500004;stroke-miterlimit:4;stroke-opacity:0;stroke-dasharray:none;stroke-dashoffset:0"
       id="path2985-5-2-7-5-5-0"
       sodipodi:cx="112.85714"
       sodipodi:cy="152.00504"
       sodipodi:rx="55.714287"
       sodipodi:ry="66.785713"
       d="m 168.57143,152.00504 a 55.714287,66.785713 0 1 1 -111.428577,0 55.714287,66.785713 0 1 1 111.428577,0 z"
       transform="matrix(0.04813499,0,0,0.03824124,184.90677,273.31051)" />
    <path
       style="fill:none;stroke:#ff0000;stroke-width:1.5351845;stroke-linecap:butt;stroke-linejoin:miter;stroke-miterlimit:4;stroke-opacity:1;stroke-dasharray:none"
       d="m 98.380409,278.80591 c 26.203991,0 26.203991,0 26.203991,0"
       id="path3156-5-9-1-2-1"
       inkscape:connector-curvature="0" />
    <path
       style="fill:none;stroke:#000000;stroke-width:0.61326164px;stroke-linecap:butt;stroke-linejoin:miter;stroke-opacity:1"
       d="m 157.93111,279.19203 c 31.00454,0 31.00454,0 31.00454,0"
       id="path3156-5-9-5-1-5-2"
       inkscape:connector-curvature="0" />
    <path
       style="fill:none;stroke:#000000;stroke-width:0.61356753;stroke-linecap:butt;stroke-linejoin:miter;stroke-miterlimit:4;stroke-opacity:1;stroke-dasharray:none"
       d="m 64.576678,250.58165 c 0,27.89513 0,27.89513 0,27.89513"
       id="path3568"
       inkscape:connector-curvature="0" />
    <path
       style="fill:none;stroke:#000000;stroke-width:0.9542262px;stroke-linecap:butt;stroke-linejoin:miter;stroke-opacity:1"
       d="m 64.778317,169.9679 c 0,26.46013 0,26.46013 0,26.46013"
       id="path3135"
       inkscape:connector-curvature="0" />
    <path
       style="fill:none;stroke:#ff0000;stroke-width:1.57650745;stroke-linecap:butt;stroke-linejoin:miter;stroke-miterlimit:4;stroke-opacity:1;stroke-dasharray:none"
       d="m 95.920343,172.23248 c 0,22.17151 0,22.17151 0,22.17151"
       id="path3135-1"
       inkscape:connector-curvature="0" />
    <path
       style="fill:none;stroke:#000000;stroke-width:0.9542262px;stroke-linecap:butt;stroke-linejoin:miter;stroke-opacity:1"
       d="m 127.50711,171.41117 c 0,26.46015 0,26.46015 0,26.46015"
       id="path3135-7"
       inkscape:connector-curvature="0" />
    <path
       style="fill:none;stroke:#000000;stroke-width:0.9542262px;stroke-linecap:butt;stroke-linejoin:miter;stroke-opacity:1"
       d="m 158.94829,171.17063 c 0,26.46014 0,26.46014 0,26.46014"
       id="path3135-8"
       inkscape:connector-curvature="0" />
    <path
       style="fill:none;stroke:#000000;stroke-width:0.9542262px;stroke-linecap:butt;stroke-linejoin:miter;stroke-opacity:1"
       d="m 190.37976,171.17063 c 0,26.46014 0,26.46014 0,26.46014"
       id="path3135-3"
       inkscape:connector-curvature="0" />
    <path
       style="fill:none;stroke:#000000;stroke-width:0.9542262px;stroke-linecap:butt;stroke-linejoin:miter;stroke-opacity:1"
       d="m 64.778319,196.66858 c 0,26.46015 0,26.46015 0,26.46015"
       id="path3135-9"
       inkscape:connector-curvature="0" />
    <path
       style="fill:none;stroke:#000000;stroke-width:0.9542262px;stroke-linecap:butt;stroke-linejoin:miter;stroke-opacity:1"
       d="m 64.778316,223.60983 c 0,26.46013 0,26.46013 0,26.46013"
       id="path3135-86"
       inkscape:connector-curvature="0" />
    <path
       style="fill:none;stroke:#000000;stroke-width:0.9542262px;stroke-linecap:butt;stroke-linejoin:miter;stroke-opacity:1"
       d="m 190.37976,197.87132 c 0,26.46014 0,26.46014 0,26.46014"
       id="path3135-32"
       inkscape:connector-curvature="0" />
    <path
       style="fill:none;stroke:#ff0000;stroke-width:1.5127151;stroke-linecap:butt;stroke-linejoin:miter;stroke-miterlimit:4;stroke-opacity:1;stroke-dasharray:none"
       d="m 158.94829,199.64332 c 0,21.7134 0,21.7134 0,21.7134"
       id="path3135-0"
       inkscape:connector-curvature="0" />
    <path
       style="fill:none;stroke:#000000;stroke-width:0.9542262px;stroke-linecap:butt;stroke-linejoin:miter;stroke-opacity:1"
       d="m 127.5071,198.59297 c 0,26.46013 0,26.46013 0,26.46013"
       id="path3135-6"
       inkscape:connector-curvature="0" />
    <path
       style="fill:none;stroke:#000000;stroke-width:0.9542262px;stroke-linecap:butt;stroke-linejoin:miter;stroke-opacity:1"
       d="m 95.920342,198.11187 c 0,26.46013 0,26.46013 0,26.46013"
       id="path3135-62"
       inkscape:connector-curvature="0" />
    <path
       style="fill:none;stroke:#000000;stroke-width:0.9542262px;stroke-linecap:butt;stroke-linejoin:miter;stroke-opacity:1"
       d="m 95.678929,223.85037 c 0,26.46013 0,26.46013 0,26.46013"
       id="path3135-5"
       inkscape:connector-curvature="0" />
    <path
       style="fill:none;stroke:#000000;stroke-width:0.9542262px;stroke-linecap:butt;stroke-linejoin:miter;stroke-opacity:1"
       d="m 127.50711,224.572 c 0,26.46015 0,26.46015 0,26.46015"
       id="path3135-05"
       inkscape:connector-curvature="0" />
    <path
       style="fill:none;stroke:#ff0000;stroke-width:1.55922306;stroke-linecap:butt;stroke-linejoin:miter;stroke-miterlimit:4;stroke-opacity:1;stroke-dasharray:none"
       d="m 127.2657,253.56961 c 0,23.06905 0,23.06905 0,23.06905"
       id="path3135-00"
       inkscape:connector-curvature="0" />
    <path
       style="fill:none;stroke:#000000;stroke-width:0.9542262px;stroke-linecap:butt;stroke-linejoin:miter;stroke-opacity:1"
       d="m 95.678929,251.51324 c 0,26.46014 0,26.46014 0,26.46014"
       id="path3135-37"
       inkscape:connector-curvature="0" />
    <path
       style="fill:none;stroke:#000000;stroke-width:0.9542262px;stroke-linecap:butt;stroke-linejoin:miter;stroke-opacity:1"
       d="m 158.70688,225.0531 c 0,26.46014 0,26.46014 0,26.46014"
       id="path3135-14"
       inkscape:connector-curvature="0" />
    <path
       style="fill:none;stroke:#000000;stroke-width:0.9542262px;stroke-linecap:butt;stroke-linejoin:miter;stroke-opacity:1"
       d="m 158.46546,252.23489 c 0,26.46015 0,26.46015 0,26.46015"
       id="path3135-50"
       inkscape:connector-curvature="0" />
    <path
       style="fill:none;stroke:#000000;stroke-width:0.9542262px;stroke-linecap:butt;stroke-linejoin:miter;stroke-opacity:1"
       d="m 190.37976,224.09092 c 0,26.46013 0,26.46013 0,26.46013"
       id="path3135-60"
       inkscape:connector-curvature="0" />
    <path
       style="fill:none;stroke:#000000;stroke-width:0.9542262px;stroke-linecap:butt;stroke-linejoin:miter;stroke-opacity:1"
       d="m 190.37976,252.47544 c 0,26.46015 0,26.46015 0,26.46015"
       id="path3135-98"
       inkscape:connector-curvature="0" />
    <path
       style="fill:none;stroke:#9600ff;stroke-width:0.90631622px;stroke-linecap:butt;stroke-linejoin:miter;stroke-opacity:1"
       d="m 98.311823,194.52784 c 11.425517,-10.2062 26.300227,-0.24301 26.300227,-0.24301"
       id="path4138"
       inkscape:connector-curvature="0" />
    <path
       style="fill:none;stroke:#9600ff;stroke-width:0.9542262px;stroke-linecap:butt;stroke-linejoin:miter;stroke-opacity:1"
       d="m 130.40404,194.26311 c 13.27761,-8.65968 25.10675,-0.72164 25.10675,-0.72164"
       id="path4158"
       inkscape:connector-curvature="0" />
    <path
       style="fill:none;stroke:#9600ff;stroke-width:0.9542262px;stroke-linecap:butt;stroke-linejoin:miter;stroke-opacity:1"
       d="m 162.08662,200.03624 c 10.38069,11.54624 0,21.40867 0,21.40867"
       id="path4160"
       inkscape:connector-curvature="0" />
    <path
       style="fill:none;stroke:#9600ff;stroke-width:0.9542262px;stroke-linecap:butt;stroke-linejoin:miter;stroke-opacity:1"
       d="m 161.12098,226.73694 c 9.17363,10.58404 0.72423,21.88975 0.72423,21.88975"
       id="path4162"
       inkscape:connector-curvature="0" />
    <path
       style="fill:none;stroke:#9600ff;stroke-width:0.9542262px;stroke-linecap:butt;stroke-linejoin:miter;stroke-opacity:1"
       d="m 161.12098,254.39981 c 10.13927,12.98953 0.24142,21.64921 0.24142,21.64921"
       id="path4164"
       inkscape:connector-curvature="0" />
    <path
       style="fill:none;stroke:#9600ff;stroke-width:0.9542262px;stroke-linecap:butt;stroke-linejoin:miter;stroke-opacity:1"
       d="m 154.78655,276.04902 c -13.51901,-8.41914 -24.38251,-0.24054 -24.38251,-0.24054"
       id="path4166"
       inkscape:connector-curvature="0" />
    <path
       style="fill:none;stroke:#9600ff;stroke-width:0.97296119px;stroke-linecap:butt;stroke-linejoin:miter;stroke-opacity:1"
       d="m 122.00148,189.66402 c 2.44671,4.8484 2.44671,4.8484 2.44671,4.8484"
       id="path3400-9"
       inkscape:connector-curvature="0" />
    <path
       style="fill:none;stroke:#9600ff;stroke-width:0.97296119px;stroke-linecap:butt;stroke-linejoin:miter;stroke-opacity:1"
       d="m 125.05233,194.30676 c -5.33573,0.38971 -5.04209,0.29281 -5.04209,0.29281"
       id="path3402-8"
       inkscape:connector-curvature="0" />
    <path
       style="fill:none;stroke:#9600ff;stroke-width:1.02439415px;stroke-linecap:butt;stroke-linejoin:miter;stroke-opacity:1"
       d="m 154.10627,189.16899 c 2.73993,4.79936 2.73993,4.79936 2.73993,4.79936"
       id="path3400-9-2"
       inkscape:connector-curvature="0" />
    <path
       style="fill:none;stroke:#9600ff;stroke-width:1.02439415px;stroke-linecap:butt;stroke-linejoin:miter;stroke-opacity:1"
       d="m 156.96247,193.76478 c -5.97519,0.38577 -5.64635,0.28984 -5.64635,0.28984"
       id="path3402-8-7"
       inkscape:connector-curvature="0" />
    <path
       style="fill:none;stroke:#9600ff;stroke-width:1.02439415px;stroke-linecap:butt;stroke-linejoin:miter;stroke-opacity:1"
       d="m 166.51093,220.17524 c -5.19288,1.92726 -5.19288,1.92726 -5.19288,1.92726"
       id="path3400-9-7"
       inkscape:connector-curvature="0" />
    <path
       style="fill:none;stroke:#9600ff;stroke-width:1.02439415px;stroke-linecap:butt;stroke-linejoin:miter;stroke-opacity:1"
       d="m 161.50113,222.24942 c 0.57361,-5.93884 0.61606,-5.60004 0.61606,-5.60004"
       id="path3402-8-5"
       inkscape:connector-curvature="0" />
    <path
       style="fill:none;stroke:#9600ff;stroke-width:1.02439415px;stroke-linecap:butt;stroke-linejoin:miter;stroke-opacity:1"
       d="m 166.13154,247.18937 c -5.19288,1.92726 -5.19288,1.92726 -5.19288,1.92726"
       id="path3400-9-7-6"
       inkscape:connector-curvature="0" />
    <path
       style="fill:none;stroke:#9600ff;stroke-width:1.02439415px;stroke-linecap:butt;stroke-linejoin:miter;stroke-opacity:1"
       d="m 161.12174,249.26355 c 0.57361,-5.93884 0.61606,-5.60003 0.61606,-5.60003"
       id="path3402-8-5-7"
       inkscape:connector-curvature="0" />
    <path
       style="fill:none;stroke:#9600ff;stroke-width:1.02439415px;stroke-linecap:butt;stroke-linejoin:miter;stroke-opacity:1"
       d="m 165.89012,274.61171 c -5.19288,1.92727 -5.19288,1.92727 -5.19288,1.92727"
       id="path3400-9-7-3"
       inkscape:connector-curvature="0" />
    <path
       style="fill:none;stroke:#9600ff;stroke-width:1.02439415px;stroke-linecap:butt;stroke-linejoin:miter;stroke-opacity:1"
       d="m 160.88033,276.68589 c 0.5736,-5.93884 0.61606,-5.60004 0.61606,-5.60004"
       id="path3402-8-5-1"
       inkscape:connector-curvature="0" />
    <path
       style="fill:none;stroke:#9600ff;stroke-width:1.02439415px;stroke-linecap:butt;stroke-linejoin:miter;stroke-opacity:1"
       d="m 134.58213,276.49658 c -5.53909,-0.15928 -5.53909,-0.15928 -5.53909,-0.15928"
       id="path3400-9-7-0"
       inkscape:connector-curvature="0" />
    <path
       style="fill:none;stroke:#9600ff;stroke-width:1.02439415px;stroke-linecap:butt;stroke-linejoin:miter;stroke-opacity:1"
       d="m 129.15726,276.54202 c 2.77215,-5.28835 2.68366,-4.9585 2.68366,-4.9585"
       id="path3402-8-5-5"
       inkscape:connector-curvature="0" />
  </g>
</svg>
