<?xml version="1.0" encoding="UTF-8" standalone="no"?>
<!-- Created with Inkscape (http://www.inkscape.org/) -->

<svg
   xmlns:dc="http://purl.org/dc/elements/1.1/"
   xmlns:cc="http://creativecommons.org/ns#"
   xmlns:rdf="http://www.w3.org/1999/02/22-rdf-syntax-ns#"
   xmlns:svg="http://www.w3.org/2000/svg"
   xmlns="http://www.w3.org/2000/svg"
   xmlns:sodipodi="http://sodipodi.sourceforge.net/DTD/sodipodi-0.dtd"
   xmlns:inkscape="http://www.inkscape.org/namespaces/inkscape"
   width="744.09448819"
   height="1052.3622047"
   id="svg5022"
   version="1.1"
   inkscape:version="0.48.4 r9939"
   sodipodi:docname="rep_implicita.svg">
  <defs
     id="defs5024" />
  <sodipodi:namedview
     id="base"
     pagecolor="#ffffff"
     bordercolor="#666666"
     borderopacity="1.0"
     inkscape:pageopacity="0.0"
     inkscape:pageshadow="2"
     inkscape:zoom="3.688125"
     inkscape:cx="248.41168"
     inkscape:cy="765.72652"
     inkscape:document-units="px"
     inkscape:current-layer="layer1"
     showgrid="false"
     inkscape:window-width="1851"
     inkscape:window-height="1053"
     inkscape:window-x="69"
     inkscape:window-y="27"
     inkscape:window-maximized="1" />
  <metadata
     id="metadata5027">
    <rdf:RDF>
      <cc:Work
         rdf:about="">
        <dc:format>image/svg+xml</dc:format>
        <dc:type
           rdf:resource="http://purl.org/dc/dcmitype/StillImage" />
        <dc:title />
      </cc:Work>
    </rdf:RDF>
  </metadata>
  <g
     inkscape:label="Layer 1"
     inkscape:groupmode="layer"
     id="layer1">
    <path
       sodipodi:type="arc"
       style="fill:#000000;fill-opacity:1;stroke:#000000;stroke-width:1.58500004;stroke-miterlimit:4;stroke-opacity:0;stroke-dasharray:none;stroke-dashoffset:0"
       id="path2985-5-97"
       sodipodi:cx="112.85714"
       sodipodi:cy="152.00504"
       sodipodi:rx="55.714287"
       sodipodi:ry="66.785713"
       d="m 168.57143,152.00504 a 55.714287,66.785713 0 1 1 -111.428577,0 55.714287,66.785713 0 1 1 111.428577,0 z"
       transform="matrix(0.03846054,0,0,0.03215121,57.194567,182.28857)" />
    <path
       sodipodi:type="arc"
       style="fill:#000000;fill-opacity:1;stroke:#000000;stroke-width:1.58500004;stroke-miterlimit:4;stroke-opacity:0;stroke-dasharray:none;stroke-dashoffset:0"
       id="path2985-5-0-8"
       sodipodi:cx="112.85714"
       sodipodi:cy="152.00504"
       sodipodi:rx="55.714287"
       sodipodi:ry="66.785713"
       d="m 168.57143,152.00504 a 55.714287,66.785713 0 1 1 -111.428577,0 55.714287,66.785713 0 1 1 111.428577,0 z"
       transform="matrix(0.03846054,0,0,0.03215121,81.861073,182.28857)" />
    <path
       style="fill:none;stroke:#000000;stroke-width:0.50132072px;stroke-linecap:butt;stroke-linejoin:miter;stroke-opacity:1"
       d="m 61.236431,187.27752 c 24.611553,0 24.611553,0 24.611553,0"
       id="path3156-5"
       inkscape:connector-curvature="0" />
    <path
       sodipodi:type="arc"
       style="fill:#000000;fill-opacity:1;stroke:#000000;stroke-width:1.58500004;stroke-miterlimit:4;stroke-opacity:0;stroke-dasharray:none;stroke-dashoffset:0"
       id="path2985-5-2-6"
       sodipodi:cx="112.85714"
       sodipodi:cy="152.00504"
       sodipodi:rx="55.714287"
       sodipodi:ry="66.785713"
       d="m 168.57143,152.00504 a 55.714287,66.785713 0 1 1 -111.428577,0 55.714287,66.785713 0 1 1 111.428577,0 z"
       transform="matrix(0.0382098,0,0,0.03219272,106.8724,205.41092)" />
    <path
       sodipodi:type="arc"
       style="fill:#000000;fill-opacity:1;stroke:#000000;stroke-width:1.58500004;stroke-miterlimit:4;stroke-opacity:0;stroke-dasharray:none;stroke-dashoffset:0"
       id="path2985-5-0-0-0"
       sodipodi:cx="112.85714"
       sodipodi:cy="152.00504"
       sodipodi:rx="55.714287"
       sodipodi:ry="66.785713"
       d="m 168.57143,152.00504 a 55.714287,66.785713 0 1 1 -111.428577,0 55.714287,66.785713 0 1 1 111.428577,0 z"
       transform="matrix(0.0382098,0,0,0.03219272,131.61553,205.41092)" />
    <path
       style="fill:none;stroke:#000000;stroke-width:0.50000644px;stroke-linecap:butt;stroke-linejoin:miter;stroke-opacity:1"
       d="m 110.88787,210.32593 c 24.45111,0 24.45111,0 24.45111,0"
       id="path3156-6-0"
       inkscape:connector-curvature="0" />
    <path
       sodipodi:type="arc"
       style="fill:#000000;fill-opacity:1;stroke:#000000;stroke-width:1.58500004;stroke-miterlimit:4;stroke-opacity:0;stroke-dasharray:none;stroke-dashoffset:0"
       id="path2985-5-21-1"
       sodipodi:cx="112.85714"
       sodipodi:cy="152.00504"
       sodipodi:rx="55.714287"
       sodipodi:ry="66.785713"
       d="m 168.57143,152.00504 a 55.714287,66.785713 0 1 1 -111.428577,0 55.714287,66.785713 0 1 1 111.428577,0 z"
       transform="matrix(0.03846054,0,0,0.03215121,57.194567,205.12253)" />
    <path
       sodipodi:type="arc"
       style="fill:#000000;fill-opacity:1;stroke:#000000;stroke-width:1.58500004;stroke-miterlimit:4;stroke-opacity:0;stroke-dasharray:none;stroke-dashoffset:0"
       id="path2985-5-0-6-7"
       sodipodi:cx="112.85714"
       sodipodi:cy="152.00504"
       sodipodi:rx="55.714287"
       sodipodi:ry="66.785713"
       d="m 168.57143,152.00504 a 55.714287,66.785713 0 1 1 -111.428577,0 55.714287,66.785713 0 1 1 111.428577,0 z"
       transform="matrix(0.03846054,0,0,0.03215121,81.861073,205.12253)" />
    <path
       style="fill:none;stroke:#ff0000;stroke-width:1.24385881;stroke-linecap:butt;stroke-linejoin:miter;stroke-miterlimit:4;stroke-opacity:1;stroke-dasharray:none"
       d="m 63.612441,210.1115 c 20.434435,0 20.434435,0 20.434435,0"
       id="path3156-0-0"
       inkscape:connector-curvature="0" />
    <path
       sodipodi:type="arc"
       style="fill:#000000;fill-opacity:1;stroke:#000000;stroke-width:1.58500004;stroke-miterlimit:4;stroke-opacity:0;stroke-dasharray:none;stroke-dashoffset:0"
       id="path2985-5-9-6-4"
       sodipodi:cx="112.85714"
       sodipodi:cy="152.00504"
       sodipodi:rx="55.714287"
       sodipodi:ry="66.785713"
       d="m 168.57143,152.00504 a 55.714287,66.785713 0 1 1 -111.428577,0 55.714287,66.785713 0 1 1 111.428577,0 z"
       transform="matrix(0.03846054,0,0,0.03215121,106.85807,182.44828)" />
    <path
       sodipodi:type="arc"
       style="fill:#000000;fill-opacity:1;stroke:#000000;stroke-width:1.58500004;stroke-miterlimit:4;stroke-opacity:0;stroke-dasharray:none;stroke-dashoffset:0"
       id="path2985-5-0-7-5-1"
       sodipodi:cx="112.85714"
       sodipodi:cy="152.00504"
       sodipodi:rx="55.714287"
       sodipodi:ry="66.785713"
       d="m 168.57143,152.00504 a 55.714287,66.785713 0 1 1 -111.428577,0 55.714287,66.785713 0 1 1 111.428577,0 z"
       transform="matrix(0.03846054,0,0,0.03215121,131.76203,182.44828)" />
    <path
       style="fill:none;stroke:#000000;stroke-width:0.50132072px;stroke-linecap:butt;stroke-linejoin:miter;stroke-opacity:1"
       d="m 110.89992,187.43725 c 24.61155,0 24.61155,0 24.61155,0"
       id="path3156-2-8-6"
       inkscape:connector-curvature="0" />
    <path
       sodipodi:type="arc"
       style="fill:#000000;fill-opacity:1;stroke:#000000;stroke-width:1.58500004;stroke-miterlimit:4;stroke-opacity:0;stroke-dasharray:none;stroke-dashoffset:0"
       id="path2985-5-2-7-5"
       sodipodi:cx="112.85714"
       sodipodi:cy="152.00504"
       sodipodi:rx="55.714287"
       sodipodi:ry="66.785713"
       d="m 168.57143,152.00504 a 55.714287,66.785713 0 1 1 -111.428577,0 55.714287,66.785713 0 1 1 111.428577,0 z"
       transform="matrix(0.0382098,0,0,0.03219272,156.71387,205.5475)" />
    <path
       sodipodi:type="arc"
       style="fill:#000000;fill-opacity:1;stroke:#000000;stroke-width:1.58500004;stroke-miterlimit:4;stroke-opacity:0;stroke-dasharray:none;stroke-dashoffset:0"
       id="path2985-5-9-6-8-2"
       sodipodi:cx="112.85714"
       sodipodi:cy="152.00504"
       sodipodi:rx="55.714287"
       sodipodi:ry="66.785713"
       d="m 168.57143,152.00504 a 55.714287,66.785713 0 1 1 -111.428577,0 55.714287,66.785713 0 1 1 111.428577,0 z"
       transform="matrix(0.03846054,0,0,0.03215121,156.69955,182.58486)" />
    <path
       style="fill:none;stroke:#000000;stroke-width:0.50132072px;stroke-linecap:butt;stroke-linejoin:miter;stroke-opacity:1"
       d="m 87.560595,187.41773 c 24.611555,0 24.611555,0 24.611555,0"
       id="path3156-5-9"
       inkscape:connector-curvature="0" />
    <path
       style="fill:none;stroke:#000000;stroke-width:0.50132072px;stroke-linecap:butt;stroke-linejoin:miter;stroke-opacity:1"
       d="m 135.45228,187.41373 c 24.61155,0 24.61155,0 24.61155,0"
       id="path3156-5-9-5"
       inkscape:connector-curvature="0" />
    <path
       style="fill:none;stroke:#000000;stroke-width:0.50132072px;stroke-linecap:butt;stroke-linejoin:miter;stroke-opacity:1"
       d="m 87.480606,210.1737 c 24.611554,0 24.611554,0 24.611554,0"
       id="path3156-5-9-1"
       inkscape:connector-curvature="0" />
    <path
       style="fill:none;stroke:#000000;stroke-width:0.50132072px;stroke-linecap:butt;stroke-linejoin:miter;stroke-opacity:1"
       d="m 135.68372,210.49875 c 24.61156,0 24.61156,0 24.61156,0"
       id="path3156-5-9-5-1"
       inkscape:connector-curvature="0" />
    <path
       sodipodi:type="arc"
       style="fill:#000000;fill-opacity:1;stroke:#000000;stroke-width:1.58500004;stroke-miterlimit:4;stroke-opacity:0;stroke-dasharray:none;stroke-dashoffset:0"
       id="path2985-5-97-9"
       sodipodi:cx="112.85714"
       sodipodi:cy="152.00504"
       sodipodi:rx="55.714287"
       sodipodi:ry="66.785713"
       d="m 168.57143,152.00504 a 55.714287,66.785713 0 1 1 -111.428577,0 55.714287,66.785713 0 1 1 111.428577,0 z"
       transform="matrix(0.03846054,0,0,0.03215121,57.044491,227.53321)" />
    <path
       sodipodi:type="arc"
       style="fill:#000000;fill-opacity:1;stroke:#000000;stroke-width:1.58500004;stroke-miterlimit:4;stroke-opacity:0;stroke-dasharray:none;stroke-dashoffset:0"
       id="path2985-5-0-8-5"
       sodipodi:cx="112.85714"
       sodipodi:cy="152.00504"
       sodipodi:rx="55.714287"
       sodipodi:ry="66.785713"
       d="m 168.57143,152.00504 a 55.714287,66.785713 0 1 1 -111.428577,0 55.714287,66.785713 0 1 1 111.428577,0 z"
       transform="matrix(0.03846054,0,0,0.03215121,81.710996,227.53321)" />
    <path
       style="fill:none;stroke:#000000;stroke-width:0.50132072px;stroke-linecap:butt;stroke-linejoin:miter;stroke-opacity:1"
       d="m 61.086354,232.52217 c 24.611553,0 24.611553,0 24.611553,0"
       id="path3156-5-5"
       inkscape:connector-curvature="0" />
    <path
       sodipodi:type="arc"
       style="fill:#000000;fill-opacity:1;stroke:#000000;stroke-width:1.58500004;stroke-miterlimit:4;stroke-opacity:0;stroke-dasharray:none;stroke-dashoffset:0"
       id="path2985-5-2-6-1"
       sodipodi:cx="112.85714"
       sodipodi:cy="152.00504"
       sodipodi:rx="55.714287"
       sodipodi:ry="66.785713"
       d="m 168.57143,152.00504 a 55.714287,66.785713 0 1 1 -111.428577,0 55.714287,66.785713 0 1 1 111.428577,0 z"
       transform="matrix(0.0382098,0,0,0.03219272,106.7223,250.65554)" />
    <path
       sodipodi:type="arc"
       style="fill:#000000;fill-opacity:1;stroke:#000000;stroke-width:1.58500004;stroke-miterlimit:4;stroke-opacity:0;stroke-dasharray:none;stroke-dashoffset:0"
       id="path2985-5-0-0-0-9"
       sodipodi:cx="112.85714"
       sodipodi:cy="152.00504"
       sodipodi:rx="55.714287"
       sodipodi:ry="66.785713"
       d="m 168.57143,152.00504 a 55.714287,66.785713 0 1 1 -111.428577,0 55.714287,66.785713 0 1 1 111.428577,0 z"
       transform="matrix(0.0382098,0,0,0.03219272,131.46545,250.65554)" />
    <path
       style="fill:none;stroke:#000000;stroke-width:0.50000644px;stroke-linecap:butt;stroke-linejoin:miter;stroke-opacity:1"
       d="m 110.73779,255.57059 c 24.45112,0 24.45112,0 24.45112,0"
       id="path3156-6-0-7"
       inkscape:connector-curvature="0" />
    <path
       sodipodi:type="arc"
       style="fill:#000000;fill-opacity:1;stroke:#000000;stroke-width:1.58500004;stroke-miterlimit:4;stroke-opacity:0;stroke-dasharray:none;stroke-dashoffset:0"
       id="path2985-5-21-1-6"
       sodipodi:cx="112.85714"
       sodipodi:cy="152.00504"
       sodipodi:rx="55.714287"
       sodipodi:ry="66.785713"
       d="m 168.57143,152.00504 a 55.714287,66.785713 0 1 1 -111.428577,0 55.714287,66.785713 0 1 1 111.428577,0 z"
       transform="matrix(0.03846054,0,0,0.03215121,57.044491,250.36717)" />
    <path
       sodipodi:type="arc"
       style="fill:#000000;fill-opacity:1;stroke:#000000;stroke-width:1.58500004;stroke-miterlimit:4;stroke-opacity:0;stroke-dasharray:none;stroke-dashoffset:0"
       id="path2985-5-0-6-7-6"
       sodipodi:cx="112.85714"
       sodipodi:cy="152.00504"
       sodipodi:rx="55.714287"
       sodipodi:ry="66.785713"
       d="m 168.57143,152.00504 a 55.714287,66.785713 0 1 1 -111.428577,0 55.714287,66.785713 0 1 1 111.428577,0 z"
       transform="matrix(0.03846054,0,0,0.03215121,81.710996,250.36717)" />
    <path
       style="fill:none;stroke:#000000;stroke-width:0.50132072px;stroke-linecap:butt;stroke-linejoin:miter;stroke-opacity:1"
       d="m 61.086354,255.35614 c 24.611553,0 24.611553,0 24.611553,0"
       id="path3156-0-0-9"
       inkscape:connector-curvature="0" />
    <path
       sodipodi:type="arc"
       style="fill:#000000;fill-opacity:1;stroke:#000000;stroke-width:1.58500004;stroke-miterlimit:4;stroke-opacity:0;stroke-dasharray:none;stroke-dashoffset:0"
       id="path2985-5-9-6-4-1"
       sodipodi:cx="112.85714"
       sodipodi:cy="152.00504"
       sodipodi:rx="55.714287"
       sodipodi:ry="66.785713"
       d="m 168.57143,152.00504 a 55.714287,66.785713 0 1 1 -111.428577,0 55.714287,66.785713 0 1 1 111.428577,0 z"
       transform="matrix(0.03846054,0,0,0.03215121,106.70797,227.69293)" />
    <path
       sodipodi:type="arc"
       style="fill:#000000;fill-opacity:1;stroke:#000000;stroke-width:1.58500004;stroke-miterlimit:4;stroke-opacity:0;stroke-dasharray:none;stroke-dashoffset:0"
       id="path2985-5-0-7-5-1-2"
       sodipodi:cx="112.85714"
       sodipodi:cy="152.00504"
       sodipodi:rx="55.714287"
       sodipodi:ry="66.785713"
       d="m 168.57143,152.00504 a 55.714287,66.785713 0 1 1 -111.428577,0 55.714287,66.785713 0 1 1 111.428577,0 z"
       transform="matrix(0.03846054,0,0,0.03215121,131.61196,227.69293)" />
    <path
       style="fill:none;stroke:#000000;stroke-width:0.50132072px;stroke-linecap:butt;stroke-linejoin:miter;stroke-opacity:1"
       d="m 110.74984,232.68188 c 24.61154,0 24.61154,0 24.61154,0"
       id="path3156-2-8-6-4"
       inkscape:connector-curvature="0" />
    <path
       sodipodi:type="arc"
       style="fill:#000000;fill-opacity:1;stroke:#000000;stroke-width:1.58500004;stroke-miterlimit:4;stroke-opacity:0;stroke-dasharray:none;stroke-dashoffset:0"
       id="path2985-5-2-7-5-5"
       sodipodi:cx="112.85714"
       sodipodi:cy="152.00504"
       sodipodi:rx="55.714287"
       sodipodi:ry="66.785713"
       d="m 168.57143,152.00504 a 55.714287,66.785713 0 1 1 -111.428577,0 55.714287,66.785713 0 1 1 111.428577,0 z"
       transform="matrix(0.0382098,0,0,0.03219272,156.67815,250.79213)" />
    <path
       sodipodi:type="arc"
       style="fill:#000000;fill-opacity:1;stroke:#000000;stroke-width:1.58500004;stroke-miterlimit:4;stroke-opacity:0;stroke-dasharray:none;stroke-dashoffset:0"
       id="path2985-5-9-6-8-2-0"
       sodipodi:cx="112.85714"
       sodipodi:cy="152.00504"
       sodipodi:rx="55.714287"
       sodipodi:ry="66.785713"
       d="m 168.57143,152.00504 a 55.714287,66.785713 0 1 1 -111.428577,0 55.714287,66.785713 0 1 1 111.428577,0 z"
       transform="matrix(0.03846054,0,0,0.03215121,156.66383,227.82952)" />
    <path
       style="fill:none;stroke:#000000;stroke-width:0.50132072px;stroke-linecap:butt;stroke-linejoin:miter;stroke-opacity:1"
       d="m 87.410517,232.66237 c 24.611553,0 24.611553,0 24.611553,0"
       id="path3156-5-9-59"
       inkscape:connector-curvature="0" />
    <path
       style="fill:none;stroke:#000000;stroke-width:0.50132072px;stroke-linecap:butt;stroke-linejoin:miter;stroke-opacity:1"
       d="m 135.41658,232.65837 c 24.61155,0 24.61155,0 24.61155,0"
       id="path3156-5-9-5-3"
       inkscape:connector-curvature="0" />
    <path
       style="fill:none;stroke:#000000;stroke-width:0.50132072px;stroke-linecap:butt;stroke-linejoin:miter;stroke-opacity:1"
       d="m 87.330528,255.41834 c 24.611562,0 24.611562,0 24.611562,0"
       id="path3156-5-9-1-2"
       inkscape:connector-curvature="0" />
    <path
       style="fill:none;stroke:#000000;stroke-width:0.50132072px;stroke-linecap:butt;stroke-linejoin:miter;stroke-opacity:1"
       d="m 135.64802,255.7434 c 24.61156,0 24.61156,0 24.61156,0"
       id="path3156-5-9-5-1-5"
       inkscape:connector-curvature="0" />
    <path
       sodipodi:type="arc"
       style="fill:#000000;fill-opacity:1;stroke:#000000;stroke-width:1.58500004;stroke-miterlimit:4;stroke-opacity:0;stroke-dasharray:none;stroke-dashoffset:0"
       id="path2985-5-2-6-1-1"
       sodipodi:cx="112.85714"
       sodipodi:cy="152.00504"
       sodipodi:rx="55.714287"
       sodipodi:ry="66.785713"
       d="m 168.57143,152.00504 a 55.714287,66.785713 0 1 1 -111.428577,0 55.714287,66.785713 0 1 1 111.428577,0 z"
       transform="matrix(0.0382098,0,0,0.03219272,106.7223,274.07184)" />
    <path
       sodipodi:type="arc"
       style="fill:#000000;fill-opacity:1;stroke:#000000;stroke-width:1.58500004;stroke-miterlimit:4;stroke-opacity:0;stroke-dasharray:none;stroke-dashoffset:0"
       id="path2985-5-0-0-0-9-3"
       sodipodi:cx="112.85714"
       sodipodi:cy="152.00504"
       sodipodi:rx="55.714287"
       sodipodi:ry="66.785713"
       d="m 168.57143,152.00504 a 55.714287,66.785713 0 1 1 -111.428577,0 55.714287,66.785713 0 1 1 111.428577,0 z"
       transform="matrix(0.0382098,0,0,0.03219272,131.46545,274.07184)" />
    <path
       style="fill:none;stroke:#ff0000;stroke-width:1.2486136;stroke-linecap:butt;stroke-linejoin:miter;stroke-miterlimit:4;stroke-opacity:1;stroke-dasharray:none"
       d="m 113.11825,278.98688 c 20.45673,0 20.45673,0 20.45673,0"
       id="path3156-6-0-7-0"
       inkscape:connector-curvature="0" />
    <path
       sodipodi:type="arc"
       style="fill:#000000;fill-opacity:1;stroke:#000000;stroke-width:1.58500004;stroke-miterlimit:4;stroke-opacity:0;stroke-dasharray:none;stroke-dashoffset:0"
       id="path2985-5-21-1-6-6"
       sodipodi:cx="112.85714"
       sodipodi:cy="152.00504"
       sodipodi:rx="55.714287"
       sodipodi:ry="66.785713"
       d="m 168.57143,152.00504 a 55.714287,66.785713 0 1 1 -111.428577,0 55.714287,66.785713 0 1 1 111.428577,0 z"
       transform="matrix(0.03846054,0,0,0.03215121,57.044491,273.78347)" />
    <path
       sodipodi:type="arc"
       style="fill:#000000;fill-opacity:1;stroke:#000000;stroke-width:1.58500004;stroke-miterlimit:4;stroke-opacity:0;stroke-dasharray:none;stroke-dashoffset:0"
       id="path2985-5-0-6-7-6-4"
       sodipodi:cx="112.85714"
       sodipodi:cy="152.00504"
       sodipodi:rx="55.714287"
       sodipodi:ry="66.785713"
       d="m 168.57143,152.00504 a 55.714287,66.785713 0 1 1 -111.428577,0 55.714287,66.785713 0 1 1 111.428577,0 z"
       transform="matrix(0.03846054,0,0,0.03215121,81.710996,273.78347)" />
    <path
       style="fill:none;stroke:#000000;stroke-width:0.50132072px;stroke-linecap:butt;stroke-linejoin:miter;stroke-opacity:1"
       d="m 61.086354,278.77245 c 24.611553,0 24.611553,0 24.611553,0"
       id="path3156-0-0-9-1"
       inkscape:connector-curvature="0" />
    <path
       sodipodi:type="arc"
       style="fill:#000000;fill-opacity:1;stroke:#000000;stroke-width:1.58500004;stroke-miterlimit:4;stroke-opacity:0;stroke-dasharray:none;stroke-dashoffset:0"
       id="path2985-5-2-7-5-5-0"
       sodipodi:cx="112.85714"
       sodipodi:cy="152.00504"
       sodipodi:rx="55.714287"
       sodipodi:ry="66.785713"
       d="m 168.57143,152.00504 a 55.714287,66.785713 0 1 1 -111.428577,0 55.714287,66.785713 0 1 1 111.428577,0 z"
       transform="matrix(0.0382098,0,0,0.03219272,156.67815,274.20845)" />
    <path
       style="fill:none;stroke:#ff0000;stroke-width:1.25496149;stroke-linecap:butt;stroke-linejoin:miter;stroke-miterlimit:4;stroke-opacity:1;stroke-dasharray:none"
       d="m 87.993096,278.83464 c 20.800864,0 20.800864,0 20.800864,0"
       id="path3156-5-9-1-2-1"
       inkscape:connector-curvature="0" />
    <path
       style="fill:none;stroke:#000000;stroke-width:0.50132072px;stroke-linecap:butt;stroke-linejoin:miter;stroke-opacity:1"
       d="m 135.26475,279.1597 c 24.61156,0 24.61156,0 24.61156,0"
       id="path3156-5-9-5-1-5-2"
       inkscape:connector-curvature="0" />
    <path
       style="fill:none;stroke:#000000;stroke-width:0.50157076;stroke-linecap:butt;stroke-linejoin:miter;stroke-miterlimit:4;stroke-opacity:1;stroke-dasharray:none"
       d="m 61.159524,255.07454 c 0,23.48304 0,23.48304 0,23.48304"
       id="path3568"
       inkscape:connector-curvature="0" />
    <path
       style="fill:none;stroke:#000000;stroke-width:0.78004771px;stroke-linecap:butt;stroke-linejoin:miter;stroke-opacity:1"
       d="m 61.319587,187.21125 c 0,22.275 0,22.275 0,22.275"
       id="path3135"
       inkscape:connector-curvature="0" />
    <path
       style="fill:none;stroke:#ff0000;stroke-width:1.28874159;stroke-linecap:butt;stroke-linejoin:miter;stroke-miterlimit:4;stroke-opacity:1;stroke-dasharray:none"
       d="m 86.040282,189.11764 c 0,18.6647 0,18.6647 0,18.6647"
       id="path3135-1"
       inkscape:connector-curvature="0" />
    <path
       style="fill:none;stroke:#000000;stroke-width:0.78004771px;stroke-linecap:butt;stroke-linejoin:miter;stroke-opacity:1"
       d="m 111.11401,188.42624 c 0,22.27502 0,22.27502 0,22.27502"
       id="path3135-7"
       inkscape:connector-curvature="0" />
    <path
       style="fill:none;stroke:#000000;stroke-width:0.78004771px;stroke-linecap:butt;stroke-linejoin:miter;stroke-opacity:1"
       d="m 136.07219,188.22374 c 0,22.27501 0,22.27501 0,22.27501"
       id="path3135-8"
       inkscape:connector-curvature="0" />
    <path
       style="fill:none;stroke:#000000;stroke-width:0.78004771px;stroke-linecap:butt;stroke-linejoin:miter;stroke-opacity:1"
       d="m 161.02264,188.22374 c 0,22.27501 0,22.27501 0,22.27501"
       id="path3135-3"
       inkscape:connector-curvature="0" />
    <path
       style="fill:none;stroke:#000000;stroke-width:0.78004771px;stroke-linecap:butt;stroke-linejoin:miter;stroke-opacity:1"
       d="m 61.319588,209.68875 c 0,22.27502 0,22.27502 0,22.27502"
       id="path3135-9"
       inkscape:connector-curvature="0" />
    <path
       style="fill:none;stroke:#000000;stroke-width:0.78004771px;stroke-linecap:butt;stroke-linejoin:miter;stroke-opacity:1"
       d="m 61.319587,232.36878 c 0,22.275 0,22.275 0,22.275"
       id="path3135-86"
       inkscape:connector-curvature="0" />
    <path
       style="fill:none;stroke:#000000;stroke-width:0.78004771px;stroke-linecap:butt;stroke-linejoin:miter;stroke-opacity:1"
       d="m 161.02264,210.70126 c 0,22.27501 0,22.27501 0,22.27501"
       id="path3135-32"
       inkscape:connector-curvature="0" />
    <path
       style="fill:none;stroke:#ff0000;stroke-width:1.2365936;stroke-linecap:butt;stroke-linejoin:miter;stroke-miterlimit:4;stroke-opacity:1;stroke-dasharray:none"
       d="m 136.07219,212.19298 c 0,18.27906 0,18.27906 0,18.27906"
       id="path3135-0"
       inkscape:connector-curvature="0" />
    <path
       style="fill:none;stroke:#000000;stroke-width:0.78004771px;stroke-linecap:butt;stroke-linejoin:miter;stroke-opacity:1"
       d="m 111.114,211.30877 c 0,22.275 0,22.275 0,22.275"
       id="path3135-6"
       inkscape:connector-curvature="0" />
    <path
       style="fill:none;stroke:#000000;stroke-width:0.78004771px;stroke-linecap:butt;stroke-linejoin:miter;stroke-opacity:1"
       d="m 86.040281,210.90376 c 0,22.275 0,22.275 0,22.275"
       id="path3135-62"
       inkscape:connector-curvature="0" />
    <path
       style="fill:none;stroke:#000000;stroke-width:0.78004771px;stroke-linecap:butt;stroke-linejoin:miter;stroke-opacity:1"
       d="m 85.848648,232.57127 c 0,22.27501 0,22.27501 0,22.27501"
       id="path3135-5"
       inkscape:connector-curvature="0" />
    <path
       style="fill:none;stroke:#000000;stroke-width:0.78004771px;stroke-linecap:butt;stroke-linejoin:miter;stroke-opacity:1"
       d="m 111.11401,233.17876 c 0,22.27503 0,22.27503 0,22.27503"
       id="path3135-05"
       inkscape:connector-curvature="0" />
    <path
       style="fill:none;stroke:#ff0000;stroke-width:1.27461231;stroke-linecap:butt;stroke-linejoin:miter;stroke-miterlimit:4;stroke-opacity:1;stroke-dasharray:none"
       d="m 110.92239,257.58991 c 0,19.42027 0,19.42027 0,19.42027"
       id="path3135-00"
       inkscape:connector-curvature="0" />
    <path
       style="fill:none;stroke:#000000;stroke-width:0.78004771px;stroke-linecap:butt;stroke-linejoin:miter;stroke-opacity:1"
       d="m 85.848648,255.85879 c 0,22.275 0,22.275 0,22.275"
       id="path3135-37"
       inkscape:connector-curvature="0" />
    <path
       style="fill:none;stroke:#000000;stroke-width:0.78004771px;stroke-linecap:butt;stroke-linejoin:miter;stroke-opacity:1"
       d="m 135.88056,233.58377 c 0,22.27502 0,22.27502 0,22.27502"
       id="path3135-14"
       inkscape:connector-curvature="0" />
    <path
       style="fill:none;stroke:#000000;stroke-width:0.78004771px;stroke-linecap:butt;stroke-linejoin:miter;stroke-opacity:1"
       d="m 135.6889,256.4663 c 0,22.27501 0,22.27501 0,22.27501"
       id="path3135-50"
       inkscape:connector-curvature="0" />
    <path
       style="fill:none;stroke:#000000;stroke-width:0.78004771px;stroke-linecap:butt;stroke-linejoin:miter;stroke-opacity:1"
       d="m 161.02264,232.77378 c 0,22.275 0,22.275 0,22.275"
       id="path3135-60"
       inkscape:connector-curvature="0" />
    <path
       style="fill:none;stroke:#000000;stroke-width:0.78004771px;stroke-linecap:butt;stroke-linejoin:miter;stroke-opacity:1"
       d="m 161.02264,256.6688 c 0,22.27503 0,22.27503 0,22.27503"
       id="path3135-98"
       inkscape:connector-curvature="0" />
    <text
       xml:space="preserve"
       style="font-size:9.80959511px;font-style:normal;font-weight:normal;line-height:125%;letter-spacing:0px;word-spacing:0px;fill:#000000;fill-opacity:1;stroke:none;font-family:Sans"
       x="39.887642"
       y="309.74426"
       id="text3047"
       sodipodi:linespacing="125%"
       transform="scale(0.97105537,1.0298074)"><tspan
         sodipodi:role="line"
         id="tspan3049"
         x="39.887642"
         y="309.74426">Representaci'on tradicional</tspan></text>
    <text
       xml:space="preserve"
       style="font-size:9.80959511px;font-style:normal;font-weight:normal;line-height:125%;letter-spacing:0px;word-spacing:0px;fill:#000000;fill-opacity:1;stroke:none;font-family:Sans"
       x="47.997387"
       y="328.55173"
       id="text3051"
       sodipodi:linespacing="125%"
       transform="scale(0.97105537,1.0298074)"><tspan
         sodipodi:role="line"
         id="tspan3053"
         x="47.997387"
         y="328.55173">Espacio $\sim |V| + |E| + |X|$</tspan></text>
    <path
       style="fill:none;stroke:#ff0000;stroke-width:1.24385881;stroke-linecap:butt;stroke-linejoin:miter;stroke-miterlimit:4;stroke-opacity:1;stroke-dasharray:none"
       d="m 254.92851,210.11152 c 20.43443,0 20.43443,0 20.43443,0"
       id="path3156-0-0-7"
       inkscape:connector-curvature="0" />
    <path
       style="fill:none;stroke:#ff0000;stroke-width:1.2486136;stroke-linecap:butt;stroke-linejoin:miter;stroke-miterlimit:4;stroke-opacity:1;stroke-dasharray:none"
       d="m 304.43432,278.9869 c 20.45672,0 20.45672,0 20.45672,0"
       id="path3156-6-0-7-0-4"
       inkscape:connector-curvature="0" />
    <path
       style="fill:none;stroke:#ff0000;stroke-width:1.25496149;stroke-linecap:butt;stroke-linejoin:miter;stroke-miterlimit:4;stroke-opacity:1;stroke-dasharray:none"
       d="m 279.30916,278.83466 c 20.80087,0 20.80087,0 20.80087,0"
       id="path3156-5-9-1-2-1-0"
       inkscape:connector-curvature="0" />
    <path
       style="fill:none;stroke:#ff0000;stroke-width:1.28874159;stroke-linecap:butt;stroke-linejoin:miter;stroke-miterlimit:4;stroke-opacity:1;stroke-dasharray:none"
       d="m 277.35636,189.11766 c 0,18.6647 0,18.6647 0,18.6647"
       id="path3135-1-1"
       inkscape:connector-curvature="0" />
    <path
       style="fill:none;stroke:#ff0000;stroke-width:1.2365936;stroke-linecap:butt;stroke-linejoin:miter;stroke-miterlimit:4;stroke-opacity:1;stroke-dasharray:none"
       d="m 327.38825,212.193 c 0,18.27906 0,18.27906 0,18.27906"
       id="path3135-0-0"
       inkscape:connector-curvature="0" />
    <path
       style="fill:none;stroke:#ff0000;stroke-width:1.27461231;stroke-linecap:butt;stroke-linejoin:miter;stroke-miterlimit:4;stroke-opacity:1;stroke-dasharray:none"
       d="m 302.23845,257.58993 c 0,19.42027 0,19.42027 0,19.42027"
       id="path3135-00-5"
       inkscape:connector-curvature="0" />
    <text
       xml:space="preserve"
       style="font-size:9.80959511px;font-style:normal;font-weight:normal;line-height:125%;letter-spacing:0px;word-spacing:0px;fill:#000000;fill-opacity:1;stroke:none;font-family:Sans"
       x="238.45097"
       y="309.74426"
       id="text3047-0"
       sodipodi:linespacing="125%"
       transform="scale(0.97105537,1.0298074)"><tspan
         sodipodi:role="line"
         id="tspan3049-7"
         x="238.45097"
         y="309.74426">Representaci'on impl'icita</tspan></text>
    <text
       xml:space="preserve"
       style="font-size:9.80959511px;font-style:normal;font-weight:normal;line-height:125%;letter-spacing:0px;word-spacing:0px;fill:#000000;fill-opacity:1;stroke:none;font-family:Sans"
       x="254.38728"
       y="328.55173"
       id="text3051-1"
       sodipodi:linespacing="125%"
       transform="scale(0.97105537,1.0298074)"><tspan
         sodipodi:role="line"
         id="tspan3053-4"
         x="254.38728"
         y="328.55173">Espacio $\sim 1 + |X|$ </tspan></text>
    <path
       style="fill:none;stroke:#000000;stroke-width:0.81746626px;stroke-linecap:butt;stroke-linejoin:miter;stroke-opacity:1"
       d="m 244.27467,187.24473 c 0,92.96676 0,92.96676 0,92.96676"
       id="path3277"
       inkscape:connector-curvature="0" />
    <path
       style="fill:none;stroke:#000000;stroke-width:0.83740771px;stroke-linecap:butt;stroke-linejoin:miter;stroke-opacity:1"
       d="m 246.46161,276.54132 c -2.31469,3.96446 -2.31469,3.96446 -2.31469,3.96446"
       id="path3400-9-7-3"
       inkscape:connector-curvature="0" />
    <path
       style="fill:none;stroke:#000000;stroke-width:0.83740771px;stroke-linecap:butt;stroke-linejoin:miter;stroke-opacity:1"
       d="m 244.33324,280.50879 c -2.53474,-4.24293 -2.34302,-4.03973 -2.34302,-4.03973"
       id="path3402-8-5-1"
       inkscape:connector-curvature="0" />
    <path
       style="fill:none;stroke:#000000;stroke-width:0.83740771px;stroke-linecap:butt;stroke-linejoin:miter;stroke-opacity:1"
       d="m 241.93792,191.08482 c 2.38238,-3.91909 2.38238,-3.91909 2.38238,-3.91909"
       id="path3400-9-7-3-7"
       inkscape:connector-curvature="0" />
    <path
       style="fill:none;stroke:#000000;stroke-width:0.83740771px;stroke-linecap:butt;stroke-linejoin:miter;stroke-opacity:1"
       d="m 244.13405,187.15913 c 2.46147,4.29116 2.27327,4.08429 2.27327,4.08429"
       id="path3402-8-5-1-5"
       inkscape:connector-curvature="0" />
    <path
       style="fill:none;stroke:#000000;stroke-width:0.83404726px;stroke-linecap:butt;stroke-linejoin:miter;stroke-opacity:1"
       d="m 347.85347,290.29676 c -91.58714,0.002 -91.58714,0.002 -91.58714,0.002"
       id="path3277-2"
       inkscape:connector-curvature="0" />
    <path
       style="fill:none;stroke:#000000;stroke-width:0.85439324px;stroke-linecap:butt;stroke-linejoin:miter;stroke-opacity:1"
       d="m 259.88206,292.60897 c -3.90567,-2.44577 -3.90567,-2.44577 -3.90567,-2.44577"
       id="path3400-9-7-3-9"
       inkscape:connector-curvature="0" />
    <path
       style="fill:none;stroke:#000000;stroke-width:0.85439324px;stroke-linecap:butt;stroke-linejoin:miter;stroke-opacity:1"
       d="m 255.97345,290.36008 c 4.17993,-2.67844 3.97973,-2.47584 3.97973,-2.47584"
       id="path3402-8-5-1-0"
       inkscape:connector-curvature="0" />
    <path
       style="fill:none;stroke:#000000;stroke-width:0.85439324px;stroke-linecap:butt;stroke-linejoin:miter;stroke-opacity:1"
       d="m 344.07031,287.82767 c 3.86098,2.5173 3.86098,2.5173 3.86098,2.5173"
       id="path3400-9-7-3-7-5"
       inkscape:connector-curvature="0" />
    <path
       style="fill:none;stroke:#000000;stroke-width:0.85439324px;stroke-linecap:butt;stroke-linejoin:miter;stroke-opacity:1"
       d="m 347.93779,290.14818 c -4.22746,2.60099 -4.02367,2.40213 -4.02367,2.40213"
       id="path3402-8-5-1-5-8"
       inkscape:connector-curvature="0" />
    <text
       xml:space="preserve"
       style="font-size:9.80959511px;font-style:normal;font-weight:normal;line-height:125%;letter-spacing:0px;word-spacing:0px;fill:#000000;fill-opacity:1;stroke:none;font-family:Sans"
       x="235.88295"
       y="229.46906"
       id="text3341"
       sodipodi:linespacing="125%"
       transform="scale(0.97105535,1.0298074)"><tspan
         sodipodi:role="line"
         id="tspan3343"
         x="235.88295"
         y="229.46906">$n$</tspan></text>
    <text
       xml:space="preserve"
       style="font-size:9.80959511px;font-style:normal;font-weight:normal;line-height:125%;letter-spacing:0px;word-spacing:0px;fill:#000000;fill-opacity:1;stroke:none;font-family:Sans"
       x="305.53381"
       y="294.62921"
       id="text3345"
       sodipodi:linespacing="125%"
       transform="scale(0.97105535,1.0298074)"><tspan
         sodipodi:role="line"
         id="tspan3347"
         x="305.53381"
         y="294.62921">$m$</tspan></text>
    <path
       sodipodi:type="arc"
       style="fill:#000000;fill-opacity:1;stroke:#000000;stroke-width:1.58500004;stroke-miterlimit:4;stroke-opacity:0;stroke-dasharray:none;stroke-dashoffset:0"
       id="path2985-5-97-6"
       sodipodi:cx="112.85714"
       sodipodi:cy="152.00504"
       sodipodi:rx="55.714287"
       sodipodi:ry="66.785713"
       d="m 168.57143,152.00504 a 55.714287,66.785713 0 1 1 -111.428577,0 55.714287,66.785713 0 1 1 111.428577,0 z"
       transform="matrix(0.03846054,0,0,0.03215121,248.36239,205.31269)" />
    <path
       sodipodi:type="arc"
       style="fill:#000000;fill-opacity:1;stroke:#000000;stroke-width:1.58500004;stroke-miterlimit:4;stroke-opacity:0;stroke-dasharray:none;stroke-dashoffset:0"
       id="path2985-5-97-0"
       sodipodi:cx="112.85714"
       sodipodi:cy="152.00504"
       sodipodi:rx="55.714287"
       sodipodi:ry="66.785713"
       d="m 168.57143,152.00504 a 55.714287,66.785713 0 1 1 -111.428577,0 55.714287,66.785713 0 1 1 111.428577,0 z"
       transform="matrix(0.03846054,0,0,0.03215121,273.03617,205.04155)" />
    <path
       sodipodi:type="arc"
       style="fill:#000000;fill-opacity:1;stroke:#000000;stroke-width:1.58500004;stroke-miterlimit:4;stroke-opacity:0;stroke-dasharray:none;stroke-dashoffset:0"
       id="path2985-5-97-4"
       sodipodi:cx="112.85714"
       sodipodi:cy="152.00504"
       sodipodi:rx="55.714287"
       sodipodi:ry="66.785713"
       d="m 168.57143,152.00504 a 55.714287,66.785713 0 1 1 -111.428577,0 55.714287,66.785713 0 1 1 111.428577,0 z"
       transform="matrix(0.03846054,0,0,0.03215121,272.76503,182.26575)" />
    <path
       sodipodi:type="arc"
       style="fill:#000000;fill-opacity:1;stroke:#000000;stroke-width:1.58500004;stroke-miterlimit:4;stroke-opacity:0;stroke-dasharray:none;stroke-dashoffset:0"
       id="path2985-5-97-3"
       sodipodi:cx="112.85714"
       sodipodi:cy="152.00504"
       sodipodi:rx="55.714287"
       sodipodi:ry="66.785713"
       d="m 168.57143,152.00504 a 55.714287,66.785713 0 1 1 -111.428577,0 55.714287,66.785713 0 1 1 111.428577,0 z"
       transform="matrix(0.03846054,0,0,0.03215121,322.92602,205.04155)" />
    <path
       sodipodi:type="arc"
       style="fill:#000000;fill-opacity:1;stroke:#000000;stroke-width:1.58500004;stroke-miterlimit:4;stroke-opacity:0;stroke-dasharray:none;stroke-dashoffset:0"
       id="path2985-5-97-2"
       sodipodi:cx="112.85714"
       sodipodi:cy="152.00504"
       sodipodi:rx="55.714287"
       sodipodi:ry="66.785713"
       d="m 168.57143,152.00504 a 55.714287,66.785713 0 1 1 -111.428577,0 55.714287,66.785713 0 1 1 111.428577,0 z"
       transform="matrix(0.03846054,0,0,0.03215121,323.19716,227.54621)" />
    <path
       sodipodi:type="arc"
       style="fill:#000000;fill-opacity:1;stroke:#000000;stroke-width:1.58500004;stroke-miterlimit:4;stroke-opacity:0;stroke-dasharray:none;stroke-dashoffset:0"
       id="path2985-5-97-7"
       sodipodi:cx="112.85714"
       sodipodi:cy="152.00504"
       sodipodi:rx="55.714287"
       sodipodi:ry="66.785713"
       d="m 168.57143,152.00504 a 55.714287,66.785713 0 1 1 -111.428577,0 55.714287,66.785713 0 1 1 111.428577,0 z"
       transform="matrix(0.03846054,0,0,0.03215121,297.70995,250.32201)" />
    <path
       sodipodi:type="arc"
       style="fill:#000000;fill-opacity:1;stroke:#000000;stroke-width:1.58500004;stroke-miterlimit:4;stroke-opacity:0;stroke-dasharray:none;stroke-dashoffset:0"
       id="path2985-5-97-1"
       sodipodi:cx="112.85714"
       sodipodi:cy="152.00504"
       sodipodi:rx="55.714287"
       sodipodi:ry="66.785713"
       d="m 168.57143,152.00504 a 55.714287,66.785713 0 1 1 -111.428577,0 55.714287,66.785713 0 1 1 111.428577,0 z"
       transform="matrix(0.03846054,0,0,0.03215121,298.00976,273.91123)" />
    <path
       sodipodi:type="arc"
       style="fill:#000000;fill-opacity:1;stroke:#000000;stroke-width:1.58500004;stroke-miterlimit:4;stroke-opacity:0;stroke-dasharray:none;stroke-dashoffset:0"
       id="path2985-5-97-34"
       sodipodi:cx="112.85714"
       sodipodi:cy="152.00504"
       sodipodi:rx="55.714287"
       sodipodi:ry="66.785713"
       d="m 168.57143,152.00504 a 55.714287,66.785713 0 1 1 -111.428577,0 55.714287,66.785713 0 1 1 111.428577,0 z"
       transform="matrix(0.03846054,0,0,0.03215121,322.65488,273.91123)" />
    <path
       sodipodi:type="arc"
       style="fill:#000000;fill-opacity:1;stroke:#000000;stroke-width:1.58500004;stroke-miterlimit:4;stroke-opacity:0;stroke-dasharray:none;stroke-dashoffset:0"
       id="path2985-5-97-5"
       sodipodi:cx="112.85714"
       sodipodi:cy="152.00504"
       sodipodi:rx="55.714287"
       sodipodi:ry="66.785713"
       d="m 168.57143,152.00504 a 55.714287,66.785713 0 1 1 -111.428577,0 55.714287,66.785713 0 1 1 111.428577,0 z"
       transform="matrix(0.03846054,0,0,0.03215121,273.03617,274.18238)" />
  </g>
</svg>
