<?xml version="1.0" encoding="UTF-8" standalone="no"?>
<!-- Created with Inkscape (http://www.inkscape.org/) -->

<svg
   xmlns:dc="http://purl.org/dc/elements/1.1/"
   xmlns:cc="http://creativecommons.org/ns#"
   xmlns:rdf="http://www.w3.org/1999/02/22-rdf-syntax-ns#"
   xmlns:svg="http://www.w3.org/2000/svg"
   xmlns="http://www.w3.org/2000/svg"
   xmlns:sodipodi="http://sodipodi.sourceforge.net/DTD/sodipodi-0.dtd"
   xmlns:inkscape="http://www.inkscape.org/namespaces/inkscape"
   width="744.09448819"
   height="1052.3622047"
   id="svg5022"
   version="1.1"
   inkscape:version="0.48.4 r9939"
   sodipodi:docname="sr_grillas_aproximado_8.svg">
  <defs
     id="defs5024" />
  <sodipodi:namedview
     id="base"
     pagecolor="#ffffff"
     bordercolor="#666666"
     borderopacity="1.0"
     inkscape:pageopacity="0.0"
     inkscape:pageshadow="2"
     inkscape:zoom="4"
     inkscape:cx="186.29317"
     inkscape:cy="917.99063"
     inkscape:document-units="px"
     inkscape:current-layer="layer1"
     showgrid="false"
     inkscape:window-width="1851"
     inkscape:window-height="1053"
     inkscape:window-x="69"
     inkscape:window-y="27"
     inkscape:window-maximized="1" />
  <metadata
     id="metadata5027">
    <rdf:RDF>
      <cc:Work
         rdf:about="">
        <dc:format>image/svg+xml</dc:format>
        <dc:type
           rdf:resource="http://purl.org/dc/dcmitype/StillImage" />
        <dc:title />
      </cc:Work>
    </rdf:RDF>
  </metadata>
  <g
     inkscape:label="Layer 1"
     inkscape:groupmode="layer"
     id="layer1">
    <path
       sodipodi:type="arc"
       style="fill:#000000;fill-opacity:1;stroke:#000000;stroke-width:1.58500004;stroke-miterlimit:4;stroke-opacity:0;stroke-dasharray:none;stroke-dashoffset:0"
       id="path2985-5-9-6-4"
       sodipodi:cx="112.85714"
       sodipodi:cy="152.00504"
       sodipodi:rx="55.714287"
       sodipodi:ry="66.785713"
       d="m 168.57143,152.00504 a 55.714287,66.785713 0 1 1 -111.428577,0 55.714287,66.785713 0 1 1 111.428577,0 z"
       transform="matrix(0.05068406,0,0,0.0400958,137.85833,60.0926)" />
    <path
       sodipodi:type="arc"
       style="fill:#000000;fill-opacity:1;stroke:#000000;stroke-width:1.58500004;stroke-miterlimit:4;stroke-opacity:0;stroke-dasharray:none;stroke-dashoffset:0"
       id="path2985-5-0-7-5-1"
       sodipodi:cx="112.85714"
       sodipodi:cy="152.00504"
       sodipodi:rx="55.714287"
       sodipodi:ry="66.785713"
       d="m 168.57143,152.00504 a 55.714287,66.785713 0 1 1 -111.428577,0 55.714287,66.785713 0 1 1 111.428577,0 z"
       transform="matrix(0.05068406,0,0,0.0400958,170.36435,60.0926)" />
    <path
       style="fill:none;stroke:#9600ff;stroke-width:0.45232001px;stroke-linecap:butt;stroke-linejoin:miter;stroke-opacity:1"
       d="m 146.37965,66.18933 c 26.29382,0 26.29382,0 26.29382,0"
       id="path3156-2-8-6"
       inkscape:connector-curvature="0" />
    <path
       style="fill:none;stroke:#9600ff;stroke-width:1.07353377000000005px;stroke-linecap:butt;stroke-linejoin:miter;stroke-opacity:1"
       d="m 168.29763,63.33208 c 4.97647,2.97281 4.97647,2.97281 4.97647,2.97281"
       id="path3400-9-3"
       inkscape:connector-curvature="0" />
    <path
       style="fill:none;stroke:#9600ff;stroke-width:1.07353377000000005px;stroke-linecap:butt;stroke-linejoin:miter;stroke-opacity:1"
       d="m 173.27465,66.059 c -5.23999,3.43166 -4.99025,3.17457 -4.99025,3.17457"
       id="path3402-8-0"
       inkscape:connector-curvature="0" />
    <path
       sodipodi:type="arc"
       style="fill:#000000;fill-opacity:1;stroke:#000000;stroke-width:1.58500004;stroke-miterlimit:4;stroke-opacity:0;stroke-dasharray:none;stroke-dashoffset:0"
       id="path2985-5-97-5"
       sodipodi:cx="112.85714"
       sodipodi:cy="152.00504"
       sodipodi:rx="55.714287"
       sodipodi:ry="66.785713"
       d="m 168.57143,152.00504 a 55.714287,66.785713 0 1 1 -111.428577,0 55.714287,66.785713 0 1 1 111.428577,0 z"
       transform="matrix(0.05068406,0,0,0.0400958,203.44002,60.32174)" />
    <path
       sodipodi:type="arc"
       style="fill:#000000;fill-opacity:1;stroke:#000000;stroke-width:1.58500004;stroke-miterlimit:4;stroke-opacity:0;stroke-dasharray:none;stroke-dashoffset:0"
       id="path2985-5-0-8-7"
       sodipodi:cx="112.85714"
       sodipodi:cy="152.00504"
       sodipodi:rx="55.714287"
       sodipodi:ry="66.785713"
       d="m 168.57143,152.00504 a 55.714287,66.785713 0 1 1 -111.428577,0 55.714287,66.785713 0 1 1 111.428577,0 z"
       transform="matrix(0.05068406,0,0,0.0400958,235.94603,60.32174)" />
    <path
       sodipodi:type="arc"
       style="fill:#000000;fill-opacity:1;stroke:#000000;stroke-width:1.58500004;stroke-miterlimit:4;stroke-opacity:0;stroke-dasharray:none;stroke-dashoffset:0"
       id="path2985-5-9-6-4-9"
       sodipodi:cx="112.85714"
       sodipodi:cy="152.00504"
       sodipodi:rx="55.714287"
       sodipodi:ry="66.785713"
       d="m 168.57143,152.00504 a 55.714287,66.785713 0 1 1 -111.428577,0 55.714287,66.785713 0 1 1 111.428577,0 z"
       transform="matrix(0.05068406,0,0,0.0400958,272.96799,60.52093)" />
    <path
       style="fill:none;stroke:#9600ff;stroke-width:0.59213471px;stroke-linecap:butt;stroke-linejoin:miter;stroke-opacity:1"
       d="m 178.80072,66.36696 c 27.5326,0 27.5326,0 27.5326,0"
       id="path3156-2-8-6-7"
       inkscape:connector-curvature="0" />
    <path
       style="fill:none;stroke:#9600ff;stroke-width:1.07353377000000005px;stroke-linecap:butt;stroke-linejoin:miter;stroke-opacity:1"
       d="m 200.96309,63.38471 c 4.97647,2.97281 4.97647,2.97281 4.97647,2.97281"
       id="path3400-9-3-3"
       inkscape:connector-curvature="0" />
    <path
       style="fill:none;stroke:#9600ff;stroke-width:1.07353377000000005px;stroke-linecap:butt;stroke-linejoin:miter;stroke-opacity:1"
       d="m 205.94011,66.11163 c -5.23999,3.43166 -4.99025,3.17457 -4.99025,3.17457"
       id="path3402-8-0-4"
       inkscape:connector-curvature="0" />
    <path
       sodipodi:type="arc"
       style="fill:#000000;fill-opacity:1;stroke:#000000;stroke-width:1.58500004;stroke-miterlimit:4;stroke-opacity:0;stroke-dasharray:none;stroke-dashoffset:0"
       id="path2985-5-9-6-4-8"
       sodipodi:cx="112.85714"
       sodipodi:cy="152.00504"
       sodipodi:rx="55.714287"
       sodipodi:ry="66.785713"
       d="m 168.57143,152.00504 a 55.714287,66.785713 0 1 1 -111.428577,0 55.714287,66.785713 0 1 1 111.428577,0 z"
       transform="matrix(0.05068406,0,0,0.0400958,137.8018,88.21114)" />
    <path
       sodipodi:type="arc"
       style="fill:#000000;fill-opacity:1;stroke:#000000;stroke-width:1.58500004;stroke-miterlimit:4;stroke-opacity:0;stroke-dasharray:none;stroke-dashoffset:0"
       id="path2985-5-0-7-5-1-20"
       sodipodi:cx="112.85714"
       sodipodi:cy="152.00504"
       sodipodi:rx="55.714287"
       sodipodi:ry="66.785713"
       d="m 168.57143,152.00504 a 55.714287,66.785713 0 1 1 -111.428577,0 55.714287,66.785713 0 1 1 111.428577,0 z"
       transform="matrix(0.05068406,0,0,0.0400958,170.30782,88.21114)" />
    <path
       sodipodi:type="arc"
       style="fill:#000000;fill-opacity:1;stroke:#000000;stroke-width:1.58500004;stroke-miterlimit:4;stroke-opacity:0;stroke-dasharray:none;stroke-dashoffset:0"
       id="path2985-5-97-5-4"
       sodipodi:cx="112.85714"
       sodipodi:cy="152.00504"
       sodipodi:rx="55.714287"
       sodipodi:ry="66.785713"
       d="m 168.57143,152.00504 a 55.714287,66.785713 0 1 1 -111.428577,0 55.714287,66.785713 0 1 1 111.428577,0 z"
       transform="matrix(0.05068406,0,0,0.0400958,203.38349,88.44028)" />
    <path
       sodipodi:type="arc"
       style="fill:#000000;fill-opacity:1;stroke:#000000;stroke-width:1.58500004;stroke-miterlimit:4;stroke-opacity:0;stroke-dasharray:none;stroke-dashoffset:0"
       id="path2985-5-0-8-7-9"
       sodipodi:cx="112.85714"
       sodipodi:cy="152.00504"
       sodipodi:rx="55.714287"
       sodipodi:ry="66.785713"
       d="m 168.57143,152.00504 a 55.714287,66.785713 0 1 1 -111.428577,0 55.714287,66.785713 0 1 1 111.428577,0 z"
       transform="matrix(0.05068406,0,0,0.0400958,235.8895,88.44028)" />
    <path
       style="fill:none;stroke:#9600ff;stroke-width:0.68571794px;stroke-linecap:butt;stroke-linejoin:miter;stroke-opacity:1"
       d="m 212.89527,94.78702 c 26.06293,0 26.06293,0 26.06293,0"
       id="path3156-5-54-2"
       inkscape:connector-curvature="0" />
    <path
       sodipodi:type="arc"
       style="fill:#000000;fill-opacity:1;stroke:#000000;stroke-width:1.58500004;stroke-miterlimit:4;stroke-opacity:0;stroke-dasharray:none;stroke-dashoffset:0"
       id="path2985-5-9-6-4-9-0"
       sodipodi:cx="112.85714"
       sodipodi:cy="152.00504"
       sodipodi:rx="55.714287"
       sodipodi:ry="66.785713"
       d="m 168.57143,152.00504 a 55.714287,66.785713 0 1 1 -111.428577,0 55.714287,66.785713 0 1 1 111.428577,0 z"
       transform="matrix(0.05068406,0,0,0.0400958,272.91146,88.63947)" />
    <path
       style="fill:none;stroke:#9600ff;stroke-width:0.63041866px;stroke-linecap:butt;stroke-linejoin:miter;stroke-opacity:1"
       d="m 244.6383,94.83686 c 31.20787,0 31.20787,0 31.20787,0"
       id="path3156-5-9-4-1"
       inkscape:connector-curvature="0" />
    <path
       style="fill:none;stroke:#9600ff;stroke-width:1.07353377000000005px;stroke-linecap:butt;stroke-linejoin:miter;stroke-opacity:1"
       d="m 233.74708,91.78 c 4.97647,2.97281 4.97647,2.97281 4.97647,2.97281"
       id="path3400-9-99-9"
       inkscape:connector-curvature="0" />
    <path
       style="fill:none;stroke:#9600ff;stroke-width:1.07353377000000005px;stroke-linecap:butt;stroke-linejoin:miter;stroke-opacity:1"
       d="m 238.7241,94.50692 c -5.23999,3.43166 -4.99025,3.17457 -4.99025,3.17457"
       id="path3402-8-95-4"
       inkscape:connector-curvature="0" />
    <path
       style="fill:none;stroke:#9600ff;stroke-width:1.07353377000000005px;stroke-linecap:butt;stroke-linejoin:miter;stroke-opacity:1"
       d="m 270.77334,91.87895 c 4.97647,2.97281 4.97647,2.97281 4.97647,2.97281"
       id="path3400-9-0-7-5"
       inkscape:connector-curvature="0" />
    <path
       style="fill:none;stroke:#9600ff;stroke-width:1.07353377000000005px;stroke-linecap:butt;stroke-linejoin:miter;stroke-opacity:1"
       d="m 275.75036,94.60587 c -5.23999,3.43166 -4.99025,3.17457 -4.99025,3.17457"
       id="path3402-8-3-6-3"
       inkscape:connector-curvature="0" />
    <path
       style="fill:none;stroke:#9600ff;stroke-width:0.63795161;stroke-linecap:butt;stroke-linejoin:miter;stroke-miterlimit:4;stroke-opacity:1;stroke-dasharray:none"
       d="M 143.3379,95.578024 C 143.2665,68.787336 143.2665,68.787336 143.2665,68.787336"
       id="path3568-2-3"
       inkscape:connector-curvature="0" />
    <path
       style="fill:none;stroke:#9600ff;stroke-width:1.07353377000000005px;stroke-linecap:butt;stroke-linejoin:miter;stroke-opacity:1"
       d="m 140.53677,74.14487 c 2.84499,-5.05065 2.84499,-5.05065 2.84499,-5.05065"
       id="path3400-9-7-35-18-6-4"
       inkscape:connector-curvature="0" />
    <path
       style="fill:none;stroke:#9600ff;stroke-width:1.07353377000000005px;stroke-linecap:butt;stroke-linejoin:miter;stroke-opacity:1"
       d="m 143.13594,69.09994 c 3.56411,5.15081 3.30075,4.9077 3.30075,4.9077"
       id="path3402-8-5-11-4-5-1"
       inkscape:connector-curvature="0" />
    <path
       style="fill:none;stroke:#9600ff;stroke-width:0.55359691;stroke-linecap:butt;stroke-linejoin:miter;stroke-miterlimit:4;stroke-opacity:1;stroke-dasharray:none"
       d="m 209.11414,69.190505 c 0,21.70807 0,21.70807 0,21.70807"
       id="path3568-2-9"
       inkscape:connector-curvature="0" />
    <path
       style="fill:none;stroke:#9600ff;stroke-width:1.07353377000000005px;stroke-linecap:butt;stroke-linejoin:miter;stroke-opacity:1"
       d="m 211.86413,86.46361 c -2.85644,5.04418 -2.85644,5.04418 -2.85644,5.04418"
       id="path3400-9-7-35-18-6-8"
       inkscape:connector-curvature="0" />
    <path
       style="fill:none;stroke:#9600ff;stroke-width:1.07353377000000005px;stroke-linecap:butt;stroke-linejoin:miter;stroke-opacity:1"
       d="m 209.25352,91.50263 c -3.55242,-5.15889 -3.28961,-4.91518 -3.28961,-4.91518"
       id="path3402-8-5-11-4-5-2"
       inkscape:connector-curvature="0" />
    <path
       style="fill:none;stroke:#9600ff;stroke-width:0.62873346;stroke-linecap:butt;stroke-linejoin:miter;stroke-miterlimit:4;stroke-opacity:1;stroke-dasharray:none"
       d="m 278.71851,92.582183 c -0.0807,-23.049906 -0.0807,-23.049906 -0.0807,-23.049906"
       id="path3568-2-3-3"
       inkscape:connector-curvature="0" />
    <path
       style="fill:none;stroke:#9600ff;stroke-width:1.07353377000000005px;stroke-linecap:butt;stroke-linejoin:miter;stroke-opacity:1"
       d="m 275.91276,74.14442 c 2.84499,-5.05065 2.84499,-5.05065 2.84499,-5.05065"
       id="path3400-9-7-35-18-6-4-7"
       inkscape:connector-curvature="0" />
    <path
       style="fill:none;stroke:#9600ff;stroke-width:1.07353377000000005px;stroke-linecap:butt;stroke-linejoin:miter;stroke-opacity:1"
       d="m 278.51193,69.09949 c 3.56411,5.15081 3.30075,4.9077 3.30075,4.9077"
       id="path3402-8-5-11-4-5-1-7"
       inkscape:connector-curvature="0" />
    <path
       sodipodi:type="arc"
       style="fill:#000000;fill-opacity:1;stroke:#000000;stroke-width:1.58500004;stroke-miterlimit:4;stroke-opacity:0;stroke-dasharray:none;stroke-dashoffset:0"
       id="path2985-5-9-6-4-4"
       sodipodi:cx="112.85714"
       sodipodi:cy="152.00504"
       sodipodi:rx="55.714287"
       sodipodi:ry="66.785713"
       d="m 168.57143,152.00504 a 55.714287,66.785713 0 1 1 -111.428577,0 55.714287,66.785713 0 1 1 111.428577,0 z"
       transform="matrix(0.05068406,0,0,0.0400958,137.85833,119.18121)" />
    <path
       sodipodi:type="arc"
       style="fill:#000000;fill-opacity:1;stroke:#000000;stroke-width:1.58500004;stroke-miterlimit:4;stroke-opacity:0;stroke-dasharray:none;stroke-dashoffset:0"
       id="path2985-5-0-7-5-1-68"
       sodipodi:cx="112.85714"
       sodipodi:cy="152.00504"
       sodipodi:rx="55.714287"
       sodipodi:ry="66.785713"
       d="m 168.57143,152.00504 a 55.714287,66.785713 0 1 1 -111.428577,0 55.714287,66.785713 0 1 1 111.428577,0 z"
       transform="matrix(0.05068406,0,0,0.0400958,170.36435,119.18121)" />
    <path
       style="fill:none;stroke:#9600ff;stroke-width:0.57067400000000001px;stroke-linecap:butt;stroke-linejoin:miter;stroke-opacity:1"
       d="m 147.61505,125.40294 c 25.57302,0 25.57302,0 25.57302,0"
       id="path3156-2-8-6-6"
       inkscape:connector-curvature="0" />
    <path
       sodipodi:type="arc"
       style="fill:#000000;fill-opacity:1;stroke:#000000;stroke-width:1.58500004;stroke-miterlimit:4;stroke-opacity:0;stroke-dasharray:none;stroke-dashoffset:0"
       id="path2985-5-97-5-0"
       sodipodi:cx="112.85714"
       sodipodi:cy="152.00504"
       sodipodi:rx="55.714287"
       sodipodi:ry="66.785713"
       d="m 168.57143,152.00504 a 55.714287,66.785713 0 1 1 -111.428577,0 55.714287,66.785713 0 1 1 111.428577,0 z"
       transform="matrix(0.05068406,0,0,0.0400958,203.44002,119.41035)" />
    <path
       sodipodi:type="arc"
       style="fill:#000000;fill-opacity:1;stroke:#000000;stroke-width:1.58500004;stroke-miterlimit:4;stroke-opacity:0;stroke-dasharray:none;stroke-dashoffset:0"
       id="path2985-5-0-8-7-8"
       sodipodi:cx="112.85714"
       sodipodi:cy="152.00504"
       sodipodi:rx="55.714287"
       sodipodi:ry="66.785713"
       d="m 168.57143,152.00504 a 55.714287,66.785713 0 1 1 -111.428577,0 55.714287,66.785713 0 1 1 111.428577,0 z"
       transform="matrix(0.05068406,0,0,0.0400958,235.94603,119.41035)" />
    <path
       sodipodi:type="arc"
       style="fill:#000000;fill-opacity:1;stroke:#000000;stroke-width:1.58500004;stroke-miterlimit:4;stroke-opacity:0;stroke-dasharray:none;stroke-dashoffset:0"
       id="path2985-5-9-6-4-9-2"
       sodipodi:cx="112.85714"
       sodipodi:cy="152.00504"
       sodipodi:rx="55.714287"
       sodipodi:ry="66.785713"
       d="m 168.57143,152.00504 a 55.714287,66.785713 0 1 1 -111.428577,0 55.714287,66.785713 0 1 1 111.428577,0 z"
       transform="matrix(0.05068406,0,0,0.0400958,272.96799,119.60954)" />
    <path
       style="fill:none;stroke:#9600ff;stroke-width:0.58684009000000004px;stroke-linecap:butt;stroke-linejoin:miter;stroke-opacity:1"
       d="m 179.54581,125.45557 c 27.04242,0 27.04242,0 27.04242,0"
       id="path3156-2-8-6-7-9"
       inkscape:connector-curvature="0" />
    <path
       sodipodi:type="arc"
       style="fill:#000000;fill-opacity:1;stroke:#000000;stroke-width:1.58500004;stroke-miterlimit:4;stroke-opacity:0;stroke-dasharray:none;stroke-dashoffset:0"
       id="path2985-5-9-6-4-8-1"
       sodipodi:cx="112.85714"
       sodipodi:cy="152.00504"
       sodipodi:rx="55.714287"
       sodipodi:ry="66.785713"
       d="m 168.57143,152.00504 a 55.714287,66.785713 0 1 1 -111.428577,0 55.714287,66.785713 0 1 1 111.428577,0 z"
       transform="matrix(0.05068406,0,0,0.0400958,137.8018,147.29975)" />
    <path
       sodipodi:type="arc"
       style="fill:#000000;fill-opacity:1;stroke:#000000;stroke-width:1.58500004;stroke-miterlimit:4;stroke-opacity:0;stroke-dasharray:none;stroke-dashoffset:0"
       id="path2985-5-0-7-5-1-20-3"
       sodipodi:cx="112.85714"
       sodipodi:cy="152.00504"
       sodipodi:rx="55.714287"
       sodipodi:ry="66.785713"
       d="m 168.57143,152.00504 a 55.714287,66.785713 0 1 1 -111.428577,0 55.714287,66.785713 0 1 1 111.428577,0 z"
       transform="matrix(0.05068406,0,0,0.0400958,170.30782,147.29975)" />
    <path
       sodipodi:type="arc"
       style="fill:#000000;fill-opacity:1;stroke:#000000;stroke-width:1.58500004;stroke-miterlimit:4;stroke-opacity:0;stroke-dasharray:none;stroke-dashoffset:0"
       id="path2985-5-97-5-4-9"
       sodipodi:cx="112.85714"
       sodipodi:cy="152.00504"
       sodipodi:rx="55.714287"
       sodipodi:ry="66.785713"
       d="m 168.57143,152.00504 a 55.714287,66.785713 0 1 1 -111.428577,0 55.714287,66.785713 0 1 1 111.428577,0 z"
       transform="matrix(0.05068406,0,0,0.0400958,203.38349,147.52889)" />
    <path
       sodipodi:type="arc"
       style="fill:#000000;fill-opacity:1;stroke:#000000;stroke-width:1.58500004;stroke-miterlimit:4;stroke-opacity:0;stroke-dasharray:none;stroke-dashoffset:0"
       id="path2985-5-0-8-7-9-9"
       sodipodi:cx="112.85714"
       sodipodi:cy="152.00504"
       sodipodi:rx="55.714287"
       sodipodi:ry="66.785713"
       d="m 168.57143,152.00504 a 55.714287,66.785713 0 1 1 -111.428577,0 55.714287,66.785713 0 1 1 111.428577,0 z"
       transform="matrix(0.05068406,0,0,0.0400958,235.8895,147.52889)" />
    <path
       style="fill:none;stroke:#9600ff;stroke-width:0.57881378999999999px;stroke-linecap:butt;stroke-linejoin:miter;stroke-opacity:1"
       d="m 212.64785,153.75063 c 26.30777,0 26.30777,0 26.30777,0"
       id="path3156-5-54-2-4"
       inkscape:connector-curvature="0" />
    <path
       sodipodi:type="arc"
       style="fill:#000000;fill-opacity:1;stroke:#000000;stroke-width:1.58500004;stroke-miterlimit:4;stroke-opacity:0;stroke-dasharray:none;stroke-dashoffset:0"
       id="path2985-5-9-6-4-9-0-5"
       sodipodi:cx="112.85714"
       sodipodi:cy="152.00504"
       sodipodi:rx="55.714287"
       sodipodi:ry="66.785713"
       d="m 168.57143,152.00504 a 55.714287,66.785713 0 1 1 -111.428577,0 55.714287,66.785713 0 1 1 111.428577,0 z"
       transform="matrix(0.05068406,0,0,0.0400958,272.91146,147.72808)" />
    <path
       style="fill:none;stroke:#9600ff;stroke-width:0.62793779000000005px;stroke-linecap:butt;stroke-linejoin:miter;stroke-opacity:1"
       d="m 244.88587,153.92547 c 30.96273,0 30.96273,0 30.96273,0"
       id="path3156-5-9-4-1-8"
       inkscape:connector-curvature="0" />
    <path
       style="fill:none;stroke:#9600ff;stroke-width:0.62510966999999995;stroke-linecap:butt;stroke-linejoin:miter;stroke-miterlimit:4;stroke-opacity:1;stroke-dasharray:none"
       d="m 143.34432,149.42305 c -0.0843,-21.80352 -0.0843,-21.80352 -0.0843,-21.80352"
       id="path3568-2-3-2"
       inkscape:connector-curvature="0" />
    <path
       style="fill:none;stroke:#9600ff;stroke-width:0.56284988000000002;stroke-linecap:butt;stroke-linejoin:miter;stroke-miterlimit:4;stroke-opacity:1;stroke-dasharray:none"
       d="m 209.11414,129.03825 c 0,22.4398 0,22.4398 0,22.4398"
       id="path3568-2-9-9"
       inkscape:connector-curvature="0" />
    <path
       style="fill:none;stroke:#9600ff;stroke-width:0.62803692000000000;stroke-linecap:butt;stroke-linejoin:miter;stroke-miterlimit:4;stroke-opacity:1;stroke-dasharray:none"
       d="m 278.71885,150.92114 c -0.0814,-22.8006 -0.0814,-22.8006 -0.0814,-22.8006"
       id="path3568-2-3-3-3"
       inkscape:connector-curvature="0" />
    <path
       style="fill:none;stroke:#9600ff;stroke-width:1px;stroke-linecap:butt;stroke-linejoin:miter;stroke-opacity:1"
       d="m 282.1356,66.30178 c 15.55635,11.667261 0,26.870057 0,26.870057"
       id="path3214"
       inkscape:connector-curvature="0" />
    <path
       style="fill:none;stroke:#9600ff;stroke-width:1px;stroke-linecap:butt;stroke-linejoin:miter;stroke-opacity:1"
       d="m 281.29303,96.927157 c 15.55635,11.667263 0,26.870053 0,26.870053"
       id="path3214-1"
       inkscape:connector-curvature="0" />
    <path
       style="fill:none;stroke:#9600ff;stroke-width:1.07353377000000005px;stroke-linecap:butt;stroke-linejoin:miter;stroke-opacity:1"
       d="M 281.36922,145.78489 C 278.5627,150.857 278.5627,150.857 278.5627,150.857"
       id="path3400-9-99-9-8-5"
       inkscape:connector-curvature="0" />
    <path
       style="fill:none;stroke:#9600ff;stroke-width:1.07353377000000005px;stroke-linecap:butt;stroke-linejoin:miter;stroke-opacity:1"
       d="m 278.80848,150.84941 c -3.60317,-5.12357 -3.33796,-4.88247 -3.33796,-4.88247"
       id="path3402-8-95-4-6-9"
       inkscape:connector-curvature="0" />
    <path
       style="fill:none;stroke:#9600ff;stroke-width:1.07353377000000005px;stroke-linecap:butt;stroke-linejoin:miter;stroke-opacity:1"
       d="m 146.20153,145.32613 c -2.80652,5.07211 -2.80652,5.07211 -2.80652,5.07211"
       id="path3400-9-99-9-8-5-3"
       inkscape:connector-curvature="0" />
    <path
       style="fill:none;stroke:#9600ff;stroke-width:1.07353377000000005px;stroke-linecap:butt;stroke-linejoin:miter;stroke-opacity:1"
       d="m 143.64079,150.39065 c -3.60317,-5.12357 -3.33796,-4.88247 -3.33796,-4.88247"
       id="path3402-8-95-4-6-9-7"
       inkscape:connector-curvature="0" />
    <path
       style="fill:none;stroke:#9600ff;stroke-width:1.07353377000000005px;stroke-linecap:butt;stroke-linejoin:miter;stroke-opacity:1"
       d="m 249.50243,156.81504 c -5.00487,-2.92475 -5.00487,-2.92475 -5.00487,-2.92475"
       id="path3400-9-99-9-8-3-8-0"
       inkscape:connector-curvature="0" />
    <path
       style="fill:none;stroke:#9600ff;stroke-width:1.07353377000000005px;stroke-linecap:butt;stroke-linejoin:miter;stroke-opacity:1"
       d="m 244.49938,154.13617 c 5.2067,-3.48196 4.95944,-3.22248 4.95944,-3.22248"
       id="path3402-8-95-4-6-3-9-5"
       inkscape:connector-curvature="0" />
    <path
       style="fill:none;stroke:#9600ff;stroke-width:1.07353377000000005px;stroke-linecap:butt;stroke-linejoin:miter;stroke-opacity:1"
       d="m 217.25243,156.56504 c -5.00487,-2.92475 -5.00487,-2.92475 -5.00487,-2.92475"
       id="path3400-9-99-9-8-3-8"
       inkscape:connector-curvature="0" />
    <path
       style="fill:none;stroke:#9600ff;stroke-width:1.07353377000000005px;stroke-linecap:butt;stroke-linejoin:miter;stroke-opacity:1"
       d="m 212.24938,153.88617 c 5.2067,-3.48196 4.95944,-3.22248 4.95944,-3.22248"
       id="path3402-8-95-4-6-3-9"
       inkscape:connector-curvature="0" />
    <path
       style="fill:none;stroke:#9600ff;stroke-width:1.07353377000000005px;stroke-linecap:butt;stroke-linejoin:miter;stroke-opacity:1"
       d="m 184.25243,128.31504 c -5.00487,-2.92475 -5.00487,-2.92475 -5.00487,-2.92475"
       id="path3400-9-99-9-8-3-8-4"
       inkscape:connector-curvature="0" />
    <path
       style="fill:none;stroke:#9600ff;stroke-width:1.07353377000000005px;stroke-linecap:butt;stroke-linejoin:miter;stroke-opacity:1"
       d="m 179.24938,125.63617 c 5.2067,-3.48196 4.95944,-3.22248 4.95944,-3.22248"
       id="path3402-8-95-4-6-3-9-4"
       inkscape:connector-curvature="0" />
    <path
       style="fill:none;stroke:#9600ff;stroke-width:1.07353377000000005px;stroke-linecap:butt;stroke-linejoin:miter;stroke-opacity:1"
       d="m 151.50243,128.31504 c -5.00487,-2.92475 -5.00487,-2.92475 -5.00487,-2.92475"
       id="path3400-9-99-9-8-3-8-5"
       inkscape:connector-curvature="0" />
    <path
       style="fill:none;stroke:#9600ff;stroke-width:1.07353377000000005px;stroke-linecap:butt;stroke-linejoin:miter;stroke-opacity:1"
       d="m 146.49938,125.63617 c 5.2067,-3.48196 4.95944,-3.22248 4.95944,-3.22248"
       id="path3402-8-95-4-6-3-9-7"
       inkscape:connector-curvature="0" />
    <path
       style="fill:none;stroke:#9600ff;stroke-width:1.07353377000000005px;stroke-linecap:butt;stroke-linejoin:miter;stroke-opacity:1"
       d="m 286.57054,122.47986 c -5.64109,1.33455 -5.64109,1.33455 -5.64109,1.33455"
       id="path3400-9-99-9-8-3-1-9"
       inkscape:connector-curvature="0" />
    <path
       style="fill:none;stroke:#9600ff;stroke-width:1.07353377000000005px;stroke-linecap:butt;stroke-linejoin:miter;stroke-opacity:1"
       d="m 281.10036,123.99117 c 1.36812,-6.11244 1.36807,-5.75402 1.36807,-5.75402"
       id="path3402-8-95-4-6-3-1-9"
       inkscape:connector-curvature="0" />
    <path
       style="fill:none;stroke:#9600ff;stroke-width:1.07353377000000005px;stroke-linecap:butt;stroke-linejoin:miter;stroke-opacity:1"
       d="m 287.07054,92.22986 c -5.64109,1.33455 -5.64109,1.33455 -5.64109,1.33455"
       id="path3400-9-99-9-8-3-1-4"
       inkscape:connector-curvature="0" />
    <path
       style="fill:none;stroke:#9600ff;stroke-width:1.07353377000000005px;stroke-linecap:butt;stroke-linejoin:miter;stroke-opacity:1"
       d="m 281.60036,93.74117 c 1.36812,-6.11244 1.36807,-5.75402 1.36807,-5.75402"
       id="path3402-8-95-4-6-3-1-6"
       inkscape:connector-curvature="0" />
    <path
       style="fill:none;stroke:#9600ff;stroke-width:1.07353377000000005px;stroke-linecap:butt;stroke-linejoin:miter;stroke-opacity:1"
       d="m 206.32339,133.39527 c 2.8724,-5.03509 2.8724,-5.03509 2.8724,-5.03509"
       id="path3400-9-99-9-8-3-8-1"
       inkscape:connector-curvature="0" />
    <path
       style="fill:none;stroke:#9600ff;stroke-width:1.07353377000000005px;stroke-linecap:butt;stroke-linejoin:miter;stroke-opacity:1"
       d="m 208.94995,128.36456 c 3.53606,5.17011 3.27402,4.92557 3.27402,4.92557"
       id="path3402-8-95-4-6-3-9-6"
       inkscape:connector-curvature="0" />
  </g>
</svg>
