<?xml version="1.0" encoding="UTF-8" standalone="no"?>
<!-- Created with Inkscape (http://www.inkscape.org/) -->

<svg
   xmlns:dc="http://purl.org/dc/elements/1.1/"
   xmlns:cc="http://creativecommons.org/ns#"
   xmlns:rdf="http://www.w3.org/1999/02/22-rdf-syntax-ns#"
   xmlns:svg="http://www.w3.org/2000/svg"
   xmlns="http://www.w3.org/2000/svg"
   xmlns:sodipodi="http://sodipodi.sourceforge.net/DTD/sodipodi-0.dtd"
   xmlns:inkscape="http://www.inkscape.org/namespaces/inkscape"
   width="744.09448819"
   height="1052.3622047"
   id="svg5022"
   version="1.1"
   inkscape:version="0.48.4 r9939"
   sodipodi:docname="sr_grillas_aproximado_4.svg">
  <defs
     id="defs5024" />
  <sodipodi:namedview
     id="base"
     pagecolor="#ffffff"
     bordercolor="#666666"
     borderopacity="1.0"
     inkscape:pageopacity="0.0"
     inkscape:pageshadow="2"
     inkscape:zoom="3.688125"
     inkscape:cx="92.07948"
     inkscape:cy="800.95265"
     inkscape:document-units="px"
     inkscape:current-layer="layer1"
     showgrid="false"
     inkscape:window-width="1851"
     inkscape:window-height="1053"
     inkscape:window-x="69"
     inkscape:window-y="27"
     inkscape:window-maximized="1" />
  <metadata
     id="metadata5027">
    <rdf:RDF>
      <cc:Work
         rdf:about="">
        <dc:format>image/svg+xml</dc:format>
        <dc:type
           rdf:resource="http://purl.org/dc/dcmitype/StillImage" />
        <dc:title />
      </cc:Work>
    </rdf:RDF>
  </metadata>
  <g
     inkscape:label="Layer 1"
     inkscape:groupmode="layer"
     id="layer1">
    <path
       sodipodi:type="arc"
       style="fill:#000000;fill-opacity:1;stroke:#000000;stroke-width:1.58500004;stroke-miterlimit:4;stroke-opacity:0;stroke-dasharray:none;stroke-dashoffset:0"
       id="path2985-5-0-6-7"
       sodipodi:cx="112.85714"
       sodipodi:cy="152.00504"
       sodipodi:rx="55.714287"
       sodipodi:ry="66.785713"
       d="m 168.57143,152.00504 a 55.714287,66.785713 0 1 1 -111.428577,0 55.714287,66.785713 0 1 1 111.428577,0 z"
       transform="matrix(0.04845087,0,0,0.03819192,90.655562,191.24444)" />
    <path
       sodipodi:type="arc"
       style="fill:#000000;fill-opacity:1;stroke:#000000;stroke-width:1.58500004;stroke-miterlimit:4;stroke-opacity:0;stroke-dasharray:none;stroke-dashoffset:0"
       id="path2985-5-0-7-5-1-2"
       sodipodi:cx="112.85714"
       sodipodi:cy="152.00504"
       sodipodi:rx="55.714287"
       sodipodi:ry="66.785713"
       d="m 168.57143,152.00504 a 55.714287,66.785713 0 1 1 -111.428577,0 55.714287,66.785713 0 1 1 111.428577,0 z"
       transform="matrix(0.04845087,0,0,0.03819192,153.3295,218.05546)" />
    <path
       sodipodi:type="arc"
       style="fill:#000000;fill-opacity:1;stroke:#000000;stroke-width:1.58500004;stroke-miterlimit:4;stroke-opacity:0;stroke-dasharray:none;stroke-dashoffset:0"
       id="path2985-5-2-6-1-1"
       sodipodi:cx="112.85714"
       sodipodi:cy="152.00504"
       sodipodi:rx="55.714287"
       sodipodi:ry="66.785713"
       d="m 168.57143,152.00504 a 55.714287,66.785713 0 1 1 -111.428577,0 55.714287,66.785713 0 1 1 111.428577,0 z"
       transform="matrix(0.04813499,0,0,0.03824124,121.97462,273.14825)" />
    <path
       sodipodi:type="arc"
       style="fill:#000000;fill-opacity:0;stroke:#9600ff;stroke-width:1;stroke-miterlimit:4;stroke-opacity:1;stroke-dasharray:none;stroke-dashoffset:0"
       id="path4840"
       sodipodi:cx="186.74042"
       sodipodi:cy="179.62872"
       sodipodi:rx="4.2179561"
       sodipodi:ry="4.2179561"
       d="m 190.95837,179.62872 a 4.2179561,4.2179561 0 1 1 -8.43591,0 4.2179561,4.2179561 0 1 1 8.43591,0 z"
       transform="matrix(1.3300013,0,0,1.2390922,-152.11891,-25.692549)" />
    <path
       sodipodi:type="arc"
       style="fill:#000000;fill-opacity:0;stroke:#9600ff;stroke-width:1;stroke-miterlimit:4;stroke-opacity:1;stroke-dasharray:none;stroke-dashoffset:0"
       id="path4840-7"
       sodipodi:cx="186.74042"
       sodipodi:cy="179.62872"
       sodipodi:rx="4.2179561"
       sodipodi:ry="4.2179561"
       d="m 190.95837,179.62872 a 4.2179561,4.2179561 0 1 1 -8.43591,0 4.2179561,4.2179561 0 1 1 8.43591,0 z"
       transform="matrix(1.3300013,0,0,1.2390922,-89.747814,1.1803117)" />
    <path
       sodipodi:type="arc"
       style="fill:#000000;fill-opacity:0;stroke:#9600ff;stroke-width:1;stroke-miterlimit:4;stroke-opacity:1;stroke-dasharray:none;stroke-dashoffset:0"
       id="path4840-3"
       sodipodi:cx="186.74042"
       sodipodi:cy="179.62872"
       sodipodi:rx="4.2179561"
       sodipodi:ry="4.2179561"
       d="m 190.95837,179.62872 a 4.2179561,4.2179561 0 1 1 -8.43591,0 4.2179561,4.2179561 0 1 1 8.43591,0 z"
       transform="matrix(1.3300013,0,0,1.2390922,-120.92897,56.22183)" />
    <text
       xml:space="preserve"
       style="font-size:12px;font-style:normal;font-weight:normal;line-height:125%;letter-spacing:0px;word-spacing:0px;fill:#000000;fill-opacity:1;stroke:none;font-family:Sans"
       x="79.173019"
       y="304.01443"
       id="text3208"
       sodipodi:linespacing="125%"><tspan
         sodipodi:role="line"
         x="79.173019"
         y="304.01443"
         id="tspan3327">Soluci'on factible de</tspan></text>
    <text
       xml:space="preserve"
       style="font-size:12px;font-style:normal;font-weight:normal;line-height:125%;letter-spacing:0px;word-spacing:0px;fill:#000000;fill-opacity:1;stroke:none;font-family:Sans"
       x="86.981972"
       y="324.62112"
       id="text3216"
       sodipodi:linespacing="125%"><tspan
         sodipodi:role="line"
         id="tspan3218"
         x="86.981972"
         y="324.62112">\probl{PTSP} rectil'ineo</tspan></text>
    <path
       style="fill:none;stroke:#000000;stroke-width:1px;stroke-linecap:butt;stroke-linejoin:miter;stroke-opacity:1"
       d="m 96.526013,197.99852 c 30.638877,79.7153 30.367737,79.98644 30.367737,79.98644"
       id="path3321"
       inkscape:connector-curvature="0" />
    <path
       style="fill:none;stroke:#000000;stroke-width:1px;stroke-linecap:butt;stroke-linejoin:miter;stroke-opacity:1"
       d="m 127.16489,279.06952 c 31.18115,-55.04152 31.45229,-55.31266 31.45229,-55.31266"
       id="path3323"
       inkscape:connector-curvature="0" />
    <path
       style="fill:none;stroke:#000000;stroke-width:1px;stroke-linecap:butt;stroke-linejoin:miter;stroke-opacity:1"
       d="M 158.34604,223.48572 C 95.17031,197.18509 95.17031,197.18509 95.17031,197.18509"
       id="path3325"
       inkscape:connector-curvature="0" />
    <path
       style="fill:none;stroke:#9600ff;stroke-width:1px;stroke-linecap:butt;stroke-linejoin:miter;stroke-opacity:1"
       d="m 100.05084,194.47369 c 42.02677,-3.25369 55.31266,23.31808 55.31266,23.31808"
       id="path3362"
       inkscape:connector-curvature="0" />
    <path
       style="fill:none;stroke:#9600ff;stroke-width:1px;stroke-linecap:butt;stroke-linejoin:miter;stroke-opacity:1"
       d="m 161.05745,229.99309 c 2.44026,37.68853 -26.84291,45.5516 -26.84291,45.5516"
       id="path3364"
       inkscape:connector-curvature="0" />
    <path
       style="fill:none;stroke:#9600ff;stroke-width:1.02439415px;stroke-linecap:butt;stroke-linejoin:miter;stroke-opacity:1"
       d="m 155.51312,212.69475 c -0.12389,5.52501 -0.12389,5.52501 -0.12389,5.52501"
       id="path3400-9-2"
       inkscape:connector-curvature="0" />
    <path
       style="fill:none;stroke:#9600ff;stroke-width:1.02439415px;stroke-linecap:butt;stroke-linejoin:miter;stroke-opacity:1"
       d="m 155.59375,218.10517 c -5.32012,-2.74737 -4.98885,-2.66019 -4.98885,-2.66019"
       id="path3402-8-7"
       inkscape:connector-curvature="0" />
    <path
       style="fill:none;stroke:#9600ff;stroke-width:1.02439415px;stroke-linecap:butt;stroke-linejoin:miter;stroke-opacity:1"
       d="m 139.52941,275.59145 c -5.52074,0.24986 -5.52074,0.24986 -5.52074,0.24986"
       id="path3400-9-2-3"
       inkscape:connector-curvature="0" />
    <path
       style="fill:none;stroke:#9600ff;stroke-width:1.02439415px;stroke-linecap:butt;stroke-linejoin:miter;stroke-opacity:1"
       d="m 134.13682,276.03761 c 2.38147,-5.49365 2.31689,-5.15725 2.31689,-5.15725"
       id="path3402-8-7-9"
       inkscape:connector-curvature="0" />
  </g>
</svg>
