<?xml version="1.0" encoding="UTF-8" standalone="no"?>
<!-- Created with Inkscape (http://www.inkscape.org/) -->

<svg
   xmlns:dc="http://purl.org/dc/elements/1.1/"
   xmlns:cc="http://creativecommons.org/ns#"
   xmlns:rdf="http://www.w3.org/1999/02/22-rdf-syntax-ns#"
   xmlns:svg="http://www.w3.org/2000/svg"
   xmlns="http://www.w3.org/2000/svg"
   xmlns:sodipodi="http://sodipodi.sourceforge.net/DTD/sodipodi-0.dtd"
   xmlns:inkscape="http://www.inkscape.org/namespaces/inkscape"
   width="744.09448819"
   height="1052.3622047"
   id="svg5022"
   version="1.1"
   inkscape:version="0.48.4 r9939"
   sodipodi:docname="sr_grillas_aproximado_5.svg">
  <defs
     id="defs5024" />
  <sodipodi:namedview
     id="base"
     pagecolor="#ffffff"
     bordercolor="#666666"
     borderopacity="1.0"
     inkscape:pageopacity="0.0"
     inkscape:pageshadow="2"
     inkscape:zoom="2.6078982"
     inkscape:cx="264.03167"
     inkscape:cy="797.33014"
     inkscape:document-units="px"
     inkscape:current-layer="layer1"
     showgrid="false"
     inkscape:window-width="1851"
     inkscape:window-height="1053"
     inkscape:window-x="69"
     inkscape:window-y="27"
     inkscape:window-maximized="1" />
  <metadata
     id="metadata5027">
    <rdf:RDF>
      <cc:Work
         rdf:about="">
        <dc:format>image/svg+xml</dc:format>
        <dc:type
           rdf:resource="http://purl.org/dc/dcmitype/StillImage" />
        <dc:title />
      </cc:Work>
    </rdf:RDF>
  </metadata>
  <g
     inkscape:label="Layer 1"
     inkscape:groupmode="layer"
     id="layer1">
    <path
       sodipodi:type="arc"
       style="fill:#000000;fill-opacity:0;stroke:#9600ff;stroke-width:1;stroke-miterlimit:4;stroke-opacity:1;stroke-dasharray:none;stroke-dashoffset:0"
       id="path4840"
       sodipodi:cx="186.74042"
       sodipodi:cy="179.62872"
       sodipodi:rx="4.2179561"
       sodipodi:ry="4.2179561"
       d="m 190.95837,179.62872 a 4.2179561,4.2179561 0 1 1 -8.43591,0 4.2179561,4.2179561 0 1 1 8.43591,0 z"
       transform="matrix(1.3300013,0,0,1.2390922,11.614475,-60.97)" />
    <path
       sodipodi:type="arc"
       style="fill:#000000;fill-opacity:0;stroke:#9600ff;stroke-width:1;stroke-miterlimit:4;stroke-opacity:1;stroke-dasharray:none;stroke-dashoffset:0"
       id="path4840-7"
       sodipodi:cx="186.74042"
       sodipodi:cy="179.62872"
       sodipodi:rx="4.2179561"
       sodipodi:ry="4.2179561"
       d="m 190.95837,179.62872 a 4.2179561,4.2179561 0 1 1 -8.43591,0 4.2179561,4.2179561 0 1 1 8.43591,0 z"
       transform="matrix(1.3300013,0,0,1.2390922,73.985571,-34.097139)" />
    <path
       sodipodi:type="arc"
       style="fill:#000000;fill-opacity:0;stroke:#9600ff;stroke-width:1;stroke-miterlimit:4;stroke-opacity:1;stroke-dasharray:none;stroke-dashoffset:0"
       id="path4840-3"
       sodipodi:cx="186.74042"
       sodipodi:cy="179.62872"
       sodipodi:rx="4.2179561"
       sodipodi:ry="4.2179561"
       d="m 190.95837,179.62872 a 4.2179561,4.2179561 0 1 1 -8.43591,0 4.2179561,4.2179561 0 1 1 8.43591,0 z"
       transform="matrix(1.3300013,0,0,1.2390922,42.804415,20.944379)" />
    <path
       style="fill:none;stroke:#9600ff;stroke-width:1px;stroke-linecap:butt;stroke-linejoin:miter;stroke-opacity:1"
       d="m 263.78423,159.19624 c 42.02677,-3.25369 55.31266,23.31808 55.31266,23.31808"
       id="path3362"
       inkscape:connector-curvature="0" />
    <path
       style="fill:none;stroke:#9600ff;stroke-width:1px;stroke-linecap:butt;stroke-linejoin:miter;stroke-opacity:1"
       d="m 324.79084,194.71564 c 2.44026,37.68853 -26.84291,45.5516 -26.84291,45.5516"
       id="path3364"
       inkscape:connector-curvature="0" />
    <path
       style="fill:none;stroke:#9600ff;stroke-width:1.02439415px;stroke-linecap:butt;stroke-linejoin:miter;stroke-opacity:1"
       d="m 319.24651,177.4173 c -0.12389,5.52501 -0.12389,5.52501 -0.12389,5.52501"
       id="path3400-9-2"
       inkscape:connector-curvature="0" />
    <path
       style="fill:none;stroke:#9600ff;stroke-width:1.02439415px;stroke-linecap:butt;stroke-linejoin:miter;stroke-opacity:1"
       d="m 319.32714,182.82772 c -5.32012,-2.74737 -4.98885,-2.66019 -4.98885,-2.66019"
       id="path3402-8-7"
       inkscape:connector-curvature="0" />
    <path
       style="fill:none;stroke:#9600ff;stroke-width:1.02439415px;stroke-linecap:butt;stroke-linejoin:miter;stroke-opacity:1"
       d="m 303.2628,240.314 c -5.52074,0.24986 -5.52074,0.24986 -5.52074,0.24986"
       id="path3400-9-2-3"
       inkscape:connector-curvature="0" />
    <path
       style="fill:none;stroke:#9600ff;stroke-width:1.02439415px;stroke-linecap:butt;stroke-linejoin:miter;stroke-opacity:1"
       d="m 297.87021,240.76016 c 2.38147,-5.49365 2.31689,-5.15725 2.31689,-5.15725"
       id="path3402-8-7-9"
       inkscape:connector-curvature="0" />
    <path
       sodipodi:type="arc"
       style="fill:#000000;fill-opacity:1;stroke:#000000;stroke-width:1.58500004;stroke-miterlimit:4;stroke-opacity:0;stroke-dasharray:none;stroke-dashoffset:0"
       id="path2985-5-97"
       sodipodi:cx="112.85714"
       sodipodi:cy="152.00504"
       sodipodi:rx="55.714287"
       sodipodi:ry="66.785713"
       d="m 168.57143,152.00504 a 55.714287,66.785713 0 1 1 -111.428577,0 55.714287,66.785713 0 1 1 111.428577,0 z"
       transform="matrix(0.04845087,0,0,0.03819192,223.37296,128.42569)" />
    <path
       sodipodi:type="arc"
       style="fill:#000000;fill-opacity:1;stroke:#000000;stroke-width:1.58500004;stroke-miterlimit:4;stroke-opacity:0;stroke-dasharray:none;stroke-dashoffset:0"
       id="path2985-5-0-8"
       sodipodi:cx="112.85714"
       sodipodi:cy="152.00504"
       sodipodi:rx="55.714287"
       sodipodi:ry="66.785713"
       d="m 168.57143,152.00504 a 55.714287,66.785713 0 1 1 -111.428577,0 55.714287,66.785713 0 1 1 111.428577,0 z"
       transform="matrix(0.04845087,0,0,0.03819192,254.44672,128.42569)" />
    <path
       style="fill:none;stroke:#000000;stroke-width:0.61326164px;stroke-linecap:butt;stroke-linejoin:miter;stroke-opacity:1"
       d="m 228.46472,134.352 c 31.00454,0 31.00454,0 31.00454,0"
       id="path3156-5"
       inkscape:connector-curvature="0" />
    <path
       sodipodi:type="arc"
       style="fill:#000000;fill-opacity:1;stroke:#000000;stroke-width:1.58500004;stroke-miterlimit:4;stroke-opacity:0;stroke-dasharray:none;stroke-dashoffset:0"
       id="path2985-5-2-6"
       sodipodi:cx="112.85714"
       sodipodi:cy="152.00504"
       sodipodi:rx="55.714287"
       sodipodi:ry="66.785713"
       d="m 168.57143,152.00504 a 55.714287,66.785713 0 1 1 -111.428577,0 55.714287,66.785713 0 1 1 111.428577,0 z"
       transform="matrix(0.04813499,0,0,0.03824124,285.95486,155.89236)" />
    <path
       sodipodi:type="arc"
       style="fill:#000000;fill-opacity:1;stroke:#000000;stroke-width:1.58500004;stroke-miterlimit:4;stroke-opacity:0;stroke-dasharray:none;stroke-dashoffset:0"
       id="path2985-5-0-0-0"
       sodipodi:cx="112.85714"
       sodipodi:cy="152.00504"
       sodipodi:rx="55.714287"
       sodipodi:ry="66.785713"
       d="m 168.57143,152.00504 a 55.714287,66.785713 0 1 1 -111.428577,0 55.714287,66.785713 0 1 1 111.428577,0 z"
       transform="matrix(0.04813499,0,0,0.03824124,317.12515,155.89236)" />
    <path
       style="fill:none;stroke:#000000;stroke-width:0.61165386px;stroke-linecap:butt;stroke-linejoin:miter;stroke-opacity:1"
       d="m 291.01338,161.73084 c 30.80241,0 30.80241,0 30.80241,0"
       id="path3156-6-0"
       inkscape:connector-curvature="0" />
    <path
       sodipodi:type="arc"
       style="fill:#000000;fill-opacity:1;stroke:#000000;stroke-width:1.58500004;stroke-miterlimit:4;stroke-opacity:0;stroke-dasharray:none;stroke-dashoffset:0"
       id="path2985-5-21-1"
       sodipodi:cx="112.85714"
       sodipodi:cy="152.00504"
       sodipodi:rx="55.714287"
       sodipodi:ry="66.785713"
       d="m 168.57143,152.00504 a 55.714287,66.785713 0 1 1 -111.428577,0 55.714287,66.785713 0 1 1 111.428577,0 z"
       transform="matrix(0.04845087,0,0,0.03819192,223.37296,155.5498)" />
    <path
       sodipodi:type="arc"
       style="fill:#000000;fill-opacity:1;stroke:#000000;stroke-width:1.58500004;stroke-miterlimit:4;stroke-opacity:0;stroke-dasharray:none;stroke-dashoffset:0"
       id="path2985-5-0-6-7-1"
       sodipodi:cx="112.85714"
       sodipodi:cy="152.00504"
       sodipodi:rx="55.714287"
       sodipodi:ry="66.785713"
       d="m 168.57143,152.00504 a 55.714287,66.785713 0 1 1 -111.428577,0 55.714287,66.785713 0 1 1 111.428577,0 z"
       transform="matrix(0.04845087,0,0,0.03819192,254.44672,155.5498)" />
    <path
       style="fill:none;stroke:#ff0000;stroke-width:1.52160251;stroke-linecap:butt;stroke-linejoin:miter;stroke-miterlimit:4;stroke-opacity:1;stroke-dasharray:none"
       d="m 231.45791,161.47612 c 25.74239,0 25.74239,0 25.74239,0"
       id="path3156-0-0"
       inkscape:connector-curvature="0" />
    <path
       sodipodi:type="arc"
       style="fill:#000000;fill-opacity:1;stroke:#000000;stroke-width:1.58500004;stroke-miterlimit:4;stroke-opacity:0;stroke-dasharray:none;stroke-dashoffset:0"
       id="path2985-5-9-6-4"
       sodipodi:cx="112.85714"
       sodipodi:cy="152.00504"
       sodipodi:rx="55.714287"
       sodipodi:ry="66.785713"
       d="m 168.57143,152.00504 a 55.714287,66.785713 0 1 1 -111.428577,0 55.714287,66.785713 0 1 1 111.428577,0 z"
       transform="matrix(0.04845087,0,0,0.03819192,285.93681,128.61541)" />
    <path
       sodipodi:type="arc"
       style="fill:#000000;fill-opacity:1;stroke:#000000;stroke-width:1.58500004;stroke-miterlimit:4;stroke-opacity:0;stroke-dasharray:none;stroke-dashoffset:0"
       id="path2985-5-0-7-5-1"
       sodipodi:cx="112.85714"
       sodipodi:cy="152.00504"
       sodipodi:rx="55.714287"
       sodipodi:ry="66.785713"
       d="m 168.57143,152.00504 a 55.714287,66.785713 0 1 1 -111.428577,0 55.714287,66.785713 0 1 1 111.428577,0 z"
       transform="matrix(0.04845087,0,0,0.03819192,317.30972,128.61541)" />
    <path
       style="fill:none;stroke:#000000;stroke-width:0.6132617px;stroke-linecap:butt;stroke-linejoin:miter;stroke-opacity:1"
       d="m 291.02856,134.54172 c 31.00452,0 31.00452,0 31.00452,0"
       id="path3156-2-8-6"
       inkscape:connector-curvature="0" />
    <path
       sodipodi:type="arc"
       style="fill:#000000;fill-opacity:1;stroke:#000000;stroke-width:1.58500004;stroke-miterlimit:4;stroke-opacity:0;stroke-dasharray:none;stroke-dashoffset:0"
       id="path2985-5-2-7-5"
       sodipodi:cx="112.85714"
       sodipodi:cy="152.00504"
       sodipodi:rx="55.714287"
       sodipodi:ry="66.785713"
       d="m 168.57143,152.00504 a 55.714287,66.785713 0 1 1 -111.428577,0 55.714287,66.785713 0 1 1 111.428577,0 z"
       transform="matrix(0.04813499,0,0,0.03824124,348.74292,156.05461)" />
    <path
       sodipodi:type="arc"
       style="fill:#000000;fill-opacity:1;stroke:#000000;stroke-width:1.58500004;stroke-miterlimit:4;stroke-opacity:0;stroke-dasharray:none;stroke-dashoffset:0"
       id="path2985-5-9-6-8-2"
       sodipodi:cx="112.85714"
       sodipodi:cy="152.00504"
       sodipodi:rx="55.714287"
       sodipodi:ry="66.785713"
       d="m 168.57143,152.00504 a 55.714287,66.785713 0 1 1 -111.428577,0 55.714287,66.785713 0 1 1 111.428577,0 z"
       transform="matrix(0.04845087,0,0,0.03819192,348.72487,128.77766)" />
    <path
       style="fill:none;stroke:#000000;stroke-width:0.61326164px;stroke-linecap:butt;stroke-linejoin:miter;stroke-opacity:1"
       d="m 261.62673,134.51854 c 31.00452,0 31.00452,0 31.00452,0"
       id="path3156-5-9"
       inkscape:connector-curvature="0" />
    <path
       style="fill:none;stroke:#000000;stroke-width:0.61326164px;stroke-linecap:butt;stroke-linejoin:miter;stroke-opacity:1"
       d="m 321.95853,134.51379 c 31.00453,0 31.00453,0 31.00453,0"
       id="path3156-5-9-5"
       inkscape:connector-curvature="0" />
    <path
       style="fill:none;stroke:#000000;stroke-width:0.61326164px;stroke-linecap:butt;stroke-linejoin:miter;stroke-opacity:1"
       d="m 261.52596,161.55 c 31.00453,0 31.00453,0 31.00453,0"
       id="path3156-5-9-1"
       inkscape:connector-curvature="0" />
    <path
       style="fill:none;stroke:#000000;stroke-width:0.61326164px;stroke-linecap:butt;stroke-linejoin:miter;stroke-opacity:1"
       d="m 322.25008,161.93613 c 31.00454,0 31.00454,0 31.00454,0"
       id="path3156-5-9-5-1"
       inkscape:connector-curvature="0" />
    <path
       sodipodi:type="arc"
       style="fill:#000000;fill-opacity:1;stroke:#000000;stroke-width:1.58500004;stroke-miterlimit:4;stroke-opacity:0;stroke-dasharray:none;stroke-dashoffset:0"
       id="path2985-5-97-9"
       sodipodi:cx="112.85714"
       sodipodi:cy="152.00504"
       sodipodi:rx="55.714287"
       sodipodi:ry="66.785713"
       d="m 168.57143,152.00504 a 55.714287,66.785713 0 1 1 -111.428577,0 55.714287,66.785713 0 1 1 111.428577,0 z"
       transform="matrix(0.04845087,0,0,0.03819192,223.1839,182.17109)" />
    <path
       sodipodi:type="arc"
       style="fill:#000000;fill-opacity:1;stroke:#000000;stroke-width:1.58500004;stroke-miterlimit:4;stroke-opacity:0;stroke-dasharray:none;stroke-dashoffset:0"
       id="path2985-5-0-8-5"
       sodipodi:cx="112.85714"
       sodipodi:cy="152.00504"
       sodipodi:rx="55.714287"
       sodipodi:ry="66.785713"
       d="m 168.57143,152.00504 a 55.714287,66.785713 0 1 1 -111.428577,0 55.714287,66.785713 0 1 1 111.428577,0 z"
       transform="matrix(0.04845087,0,0,0.03819192,254.25766,182.17109)" />
    <path
       style="fill:none;stroke:#000000;stroke-width:0.61326164px;stroke-linecap:butt;stroke-linejoin:miter;stroke-opacity:1"
       d="m 228.27566,188.0974 c 31.00453,0 31.00453,0 31.00453,0"
       id="path3156-5-5"
       inkscape:connector-curvature="0" />
    <path
       sodipodi:type="arc"
       style="fill:#000000;fill-opacity:1;stroke:#000000;stroke-width:1.58500004;stroke-miterlimit:4;stroke-opacity:0;stroke-dasharray:none;stroke-dashoffset:0"
       id="path2985-5-2-6-1"
       sodipodi:cx="112.85714"
       sodipodi:cy="152.00504"
       sodipodi:rx="55.714287"
       sodipodi:ry="66.785713"
       d="m 168.57143,152.00504 a 55.714287,66.785713 0 1 1 -111.428577,0 55.714287,66.785713 0 1 1 111.428577,0 z"
       transform="matrix(0.04813499,0,0,0.03824124,285.76578,209.63775)" />
    <path
       sodipodi:type="arc"
       style="fill:#000000;fill-opacity:1;stroke:#000000;stroke-width:1.58500004;stroke-miterlimit:4;stroke-opacity:0;stroke-dasharray:none;stroke-dashoffset:0"
       id="path2985-5-0-0-0-9"
       sodipodi:cx="112.85714"
       sodipodi:cy="152.00504"
       sodipodi:rx="55.714287"
       sodipodi:ry="66.785713"
       d="m 168.57143,152.00504 a 55.714287,66.785713 0 1 1 -111.428577,0 55.714287,66.785713 0 1 1 111.428577,0 z"
       transform="matrix(0.04813499,0,0,0.03824124,316.93609,209.63775)" />
    <path
       style="fill:none;stroke:#000000;stroke-width:0.61165386px;stroke-linecap:butt;stroke-linejoin:miter;stroke-opacity:1"
       d="m 290.82432,215.47625 c 30.80241,0 30.80241,0 30.80241,0"
       id="path3156-6-0-7"
       inkscape:connector-curvature="0" />
    <path
       sodipodi:type="arc"
       style="fill:#000000;fill-opacity:1;stroke:#000000;stroke-width:1.58500004;stroke-miterlimit:4;stroke-opacity:0;stroke-dasharray:none;stroke-dashoffset:0"
       id="path2985-5-21-1-6"
       sodipodi:cx="112.85714"
       sodipodi:cy="152.00504"
       sodipodi:rx="55.714287"
       sodipodi:ry="66.785713"
       d="m 168.57143,152.00504 a 55.714287,66.785713 0 1 1 -111.428577,0 55.714287,66.785713 0 1 1 111.428577,0 z"
       transform="matrix(0.04845087,0,0,0.03819192,223.1839,209.2952)" />
    <path
       sodipodi:type="arc"
       style="fill:#000000;fill-opacity:1;stroke:#000000;stroke-width:1.58500004;stroke-miterlimit:4;stroke-opacity:0;stroke-dasharray:none;stroke-dashoffset:0"
       id="path2985-5-0-6-7-6"
       sodipodi:cx="112.85714"
       sodipodi:cy="152.00504"
       sodipodi:rx="55.714287"
       sodipodi:ry="66.785713"
       d="m 168.57143,152.00504 a 55.714287,66.785713 0 1 1 -111.428577,0 55.714287,66.785713 0 1 1 111.428577,0 z"
       transform="matrix(0.04845087,0,0,0.03819192,254.25766,209.2952)" />
    <path
       style="fill:none;stroke:#000000;stroke-width:0.61326164px;stroke-linecap:butt;stroke-linejoin:miter;stroke-opacity:1"
       d="m 228.27566,215.22153 c 31.00453,0 31.00453,0 31.00453,0"
       id="path3156-0-0-9"
       inkscape:connector-curvature="0" />
    <path
       sodipodi:type="arc"
       style="fill:#000000;fill-opacity:1;stroke:#000000;stroke-width:1.58500004;stroke-miterlimit:4;stroke-opacity:0;stroke-dasharray:none;stroke-dashoffset:0"
       id="path2985-5-9-6-4-1"
       sodipodi:cx="112.85714"
       sodipodi:cy="152.00504"
       sodipodi:rx="55.714287"
       sodipodi:ry="66.785713"
       d="m 168.57143,152.00504 a 55.714287,66.785713 0 1 1 -111.428577,0 55.714287,66.785713 0 1 1 111.428577,0 z"
       transform="matrix(0.04845087,0,0,0.03819192,285.74774,182.36082)" />
    <path
       sodipodi:type="arc"
       style="fill:#000000;fill-opacity:1;stroke:#000000;stroke-width:1.58500004;stroke-miterlimit:4;stroke-opacity:0;stroke-dasharray:none;stroke-dashoffset:0"
       id="path2985-5-0-7-5-1-2-3"
       sodipodi:cx="112.85714"
       sodipodi:cy="152.00504"
       sodipodi:rx="55.714287"
       sodipodi:ry="66.785713"
       d="m 168.57143,152.00504 a 55.714287,66.785713 0 1 1 -111.428577,0 55.714287,66.785713 0 1 1 111.428577,0 z"
       transform="matrix(0.04845087,0,0,0.03819192,317.12066,182.36082)" />
    <path
       style="fill:none;stroke:#000000;stroke-width:0.6132617px;stroke-linecap:butt;stroke-linejoin:miter;stroke-opacity:1"
       d="m 290.83949,188.28712 c 31.00452,0 31.00452,0 31.00452,0"
       id="path3156-2-8-6-4"
       inkscape:connector-curvature="0" />
    <path
       sodipodi:type="arc"
       style="fill:#000000;fill-opacity:1;stroke:#000000;stroke-width:1.58500004;stroke-miterlimit:4;stroke-opacity:0;stroke-dasharray:none;stroke-dashoffset:0"
       id="path2985-5-2-7-5-5"
       sodipodi:cx="112.85714"
       sodipodi:cy="152.00504"
       sodipodi:rx="55.714287"
       sodipodi:ry="66.785713"
       d="m 168.57143,152.00504 a 55.714287,66.785713 0 1 1 -111.428577,0 55.714287,66.785713 0 1 1 111.428577,0 z"
       transform="matrix(0.04813499,0,0,0.03824124,348.69793,209.8)" />
    <path
       sodipodi:type="arc"
       style="fill:#000000;fill-opacity:1;stroke:#000000;stroke-width:1.58500004;stroke-miterlimit:4;stroke-opacity:0;stroke-dasharray:none;stroke-dashoffset:0"
       id="path2985-5-9-6-8-2-0"
       sodipodi:cx="112.85714"
       sodipodi:cy="152.00504"
       sodipodi:rx="55.714287"
       sodipodi:ry="66.785713"
       d="m 168.57143,152.00504 a 55.714287,66.785713 0 1 1 -111.428577,0 55.714287,66.785713 0 1 1 111.428577,0 z"
       transform="matrix(0.04845087,0,0,0.03819192,348.67988,182.52307)" />
    <path
       style="fill:none;stroke:#000000;stroke-width:0.61326164px;stroke-linecap:butt;stroke-linejoin:miter;stroke-opacity:1"
       d="m 261.43766,188.26394 c 31.00453,0 31.00453,0 31.00453,0"
       id="path3156-5-9-59"
       inkscape:connector-curvature="0" />
    <path
       style="fill:none;stroke:#000000;stroke-width:0.61326164px;stroke-linecap:butt;stroke-linejoin:miter;stroke-opacity:1"
       d="m 321.91355,188.25919 c 31.00453,0 31.00453,0 31.00453,0"
       id="path3156-5-9-5-3"
       inkscape:connector-curvature="0" />
    <path
       style="fill:none;stroke:#000000;stroke-width:0.61326164px;stroke-linecap:butt;stroke-linejoin:miter;stroke-opacity:1"
       d="m 261.3369,215.29541 c 31.00453,0 31.00453,0 31.00453,0"
       id="path3156-5-9-1-2"
       inkscape:connector-curvature="0" />
    <path
       style="fill:none;stroke:#000000;stroke-width:0.61326164px;stroke-linecap:butt;stroke-linejoin:miter;stroke-opacity:1"
       d="m 322.2051,215.68153 c 31.00454,0 31.00454,0 31.00454,0"
       id="path3156-5-9-5-1-5"
       inkscape:connector-curvature="0" />
    <path
       sodipodi:type="arc"
       style="fill:#000000;fill-opacity:1;stroke:#000000;stroke-width:1.58500004;stroke-miterlimit:4;stroke-opacity:0;stroke-dasharray:none;stroke-dashoffset:0"
       id="path2985-5-2-6-1-1-3"
       sodipodi:cx="112.85714"
       sodipodi:cy="152.00504"
       sodipodi:rx="55.714287"
       sodipodi:ry="66.785713"
       d="m 168.57143,152.00504 a 55.714287,66.785713 0 1 1 -111.428577,0 55.714287,66.785713 0 1 1 111.428577,0 z"
       transform="matrix(0.04813499,0,0,0.03824124,285.76578,237.45361)" />
    <path
       sodipodi:type="arc"
       style="fill:#000000;fill-opacity:1;stroke:#000000;stroke-width:1.58500004;stroke-miterlimit:4;stroke-opacity:0;stroke-dasharray:none;stroke-dashoffset:0"
       id="path2985-5-0-0-0-9-3"
       sodipodi:cx="112.85714"
       sodipodi:cy="152.00504"
       sodipodi:rx="55.714287"
       sodipodi:ry="66.785713"
       d="m 168.57143,152.00504 a 55.714287,66.785713 0 1 1 -111.428577,0 55.714287,66.785713 0 1 1 111.428577,0 z"
       transform="matrix(0.04813499,0,0,0.03824124,316.93609,237.45361)" />
    <path
       style="fill:none;stroke:#ff0000;stroke-width:1.52741921;stroke-linecap:butt;stroke-linejoin:miter;stroke-miterlimit:4;stroke-opacity:1;stroke-dasharray:none"
       d="m 293.82311,243.2921 c 25.77047,0 25.77047,0 25.77047,0"
       id="path3156-6-0-7-0"
       inkscape:connector-curvature="0" />
    <path
       sodipodi:type="arc"
       style="fill:#000000;fill-opacity:1;stroke:#000000;stroke-width:1.58500004;stroke-miterlimit:4;stroke-opacity:0;stroke-dasharray:none;stroke-dashoffset:0"
       id="path2985-5-21-1-6-6"
       sodipodi:cx="112.85714"
       sodipodi:cy="152.00504"
       sodipodi:rx="55.714287"
       sodipodi:ry="66.785713"
       d="m 168.57143,152.00504 a 55.714287,66.785713 0 1 1 -111.428577,0 55.714287,66.785713 0 1 1 111.428577,0 z"
       transform="matrix(0.04845087,0,0,0.03819192,223.1839,237.11105)" />
    <path
       sodipodi:type="arc"
       style="fill:#000000;fill-opacity:1;stroke:#000000;stroke-width:1.58500004;stroke-miterlimit:4;stroke-opacity:0;stroke-dasharray:none;stroke-dashoffset:0"
       id="path2985-5-0-6-7-6-4"
       sodipodi:cx="112.85714"
       sodipodi:cy="152.00504"
       sodipodi:rx="55.714287"
       sodipodi:ry="66.785713"
       d="m 168.57143,152.00504 a 55.714287,66.785713 0 1 1 -111.428577,0 55.714287,66.785713 0 1 1 111.428577,0 z"
       transform="matrix(0.04845087,0,0,0.03819192,254.25766,237.11105)" />
    <path
       style="fill:none;stroke:#000000;stroke-width:0.61326164px;stroke-linecap:butt;stroke-linejoin:miter;stroke-opacity:1"
       d="m 228.27566,243.03738 c 31.00453,0 31.00453,0 31.00453,0"
       id="path3156-0-0-9-1"
       inkscape:connector-curvature="0" />
    <path
       sodipodi:type="arc"
       style="fill:#000000;fill-opacity:1;stroke:#000000;stroke-width:1.58500004;stroke-miterlimit:4;stroke-opacity:0;stroke-dasharray:none;stroke-dashoffset:0"
       id="path2985-5-2-7-5-5-0"
       sodipodi:cx="112.85714"
       sodipodi:cy="152.00504"
       sodipodi:rx="55.714287"
       sodipodi:ry="66.785713"
       d="m 168.57143,152.00504 a 55.714287,66.785713 0 1 1 -111.428577,0 55.714287,66.785713 0 1 1 111.428577,0 z"
       transform="matrix(0.04813499,0,0,0.03824124,348.69793,237.61587)" />
    <path
       style="fill:none;stroke:#ff0000;stroke-width:1.5351845;stroke-linecap:butt;stroke-linejoin:miter;stroke-miterlimit:4;stroke-opacity:1;stroke-dasharray:none"
       d="m 262.17157,243.11127 c 26.20399,0 26.20399,0 26.20399,0"
       id="path3156-5-9-1-2-1"
       inkscape:connector-curvature="0" />
    <path
       style="fill:none;stroke:#000000;stroke-width:0.61326164px;stroke-linecap:butt;stroke-linejoin:miter;stroke-opacity:1"
       d="m 321.72227,243.49739 c 31.00454,0 31.00454,0 31.00454,0"
       id="path3156-5-9-5-1-5-2"
       inkscape:connector-curvature="0" />
    <path
       style="fill:none;stroke:#000000;stroke-width:0.61356753;stroke-linecap:butt;stroke-linejoin:miter;stroke-miterlimit:4;stroke-opacity:1;stroke-dasharray:none"
       d="m 228.36784,214.88701 c 0,27.89513 0,27.89513 0,27.89513"
       id="path3568"
       inkscape:connector-curvature="0" />
    <path
       style="fill:none;stroke:#000000;stroke-width:0.9542262px;stroke-linecap:butt;stroke-linejoin:miter;stroke-opacity:1"
       d="m 228.56948,134.27326 c 0,26.46013 0,26.46013 0,26.46013"
       id="path3135"
       inkscape:connector-curvature="0" />
    <path
       style="fill:none;stroke:#ff0000;stroke-width:1.57650745;stroke-linecap:butt;stroke-linejoin:miter;stroke-miterlimit:4;stroke-opacity:1;stroke-dasharray:none"
       d="m 259.7115,136.53784 c 0,22.17151 0,22.17151 0,22.17151"
       id="path3135-1"
       inkscape:connector-curvature="0" />
    <path
       style="fill:none;stroke:#000000;stroke-width:0.9542262px;stroke-linecap:butt;stroke-linejoin:miter;stroke-opacity:1"
       d="m 291.29827,135.71653 c 0,26.46015 0,26.46015 0,26.46015"
       id="path3135-7"
       inkscape:connector-curvature="0" />
    <path
       style="fill:none;stroke:#000000;stroke-width:0.9542262px;stroke-linecap:butt;stroke-linejoin:miter;stroke-opacity:1"
       d="m 322.73945,135.47599 c 0,26.46014 0,26.46014 0,26.46014"
       id="path3135-8"
       inkscape:connector-curvature="0" />
    <path
       style="fill:none;stroke:#000000;stroke-width:0.9542262px;stroke-linecap:butt;stroke-linejoin:miter;stroke-opacity:1"
       d="m 354.17092,135.47599 c 0,26.46014 0,26.46014 0,26.46014"
       id="path3135-3"
       inkscape:connector-curvature="0" />
    <path
       style="fill:none;stroke:#000000;stroke-width:0.9542262px;stroke-linecap:butt;stroke-linejoin:miter;stroke-opacity:1"
       d="m 228.56948,160.97394 c 0,26.46015 0,26.46015 0,26.46015"
       id="path3135-9"
       inkscape:connector-curvature="0" />
    <path
       style="fill:none;stroke:#000000;stroke-width:0.9542262px;stroke-linecap:butt;stroke-linejoin:miter;stroke-opacity:1"
       d="m 228.56948,187.91519 c 0,26.46013 0,26.46013 0,26.46013"
       id="path3135-86"
       inkscape:connector-curvature="0" />
    <path
       style="fill:none;stroke:#000000;stroke-width:0.9542262px;stroke-linecap:butt;stroke-linejoin:miter;stroke-opacity:1"
       d="m 354.17092,162.17668 c 0,26.46014 0,26.46014 0,26.46014"
       id="path3135-32"
       inkscape:connector-curvature="0" />
    <path
       style="fill:none;stroke:#ff0000;stroke-width:1.5127151;stroke-linecap:butt;stroke-linejoin:miter;stroke-miterlimit:4;stroke-opacity:1;stroke-dasharray:none"
       d="m 322.73945,163.94868 c 0,21.7134 0,21.7134 0,21.7134"
       id="path3135-0"
       inkscape:connector-curvature="0" />
    <path
       style="fill:none;stroke:#000000;stroke-width:0.9542262px;stroke-linecap:butt;stroke-linejoin:miter;stroke-opacity:1"
       d="m 291.29826,162.89833 c 0,26.46013 0,26.46013 0,26.46013"
       id="path3135-6"
       inkscape:connector-curvature="0" />
    <path
       style="fill:none;stroke:#000000;stroke-width:0.9542262px;stroke-linecap:butt;stroke-linejoin:miter;stroke-opacity:1"
       d="m 259.7115,162.41723 c 0,26.46013 0,26.46013 0,26.46013"
       id="path3135-62"
       inkscape:connector-curvature="0" />
    <path
       style="fill:none;stroke:#000000;stroke-width:0.9542262px;stroke-linecap:butt;stroke-linejoin:miter;stroke-opacity:1"
       d="m 259.47009,188.15573 c 0,26.46013 0,26.46013 0,26.46013"
       id="path3135-5"
       inkscape:connector-curvature="0" />
    <path
       style="fill:none;stroke:#000000;stroke-width:0.9542262px;stroke-linecap:butt;stroke-linejoin:miter;stroke-opacity:1"
       d="m 291.29827,188.87736 c 0,26.46015 0,26.46015 0,26.46015"
       id="path3135-05"
       inkscape:connector-curvature="0" />
    <path
       style="fill:none;stroke:#ff0000;stroke-width:1.55922306;stroke-linecap:butt;stroke-linejoin:miter;stroke-miterlimit:4;stroke-opacity:1;stroke-dasharray:none"
       d="m 291.05686,217.87497 c 0,23.06905 0,23.06905 0,23.06905"
       id="path3135-00"
       inkscape:connector-curvature="0" />
    <path
       style="fill:none;stroke:#000000;stroke-width:0.9542262px;stroke-linecap:butt;stroke-linejoin:miter;stroke-opacity:1"
       d="m 259.47009,215.8186 c 0,26.46014 0,26.46014 0,26.46014"
       id="path3135-37"
       inkscape:connector-curvature="0" />
    <path
       style="fill:none;stroke:#000000;stroke-width:0.9542262px;stroke-linecap:butt;stroke-linejoin:miter;stroke-opacity:1"
       d="m 322.49804,189.35846 c 0,26.46014 0,26.46014 0,26.46014"
       id="path3135-14"
       inkscape:connector-curvature="0" />
    <path
       style="fill:none;stroke:#000000;stroke-width:0.9542262px;stroke-linecap:butt;stroke-linejoin:miter;stroke-opacity:1"
       d="m 322.25662,216.54025 c 0,26.46015 0,26.46015 0,26.46015"
       id="path3135-50"
       inkscape:connector-curvature="0" />
    <path
       style="fill:none;stroke:#000000;stroke-width:0.9542262px;stroke-linecap:butt;stroke-linejoin:miter;stroke-opacity:1"
       d="m 354.17092,188.39628 c 0,26.46013 0,26.46013 0,26.46013"
       id="path3135-60"
       inkscape:connector-curvature="0" />
    <path
       style="fill:none;stroke:#000000;stroke-width:0.9542262px;stroke-linecap:butt;stroke-linejoin:miter;stroke-opacity:1"
       d="m 354.17092,216.7808 c 0,26.46015 0,26.46015 0,26.46015"
       id="path3135-98"
       inkscape:connector-curvature="0" />
    <text
       xml:space="preserve"
       style="font-size:12px;font-style:normal;font-weight:normal;line-height:125%;letter-spacing:0px;word-spacing:0px;fill:#000000;fill-opacity:1;stroke:none;font-family:Sans"
       x="242.34076"
       y="276.25824"
       id="text3056"
       sodipodi:linespacing="125%"><tspan
         sodipodi:role="line"
         x="242.34076"
         y="276.25824"
         id="tspan3060">La miramos sobre</tspan></text>
    <text
       xml:space="preserve"
       style="font-size:12px;font-style:normal;font-weight:normal;line-height:125%;letter-spacing:0px;word-spacing:0px;fill:#000000;fill-opacity:1;stroke:none;font-family:Sans"
       x="241.57384"
       y="294.28046"
       id="text3064"
       sodipodi:linespacing="125%"><tspan
         sodipodi:role="line"
         id="tspan3066"
         x="241.57384"
         y="294.28046">la instancia de \probl{SR}</tspan></text>
  </g>
</svg>
