<?xml version="1.0" encoding="UTF-8" standalone="no"?>
<!-- Created with Inkscape (http://www.inkscape.org/) -->

<svg
   xmlns:dc="http://purl.org/dc/elements/1.1/"
   xmlns:cc="http://creativecommons.org/ns#"
   xmlns:rdf="http://www.w3.org/1999/02/22-rdf-syntax-ns#"
   xmlns:svg="http://www.w3.org/2000/svg"
   xmlns="http://www.w3.org/2000/svg"
   xmlns:sodipodi="http://sodipodi.sourceforge.net/DTD/sodipodi-0.dtd"
   xmlns:inkscape="http://www.inkscape.org/namespaces/inkscape"
   width="744.09448819"
   height="1052.3622047"
   id="svg5022"
   version="1.1"
   inkscape:version="0.48.4 r9939"
   sodipodi:docname="sr_grillas_aproximado_7.svg">
  <defs
     id="defs5024" />
  <sodipodi:namedview
     id="base"
     pagecolor="#ffffff"
     bordercolor="#666666"
     borderopacity="1.0"
     inkscape:pageopacity="0.0"
     inkscape:pageshadow="2"
     inkscape:zoom="3.959798"
     inkscape:cx="138.57061"
     inkscape:cy="792.49944"
     inkscape:document-units="px"
     inkscape:current-layer="layer1"
     showgrid="false"
     inkscape:window-width="1851"
     inkscape:window-height="1053"
     inkscape:window-x="69"
     inkscape:window-y="27"
     inkscape:window-maximized="1" />
  <metadata
     id="metadata5027">
    <rdf:RDF>
      <cc:Work
         rdf:about="">
        <dc:format>image/svg+xml</dc:format>
        <dc:type
           rdf:resource="http://purl.org/dc/dcmitype/StillImage" />
        <dc:title />
      </cc:Work>
    </rdf:RDF>
  </metadata>
  <g
     inkscape:label="Layer 1"
     inkscape:groupmode="layer"
     id="layer1">
    <path
       sodipodi:type="arc"
       style="fill:#000000;fill-opacity:1;stroke:#000000;stroke-width:1.58500004;stroke-miterlimit:4;stroke-opacity:0;stroke-dasharray:none;stroke-dashoffset:0"
       id="path2985-5-97-9"
       sodipodi:cx="112.85714"
       sodipodi:cy="152.00504"
       sodipodi:rx="55.714287"
       sodipodi:ry="66.785713"
       d="m 168.57143,152.00504 a 55.714287,66.785713 0 1 1 -111.428577,0 55.714287,66.785713 0 1 1 111.428577,0 z"
       transform="matrix(0.05068406,0,0,0.0400958,59.934268,247.30108)" />
    <path
       sodipodi:type="arc"
       style="fill:#000000;fill-opacity:1;stroke:#000000;stroke-width:1.58500004;stroke-miterlimit:4;stroke-opacity:0;stroke-dasharray:none;stroke-dashoffset:0"
       id="path2985-5-0-8-5"
       sodipodi:cx="112.85714"
       sodipodi:cy="152.00504"
       sodipodi:rx="55.714287"
       sodipodi:ry="66.785713"
       d="m 168.57143,152.00504 a 55.714287,66.785713 0 1 1 -111.428577,0 55.714287,66.785713 0 1 1 111.428577,0 z"
       transform="matrix(0.05068406,0,0,0.0400958,92.440278,247.30108)" />
    <path
       style="fill:none;stroke:#aa00ff;stroke-width:0.58625001px;stroke-linecap:butt;stroke-linejoin:miter;stroke-opacity:1"
       d="m 68.236017,253.52282 c 26.988068,0 26.988068,0 26.988068,0"
       id="path3156-5-5"
       inkscape:connector-curvature="0" />
    <path
       sodipodi:type="arc"
       style="fill:#000000;fill-opacity:1;stroke:#000000;stroke-width:1.58500004;stroke-miterlimit:4;stroke-opacity:0;stroke-dasharray:none;stroke-dashoffset:0"
       id="path2985-5-2-6-1"
       sodipodi:cx="112.85714"
       sodipodi:cy="152.00504"
       sodipodi:rx="55.714287"
       sodipodi:ry="66.785713"
       d="m 168.57143,152.00504 a 55.714287,66.785713 0 1 1 -111.428577,0 55.714287,66.785713 0 1 1 111.428577,0 z"
       transform="matrix(0.05035362,0,0,0.04014758,129.48112,276.13698)" />
    <path
       sodipodi:type="arc"
       style="fill:#000000;fill-opacity:1;stroke:#000000;stroke-width:1.58500004;stroke-miterlimit:4;stroke-opacity:0;stroke-dasharray:none;stroke-dashoffset:0"
       id="path2985-5-0-0-0-9"
       sodipodi:cx="112.85714"
       sodipodi:cy="152.00504"
       sodipodi:rx="55.714287"
       sodipodi:ry="66.785713"
       d="m 168.57143,152.00504 a 55.714287,66.785713 0 1 1 -111.428577,0 55.714287,66.785713 0 1 1 111.428577,0 z"
       transform="matrix(0.05035362,0,0,0.04014758,161.77518,276.13698)" />
    <path
       style="fill:none;stroke:#aa00ff;stroke-width:0.58162445px;stroke-linecap:butt;stroke-linejoin:miter;stroke-opacity:1"
       d="m 137.99788,282.26651 c 26.52963,0 26.52963,0 26.52963,0"
       id="path3156-6-0-7"
       inkscape:connector-curvature="0" />
    <path
       sodipodi:type="arc"
       style="fill:#000000;fill-opacity:1;stroke:#000000;stroke-width:1.58500004;stroke-miterlimit:4;stroke-opacity:0;stroke-dasharray:none;stroke-dashoffset:0"
       id="path2985-5-21-1-6"
       sodipodi:cx="112.85714"
       sodipodi:cy="152.00504"
       sodipodi:rx="55.714287"
       sodipodi:ry="66.785713"
       d="m 168.57143,152.00504 a 55.714287,66.785713 0 1 1 -111.428577,0 55.714287,66.785713 0 1 1 111.428577,0 z"
       transform="matrix(0.05068406,0,0,0.0400958,59.934268,275.77734)" />
    <path
       sodipodi:type="arc"
       style="fill:#000000;fill-opacity:1;stroke:#000000;stroke-width:1.58500004;stroke-miterlimit:4;stroke-opacity:0;stroke-dasharray:none;stroke-dashoffset:0"
       id="path2985-5-0-6-7-6"
       sodipodi:cx="112.85714"
       sodipodi:cy="152.00504"
       sodipodi:rx="55.714287"
       sodipodi:ry="66.785713"
       d="m 168.57143,152.00504 a 55.714287,66.785713 0 1 1 -111.428577,0 55.714287,66.785713 0 1 1 111.428577,0 z"
       transform="matrix(0.05068406,0,0,0.0400958,92.440278,275.77734)" />
    <path
       style="fill:none;stroke:#aa00ff;stroke-width:0.57813102px;stroke-linecap:butt;stroke-linejoin:miter;stroke-opacity:1"
       d="m 68.985994,281.99909 c 26.245729,0 26.245729,0 26.245729,0"
       id="path3156-0-0-9"
       inkscape:connector-curvature="0" />
    <path
       sodipodi:type="arc"
       style="fill:#000000;fill-opacity:1;stroke:#000000;stroke-width:1.58500004;stroke-miterlimit:4;stroke-opacity:0;stroke-dasharray:none;stroke-dashoffset:0"
       id="path2985-5-9-6-4-1"
       sodipodi:cx="112.85714"
       sodipodi:cy="152.00504"
       sodipodi:rx="55.714287"
       sodipodi:ry="66.785713"
       d="m 168.57143,152.00504 a 55.714287,66.785713 0 1 1 -111.428577,0 55.714287,66.785713 0 1 1 111.428577,0 z"
       transform="matrix(0.05068406,0,0,0.0400958,129.46224,247.50027)" />
    <path
       sodipodi:type="arc"
       style="fill:#000000;fill-opacity:1;stroke:#000000;stroke-width:1.58500004;stroke-miterlimit:4;stroke-opacity:0;stroke-dasharray:none;stroke-dashoffset:0"
       id="path2985-5-0-7-5-1-2"
       sodipodi:cx="112.85714"
       sodipodi:cy="152.00504"
       sodipodi:rx="55.714287"
       sodipodi:ry="66.785713"
       d="m 168.57143,152.00504 a 55.714287,66.785713 0 1 1 -111.428577,0 55.714287,66.785713 0 1 1 111.428577,0 z"
       transform="matrix(0.05068406,0,0,0.0400958,161.96826,247.50027)" />
    <path
       style="fill:none;stroke:#aa00ff;stroke-width:0.58085108px;stroke-linecap:butt;stroke-linejoin:miter;stroke-opacity:1"
       d="m 138.01137,253.722 c 26.49327,0 26.49327,0 26.49327,0"
       id="path3156-2-8-6-4"
       inkscape:connector-curvature="0" />
    <path
       sodipodi:type="arc"
       style="fill:#000000;fill-opacity:1;stroke:#000000;stroke-width:1.58500004;stroke-miterlimit:4;stroke-opacity:0;stroke-dasharray:none;stroke-dashoffset:0"
       id="path2985-5-2-7-5-5"
       sodipodi:cx="112.85714"
       sodipodi:cy="152.00504"
       sodipodi:rx="55.714287"
       sodipodi:ry="66.785713"
       d="m 168.57143,152.00504 a 55.714287,66.785713 0 1 1 -111.428577,0 55.714287,66.785713 0 1 1 111.428577,0 z"
       transform="matrix(0.05035362,0,0,0.04014758,197.56795,276.20748)" />
    <path
       sodipodi:type="arc"
       style="fill:#000000;fill-opacity:1;stroke:#000000;stroke-width:1.58500004;stroke-miterlimit:4;stroke-opacity:0;stroke-dasharray:none;stroke-dashoffset:0"
       id="path2985-5-9-6-8-2-0"
       sodipodi:cx="112.85714"
       sodipodi:cy="152.00504"
       sodipodi:rx="55.714287"
       sodipodi:ry="66.785713"
       d="m 168.57143,152.00504 a 55.714287,66.785713 0 1 1 -111.428577,0 55.714287,66.785713 0 1 1 111.428577,0 z"
       transform="matrix(0.05068406,0,0,0.0400958,197.54907,247.57077)" />
    <path
       style="fill:none;stroke:#aa00ff;stroke-width:0.61766279px;stroke-linecap:butt;stroke-linejoin:miter;stroke-opacity:1"
       d="m 101.44169,253.69766 c 29.95773,0 29.95773,0 29.95773,0"
       id="path3156-5-9-59"
       inkscape:connector-curvature="0" />
    <path
       style="fill:none;stroke:#aa00ff;stroke-width:0.60476953px;stroke-linecap:butt;stroke-linejoin:miter;stroke-opacity:1"
       d="m 170.57215,253.59284 c 28.72008,0 28.72008,0 28.72008,0"
       id="path3156-5-9-5-3"
       inkscape:connector-curvature="0" />
    <path
       style="fill:none;stroke:#aa00ff;stroke-width:0.62526965px;stroke-linecap:butt;stroke-linejoin:miter;stroke-opacity:1"
       d="m 101.5964,282.07666 c 30.70018,0 30.70018,0 30.70018,0"
       id="path3156-5-9-1-2"
       inkscape:connector-curvature="0" />
    <path
       style="fill:none;stroke:#aa00ff;stroke-width:0.62274277px;stroke-linecap:butt;stroke-linejoin:miter;stroke-opacity:1"
       d="m 170.38972,282.48203 c 30.45255,0 30.45255,0 30.45255,0"
       id="path3156-5-9-5-1-5"
       inkscape:connector-curvature="0" />
    <path
       sodipodi:type="arc"
       style="fill:#000000;fill-opacity:1;stroke:#000000;stroke-width:1.58500004;stroke-miterlimit:4;stroke-opacity:0;stroke-dasharray:none;stroke-dashoffset:0"
       id="path2985-5-2-6-1-1"
       sodipodi:cx="112.85714"
       sodipodi:cy="152.00504"
       sodipodi:rx="55.714287"
       sodipodi:ry="66.785713"
       d="m 168.57143,152.00504 a 55.714287,66.785713 0 1 1 -111.428577,0 55.714287,66.785713 0 1 1 111.428577,0 z"
       transform="matrix(0.05035362,0,0,0.04014758,129.48112,305.33947)" />
    <path
       sodipodi:type="arc"
       style="fill:#000000;fill-opacity:1;stroke:#000000;stroke-width:1.58500004;stroke-miterlimit:4;stroke-opacity:0;stroke-dasharray:none;stroke-dashoffset:0"
       id="path2985-5-0-0-0-9-3"
       sodipodi:cx="112.85714"
       sodipodi:cy="152.00504"
       sodipodi:rx="55.714287"
       sodipodi:ry="66.785713"
       d="m 168.57143,152.00504 a 55.714287,66.785713 0 1 1 -111.428577,0 55.714287,66.785713 0 1 1 111.428577,0 z"
       transform="matrix(0.05035362,0,0,0.04014758,161.77518,305.33947)" />
    <path
       style="fill:none;stroke:#aa00ff;stroke-width:0.61072534px;stroke-linecap:butt;stroke-linejoin:miter;stroke-opacity:1"
       d="m 134.74326,311.469 c 29.2508,0 29.2508,0 29.2508,0"
       id="path3156-6-0-7-0"
       inkscape:connector-curvature="0" />
    <path
       sodipodi:type="arc"
       style="fill:#000000;fill-opacity:1;stroke:#000000;stroke-width:1.58500004;stroke-miterlimit:4;stroke-opacity:0;stroke-dasharray:none;stroke-dashoffset:0"
       id="path2985-5-21-1-6-6"
       sodipodi:cx="112.85714"
       sodipodi:cy="152.00504"
       sodipodi:rx="55.714287"
       sodipodi:ry="66.785713"
       d="m 168.57143,152.00504 a 55.714287,66.785713 0 1 1 -111.428577,0 55.714287,66.785713 0 1 1 111.428577,0 z"
       transform="matrix(0.05068406,0,0,0.0400958,59.934268,304.97983)" />
    <path
       sodipodi:type="arc"
       style="fill:#000000;fill-opacity:1;stroke:#000000;stroke-width:1.58500004;stroke-miterlimit:4;stroke-opacity:0;stroke-dasharray:none;stroke-dashoffset:0"
       id="path2985-5-0-6-7-6-4"
       sodipodi:cx="112.85714"
       sodipodi:cy="152.00504"
       sodipodi:rx="55.714287"
       sodipodi:ry="66.785713"
       d="m 168.57143,152.00504 a 55.714287,66.785713 0 1 1 -111.428577,0 55.714287,66.785713 0 1 1 111.428577,0 z"
       transform="matrix(0.05068406,0,0,0.0400958,92.440278,304.97983)" />
    <path
       style="fill:none;stroke:#aa00ff;stroke-width:0.58624947px;stroke-linecap:butt;stroke-linejoin:miter;stroke-opacity:1"
       d="m 68.488578,311.20158 c 26.988023,0 26.988023,0 26.988023,0"
       id="path3156-0-0-9-1"
       inkscape:connector-curvature="0" />
    <path
       sodipodi:type="arc"
       style="fill:#000000;fill-opacity:1;stroke:#000000;stroke-width:1.58500004;stroke-miterlimit:4;stroke-opacity:0;stroke-dasharray:none;stroke-dashoffset:0"
       id="path2985-5-2-7-5-5-0"
       sodipodi:cx="112.85714"
       sodipodi:cy="152.00504"
       sodipodi:rx="55.714287"
       sodipodi:ry="66.785713"
       d="m 168.57143,152.00504 a 55.714287,66.785713 0 1 1 -111.428577,0 55.714287,66.785713 0 1 1 111.428577,0 z"
       transform="matrix(0.05035362,0,0,0.04014758,197.56795,305.50981)" />
    <path
       style="fill:none;stroke:#aa00ff;stroke-width:0.62020952px;stroke-linecap:butt;stroke-linejoin:miter;stroke-opacity:1"
       d="m 100.83369,311.27915 c 30.20529,0 30.20529,0 30.20529,0"
       id="path3156-5-9-1-2-1"
       inkscape:connector-curvature="0" />
    <path
       style="fill:none;stroke:#aa00ff;stroke-width:0.62274277px;stroke-linecap:butt;stroke-linejoin:miter;stroke-opacity:1"
       d="m 170.38972,311.68452 c 30.45255,0 30.45255,0 30.45255,0"
       id="path3156-5-9-5-1-5-2"
       inkscape:connector-curvature="0" />
    <path
       style="fill:none;stroke:#aa00ff;stroke-width:0.58881074;stroke-linecap:butt;stroke-linejoin:miter;stroke-miterlimit:4;stroke-opacity:1;stroke-dasharray:none"
       d="m 203.31379,256.26798 c 0,23.35963 0,23.06015 0,23.06015"
       id="path3566"
       inkscape:connector-curvature="0" />
    <path
       style="fill:none;stroke:#aa00ff;stroke-width:0.57728177;stroke-linecap:butt;stroke-linejoin:miter;stroke-miterlimit:4;stroke-opacity:1;stroke-dasharray:none"
       d="m 65.357142,284.36184 c 0,23.6053 0,23.6053 0,23.6053"
       id="path3568"
       inkscape:connector-curvature="0" />
    <path
       style="fill:none;stroke:#aa00ff;stroke-width:1.07353377000000005px;stroke-linecap:butt;stroke-linejoin:miter;stroke-opacity:1"
       d="m 90.453083,250.63114 c 4.97647,2.97281 4.97647,2.97281 4.97647,2.97281"
       id="path3400-9-9"
       inkscape:connector-curvature="0" />
    <path
       style="fill:none;stroke:#aa00ff;stroke-width:1.07353377000000005px;stroke-linecap:butt;stroke-linejoin:miter;stroke-opacity:1"
       d="m 95.430103,253.35806 c -5.23999,3.43166 -4.99025,3.17457 -4.99025,3.17457"
       id="path3402-8-2"
       inkscape:connector-curvature="0" />
    <path
       style="fill:none;stroke:#aa00ff;stroke-width:1.07353377000000005px;stroke-linecap:butt;stroke-linejoin:miter;stroke-opacity:1"
       d="m 127.07111,250.88367 c 4.97647,2.97281 4.97647,2.97281 4.97647,2.97281"
       id="path3400-9-02"
       inkscape:connector-curvature="0" />
    <path
       style="fill:none;stroke:#aa00ff;stroke-width:1.07353377000000005px;stroke-linecap:butt;stroke-linejoin:miter;stroke-opacity:1"
       d="m 132.04813,253.61059 c -5.23999,3.43166 -4.99025,3.17457 -4.99025,3.17457"
       id="path3402-8-7"
       inkscape:connector-curvature="0" />
    <path
       style="fill:none;stroke:#aa00ff;stroke-width:1.07353377000000005px;stroke-linecap:butt;stroke-linejoin:miter;stroke-opacity:1"
       d="m 159.64853,250.88367 c 4.97647,2.97281 4.97647,2.97281 4.97647,2.97281"
       id="path3400-9-6"
       inkscape:connector-curvature="0" />
    <path
       style="fill:none;stroke:#aa00ff;stroke-width:1.07353377000000005px;stroke-linecap:butt;stroke-linejoin:miter;stroke-opacity:1"
       d="m 164.62555,253.61059 c -5.23999,3.43166 -4.99025,3.17457 -4.99025,3.17457"
       id="path3402-8-30"
       inkscape:connector-curvature="0" />
    <path
       style="fill:none;stroke:#aa00ff;stroke-width:1.07353377000000005px;stroke-linecap:butt;stroke-linejoin:miter;stroke-opacity:1"
       d="m 195.25641,250.78383 c 4.97647,2.97281 4.97647,2.97281 4.97647,2.97281"
       id="path3400-9-8"
       inkscape:connector-curvature="0" />
    <path
       style="fill:none;stroke:#aa00ff;stroke-width:1.07353377000000005px;stroke-linecap:butt;stroke-linejoin:miter;stroke-opacity:1"
       d="m 200.23343,253.51075 c -5.23999,3.43166 -4.99025,3.17457 -4.99025,3.17457"
       id="path3402-8-27"
       inkscape:connector-curvature="0" />
    <path
       style="fill:none;stroke:#aa00ff;stroke-width:1.07353377000000005px;stroke-linecap:butt;stroke-linejoin:miter;stroke-opacity:1"
       d="m 90.200548,308.46237 c 4.97647,2.97281 4.97647,2.97281 4.97647,2.97281"
       id="path3400-9-92"
       inkscape:connector-curvature="0" />
    <path
       style="fill:none;stroke:#aa00ff;stroke-width:1.07353377000000005px;stroke-linecap:butt;stroke-linejoin:miter;stroke-opacity:1"
       d="m 95.177568,311.18929 c -5.23999,3.43166 -4.99025,3.17457 -4.99025,3.17457"
       id="path3402-8-63"
       inkscape:connector-curvature="0" />
    <path
       style="fill:none;stroke:#aa00ff;stroke-width:1.07353377000000005px;stroke-linecap:butt;stroke-linejoin:miter;stroke-opacity:1"
       d="m 126.81858,308.46236 c 4.97646,2.97281 4.97646,2.97281 4.97646,2.97281"
       id="path3400-9-4"
       inkscape:connector-curvature="0" />
    <path
       style="fill:none;stroke:#aa00ff;stroke-width:1.07353377000000005px;stroke-linecap:butt;stroke-linejoin:miter;stroke-opacity:1"
       d="m 131.79559,311.18928 c -5.23998,3.43166 -4.99024,3.17457 -4.99024,3.17457"
       id="path3402-8-76"
       inkscape:connector-curvature="0" />
    <path
       style="fill:none;stroke:#aa00ff;stroke-width:1.07353377000000005px;stroke-linecap:butt;stroke-linejoin:miter;stroke-opacity:1"
       d="m 159.396,308.7149 c 4.97647,2.97281 4.97647,2.97281 4.97647,2.97281"
       id="path3400-9-15"
       inkscape:connector-curvature="0" />
    <path
       style="fill:none;stroke:#aa00ff;stroke-width:1.07353377000000005px;stroke-linecap:butt;stroke-linejoin:miter;stroke-opacity:1"
       d="m 164.37302,311.44182 c -5.23999,3.43166 -4.99025,3.17457 -4.99025,3.17457"
       id="path3402-8-64"
       inkscape:connector-curvature="0" />
    <path
       style="fill:none;stroke:#aa00ff;stroke-width:1.07353377000000005px;stroke-linecap:butt;stroke-linejoin:miter;stroke-opacity:1"
       d="m 195.2564,308.7149 c 4.97647,2.97281 4.97647,2.97281 4.97647,2.97281"
       id="path3400-9-88"
       inkscape:connector-curvature="0" />
    <path
       style="fill:none;stroke:#aa00ff;stroke-width:1.07353377000000005px;stroke-linecap:butt;stroke-linejoin:miter;stroke-opacity:1"
       d="m 200.23342,311.44182 c -5.23999,3.43166 -4.99025,3.17457 -4.99025,3.17457"
       id="path3402-8-1"
       inkscape:connector-curvature="0" />
    <path
       style="fill:none;stroke:#aa00ff;stroke-width:1.07353377000000005px;stroke-linecap:butt;stroke-linejoin:miter;stroke-opacity:1"
       d="m 175.49186,285.22642 c -5.00648,-2.922 -5.00648,-2.922 -5.00648,-2.922"
       id="path3400-9-7-9"
       inkscape:connector-curvature="0" />
    <path
       style="fill:none;stroke:#aa00ff;stroke-width:1.07353377000000005px;stroke-linecap:butt;stroke-linejoin:miter;stroke-opacity:1"
       d="m 170.48733,282.55029 c 5.20479,-3.48481 4.95768,-3.2252 4.95768,-3.2252"
       id="path3402-8-5-9"
       inkscape:connector-curvature="0" />
    <path
       style="fill:none;stroke:#aa00ff;stroke-width:1.07353377000000005px;stroke-linecap:butt;stroke-linejoin:miter;stroke-opacity:1"
       d="m 143.16698,285.07372 c -5.00648,-2.922 -5.00648,-2.922 -5.00648,-2.922"
       id="path3400-9-7-87"
       inkscape:connector-curvature="0" />
    <path
       style="fill:none;stroke:#aa00ff;stroke-width:1.07353377000000005px;stroke-linecap:butt;stroke-linejoin:miter;stroke-opacity:1"
       d="m 138.16245,282.39759 c 5.20479,-3.48481 4.95768,-3.2252 4.95768,-3.2252"
       id="path3402-8-5-2"
       inkscape:connector-curvature="0" />
    <path
       style="fill:none;stroke:#aa00ff;stroke-width:1.07353377000000005px;stroke-linecap:butt;stroke-linejoin:miter;stroke-opacity:1"
       d="m 106.29641,284.82118 c -5.00648,-2.922 -5.00648,-2.922 -5.00648,-2.922"
       id="path3400-9-7-3"
       inkscape:connector-curvature="0" />
    <path
       style="fill:none;stroke:#aa00ff;stroke-width:1.07353377000000005px;stroke-linecap:butt;stroke-linejoin:miter;stroke-opacity:1"
       d="m 101.29188,282.14505 c 5.20479,-3.48481 4.95768,-3.2252 4.95768,-3.2252"
       id="path3402-8-5-58"
       inkscape:connector-curvature="0" />
    <path
       style="fill:none;stroke:#aa00ff;stroke-width:1.07353377000000005px;stroke-linecap:butt;stroke-linejoin:miter;stroke-opacity:1"
       d="m 73.718998,284.82118 c -5.00648,-2.922 -5.00648,-2.922 -5.00648,-2.922"
       id="path3400-9-7-4"
       inkscape:connector-curvature="0" />
    <path
       style="fill:none;stroke:#aa00ff;stroke-width:1.07353377000000005px;stroke-linecap:butt;stroke-linejoin:miter;stroke-opacity:1"
       d="m 68.714468,282.14505 c 5.20479,-3.48481 4.95768,-3.2252 4.95768,-3.2252"
       id="path3402-8-5-52"
       inkscape:connector-curvature="0" />
    <path
       style="fill:none;stroke:#aa00ff;stroke-width:1.07353377000000005px;stroke-linecap:butt;stroke-linejoin:miter;stroke-opacity:1"
       d="m 205.99295,274.44818 c -2.85644,5.04418 -2.85644,5.04418 -2.85644,5.04418"
       id="path3400-9-7-35-1"
       inkscape:connector-curvature="0" />
    <path
       style="fill:none;stroke:#aa00ff;stroke-width:1.07353377000000005px;stroke-linecap:butt;stroke-linejoin:miter;stroke-opacity:1"
       d="m 203.38234,279.4872 c -3.55242,-5.15889 -3.28961,-4.91518 -3.28961,-4.91518"
       id="path3402-8-5-11-1"
       inkscape:connector-curvature="0" />
    <path
       style="fill:none;stroke:#aa00ff;stroke-width:1.07353377000000005px;stroke-linecap:butt;stroke-linejoin:miter;stroke-opacity:1"
       d="m 68.107128,303.08483 c -2.85644,5.04418 -2.85644,5.04418 -2.85644,5.04418"
       id="path3400-9-7-35-18"
       inkscape:connector-curvature="0" />
    <path
       style="fill:none;stroke:#aa00ff;stroke-width:1.07353377000000005px;stroke-linecap:butt;stroke-linejoin:miter;stroke-opacity:1"
       d="m 65.496518,308.12385 c -3.55242,-5.15889 -3.28961,-4.91518 -3.28961,-4.91518"
       id="path3402-8-5-11-4"
       inkscape:connector-curvature="0" />
    <path
       sodipodi:type="arc"
       style="fill:#000000;fill-opacity:1;stroke:#000000;stroke-width:1.58500004;stroke-miterlimit:4;stroke-opacity:0;stroke-dasharray:none;stroke-dashoffset:0"
       id="path2985-5-2-6-1-5"
       sodipodi:cx="112.85714"
       sodipodi:cy="152.00504"
       sodipodi:rx="55.714287"
       sodipodi:ry="66.785713"
       d="m 168.57143,152.00504 a 55.714287,66.785713 0 1 1 -111.428577,0 55.714287,66.785713 0 1 1 111.428577,0 z"
       transform="matrix(0.05035362,0,0,0.04014758,129.43509,334.52325)" />
    <path
       sodipodi:type="arc"
       style="fill:#000000;fill-opacity:1;stroke:#000000;stroke-width:1.58500004;stroke-miterlimit:4;stroke-opacity:0;stroke-dasharray:none;stroke-dashoffset:0"
       id="path2985-5-0-0-0-9-1"
       sodipodi:cx="112.85714"
       sodipodi:cy="152.00504"
       sodipodi:rx="55.714287"
       sodipodi:ry="66.785713"
       d="m 168.57143,152.00504 a 55.714287,66.785713 0 1 1 -111.428577,0 55.714287,66.785713 0 1 1 111.428577,0 z"
       transform="matrix(0.05035362,0,0,0.04014758,161.72915,334.52325)" />
    <path
       style="fill:none;stroke:#aa00ff;stroke-width:0.57617813px;stroke-linecap:butt;stroke-linejoin:miter;stroke-opacity:1"
       d="m 138.45165,340.65278 c 26.03511,0 26.03511,0 26.03511,0"
       id="path3156-6-0-7-9"
       inkscape:connector-curvature="0" />
    <path
       sodipodi:type="arc"
       style="fill:#000000;fill-opacity:1;stroke:#000000;stroke-width:1.58500004;stroke-miterlimit:4;stroke-opacity:0;stroke-dasharray:none;stroke-dashoffset:0"
       id="path2985-5-21-1-6-2"
       sodipodi:cx="112.85714"
       sodipodi:cy="152.00504"
       sodipodi:rx="55.714287"
       sodipodi:ry="66.785713"
       d="m 168.57143,152.00504 a 55.714287,66.785713 0 1 1 -111.428577,0 55.714287,66.785713 0 1 1 111.428577,0 z"
       transform="matrix(0.05068406,0,0,0.0400958,59.888237,334.16361)" />
    <path
       sodipodi:type="arc"
       style="fill:#000000;fill-opacity:1;stroke:#000000;stroke-width:1.58500004;stroke-miterlimit:4;stroke-opacity:0;stroke-dasharray:none;stroke-dashoffset:0"
       id="path2985-5-0-6-7-6-8"
       sodipodi:cx="112.85714"
       sodipodi:cy="152.00504"
       sodipodi:rx="55.714287"
       sodipodi:ry="66.785713"
       d="m 168.57143,152.00504 a 55.714287,66.785713 0 1 1 -111.428577,0 55.714287,66.785713 0 1 1 111.428577,0 z"
       transform="matrix(0.05068406,0,0,0.0400958,92.394247,334.16361)" />
    <path
       style="fill:none;stroke:#aa00ff;stroke-width:0.58085072px;stroke-linecap:butt;stroke-linejoin:miter;stroke-opacity:1"
       d="m 68.942475,340.38536 c 26.493242,0 26.493242,0 26.493242,0"
       id="path3156-0-0-9-6"
       inkscape:connector-curvature="0" />
    <path
       sodipodi:type="arc"
       style="fill:#000000;fill-opacity:1;stroke:#000000;stroke-width:1.58500004;stroke-miterlimit:4;stroke-opacity:0;stroke-dasharray:none;stroke-dashoffset:0"
       id="path2985-5-2-7-5-5-09"
       sodipodi:cx="112.85714"
       sodipodi:cy="152.00504"
       sodipodi:rx="55.714287"
       sodipodi:ry="66.785713"
       d="m 168.57143,152.00504 a 55.714287,66.785713 0 1 1 -111.428577,0 55.714287,66.785713 0 1 1 111.428577,0 z"
       transform="matrix(0.05035362,0,0,0.04014758,197.52192,334.59375)" />
    <path
       style="fill:none;stroke:#aa00ff;stroke-width:0.62274277px;stroke-linecap:butt;stroke-linejoin:miter;stroke-opacity:1"
       d="m 101.80045,340.46293 c 30.45256,0 30.45256,0 30.45256,0"
       id="path3156-5-9-1-2-19"
       inkscape:connector-curvature="0" />
    <path
       style="fill:none;stroke:#aa00ff;stroke-width:0.61765808px;stroke-linecap:butt;stroke-linejoin:miter;stroke-opacity:1"
       d="m 170.84386,340.8683 c 29.95728,0 29.95728,0 29.95728,0"
       id="path3156-5-9-5-1-5-9"
       inkscape:connector-curvature="0" />
    <path
       style="fill:none;stroke:#aa00ff;stroke-width:0.57608771;stroke-linecap:butt;stroke-linejoin:miter;stroke-miterlimit:4;stroke-opacity:1;stroke-dasharray:none"
       d="m 203.26776,314.13699 c 0,22.36103 0,22.07436 0,22.07436"
       id="path3566-7"
       inkscape:connector-curvature="0" />
    <path
       style="fill:none;stroke:#aa00ff;stroke-width:1.07353377000000005px;stroke-linecap:butt;stroke-linejoin:miter;stroke-opacity:1"
       d="m 175.44583,343.61269 c -5.00648,-2.922 -5.00648,-2.922 -5.00648,-2.922"
       id="path3400-9-7-9-3"
       inkscape:connector-curvature="0" />
    <path
       style="fill:none;stroke:#aa00ff;stroke-width:1.07353377000000005px;stroke-linecap:butt;stroke-linejoin:miter;stroke-opacity:1"
       d="m 170.4413,340.93656 c 5.20479,-3.48481 4.95768,-3.2252 4.95768,-3.2252"
       id="path3402-8-5-9-7"
       inkscape:connector-curvature="0" />
    <path
       style="fill:none;stroke:#aa00ff;stroke-width:1.07353377000000005px;stroke-linecap:butt;stroke-linejoin:miter;stroke-opacity:1"
       d="m 143.12095,343.45999 c -5.00648,-2.922 -5.00648,-2.922 -5.00648,-2.922"
       id="path3400-9-7-87-5"
       inkscape:connector-curvature="0" />
    <path
       style="fill:none;stroke:#aa00ff;stroke-width:1.07353377000000005px;stroke-linecap:butt;stroke-linejoin:miter;stroke-opacity:1"
       d="m 138.11642,340.78386 c 5.20479,-3.48481 4.95768,-3.2252 4.95768,-3.2252"
       id="path3402-8-5-2-9"
       inkscape:connector-curvature="0" />
    <path
       style="fill:none;stroke:#aa00ff;stroke-width:1.07353377000000005px;stroke-linecap:butt;stroke-linejoin:miter;stroke-opacity:1"
       d="m 106.25038,343.20745 c -5.00648,-2.922 -5.00648,-2.922 -5.00648,-2.922"
       id="path3400-9-7-3-7"
       inkscape:connector-curvature="0" />
    <path
       style="fill:none;stroke:#aa00ff;stroke-width:1.07353377000000005px;stroke-linecap:butt;stroke-linejoin:miter;stroke-opacity:1"
       d="m 101.24585,340.53132 c 5.20479,-3.48481 4.95768,-3.2252 4.95768,-3.2252"
       id="path3402-8-5-58-0"
       inkscape:connector-curvature="0" />
    <path
       style="fill:none;stroke:#aa00ff;stroke-width:1.07353377000000005px;stroke-linecap:butt;stroke-linejoin:miter;stroke-opacity:1"
       d="m 73.672967,343.20745 c -5.00648,-2.922 -5.00648,-2.922 -5.00648,-2.922"
       id="path3400-9-7-4-2"
       inkscape:connector-curvature="0" />
    <path
       style="fill:none;stroke:#aa00ff;stroke-width:1.07353377000000005px;stroke-linecap:butt;stroke-linejoin:miter;stroke-opacity:1"
       d="m 68.668437,340.53132 c 5.20479,-3.48481 4.95768,-3.2252 4.95768,-3.2252"
       id="path3402-8-5-52-6"
       inkscape:connector-curvature="0" />
    <path
       style="fill:none;stroke:#aa00ff;stroke-width:1.07353377000000005px;stroke-linecap:butt;stroke-linejoin:miter;stroke-opacity:1"
       d="m 205.94692,332.83445 c -2.85644,5.04418 -2.85644,5.04418 -2.85644,5.04418"
       id="path3400-9-7-35-1-5"
       inkscape:connector-curvature="0" />
    <path
       style="fill:none;stroke:#aa00ff;stroke-width:1.07353377000000005px;stroke-linecap:butt;stroke-linejoin:miter;stroke-opacity:1"
       d="m 203.33631,337.87347 c -3.55242,-5.15889 -3.28961,-4.91518 -3.28961,-4.91518"
       id="path3402-8-5-11-1-0"
       inkscape:connector-curvature="0" />
  </g>
</svg>
