<?xml version="1.0" encoding="UTF-8" standalone="no"?>
<!-- Created with Inkscape (http://www.inkscape.org/) -->

<svg
   xmlns:dc="http://purl.org/dc/elements/1.1/"
   xmlns:cc="http://creativecommons.org/ns#"
   xmlns:rdf="http://www.w3.org/1999/02/22-rdf-syntax-ns#"
   xmlns:svg="http://www.w3.org/2000/svg"
   xmlns="http://www.w3.org/2000/svg"
   xmlns:sodipodi="http://sodipodi.sourceforge.net/DTD/sodipodi-0.dtd"
   xmlns:inkscape="http://www.inkscape.org/namespaces/inkscape"
   width="744.09448819"
   height="1052.3622047"
   id="svg2"
   version="1.1"
   inkscape:version="0.48.4 r9939"
   sodipodi:docname="sr_grillas_npc_2.svg">
  <defs
     id="defs4" />
  <sodipodi:namedview
     id="base"
     pagecolor="#ffffff"
     bordercolor="#666666"
     borderopacity="1.0"
     inkscape:pageopacity="0.0"
     inkscape:pageshadow="2"
     inkscape:zoom="2.5566406"
     inkscape:cx="266.8461"
     inkscape:cy="890.96963"
     inkscape:document-units="px"
     inkscape:current-layer="layer1"
     showgrid="false"
     inkscape:window-width="925"
     inkscape:window-height="1021"
     inkscape:window-x="69"
     inkscape:window-y="27"
     inkscape:window-maximized="0" />
  <metadata
     id="metadata7">
    <rdf:RDF>
      <cc:Work
         rdf:about="">
        <dc:format>image/svg+xml</dc:format>
        <dc:type
           rdf:resource="http://purl.org/dc/dcmitype/StillImage" />
        <dc:title></dc:title>
      </cc:Work>
    </rdf:RDF>
  </metadata>
  <g
     inkscape:label="Layer 1"
     inkscape:groupmode="layer"
     id="layer1">
    <path
       sodipodi:type="arc"
       style="fill:#000000;fill-opacity:1;stroke:#000000;stroke-width:1.58500004;stroke-miterlimit:4;stroke-opacity:0;stroke-dasharray:none;stroke-dashoffset:0"
       id="path2985-5"
       sodipodi:cx="112.85714"
       sodipodi:cy="152.00504"
       sodipodi:rx="55.714287"
       sodipodi:ry="66.785713"
       d="m 168.57143,152.00504 a 55.714287,66.785713 0 1 1 -111.428577,0 55.714287,66.785713 0 1 1 111.428577,0 z"
       transform="matrix(0.03655892,-9.6997273e-4,7.737338e-4,0.02916255,269.48206,116.21024)" />
    <path
       sodipodi:type="arc"
       style="fill:#000000;fill-opacity:1;stroke:#000000;stroke-width:1.57551563;stroke-miterlimit:4;stroke-opacity:0;stroke-dasharray:none;stroke-dashoffset:0"
       id="path2985-9-1-7-3-1"
       sodipodi:cx="112.85714"
       sodipodi:cy="152.00504"
       sodipodi:rx="55.714287"
       sodipodi:ry="66.785713"
       d="m 168.57143,152.00504 a 55.714287,66.785713 0 1 1 -111.428577,0 55.714287,66.785713 0 1 1 111.428577,0 z"
       transform="matrix(0.02846046,-7.551063e-4,5.9185757e-4,0.02230751,243.70973,117.62962)" />
    <path
       sodipodi:type="arc"
       style="fill:#000000;fill-opacity:1;stroke:#000000;stroke-width:1.58500004;stroke-miterlimit:4;stroke-opacity:0;stroke-dasharray:none;stroke-dashoffset:0"
       id="path2985-7"
       sodipodi:cx="112.85714"
       sodipodi:cy="152.00504"
       sodipodi:rx="55.714287"
       sodipodi:ry="66.785713"
       d="m 168.57143,152.00504 a 55.714287,66.785713 0 1 1 -111.428577,0 55.714287,66.785713 0 1 1 111.428577,0 z"
       transform="matrix(0.03655892,-9.6997273e-4,7.737338e-4,0.02916255,269.40512,116.68004)" />
    <path
       sodipodi:type="arc"
       style="fill:#000000;fill-opacity:1;stroke:#000000;stroke-width:1.58500004;stroke-miterlimit:4;stroke-opacity:0;stroke-dasharray:none;stroke-dashoffset:0"
       id="path2985-2-9-6"
       sodipodi:cx="112.85714"
       sodipodi:cy="152.00504"
       sodipodi:rx="55.714287"
       sodipodi:ry="66.785713"
       d="m 168.57143,152.00504 a 55.714287,66.785713 0 1 1 -111.428577,0 55.714287,66.785713 0 1 1 111.428577,0 z"
       transform="matrix(0.04580782,-0.00121536,0.00107329,0.04045306,267.97029,114.93022)" />
    <path
       sodipodi:type="arc"
       style="fill:#000000;fill-opacity:1;stroke:#000000;stroke-width:1.58500004;stroke-miterlimit:4;stroke-opacity:0;stroke-dasharray:none;stroke-dashoffset:0"
       id="path2985-5-2"
       sodipodi:cx="112.85714"
       sodipodi:cy="152.00504"
       sodipodi:rx="55.714287"
       sodipodi:ry="66.785713"
       d="m 168.57143,152.00504 a 55.714287,66.785713 0 1 1 -111.428577,0 55.714287,66.785713 0 1 1 111.428577,0 z"
       transform="matrix(-0.03654522,0.00139375,-0.00111177,-0.02915162,156.43252,126.64549)" />
    <path
       sodipodi:type="arc"
       style="fill:#000000;fill-opacity:1;stroke:#000000;stroke-width:1.57551563;stroke-miterlimit:4;stroke-opacity:0;stroke-dasharray:none;stroke-dashoffset:0"
       id="path2985-9-1-7-3-1-5"
       sodipodi:cx="112.85714"
       sodipodi:cy="152.00504"
       sodipodi:rx="55.714287"
       sodipodi:ry="66.785713"
       d="m 168.57143,152.00504 a 55.714287,66.785713 0 1 1 -111.428577,0 55.714287,66.785713 0 1 1 111.428577,0 z"
       transform="matrix(-0.0284498,0.00108501,-8.5043614e-4,-0.02229915,183.28363,124.68125)" />
    <path
       sodipodi:type="arc"
       style="fill:#000000;fill-opacity:1;stroke:#000000;stroke-width:1.58500004;stroke-miterlimit:4;stroke-opacity:0;stroke-dasharray:none;stroke-dashoffset:0"
       id="path2985-7-8"
       sodipodi:cx="112.85714"
       sodipodi:cy="152.00504"
       sodipodi:rx="55.714287"
       sodipodi:ry="66.785713"
       d="m 168.57143,152.00504 a 55.714287,66.785713 0 1 1 -111.428577,0 55.714287,66.785713 0 1 1 111.428577,0 z"
       transform="matrix(-0.03654522,0.00139375,-0.00111177,-0.02915162,156.504,126.17484)" />
    <path
       sodipodi:type="arc"
       style="fill:#000000;fill-opacity:1;stroke:#000000;stroke-width:1.58500004;stroke-miterlimit:4;stroke-opacity:0;stroke-dasharray:none;stroke-dashoffset:0"
       id="path2985-2-9-6-3"
       sodipodi:cx="112.85714"
       sodipodi:cy="152.00504"
       sodipodi:rx="55.714287"
       sodipodi:ry="66.785713"
       d="m 168.57143,152.00504 a 55.714287,66.785713 0 1 1 -111.428577,0 55.714287,66.785713 0 1 1 111.428577,0 z"
       transform="matrix(-0.04579065,0.00174635,-0.0015422,-0.0404379,157.95903,127.9079)" />
    <path
       sodipodi:type="arc"
       style="fill:#000000;fill-opacity:1;stroke:#000000;stroke-width:1.58500004;stroke-miterlimit:4;stroke-opacity:0;stroke-dasharray:none;stroke-dashoffset:0"
       id="path2985-5-2-7"
       sodipodi:cx="112.85714"
       sodipodi:cy="152.00504"
       sodipodi:rx="55.714287"
       sodipodi:ry="66.785713"
       d="m 168.57143,152.00504 a 55.714287,66.785713 0 1 1 -111.428577,0 55.714287,66.785713 0 1 1 111.428577,0 z"
       transform="matrix(-5.6359397e-4,-0.03656744,0.02916935,-4.4956594e-4,207.96959,64.606174)" />
    <path
       sodipodi:type="arc"
       style="fill:#000000;fill-opacity:1;stroke:#000000;stroke-width:1.57551563;stroke-miterlimit:4;stroke-opacity:0;stroke-dasharray:none;stroke-dashoffset:0"
       id="path2985-9-1-7-3-1-5-5"
       sodipodi:cx="112.85714"
       sodipodi:cy="152.00504"
       sodipodi:rx="55.714287"
       sodipodi:ry="66.785713"
       d="m 168.57143,152.00504 a 55.714287,66.785713 0 1 1 -111.428577,0 55.714287,66.785713 0 1 1 111.428577,0 z"
       transform="matrix(-4.3874838e-4,-0.0284671,0.02231271,-3.4389181e-4,209.25779,90.894477)" />
    <path
       sodipodi:type="arc"
       style="fill:#000000;fill-opacity:1;stroke:#000000;stroke-width:1.58500004;stroke-miterlimit:4;stroke-opacity:0;stroke-dasharray:none;stroke-dashoffset:0"
       id="path2985-7-8-4"
       sodipodi:cx="112.85714"
       sodipodi:cy="152.00504"
       sodipodi:rx="55.714287"
       sodipodi:ry="66.785713"
       d="m 168.57143,152.00504 a 55.714287,66.785713 0 1 1 -111.428577,0 55.714287,66.785713 0 1 1 111.428577,0 z"
       transform="matrix(-5.6359397e-4,-0.03656744,0.02916935,-4.4956594e-4,208.4385,64.688324)" />
    <path
       sodipodi:type="arc"
       style="fill:#000000;fill-opacity:1;stroke:#000000;stroke-width:1.58500004;stroke-miterlimit:4;stroke-opacity:0;stroke-dasharray:none;stroke-dashoffset:0"
       id="path2985-2-9-6-3-3"
       sodipodi:cx="112.85714"
       sodipodi:cy="152.00504"
       sodipodi:rx="55.714287"
       sodipodi:ry="66.785713"
       d="m 168.57143,152.00504 a 55.714287,66.785713 0 1 1 -111.428577,0 55.714287,66.785713 0 1 1 111.428577,0 z"
       transform="matrix(-7.0617609e-4,-0.0458185,0.04046249,-6.236184e-4,206.67284,66.103624)" />
    <path
       sodipodi:type="arc"
       style="fill:#000000;fill-opacity:1;stroke:#000000;stroke-width:1.58500004;stroke-miterlimit:4;stroke-opacity:0;stroke-dasharray:none;stroke-dashoffset:0"
       id="path2985-5-2-7-8"
       sodipodi:cx="112.85714"
       sodipodi:cy="152.00504"
       sodipodi:rx="55.714287"
       sodipodi:ry="66.785713"
       d="m 168.57143,152.00504 a 55.714287,66.785713 0 1 1 -111.428577,0 55.714287,66.785713 0 1 1 111.428577,0 z"
       transform="matrix(0.00164141,0.03653493,-0.02914342,0.00130933,217.30977,178.61889)" />
    <path
       sodipodi:type="arc"
       style="fill:#000000;fill-opacity:1;stroke:#000000;stroke-width:1.57551563;stroke-miterlimit:4;stroke-opacity:0;stroke-dasharray:none;stroke-dashoffset:0"
       id="path2985-9-1-7-3-1-5-5-6"
       sodipodi:cx="112.85714"
       sodipodi:cy="152.00504"
       sodipodi:rx="55.714287"
       sodipodi:ry="66.785713"
       d="m 168.57143,152.00504 a 55.714287,66.785713 0 1 1 -111.428577,0 55.714287,66.785713 0 1 1 111.428577,0 z"
       transform="matrix(0.00127781,0.02844179,-0.02229287,0.00100155,216.1445,154.08153)" />
    <path
       sodipodi:type="arc"
       style="fill:#000000;fill-opacity:1;stroke:#000000;stroke-width:1.58500004;stroke-miterlimit:4;stroke-opacity:0;stroke-dasharray:none;stroke-dashoffset:0"
       id="path2985-7-8-4-4"
       sodipodi:cx="112.85714"
       sodipodi:cy="152.00504"
       sodipodi:rx="55.714287"
       sodipodi:ry="66.785713"
       d="m 168.57143,152.00504 a 55.714287,66.785713 0 1 1 -111.428577,0 55.714287,66.785713 0 1 1 111.428577,0 z"
       transform="matrix(0.00164141,0.03653493,-0.02914342,0.00130933,216.83865,178.5506)" />
    <path
       sodipodi:type="arc"
       style="fill:#000000;fill-opacity:1;stroke:#000000;stroke-width:1.58500004;stroke-miterlimit:4;stroke-opacity:0;stroke-dasharray:none;stroke-dashoffset:0"
       id="path2985-2-9-6-3-3-1"
       sodipodi:cx="112.85714"
       sodipodi:cy="152.00504"
       sodipodi:rx="55.714287"
       sodipodi:ry="66.785713"
       d="m 168.57143,152.00504 a 55.714287,66.785713 0 1 1 -111.428577,0 55.714287,66.785713 0 1 1 111.428577,0 z"
       transform="matrix(0.00205667,0.04577776,-0.04042652,0.00181624,218.56181,177.08386)" />
    <path
       style="fill:none;stroke:#ff0000;stroke-width:0.85669047px;stroke-linecap:butt;stroke-linejoin:miter;stroke-opacity:1"
       d="m 155.14236,121.45308 c 23.25216,0 22.96509,0 22.96509,0"
       id="path4184"
       inkscape:connector-curvature="0" />
    <path
       style="fill:none;stroke:#ff0000;stroke-width:0.88948625px;stroke-linecap:butt;stroke-linejoin:miter;stroke-opacity:1"
       d="m 212.38808,63.066356 c 0,22.900267 0,22.900267 0,22.900267"
       id="path4186"
       inkscape:connector-curvature="0" />
    <path
       style="fill:none;stroke:#ff0000;stroke-width:0.84035397px;stroke-linecap:butt;stroke-linejoin:miter;stroke-opacity:1"
       d="m 249.00071,120.67081 c 21.82136,0 21.82136,0 21.82136,0"
       id="path4188"
       inkscape:connector-curvature="0" />
    <path
       style="fill:none;stroke:#ff0000;stroke-width:0.82068306px;stroke-linecap:butt;stroke-linejoin:miter;stroke-opacity:1"
       d="m 212.77922,159.22107 c 0,21.07517 0,21.07517 0,21.07517"
       id="path4190"
       inkscape:connector-curvature="0" />
    <path
       style="fill:none;stroke:#9600ff;stroke-width:1px;stroke-linecap:butt;stroke-linejoin:miter;stroke-opacity:1"
       d="m 180.70588,123.01764 c 29.33537,32.46447 29.72651,32.46447 29.72651,32.46447"
       id="path4194"
       inkscape:connector-curvature="0" />
    <path
       style="fill:none;stroke:#9600ff;stroke-width:1px;stroke-linecap:butt;stroke-linejoin:miter;stroke-opacity:1"
       d="M 214.34378,155.48211 C 245.2437,122.23536 245.2437,122.23536 245.2437,122.23536"
       id="path4196"
       inkscape:connector-curvature="0" />
    <path
       style="fill:none;stroke:#9600ff;stroke-width:1px;stroke-linecap:butt;stroke-linejoin:miter;stroke-opacity:1"
       d="M 244.46142,118.71511 C 214.34378,88.988606 214.34378,88.988606 214.34378,88.988606"
       id="path4198"
       inkscape:connector-curvature="0" />
    <path
       style="fill:none;stroke:#00b100;stroke-width:1;stroke-linecap:butt;stroke-linejoin:miter;stroke-opacity:1;stroke-miterlimit:4;stroke-dasharray:4, 2;stroke-dashoffset:0"
       d="m 154.10848,124.97333 c 54.75936,55.54163 54.75936,55.54163 54.75936,55.54163"
       id="path4200"
       inkscape:connector-curvature="0" />
    <path
       style="fill:none;stroke:#00b100;stroke-width:1;stroke-linecap:butt;stroke-linejoin:miter;stroke-opacity:1;stroke-miterlimit:4;stroke-dasharray:4, 2;stroke-dashoffset:0"
       d="m 215.90833,180.12382 c 55.1505,-55.54163 55.1505,-55.54163 55.1505,-55.54163"
       id="path4202"
       inkscape:connector-curvature="0" />
    <path
       style="fill:none;stroke:#00b100;stroke-width:1;stroke-linecap:butt;stroke-linejoin:miter;stroke-opacity:1;stroke-miterlimit:4;stroke-dasharray:4, 2;stroke-dashoffset:0"
       d="M 271.44996,117.5417 C 216.69061,63.173479 216.69061,63.173479 216.69061,63.173479"
       id="path4204"
       inkscape:connector-curvature="0" />
    <path
       style="fill:none;stroke:#00b100;stroke-width:1.02439415000000000px;stroke-linecap:butt;stroke-linejoin:miter;stroke-opacity:1"
       d="m 217.91615,68.63949 c -1.11464,-5.412834 -1.11464,-5.412834 -1.11464,-5.412834"
       id="path3400-9-77"
       inkscape:connector-curvature="0" />
    <path
       style="fill:none;stroke:#00b100;stroke-width:1.02439415000000000px;stroke-linecap:butt;stroke-linejoin:miter;stroke-opacity:1"
       d="m 216.6278,63.384086 c 5.79972,1.488227 5.45737,1.477328 5.45737,1.477328"
       id="path3402-8-9"
       inkscape:connector-curvature="0" />
    <path
       style="fill:none;stroke:#9600ff;stroke-width:1.02439415px;stroke-linecap:butt;stroke-linejoin:miter;stroke-opacity:1"
       d="m 215.24837,94.43299 c -1.11464,-5.412834 -1.11464,-5.412834 -1.11464,-5.412834"
       id="path3400-9-77-8"
       inkscape:connector-curvature="0" />
    <path
       style="fill:none;stroke:#9600ff;stroke-width:1.02439415px;stroke-linecap:butt;stroke-linejoin:miter;stroke-opacity:1"
       d="m 213.96002,89.177586 c 5.79972,1.488227 5.45737,1.477328 5.45737,1.477328"
       id="path3402-8-9-2"
       inkscape:connector-curvature="0" />
    <path
       style="fill:none;stroke:#9600ff;stroke-width:1.02439415px;stroke-linecap:butt;stroke-linejoin:miter;stroke-opacity:1"
       d="m 240.04902,124.2267 c 5.25856,-1.69964 5.25856,-1.69964 5.25856,-1.69964"
       id="path3400-9-77-7"
       inkscape:connector-curvature="0" />
    <path
       style="fill:none;stroke:#9600ff;stroke-width:1.02439415px;stroke-linecap:butt;stroke-linejoin:miter;stroke-opacity:1"
       d="m 245.1321,122.3716 c -0.84534,5.92765 -0.87193,5.58616 -0.87193,5.58616"
       id="path3402-8-9-9"
       inkscape:connector-curvature="0" />
    <path
       style="fill:none;stroke:#00b100;stroke-width:1.02439415000000000px;stroke-linecap:butt;stroke-linejoin:miter;stroke-opacity:1"
       d="m 266.08272,125.98922 c 5.25856,-1.69964 5.25856,-1.69964 5.25856,-1.69964"
       id="path3400-9-77-7-4"
       inkscape:connector-curvature="0" />
    <path
       style="fill:none;stroke:#00b100;stroke-width:1.02439415000000000px;stroke-linecap:butt;stroke-linejoin:miter;stroke-opacity:1"
       d="m 271.1658,124.13412 c -0.84534,5.92765 -0.87193,5.58616 -0.87193,5.58616"
       id="path3402-8-9-9-5"
       inkscape:connector-curvature="0" />
    <path
       style="fill:none;stroke:#00b100;stroke-width:1.02439415000000000px;stroke-linecap:butt;stroke-linejoin:miter;stroke-opacity:1"
       d="m 208.64853,175.72137 c 0.84336,5.46168 0.84336,5.46168 0.84336,5.46168"
       id="path3400-9-77-7-5"
       inkscape:connector-curvature="0" />
    <path
       style="fill:none;stroke:#00b100;stroke-width:1.02439415000000000px;stroke-linecap:butt;stroke-linejoin:miter;stroke-opacity:1"
       d="m 209.67324,181.03448 c -5.71831,-1.77557 -5.37693,-1.74761 -5.37693,-1.74761"
       id="path3402-8-9-9-6"
       inkscape:connector-curvature="0" />
    <path
       style="fill:none;stroke:#9600ff;stroke-width:1.02439415px;stroke-linecap:butt;stroke-linejoin:miter;stroke-opacity:1"
       d="m 209.75126,150.40444 c 0.84336,5.46168 0.84336,5.46168 0.84336,5.46168"
       id="path3400-9-77-7-5-3"
       inkscape:connector-curvature="0" />
    <path
       style="fill:none;stroke:#9600ff;stroke-width:1.02439415px;stroke-linecap:butt;stroke-linejoin:miter;stroke-opacity:1"
       d="m 210.77597,155.71755 c -5.71831,-1.77557 -5.37693,-1.74761 -5.37693,-1.74761"
       id="path3402-8-9-9-6-9"
       inkscape:connector-curvature="0" />
  </g>
</svg>
