<?xml version="1.0" encoding="UTF-8" standalone="no"?>
<!-- Created with Inkscape (http://www.inkscape.org/) -->

<svg
   xmlns:dc="http://purl.org/dc/elements/1.1/"
   xmlns:cc="http://creativecommons.org/ns#"
   xmlns:rdf="http://www.w3.org/1999/02/22-rdf-syntax-ns#"
   xmlns:svg="http://www.w3.org/2000/svg"
   xmlns="http://www.w3.org/2000/svg"
   xmlns:sodipodi="http://sodipodi.sourceforge.net/DTD/sodipodi-0.dtd"
   xmlns:inkscape="http://www.inkscape.org/namespaces/inkscape"
   width="744.09448819"
   height="1052.3622047"
   id="svg5022"
   version="1.1"
   inkscape:version="0.48.4 r9939"
   sodipodi:docname="aproximados_8.svg">
  <defs
     id="defs5024" />
  <sodipodi:namedview
     id="base"
     pagecolor="#ffffff"
     bordercolor="#666666"
     borderopacity="1.0"
     inkscape:pageopacity="0.0"
     inkscape:pageshadow="2"
     inkscape:zoom="3.959798"
     inkscape:cx="503.66665"
     inkscape:cy="906.36557"
     inkscape:document-units="px"
     inkscape:current-layer="layer1"
     showgrid="false"
     inkscape:window-width="925"
     inkscape:window-height="1021"
     inkscape:window-x="69"
     inkscape:window-y="27"
     inkscape:window-maximized="0" />
  <metadata
     id="metadata5027">
    <rdf:RDF>
      <cc:Work
         rdf:about="">
        <dc:format>image/svg+xml</dc:format>
        <dc:type
           rdf:resource="http://purl.org/dc/dcmitype/StillImage" />
        <dc:title />
      </cc:Work>
    </rdf:RDF>
  </metadata>
  <g
     inkscape:label="Layer 1"
     inkscape:groupmode="layer"
     id="layer1">
    <path
       sodipodi:type="arc"
       style="fill:#000000;fill-opacity:1;stroke:#000000;stroke-width:1.58500004;stroke-miterlimit:4;stroke-opacity:0;stroke-dasharray:none;stroke-dashoffset:0"
       id="path2985-5-97"
       sodipodi:cx="112.85714"
       sodipodi:cy="152.00504"
       sodipodi:rx="55.714287"
       sodipodi:ry="66.785713"
       d="m 168.57143,152.00504 a 55.714287,66.785713 0 1 1 -111.428577,0 55.714287,66.785713 0 1 1 111.428577,0 z"
       transform="matrix(0.05068406,0,0,0.0400958,266.26202,63.93402)" />
    <path
       sodipodi:type="arc"
       style="fill:#000000;fill-opacity:1;stroke:#000000;stroke-width:1.58500004;stroke-miterlimit:4;stroke-opacity:0;stroke-dasharray:none;stroke-dashoffset:0"
       id="path2985-5-0-8"
       sodipodi:cx="112.85714"
       sodipodi:cy="152.00504"
       sodipodi:rx="55.714287"
       sodipodi:ry="66.785713"
       d="m 168.57143,152.00504 a 55.714287,66.785713 0 1 1 -111.428577,0 55.714287,66.785713 0 1 1 111.428577,0 z"
       transform="matrix(0.05068406,0,0,0.0400958,298.56781,63.93402)" />
    <path
       sodipodi:type="arc"
       style="fill:#000000;fill-opacity:1;stroke:#000000;stroke-width:1.58500004;stroke-miterlimit:4;stroke-opacity:0;stroke-dasharray:none;stroke-dashoffset:0"
       id="path2985-5-9-6-4"
       sodipodi:cx="112.85714"
       sodipodi:cy="152.00504"
       sodipodi:rx="55.714287"
       sodipodi:ry="66.785713"
       d="m 168.57143,152.00504 a 55.714287,66.785713 0 1 1 -111.428577,0 55.714287,66.785713 0 1 1 111.428577,0 z"
       transform="matrix(0.05068406,0,0,0.0400958,335.58977,64.13321)" />
    <path
       sodipodi:type="arc"
       style="fill:#000000;fill-opacity:1;stroke:#000000;stroke-width:1.58500004;stroke-miterlimit:4;stroke-opacity:0;stroke-dasharray:none;stroke-dashoffset:0"
       id="path2985-5-0-7-5-1"
       sodipodi:cx="112.85714"
       sodipodi:cy="152.00504"
       sodipodi:rx="55.714287"
       sodipodi:ry="66.785713"
       d="m 168.57143,152.00504 a 55.714287,66.785713 0 1 1 -111.428577,0 55.714287,66.785713 0 1 1 111.428577,0 z"
       transform="matrix(0.05068406,0,0,0.0400958,368.09579,64.13321)" />
    <path
       style="fill:none;stroke:#000000;stroke-width:0.64267957px;stroke-linecap:butt;stroke-linejoin:miter;stroke-opacity:1"
       d="m 340.91621,70.35494 c 32.43358,0 32.43358,0 32.43358,0"
       id="path3156-2-8-6"
       inkscape:connector-curvature="0" />
    <path
       style="fill:none;stroke:#000000;stroke-width:1.07353377px;stroke-linecap:butt;stroke-linejoin:miter;stroke-opacity:1"
       d="m 366.02907,67.37269 c 4.97647,2.97281 4.97647,2.97281 4.97647,2.97281"
       id="path3400-9-3"
       inkscape:connector-curvature="0" />
    <path
       style="fill:none;stroke:#000000;stroke-width:1.07353377px;stroke-linecap:butt;stroke-linejoin:miter;stroke-opacity:1"
       d="m 371.00609,70.09961 c -5.23999,3.43166 -4.99025,3.17457 -4.99025,3.17457"
       id="path3402-8-0"
       inkscape:connector-curvature="0" />
    <path
       sodipodi:type="arc"
       style="fill:#000000;fill-opacity:1;stroke:#000000;stroke-width:1.58500004;stroke-miterlimit:4;stroke-opacity:0;stroke-dasharray:none;stroke-dashoffset:0"
       id="path2985-5-97-5"
       sodipodi:cx="112.85714"
       sodipodi:cy="152.00504"
       sodipodi:rx="55.714287"
       sodipodi:ry="66.785713"
       d="m 168.57143,152.00504 a 55.714287,66.785713 0 1 1 -111.428577,0 55.714287,66.785713 0 1 1 111.428577,0 z"
       transform="matrix(0.05068406,0,0,0.0400958,401.17146,64.36235)" />
    <path
       sodipodi:type="arc"
       style="fill:#000000;fill-opacity:1;stroke:#000000;stroke-width:1.58500004;stroke-miterlimit:4;stroke-opacity:0;stroke-dasharray:none;stroke-dashoffset:0"
       id="path2985-5-0-8-7"
       sodipodi:cx="112.85714"
       sodipodi:cy="152.00504"
       sodipodi:rx="55.714287"
       sodipodi:ry="66.785713"
       d="m 168.57143,152.00504 a 55.714287,66.785713 0 1 1 -111.428577,0 55.714287,66.785713 0 1 1 111.428577,0 z"
       transform="matrix(0.05068406,0,0,0.0400958,433.67747,64.36235)" />
    <path
       style="fill:none;stroke:#000000;stroke-width:0.64267957px;stroke-linecap:butt;stroke-linejoin:miter;stroke-opacity:1"
       d="m 373.58167,70.40757 c 32.43358,0 32.43358,0 32.43358,0"
       id="path3156-2-8-6-7"
       inkscape:connector-curvature="0" />
    <path
       style="fill:none;stroke:#000000;stroke-width:1.07353377px;stroke-linecap:butt;stroke-linejoin:miter;stroke-opacity:1"
       d="m 398.69453,67.42532 c 4.97647,2.97281 4.97647,2.97281 4.97647,2.97281"
       id="path3400-9-3-3"
       inkscape:connector-curvature="0" />
    <path
       style="fill:none;stroke:#000000;stroke-width:1.07353377px;stroke-linecap:butt;stroke-linejoin:miter;stroke-opacity:1"
       d="m 403.67155,70.15224 c -5.23999,3.43166 -4.99025,3.17457 -4.99025,3.17457"
       id="path3402-8-0-4"
       inkscape:connector-curvature="0" />
    <path
       sodipodi:type="arc"
       style="fill:#000000;fill-opacity:1;stroke:#000000;stroke-width:1.58500004;stroke-miterlimit:4;stroke-opacity:0;stroke-dasharray:none;stroke-dashoffset:0"
       id="path2985-5-97-52"
       sodipodi:cx="112.85714"
       sodipodi:cy="152.00504"
       sodipodi:rx="55.714287"
       sodipodi:ry="66.785713"
       d="m 168.57143,152.00504 a 55.714287,66.785713 0 1 1 -111.428577,0 55.714287,66.785713 0 1 1 111.428577,0 z"
       transform="matrix(0.05068406,0,0,0.0400958,266.00527,92.05256)" />
    <path
       sodipodi:type="arc"
       style="fill:#000000;fill-opacity:1;stroke:#000000;stroke-width:1.58500004;stroke-miterlimit:4;stroke-opacity:0;stroke-dasharray:none;stroke-dashoffset:0"
       id="path2985-5-0-8-3"
       sodipodi:cx="112.85714"
       sodipodi:cy="152.00504"
       sodipodi:rx="55.714287"
       sodipodi:ry="66.785713"
       d="m 168.57143,152.00504 a 55.714287,66.785713 0 1 1 -111.428577,0 55.714287,66.785713 0 1 1 111.428577,0 z"
       transform="matrix(0.05068406,0,0,0.0400958,298.51128,92.05256)" />
    <path
       style="fill:none;stroke:#000000;stroke-width:0.64267951px;stroke-linecap:butt;stroke-linejoin:miter;stroke-opacity:1"
       d="m 271.33172,98.2743 c 32.43359,0 32.43359,0 32.43359,0"
       id="path3156-5-6"
       inkscape:connector-curvature="0" />
    <path
       sodipodi:type="arc"
       style="fill:#000000;fill-opacity:1;stroke:#000000;stroke-width:1.58500004;stroke-miterlimit:4;stroke-opacity:0;stroke-dasharray:none;stroke-dashoffset:0"
       id="path2985-5-9-6-4-8"
       sodipodi:cx="112.85714"
       sodipodi:cy="152.00504"
       sodipodi:rx="55.714287"
       sodipodi:ry="66.785713"
       d="m 168.57143,152.00504 a 55.714287,66.785713 0 1 1 -111.428577,0 55.714287,66.785713 0 1 1 111.428577,0 z"
       transform="matrix(0.05068406,0,0,0.0400958,335.53324,92.25175)" />
    <path
       sodipodi:type="arc"
       style="fill:#000000;fill-opacity:1;stroke:#000000;stroke-width:1.58500004;stroke-miterlimit:4;stroke-opacity:0;stroke-dasharray:none;stroke-dashoffset:0"
       id="path2985-5-0-7-5-1-20"
       sodipodi:cx="112.85714"
       sodipodi:cy="152.00504"
       sodipodi:rx="55.714287"
       sodipodi:ry="66.785713"
       d="m 168.57143,152.00504 a 55.714287,66.785713 0 1 1 -111.428577,0 55.714287,66.785713 0 1 1 111.428577,0 z"
       transform="matrix(0.05068406,0,0,0.0400958,368.03926,92.25175)" />
    <path
       style="fill:none;stroke:#000000;stroke-width:0.64267951px;stroke-linecap:butt;stroke-linejoin:miter;stroke-opacity:1"
       d="m 306.02222,98.44914 c 32.43359,0 32.43359,0 32.43359,0"
       id="path3156-5-9-9"
       inkscape:connector-curvature="0" />
    <path
       style="fill:none;stroke:#000000;stroke-width:1.07353377px;stroke-linecap:butt;stroke-linejoin:miter;stroke-opacity:1"
       d="m 296.36886,95.39228 c 4.97647,2.97281 4.97647,2.97281 4.97647,2.97281"
       id="path3400-9-89"
       inkscape:connector-curvature="0" />
    <path
       style="fill:none;stroke:#000000;stroke-width:1.07353377px;stroke-linecap:butt;stroke-linejoin:miter;stroke-opacity:1"
       d="m 301.34588,98.1192 c -5.23999,3.43166 -4.99025,3.17457 -4.99025,3.17457"
       id="path3402-8-8"
       inkscape:connector-curvature="0" />
    <path
       style="fill:none;stroke:#000000;stroke-width:1.07353377px;stroke-linecap:butt;stroke-linejoin:miter;stroke-opacity:1"
       d="m 333.39512,95.49123 c 4.97647,2.97281 4.97647,2.97281 4.97647,2.97281"
       id="path3400-9-0-4"
       inkscape:connector-curvature="0" />
    <path
       style="fill:none;stroke:#000000;stroke-width:1.07353377px;stroke-linecap:butt;stroke-linejoin:miter;stroke-opacity:1"
       d="m 338.37214,98.21815 c -5.23999,3.43166 -4.99025,3.17457 -4.99025,3.17457"
       id="path3402-8-3-4"
       inkscape:connector-curvature="0" />
    <path
       sodipodi:type="arc"
       style="fill:#000000;fill-opacity:1;stroke:#000000;stroke-width:1.58500004;stroke-miterlimit:4;stroke-opacity:0;stroke-dasharray:none;stroke-dashoffset:0"
       id="path2985-5-97-5-4"
       sodipodi:cx="112.85714"
       sodipodi:cy="152.00504"
       sodipodi:rx="55.714287"
       sodipodi:ry="66.785713"
       d="m 168.57143,152.00504 a 55.714287,66.785713 0 1 1 -111.428577,0 55.714287,66.785713 0 1 1 111.428577,0 z"
       transform="matrix(0.05068406,0,0,0.0400958,401.11493,92.48089)" />
    <path
       sodipodi:type="arc"
       style="fill:#000000;fill-opacity:1;stroke:#000000;stroke-width:1.58500004;stroke-miterlimit:4;stroke-opacity:0;stroke-dasharray:none;stroke-dashoffset:0"
       id="path2985-5-0-8-7-9"
       sodipodi:cx="112.85714"
       sodipodi:cy="152.00504"
       sodipodi:rx="55.714287"
       sodipodi:ry="66.785713"
       d="m 168.57143,152.00504 a 55.714287,66.785713 0 1 1 -111.428577,0 55.714287,66.785713 0 1 1 111.428577,0 z"
       transform="matrix(0.05068406,0,0,0.0400958,433.62094,92.48089)" />
    <path
       style="fill:none;stroke:#000000;stroke-width:0.64267951px;stroke-linecap:butt;stroke-linejoin:miter;stroke-opacity:1"
       d="m 406.44138,98.70263 c 32.43359,0 32.43359,0 32.43359,0"
       id="path3156-5-54-2"
       inkscape:connector-curvature="0" />
    <path
       style="fill:none;stroke:#000000;stroke-width:1.07353377px;stroke-linecap:butt;stroke-linejoin:miter;stroke-opacity:1"
       d="m 431.47852,95.82061 c 4.97647,2.97281 4.97647,2.97281 4.97647,2.97281"
       id="path3400-9-99-9"
       inkscape:connector-curvature="0" />
    <path
       style="fill:none;stroke:#000000;stroke-width:1.07353377px;stroke-linecap:butt;stroke-linejoin:miter;stroke-opacity:1"
       d="m 436.45554,98.54753 c -5.23999,3.43166 -4.99025,3.17457 -4.99025,3.17457"
       id="path3402-8-95-4"
       inkscape:connector-curvature="0" />
    <path
       style="fill:none;stroke:#000000;stroke-width:0.64300001;stroke-linecap:butt;stroke-linejoin:miter;stroke-miterlimit:4;stroke-opacity:1;stroke-dasharray:none"
       d="m 271.68537,68.8847 c 0,29.28572 0,29.28572 0,29.28572"
       id="path3568-2"
       inkscape:connector-curvature="0" />
    <path
       style="fill:none;stroke:#000000;stroke-width:1.07353377px;stroke-linecap:butt;stroke-linejoin:miter;stroke-opacity:1"
       d="m 274.43535,90.32163 c -2.85644,5.04418 -2.85644,5.04418 -2.85644,5.04418"
       id="path3400-9-7-35-18-6"
       inkscape:connector-curvature="0" />
    <path
       style="fill:none;stroke:#000000;stroke-width:1.07353377px;stroke-linecap:butt;stroke-linejoin:miter;stroke-opacity:1"
       d="m 271.82474,95.36065 c -3.55242,-5.15889 -3.28961,-4.91518 -3.28961,-4.91518"
       id="path3402-8-5-11-4-5"
       inkscape:connector-curvature="0" />
    <path
       style="fill:none;stroke:#000000;stroke-width:0.64300001;stroke-linecap:butt;stroke-linejoin:miter;stroke-miterlimit:4;stroke-opacity:1;stroke-dasharray:none"
       d="m 341.06682,99.61611 c -0.0664,-29.28564 -0.0664,-29.28564 -0.0664,-29.28564"
       id="path3568-2-3"
       inkscape:connector-curvature="0" />
    <path
       style="fill:none;stroke:#000000;stroke-width:1.07353377px;stroke-linecap:butt;stroke-linejoin:miter;stroke-opacity:1"
       d="m 338.26821,78.18548 c 2.84499,-5.05065 2.84499,-5.05065 2.84499,-5.05065"
       id="path3400-9-7-35-18-6-4"
       inkscape:connector-curvature="0" />
    <path
       style="fill:none;stroke:#000000;stroke-width:1.07353377px;stroke-linecap:butt;stroke-linejoin:miter;stroke-opacity:1"
       d="m 340.86738,73.14055 c 3.56411,5.15081 3.30075,4.9077 3.30075,4.9077"
       id="path3402-8-5-11-4-5-1"
       inkscape:connector-curvature="0" />
    <path
       style="fill:none;stroke:#000000;stroke-width:0.64300001;stroke-linecap:butt;stroke-linejoin:miter;stroke-miterlimit:4;stroke-opacity:1;stroke-dasharray:none"
       d="m 406.84558,69.06729 c 0,29.28572 0,29.28572 0,29.28572"
       id="path3568-2-9"
       inkscape:connector-curvature="0" />
    <path
       style="fill:none;stroke:#000000;stroke-width:1.07353377px;stroke-linecap:butt;stroke-linejoin:miter;stroke-opacity:1"
       d="m 409.59557,90.50422 c -2.85644,5.04418 -2.85644,5.04418 -2.85644,5.04418"
       id="path3400-9-7-35-18-6-8"
       inkscape:connector-curvature="0" />
    <path
       style="fill:none;stroke:#000000;stroke-width:1.07353377px;stroke-linecap:butt;stroke-linejoin:miter;stroke-opacity:1"
       d="m 406.98496,95.54324 c -3.55242,-5.15889 -3.28961,-4.91518 -3.28961,-4.91518"
       id="path3402-8-5-11-4-5-2"
       inkscape:connector-curvature="0" />
    <path
       sodipodi:type="arc"
       style="fill:#000000;fill-opacity:1;stroke:#000000;stroke-width:1.58500004;stroke-miterlimit:4;stroke-opacity:0;stroke-dasharray:none;stroke-dashoffset:0"
       id="path2985-5-0-7-5-1-6-6"
       sodipodi:cx="112.85714"
       sodipodi:cy="152.00504"
       sodipodi:rx="55.714287"
       sodipodi:ry="66.785713"
       d="m 168.57143,152.00504 a 55.714287,66.785713 0 1 1 -111.428577,0 55.714287,66.785713 0 1 1 111.428577,0 z"
       transform="matrix(0.05068406,0,0,0.0400958,232.70177,63.916557)" />
    <path
       style="fill:none;stroke:#000000;stroke-width:0.64267957px;stroke-linecap:butt;stroke-linejoin:miter;stroke-opacity:1"
       d="m 238.61543,70.214843 c 32.43357,0 32.43357,0 32.43357,0"
       id="path3156-2-8-6-9-2-3"
       inkscape:connector-curvature="0" />
    <path
       style="fill:none;stroke:#000000;stroke-width:1.07353377px;stroke-linecap:butt;stroke-linejoin:miter;stroke-opacity:1"
       d="m 263.72828,67.232797 c 4.97647,2.97281 4.97647,2.97281 4.97647,2.97281"
       id="path3400-9-3-2-1-5"
       inkscape:connector-curvature="0" />
    <path
       style="fill:none;stroke:#000000;stroke-width:1.07353377px;stroke-linecap:butt;stroke-linejoin:miter;stroke-opacity:1"
       d="m 268.7053,69.959717 c -5.23999,3.43166 -4.99025,3.17457 -4.99025,3.17457"
       id="path3402-8-0-3-5-6"
       inkscape:connector-curvature="0" />
    <path
       sodipodi:type="arc"
       style="fill:#000000;fill-opacity:1;stroke:#000000;stroke-width:1.58500004;stroke-miterlimit:4;stroke-opacity:0;stroke-dasharray:none;stroke-dashoffset:0"
       id="path2985-5-0-7-5-1-6-1-2"
       sodipodi:cx="112.85714"
       sodipodi:cy="152.00504"
       sodipodi:rx="55.714287"
       sodipodi:ry="66.785713"
       d="m 168.57143,152.00504 a 55.714287,66.785713 0 1 1 -111.428577,0 55.714287,66.785713 0 1 1 111.428577,0 z"
       transform="matrix(0.05068406,0,0,0.0400958,232.64524,92.035093)" />
    <path
       sodipodi:type="arc"
       style="fill:#000000;fill-opacity:1;stroke:#000000;stroke-width:1.58500004;stroke-miterlimit:4;stroke-opacity:0;stroke-dasharray:none;stroke-dashoffset:0"
       id="path2985-5-97-1"
       sodipodi:cx="112.85714"
       sodipodi:cy="152.00504"
       sodipodi:rx="55.714287"
       sodipodi:ry="66.785713"
       d="m 168.57143,152.00504 a 55.714287,66.785713 0 1 1 -111.428577,0 55.714287,66.785713 0 1 1 111.428577,0 z"
       transform="matrix(0.05068406,0,0,0.0400958,266.30917,121.45943)" />
    <path
       sodipodi:type="arc"
       style="fill:#000000;fill-opacity:1;stroke:#000000;stroke-width:1.58500004;stroke-miterlimit:4;stroke-opacity:0;stroke-dasharray:none;stroke-dashoffset:0"
       id="path2985-5-0-8-8"
       sodipodi:cx="112.85714"
       sodipodi:cy="152.00504"
       sodipodi:rx="55.714287"
       sodipodi:ry="66.785713"
       d="m 168.57143,152.00504 a 55.714287,66.785713 0 1 1 -111.428577,0 55.714287,66.785713 0 1 1 111.428577,0 z"
       transform="matrix(0.05068406,0,0,0.0400958,298.61496,121.45943)" />
    <path
       sodipodi:type="arc"
       style="fill:#000000;fill-opacity:1;stroke:#000000;stroke-width:1.58500004;stroke-miterlimit:4;stroke-opacity:0;stroke-dasharray:none;stroke-dashoffset:0"
       id="path2985-5-9-6-4-3"
       sodipodi:cx="112.85714"
       sodipodi:cy="152.00504"
       sodipodi:rx="55.714287"
       sodipodi:ry="66.785713"
       d="m 168.57143,152.00504 a 55.714287,66.785713 0 1 1 -111.428577,0 55.714287,66.785713 0 1 1 111.428577,0 z"
       transform="matrix(0.05068406,0,0,0.0400958,335.63692,121.65862)" />
    <path
       sodipodi:type="arc"
       style="fill:#000000;fill-opacity:1;stroke:#000000;stroke-width:1.58500004;stroke-miterlimit:4;stroke-opacity:0;stroke-dasharray:none;stroke-dashoffset:0"
       id="path2985-5-0-7-5-1-1"
       sodipodi:cx="112.85714"
       sodipodi:cy="152.00504"
       sodipodi:rx="55.714287"
       sodipodi:ry="66.785713"
       d="m 168.57143,152.00504 a 55.714287,66.785713 0 1 1 -111.428577,0 55.714287,66.785713 0 1 1 111.428577,0 z"
       transform="matrix(0.05068406,0,0,0.0400958,368.14294,121.65862)" />
    <path
       style="fill:none;stroke:#000000;stroke-width:0.64267957px;stroke-linecap:butt;stroke-linejoin:miter;stroke-opacity:1"
       d="m 340.96336,127.88035 c 32.43358,0 32.43358,0 32.43358,0"
       id="path3156-2-8-6-1"
       inkscape:connector-curvature="0" />
    <path
       sodipodi:type="arc"
       style="fill:#000000;fill-opacity:1;stroke:#000000;stroke-width:1.58500004;stroke-miterlimit:4;stroke-opacity:0;stroke-dasharray:none;stroke-dashoffset:0"
       id="path2985-5-97-5-6"
       sodipodi:cx="112.85714"
       sodipodi:cy="152.00504"
       sodipodi:rx="55.714287"
       sodipodi:ry="66.785713"
       d="m 168.57143,152.00504 a 55.714287,66.785713 0 1 1 -111.428577,0 55.714287,66.785713 0 1 1 111.428577,0 z"
       transform="matrix(0.05068406,0,0,0.0400958,401.21861,121.88776)" />
    <path
       sodipodi:type="arc"
       style="fill:#000000;fill-opacity:1;stroke:#000000;stroke-width:1.58500004;stroke-miterlimit:4;stroke-opacity:0;stroke-dasharray:none;stroke-dashoffset:0"
       id="path2985-5-0-8-7-2"
       sodipodi:cx="112.85714"
       sodipodi:cy="152.00504"
       sodipodi:rx="55.714287"
       sodipodi:ry="66.785713"
       d="m 168.57143,152.00504 a 55.714287,66.785713 0 1 1 -111.428577,0 55.714287,66.785713 0 1 1 111.428577,0 z"
       transform="matrix(0.05068406,0,0,0.0400958,433.72462,121.88776)" />
    <path
       style="fill:none;stroke:#000000;stroke-width:0.64267957px;stroke-linecap:butt;stroke-linejoin:miter;stroke-opacity:1"
       d="m 373.62882,127.93298 c 32.43358,0 32.43358,0 32.43358,0"
       id="path3156-2-8-6-7-2"
       inkscape:connector-curvature="0" />
    <path
       sodipodi:type="arc"
       style="fill:#000000;fill-opacity:1;stroke:#000000;stroke-width:1.58500004;stroke-miterlimit:4;stroke-opacity:0;stroke-dasharray:none;stroke-dashoffset:0"
       id="path2985-5-97-52-9"
       sodipodi:cx="112.85714"
       sodipodi:cy="152.00504"
       sodipodi:rx="55.714287"
       sodipodi:ry="66.785713"
       d="m 168.57143,152.00504 a 55.714287,66.785713 0 1 1 -111.428577,0 55.714287,66.785713 0 1 1 111.428577,0 z"
       transform="matrix(0.05068406,0,0,0.0400958,266.05242,149.57798)" />
    <path
       sodipodi:type="arc"
       style="fill:#000000;fill-opacity:1;stroke:#000000;stroke-width:1.58500004;stroke-miterlimit:4;stroke-opacity:0;stroke-dasharray:none;stroke-dashoffset:0"
       id="path2985-5-0-8-3-4"
       sodipodi:cx="112.85714"
       sodipodi:cy="152.00504"
       sodipodi:rx="55.714287"
       sodipodi:ry="66.785713"
       d="m 168.57143,152.00504 a 55.714287,66.785713 0 1 1 -111.428577,0 55.714287,66.785713 0 1 1 111.428577,0 z"
       transform="matrix(0.05068406,0,0,0.0400958,298.55843,149.57798)" />
    <path
       style="fill:none;stroke:#000000;stroke-width:0.64267951px;stroke-linecap:butt;stroke-linejoin:miter;stroke-opacity:1"
       d="m 271.37887,155.79972 c 32.43359,0 32.43359,0 32.43359,0"
       id="path3156-5-6-1"
       inkscape:connector-curvature="0" />
    <path
       sodipodi:type="arc"
       style="fill:#000000;fill-opacity:1;stroke:#000000;stroke-width:1.58500004;stroke-miterlimit:4;stroke-opacity:0;stroke-dasharray:none;stroke-dashoffset:0"
       id="path2985-5-9-6-4-8-8"
       sodipodi:cx="112.85714"
       sodipodi:cy="152.00504"
       sodipodi:rx="55.714287"
       sodipodi:ry="66.785713"
       d="m 168.57143,152.00504 a 55.714287,66.785713 0 1 1 -111.428577,0 55.714287,66.785713 0 1 1 111.428577,0 z"
       transform="matrix(0.05068406,0,0,0.0400958,335.58039,149.77717)" />
    <path
       sodipodi:type="arc"
       style="fill:#000000;fill-opacity:1;stroke:#000000;stroke-width:1.58500004;stroke-miterlimit:4;stroke-opacity:0;stroke-dasharray:none;stroke-dashoffset:0"
       id="path2985-5-0-7-5-1-20-7"
       sodipodi:cx="112.85714"
       sodipodi:cy="152.00504"
       sodipodi:rx="55.714287"
       sodipodi:ry="66.785713"
       d="m 168.57143,152.00504 a 55.714287,66.785713 0 1 1 -111.428577,0 55.714287,66.785713 0 1 1 111.428577,0 z"
       transform="matrix(0.05068406,0,0,0.0400958,368.08641,149.77717)" />
    <path
       style="fill:none;stroke:#000000;stroke-width:0.64267951px;stroke-linecap:butt;stroke-linejoin:miter;stroke-opacity:1"
       d="m 306.06937,155.97456 c 32.43359,0 32.43359,0 32.43359,0"
       id="path3156-5-9-9-1"
       inkscape:connector-curvature="0" />
    <path
       sodipodi:type="arc"
       style="fill:#000000;fill-opacity:1;stroke:#000000;stroke-width:1.58500004;stroke-miterlimit:4;stroke-opacity:0;stroke-dasharray:none;stroke-dashoffset:0"
       id="path2985-5-97-5-4-9"
       sodipodi:cx="112.85714"
       sodipodi:cy="152.00504"
       sodipodi:rx="55.714287"
       sodipodi:ry="66.785713"
       d="m 168.57143,152.00504 a 55.714287,66.785713 0 1 1 -111.428577,0 55.714287,66.785713 0 1 1 111.428577,0 z"
       transform="matrix(0.05068406,0,0,0.0400958,401.16208,150.00631)" />
    <path
       sodipodi:type="arc"
       style="fill:#000000;fill-opacity:1;stroke:#000000;stroke-width:1.58500004;stroke-miterlimit:4;stroke-opacity:0;stroke-dasharray:none;stroke-dashoffset:0"
       id="path2985-5-0-8-7-9-6"
       sodipodi:cx="112.85714"
       sodipodi:cy="152.00504"
       sodipodi:rx="55.714287"
       sodipodi:ry="66.785713"
       d="m 168.57143,152.00504 a 55.714287,66.785713 0 1 1 -111.428577,0 55.714287,66.785713 0 1 1 111.428577,0 z"
       transform="matrix(0.05068406,0,0,0.0400958,433.66809,150.00631)" />
    <path
       style="fill:none;stroke:#000000;stroke-width:0.64267951px;stroke-linecap:butt;stroke-linejoin:miter;stroke-opacity:1"
       d="m 406.48853,156.22805 c 32.43359,0 32.43359,0 32.43359,0"
       id="path3156-5-54-2-8"
       inkscape:connector-curvature="0" />
    <path
       style="fill:none;stroke:#000000;stroke-width:0.64300001;stroke-linecap:butt;stroke-linejoin:miter;stroke-miterlimit:4;stroke-opacity:1;stroke-dasharray:none"
       d="m 271.73252,126.41011 c 0,29.28573 0,29.28573 0,29.28573"
       id="path3568-2-4"
       inkscape:connector-curvature="0" />
    <path
       style="fill:none;stroke:#000000;stroke-width:0.64300001;stroke-linecap:butt;stroke-linejoin:miter;stroke-miterlimit:4;stroke-opacity:1;stroke-dasharray:none"
       d="m 341.11397,157.14153 c -0.0664,-29.28565 -0.0664,-29.28565 -0.0664,-29.28565"
       id="path3568-2-3-6"
       inkscape:connector-curvature="0" />
    <path
       style="fill:none;stroke:#000000;stroke-width:0.64300001;stroke-linecap:butt;stroke-linejoin:miter;stroke-miterlimit:4;stroke-opacity:1;stroke-dasharray:none"
       d="m 406.89273,126.5927 c 0,29.28573 0,29.28573 0,29.28573"
       id="path3568-2-9-9"
       inkscape:connector-curvature="0" />
    <path
       sodipodi:type="arc"
       style="fill:#000000;fill-opacity:1;stroke:#000000;stroke-width:1.58500004;stroke-miterlimit:4;stroke-opacity:0;stroke-dasharray:none;stroke-dashoffset:0"
       id="path2985-5-0-7-5-1-6-6-3"
       sodipodi:cx="112.85714"
       sodipodi:cy="152.00504"
       sodipodi:rx="55.714287"
       sodipodi:ry="66.785713"
       d="m 168.57143,152.00504 a 55.714287,66.785713 0 1 1 -111.428577,0 55.714287,66.785713 0 1 1 111.428577,0 z"
       transform="matrix(0.05068406,0,0,0.0400958,232.74892,121.44197)" />
    <path
       style="fill:none;stroke:#000000;stroke-width:0.64267957px;stroke-linecap:butt;stroke-linejoin:miter;stroke-opacity:1"
       d="m 238.66258,127.74026 c 32.43357,0 32.43357,0 32.43357,0"
       id="path3156-2-8-6-9-2-3-6"
       inkscape:connector-curvature="0" />
    <path
       sodipodi:type="arc"
       style="fill:#000000;fill-opacity:1;stroke:#000000;stroke-width:1.58500004;stroke-miterlimit:4;stroke-opacity:0;stroke-dasharray:none;stroke-dashoffset:0"
       id="path2985-5-0-7-5-1-6-1-2-9"
       sodipodi:cx="112.85714"
       sodipodi:cy="152.00504"
       sodipodi:rx="55.714287"
       sodipodi:ry="66.785713"
       d="m 168.57143,152.00504 a 55.714287,66.785713 0 1 1 -111.428577,0 55.714287,66.785713 0 1 1 111.428577,0 z"
       transform="matrix(0.05068406,0,0,0.0400958,232.69239,149.56051)" />
    <path
       style="fill:none;stroke:#000000;stroke-width:1.07353377px;stroke-linecap:butt;stroke-linejoin:miter;stroke-opacity:1"
       d="m 415.03262,158.9098 c -4.97782,-2.97055 -4.97782,-2.97055 -4.97782,-2.97055"
       id="path3400-9-99-9-4"
       inkscape:connector-curvature="0" />
    <path
       style="fill:none;stroke:#000000;stroke-width:1.07353377px;stroke-linecap:butt;stroke-linejoin:miter;stroke-opacity:1"
       d="m 410.05436,156.18514 c 5.23844,-3.43403 4.98881,-3.17683 4.98881,-3.17683"
       id="path3402-8-95-4-9"
       inkscape:connector-curvature="0" />
    <path
       style="fill:none;stroke:#000000;stroke-width:1.07353377px;stroke-linecap:butt;stroke-linejoin:miter;stroke-opacity:1"
       d="m 381.79519,130.773 c -4.97782,-2.97055 -4.97782,-2.97055 -4.97782,-2.97055"
       id="path3400-9-99-9-4-0"
       inkscape:connector-curvature="0" />
    <path
       style="fill:none;stroke:#000000;stroke-width:1.07353377px;stroke-linecap:butt;stroke-linejoin:miter;stroke-opacity:1"
       d="m 376.81693,128.04834 c 5.23844,-3.43403 4.98881,-3.17683 4.98881,-3.17683"
       id="path3402-8-95-4-9-8"
       inkscape:connector-curvature="0" />
    <path
       style="fill:none;stroke:#000000;stroke-width:1.07353377px;stroke-linecap:butt;stroke-linejoin:miter;stroke-opacity:1"
       d="m 349.47031,130.77299 c -4.97782,-2.97055 -4.97782,-2.97055 -4.97782,-2.97055"
       id="path3400-9-99-9-4-2"
       inkscape:connector-curvature="0" />
    <path
       style="fill:none;stroke:#000000;stroke-width:1.07353377px;stroke-linecap:butt;stroke-linejoin:miter;stroke-opacity:1"
       d="m 344.49205,128.04833 c 5.23844,-3.43403 4.98881,-3.17683 4.98881,-3.17683"
       id="path3402-8-95-4-9-9"
       inkscape:connector-curvature="0" />
    <path
       style="fill:none;stroke:#000000;stroke-width:1.07353377px;stroke-linecap:butt;stroke-linejoin:miter;stroke-opacity:1"
       d="m 312.3472,158.80473 c -4.97782,-2.97055 -4.97782,-2.97055 -4.97782,-2.97055"
       id="path3400-9-99-9-4-8"
       inkscape:connector-curvature="0" />
    <path
       style="fill:none;stroke:#000000;stroke-width:1.07353377px;stroke-linecap:butt;stroke-linejoin:miter;stroke-opacity:1"
       d="m 307.36894,156.08007 c 5.23844,-3.43403 4.98881,-3.17683 4.98881,-3.17683"
       id="path3402-8-95-4-9-3"
       inkscape:connector-curvature="0" />
    <path
       style="fill:none;stroke:#000000;stroke-width:1.07353377px;stroke-linecap:butt;stroke-linejoin:miter;stroke-opacity:1"
       d="m 279.76979,158.5522 c -4.97782,-2.97055 -4.97782,-2.97055 -4.97782,-2.97055"
       id="path3400-9-99-9-4-80"
       inkscape:connector-curvature="0" />
    <path
       style="fill:none;stroke:#000000;stroke-width:1.07353377px;stroke-linecap:butt;stroke-linejoin:miter;stroke-opacity:1"
       d="m 274.79153,155.82754 c 5.23844,-3.43403 4.98881,-3.17683 4.98881,-3.17683"
       id="path3402-8-95-4-9-1"
       inkscape:connector-curvature="0" />
    <path
       style="fill:none;stroke:#000000;stroke-width:1.07353377px;stroke-linecap:butt;stroke-linejoin:miter;stroke-opacity:1"
       d="m 246.43475,130.52046 c -4.97782,-2.97055 -4.97782,-2.97055 -4.97782,-2.97055"
       id="path3400-9-99-9-4-81"
       inkscape:connector-curvature="0" />
    <path
       style="fill:none;stroke:#000000;stroke-width:1.07353377px;stroke-linecap:butt;stroke-linejoin:miter;stroke-opacity:1"
       d="m 241.45649,127.7958 c 5.23844,-3.43403 4.98881,-3.17683 4.98881,-3.17683"
       id="path3402-8-95-4-9-0"
       inkscape:connector-curvature="0" />
    <path
       style="fill:none;stroke:#000000;stroke-width:1.07353377px;stroke-linecap:butt;stroke-linejoin:miter;stroke-opacity:1"
       d="m 404.12869,135.84705 c 2.99033,-4.96596 2.99033,-4.96596 2.99033,-4.96596"
       id="path3400-9-99-9-4-9"
       inkscape:connector-curvature="0" />
    <path
       style="fill:none;stroke:#000000;stroke-width:1.07353377px;stroke-linecap:butt;stroke-linejoin:miter;stroke-opacity:1"
       d="m 406.87313,130.87967 c 3.41316,5.25206 3.15696,5.00141 3.15696,5.00141"
       id="path3402-8-95-4-9-6"
       inkscape:connector-curvature="0" />
    <path
       style="fill:none;stroke:#000000;stroke-width:1.07353377px;stroke-linecap:butt;stroke-linejoin:miter;stroke-opacity:1"
       d="m 268.77815,135.08402 c 2.99033,-4.96596 2.99033,-4.96596 2.99033,-4.96596"
       id="path3400-9-99-9-4-9-4"
       inkscape:connector-curvature="0" />
    <path
       style="fill:none;stroke:#000000;stroke-width:1.07353377px;stroke-linecap:butt;stroke-linejoin:miter;stroke-opacity:1"
       d="m 271.52259,130.11664 c 3.41316,5.25206 3.15696,5.00141 3.15696,5.00141"
       id="path3402-8-95-4-9-6-5"
       inkscape:connector-curvature="0" />
    <path
       style="fill:none;stroke:#000000;stroke-width:1.07353377px;stroke-linecap:butt;stroke-linejoin:miter;stroke-opacity:1"
       d="m 344.10308,148.30122 c -2.9325,5.00033 -2.9325,5.00033 -2.9325,5.00033"
       id="path3400-9-99-9-4-9-8"
       inkscape:connector-curvature="0" />
    <path
       style="fill:none;stroke:#000000;stroke-width:1.07353377px;stroke-linecap:butt;stroke-linejoin:miter;stroke-opacity:1"
       d="m 341.41647,153.30012 c -3.47387,-5.2121 -3.21478,-4.96444 -3.21478,-4.96444"
       id="path3402-8-95-4-9-6-0"
       inkscape:connector-curvature="0" />
    <text
       xml:space="preserve"
       style="font-size:10px;font-style:normal;font-weight:normal;line-height:125%;letter-spacing:0px;word-spacing:0px;fill:#000000;fill-opacity:1;stroke:none;font-family:Sans"
       x="199.16992"
       y="87.892456"
       id="text3365"
       sodipodi:linespacing="125%"><tspan
         sodipodi:role="line"
         id="tspan3367"
         x="199.16992"
         y="87.892456">$\cdots$</tspan></text>
    <text
       xml:space="preserve"
       style="font-size:10px;font-style:normal;font-weight:normal;line-height:125%;letter-spacing:0px;word-spacing:0px;fill:#000000;fill-opacity:1;stroke:none;font-family:Sans"
       x="199.16992"
       y="145.89246"
       id="text3365-1"
       sodipodi:linespacing="125%"><tspan
         sodipodi:role="line"
         id="tspan3367-2"
         x="199.16992"
         y="145.89246">$\cdots$</tspan></text>
    <text
       xml:space="preserve"
       style="font-size:10px;font-style:normal;font-weight:normal;line-height:125%;letter-spacing:0px;word-spacing:0px;fill:#000000;fill-opacity:1;stroke:none;font-family:Sans"
       x="459.16992"
       y="87.892456"
       id="text3365-4"
       sodipodi:linespacing="125%"><tspan
         sodipodi:role="line"
         id="tspan3367-3"
         x="459.16992"
         y="87.892456">$\cdots$</tspan></text>
    <text
       xml:space="preserve"
       style="font-size:10px;font-style:normal;font-weight:normal;line-height:125%;letter-spacing:0px;word-spacing:0px;fill:#000000;fill-opacity:1;stroke:none;font-family:Sans"
       x="459.16992"
       y="147.89246"
       id="text3365-8"
       sodipodi:linespacing="125%"><tspan
         sodipodi:role="line"
         id="tspan3367-4"
         x="459.16992"
         y="147.89246">$\cdots$</tspan></text>
  </g>
</svg>
