<?xml version="1.0" encoding="UTF-8" standalone="no"?>
<!-- Created with Inkscape (http://www.inkscape.org/) -->

<svg
   xmlns:dc="http://purl.org/dc/elements/1.1/"
   xmlns:cc="http://creativecommons.org/ns#"
   xmlns:rdf="http://www.w3.org/1999/02/22-rdf-syntax-ns#"
   xmlns:svg="http://www.w3.org/2000/svg"
   xmlns="http://www.w3.org/2000/svg"
   xmlns:sodipodi="http://sodipodi.sourceforge.net/DTD/sodipodi-0.dtd"
   xmlns:inkscape="http://www.inkscape.org/namespaces/inkscape"
   width="744.09448819"
   height="1052.3622047"
   id="svg5022"
   version="1.1"
   inkscape:version="0.48.4 r9939"
   sodipodi:docname="aproximados_6.svg">
  <defs
     id="defs5024" />
  <sodipodi:namedview
     id="base"
     pagecolor="#ffffff"
     bordercolor="#666666"
     borderopacity="1.0"
     inkscape:pageopacity="0.0"
     inkscape:pageshadow="2"
     inkscape:zoom="2.8"
     inkscape:cx="223.11036"
     inkscape:cy="924.86439"
     inkscape:document-units="px"
     inkscape:current-layer="layer1"
     showgrid="false"
     inkscape:window-width="1851"
     inkscape:window-height="1053"
     inkscape:window-x="69"
     inkscape:window-y="27"
     inkscape:window-maximized="1" />
  <metadata
     id="metadata5027">
    <rdf:RDF>
      <cc:Work
         rdf:about="">
        <dc:format>image/svg+xml</dc:format>
        <dc:type
           rdf:resource="http://purl.org/dc/dcmitype/StillImage" />
        <dc:title />
      </cc:Work>
    </rdf:RDF>
  </metadata>
  <g
     inkscape:label="Layer 1"
     inkscape:groupmode="layer"
     id="layer1">
    <path
       sodipodi:type="arc"
       style="fill:#000000;fill-opacity:1;stroke:#000000;stroke-width:1.58500004;stroke-miterlimit:4;stroke-opacity:0;stroke-dasharray:none;stroke-dashoffset:0"
       id="path2985-5-0-7-5-1"
       sodipodi:cx="112.85714"
       sodipodi:cy="152.00504"
       sodipodi:rx="55.714287"
       sodipodi:ry="66.785713"
       d="m 168.57143,152.00504 a 55.714287,66.785713 0 1 1 -111.428577,0 55.714287,66.785713 0 1 1 111.428577,0 z"
       transform="matrix(0.05068406,0,0,0.0400958,67.222798,33.323557)" />
    <path
       sodipodi:type="arc"
       style="fill:#000000;fill-opacity:1;stroke:#000000;stroke-width:1.58500004;stroke-miterlimit:4;stroke-opacity:0;stroke-dasharray:none;stroke-dashoffset:0"
       id="path2985-5-97-5"
       sodipodi:cx="112.85714"
       sodipodi:cy="152.00504"
       sodipodi:rx="55.714287"
       sodipodi:ry="66.785713"
       d="m 168.57143,152.00504 a 55.714287,66.785713 0 1 1 -111.428577,0 55.714287,66.785713 0 1 1 111.428577,0 z"
       transform="matrix(0.05068406,0,0,0.0400958,100.29847,33.552697)" />
    <path
       sodipodi:type="arc"
       style="fill:#000000;fill-opacity:1;stroke:#000000;stroke-width:1.58500004;stroke-miterlimit:4;stroke-opacity:0;stroke-dasharray:none;stroke-dashoffset:0"
       id="path2985-5-0-8-7"
       sodipodi:cx="112.85714"
       sodipodi:cy="152.00504"
       sodipodi:rx="55.714287"
       sodipodi:ry="66.785713"
       d="m 168.57143,152.00504 a 55.714287,66.785713 0 1 1 -111.428577,0 55.714287,66.785713 0 1 1 111.428577,0 z"
       transform="matrix(0.05068406,0,0,0.0400958,132.80448,33.552697)" />
    <path
       sodipodi:type="arc"
       style="fill:#000000;fill-opacity:1;stroke:#000000;stroke-width:1.58500004;stroke-miterlimit:4;stroke-opacity:0;stroke-dasharray:none;stroke-dashoffset:0"
       id="path2985-5-9-6-4-9"
       sodipodi:cx="112.85714"
       sodipodi:cy="152.00504"
       sodipodi:rx="55.714287"
       sodipodi:ry="66.785713"
       d="m 168.57143,152.00504 a 55.714287,66.785713 0 1 1 -111.428577,0 55.714287,66.785713 0 1 1 111.428577,0 z"
       transform="matrix(0.05068406,0,0,0.0400958,169.82644,33.751887)" />
    <path
       sodipodi:type="arc"
       style="fill:#000000;fill-opacity:1;stroke:#000000;stroke-width:1.58500004;stroke-miterlimit:4;stroke-opacity:0;stroke-dasharray:none;stroke-dashoffset:0"
       id="path2985-5-0-7-5-1-6"
       sodipodi:cx="112.85714"
       sodipodi:cy="152.00504"
       sodipodi:rx="55.714287"
       sodipodi:ry="66.785713"
       d="m 168.57143,152.00504 a 55.714287,66.785713 0 1 1 -111.428577,0 55.714287,66.785713 0 1 1 111.428577,0 z"
       transform="matrix(0.05068406,0,0,0.0400958,202.33246,33.751887)" />
    <path
       style="fill:none;stroke:#ff0000;stroke-width:0.57266939px;stroke-linecap:butt;stroke-linejoin:miter;stroke-opacity:1"
       d="m 178.36732,39.973617 c 25.75216,0 25.75216,0 25.75216,0"
       id="path3156-2-8-6-9"
       inkscape:connector-curvature="0" />
    <path
       style="fill:none;stroke:#ff0000;stroke-width:1.07353377px;stroke-linecap:butt;stroke-linejoin:miter;stroke-opacity:1"
       d="m 200.26574,36.991367 c 4.97647,2.97281 4.97647,2.97281 4.97647,2.97281"
       id="path3400-9-3-2"
       inkscape:connector-curvature="0" />
    <path
       style="fill:none;stroke:#ff0000;stroke-width:1.07353377px;stroke-linecap:butt;stroke-linejoin:miter;stroke-opacity:1"
       d="m 205.24276,39.718287 c -5.23999,3.43166 -4.99025,3.17457 -4.99025,3.17457"
       id="path3402-8-0-3"
       inkscape:connector-curvature="0" />
    <path
       style="fill:none;stroke:#000000;stroke-width:0.64267957px;stroke-linecap:butt;stroke-linejoin:miter;stroke-opacity:1"
       d="m 72.708678,39.597917 c 32.433582,0 32.433582,0 32.433582,0"
       id="path3156-2-8-6-7"
       inkscape:connector-curvature="0" />
    <path
       style="fill:none;stroke:#000000;stroke-width:1.07353377px;stroke-linecap:butt;stroke-linejoin:miter;stroke-opacity:1"
       d="m 97.821538,36.615667 c 4.976472,2.97281 4.976472,2.97281 4.976472,2.97281"
       id="path3400-9-3-3"
       inkscape:connector-curvature="0" />
    <path
       style="fill:none;stroke:#000000;stroke-width:1.07353377px;stroke-linecap:butt;stroke-linejoin:miter;stroke-opacity:1"
       d="m 102.79856,39.342587 c -5.239992,3.43166 -4.990252,3.17457 -4.990252,3.17457"
       id="path3402-8-0-4"
       inkscape:connector-curvature="0" />
    <path
       sodipodi:type="arc"
       style="fill:#000000;fill-opacity:1;stroke:#000000;stroke-width:1.58500004;stroke-miterlimit:4;stroke-opacity:0;stroke-dasharray:none;stroke-dashoffset:0"
       id="path2985-5-0-7-5-1-20"
       sodipodi:cx="112.85714"
       sodipodi:cy="152.00504"
       sodipodi:rx="55.714287"
       sodipodi:ry="66.785713"
       d="m 168.57143,152.00504 a 55.714287,66.785713 0 1 1 -111.428577,0 55.714287,66.785713 0 1 1 111.428577,0 z"
       transform="matrix(0.05068406,0,0,0.0400958,67.166268,61.442097)" />
    <path
       sodipodi:type="arc"
       style="fill:#000000;fill-opacity:1;stroke:#000000;stroke-width:1.58500004;stroke-miterlimit:4;stroke-opacity:0;stroke-dasharray:none;stroke-dashoffset:0"
       id="path2985-5-97-5-4"
       sodipodi:cx="112.85714"
       sodipodi:cy="152.00504"
       sodipodi:rx="55.714287"
       sodipodi:ry="66.785713"
       d="m 168.57143,152.00504 a 55.714287,66.785713 0 1 1 -111.428577,0 55.714287,66.785713 0 1 1 111.428577,0 z"
       transform="matrix(0.05068406,0,0,0.0400958,100.24194,61.671237)" />
    <path
       sodipodi:type="arc"
       style="fill:#000000;fill-opacity:1;stroke:#000000;stroke-width:1.58500004;stroke-miterlimit:4;stroke-opacity:0;stroke-dasharray:none;stroke-dashoffset:0"
       id="path2985-5-0-8-7-9"
       sodipodi:cx="112.85714"
       sodipodi:cy="152.00504"
       sodipodi:rx="55.714287"
       sodipodi:ry="66.785713"
       d="m 168.57143,152.00504 a 55.714287,66.785713 0 1 1 -111.428577,0 55.714287,66.785713 0 1 1 111.428577,0 z"
       transform="matrix(0.05068406,0,0,0.0400958,132.74795,61.671237)" />
    <path
       style="fill:none;stroke:#ff0000;stroke-width:0.58355653px;stroke-linecap:butt;stroke-linejoin:miter;stroke-opacity:1"
       d="m 108.79367,67.892977 c 26.74064,0 26.74064,0 26.74064,0"
       id="path3156-5-54-2"
       inkscape:connector-curvature="0" />
    <path
       sodipodi:type="arc"
       style="fill:#000000;fill-opacity:1;stroke:#000000;stroke-width:1.58500004;stroke-miterlimit:4;stroke-opacity:0;stroke-dasharray:none;stroke-dashoffset:0"
       id="path2985-5-9-6-4-9-0"
       sodipodi:cx="112.85714"
       sodipodi:cy="152.00504"
       sodipodi:rx="55.714287"
       sodipodi:ry="66.785713"
       d="m 168.57143,152.00504 a 55.714287,66.785713 0 1 1 -111.428577,0 55.714287,66.785713 0 1 1 111.428577,0 z"
       transform="matrix(0.05068406,0,0,0.0400958,169.76991,61.870427)" />
    <path
       sodipodi:type="arc"
       style="fill:#000000;fill-opacity:1;stroke:#000000;stroke-width:1.58500004;stroke-miterlimit:4;stroke-opacity:0;stroke-dasharray:none;stroke-dashoffset:0"
       id="path2985-5-0-7-5-1-6-1"
       sodipodi:cx="112.85714"
       sodipodi:cy="152.00504"
       sodipodi:rx="55.714287"
       sodipodi:ry="66.785713"
       d="m 168.57143,152.00504 a 55.714287,66.785713 0 1 1 -111.428577,0 55.714287,66.785713 0 1 1 111.428577,0 z"
       transform="matrix(0.05068406,0,0,0.0400958,202.27593,61.870427)" />
    <path
       style="fill:none;stroke:#ff0000;stroke-width:0.63278967px;stroke-linecap:butt;stroke-linejoin:miter;stroke-opacity:1"
       d="m 141.25923,68.067817 c 31.44306,0 31.44306,0 31.44306,0"
       id="path3156-5-9-4-1"
       inkscape:connector-curvature="0" />
    <path
       style="fill:none;stroke:#ff0000;stroke-width:1.07353377px;stroke-linecap:butt;stroke-linejoin:miter;stroke-opacity:1"
       d="m 130.60553,65.010957 c 4.97647,2.97281 4.97647,2.97281 4.97647,2.97281"
       id="path3400-9-99-9"
       inkscape:connector-curvature="0" />
    <path
       style="fill:none;stroke:#ff0000;stroke-width:1.07353377px;stroke-linecap:butt;stroke-linejoin:miter;stroke-opacity:1"
       d="m 135.58255,67.737877 c -5.23999,3.43166 -4.99025,3.17457 -4.99025,3.17457"
       id="path3402-8-95-4"
       inkscape:connector-curvature="0" />
    <path
       style="fill:none;stroke:#fb0000;stroke-width:1.07353377px;stroke-linecap:butt;stroke-linejoin:miter;stroke-opacity:1"
       d="m 167.63179,65.109907 c 4.97647,2.97281 4.97647,2.97281 4.97647,2.97281"
       id="path3400-9-0-7-5"
       inkscape:connector-curvature="0" />
    <path
       style="fill:none;stroke:#fb0000;stroke-width:1.07353377px;stroke-linecap:butt;stroke-linejoin:miter;stroke-opacity:1"
       d="m 172.60881,67.836827 c -5.23999,3.43166 -4.99025,3.17457 -4.99025,3.17457"
       id="path3402-8-3-6-3"
       inkscape:connector-curvature="0" />
    <path
       style="fill:#ff0000;stroke:#ff0000;stroke-width:0.55575806;stroke-linecap:butt;stroke-linejoin:miter;stroke-miterlimit:4;stroke-opacity:1;stroke-dasharray:none"
       d="m 105.97259,42.466627 c 0,21.877892 0,21.877892 0,21.877892"
       id="path3568-2-9"
       inkscape:connector-curvature="0" />
    <path
       style="fill:#ff0000;stroke:#ff0000;stroke-width:1.07353377px;stroke-linecap:butt;stroke-linejoin:miter;stroke-opacity:1"
       d="m 108.72258,59.694567 c -2.85644,5.04418 -2.85644,5.04418 -2.85644,5.04418"
       id="path3400-9-7-35-18-6-8"
       inkscape:connector-curvature="0" />
    <path
       style="fill:#ff0000;stroke:#ff0000;stroke-width:1.07353377px;stroke-linecap:butt;stroke-linejoin:miter;stroke-opacity:1"
       d="m 106.11197,64.733587 c -3.55242,-5.15889 -3.28961,-4.91518 -3.28961,-4.91518"
       id="path3402-8-5-11-4-5-2"
       inkscape:connector-curvature="0" />
    <path
       style="fill:none;stroke:#ff0000;stroke-width:0.62855858;stroke-linecap:butt;stroke-linejoin:miter;stroke-miterlimit:4;stroke-opacity:1;stroke-dasharray:none"
       d="m 175.57704,65.025156 c -0.0809,-22.986628 -0.0809,-22.986628 -0.0809,-22.986628"
       id="path3568-2-3-3"
       inkscape:connector-curvature="0" />
    <path
       style="fill:none;stroke:#ff0000;stroke-width:1.07353377px;stroke-linecap:butt;stroke-linejoin:miter;stroke-opacity:1"
       d="m 172.77121,47.375377 c 2.84499,-5.05065 2.84499,-5.05065 2.84499,-5.05065"
       id="path3400-9-7-35-18-6-4-7"
       inkscape:connector-curvature="0" />
    <path
       style="fill:none;stroke:#ff0000;stroke-width:1.07353377px;stroke-linecap:butt;stroke-linejoin:miter;stroke-opacity:1"
       d="m 175.37038,42.330447 c 3.56411,5.15081 3.30075,4.9077 3.30075,4.9077"
       id="path3402-8-5-11-4-5-1-7"
       inkscape:connector-curvature="0" />
    <path
       style="fill:none;stroke:#000000;stroke-width:0.2063287;stroke-linecap:butt;stroke-linejoin:miter;stroke-miterlimit:4;stroke-opacity:1;stroke-dasharray:2.47594452, 2.47594452;stroke-dashoffset:0"
       d="m 208.2167,26.113241 c 0,52.46457 0,52.46457 0,52.46457"
       id="path4455"
       inkscape:connector-curvature="0" />
    <path
       sodipodi:type="arc"
       style="fill:#000000;fill-opacity:1;stroke:#000000;stroke-width:1.58500004;stroke-miterlimit:4;stroke-opacity:0;stroke-dasharray:none;stroke-dashoffset:0"
       id="path2985-5-0-7-5-1-7"
       sodipodi:cx="112.85714"
       sodipodi:cy="152.00504"
       sodipodi:rx="55.714287"
       sodipodi:ry="66.785713"
       d="m 168.57143,152.00504 a 55.714287,66.785713 0 1 1 -111.428577,0 55.714287,66.785713 0 1 1 111.428577,0 z"
       transform="matrix(0.05068406,0,0,0.0400958,67.222798,93.34022)" />
    <path
       sodipodi:type="arc"
       style="fill:#000000;fill-opacity:1;stroke:#000000;stroke-width:1.58500004;stroke-miterlimit:4;stroke-opacity:0;stroke-dasharray:none;stroke-dashoffset:0"
       id="path2985-5-97-5-1"
       sodipodi:cx="112.85714"
       sodipodi:cy="152.00504"
       sodipodi:rx="55.714287"
       sodipodi:ry="66.785713"
       d="m 168.57143,152.00504 a 55.714287,66.785713 0 1 1 -111.428577,0 55.714287,66.785713 0 1 1 111.428577,0 z"
       transform="matrix(0.05068406,0,0,0.0400958,100.29847,93.56936)" />
    <path
       sodipodi:type="arc"
       style="fill:#000000;fill-opacity:1;stroke:#000000;stroke-width:1.58500004;stroke-miterlimit:4;stroke-opacity:0;stroke-dasharray:none;stroke-dashoffset:0"
       id="path2985-5-0-8-7-1"
       sodipodi:cx="112.85714"
       sodipodi:cy="152.00504"
       sodipodi:rx="55.714287"
       sodipodi:ry="66.785713"
       d="m 168.57143,152.00504 a 55.714287,66.785713 0 1 1 -111.428577,0 55.714287,66.785713 0 1 1 111.428577,0 z"
       transform="matrix(0.05068406,0,0,0.0400958,132.80448,93.56936)" />
    <path
       sodipodi:type="arc"
       style="fill:#000000;fill-opacity:1;stroke:#000000;stroke-width:1.58500004;stroke-miterlimit:4;stroke-opacity:0;stroke-dasharray:none;stroke-dashoffset:0"
       id="path2985-5-9-6-4-9-04"
       sodipodi:cx="112.85714"
       sodipodi:cy="152.00504"
       sodipodi:rx="55.714287"
       sodipodi:ry="66.785713"
       d="m 168.57143,152.00504 a 55.714287,66.785713 0 1 1 -111.428577,0 55.714287,66.785713 0 1 1 111.428577,0 z"
       transform="matrix(0.05068406,0,0,0.0400958,169.82644,93.76855)" />
    <path
       style="fill:none;stroke:#000000;stroke-width:0.64267957px;stroke-linecap:butt;stroke-linejoin:miter;stroke-opacity:1"
       d="m 72.708678,99.61458 c 32.433582,0 32.433582,0 32.433582,0"
       id="path3156-2-8-6-7-8"
       inkscape:connector-curvature="0" />
    <path
       style="fill:none;stroke:#000000;stroke-width:1.07353377px;stroke-linecap:butt;stroke-linejoin:miter;stroke-opacity:1"
       d="m 97.821537,96.63233 c 4.976473,2.97281 4.976473,2.97281 4.976473,2.97281"
       id="path3400-9-3-3-6"
       inkscape:connector-curvature="0" />
    <path
       style="fill:none;stroke:#000000;stroke-width:1.07353377px;stroke-linecap:butt;stroke-linejoin:miter;stroke-opacity:1"
       d="m 102.79856,99.35925 c -5.239993,3.43166 -4.990253,3.17457 -4.990253,3.17457"
       id="path3402-8-0-4-7"
       inkscape:connector-curvature="0" />
    <path
       sodipodi:type="arc"
       style="fill:#000000;fill-opacity:1;stroke:#000000;stroke-width:1.58500004;stroke-miterlimit:4;stroke-opacity:0;stroke-dasharray:none;stroke-dashoffset:0"
       id="path2985-5-0-7-5-1-20-3"
       sodipodi:cx="112.85714"
       sodipodi:cy="152.00504"
       sodipodi:rx="55.714287"
       sodipodi:ry="66.785713"
       d="m 168.57143,152.00504 a 55.714287,66.785713 0 1 1 -111.428577,0 55.714287,66.785713 0 1 1 111.428577,0 z"
       transform="matrix(0.05068406,0,0,0.0400958,67.166268,121.45876)" />
    <path
       sodipodi:type="arc"
       style="fill:#000000;fill-opacity:1;stroke:#000000;stroke-width:1.58500004;stroke-miterlimit:4;stroke-opacity:0;stroke-dasharray:none;stroke-dashoffset:0"
       id="path2985-5-97-5-4-4"
       sodipodi:cx="112.85714"
       sodipodi:cy="152.00504"
       sodipodi:rx="55.714287"
       sodipodi:ry="66.785713"
       d="m 168.57143,152.00504 a 55.714287,66.785713 0 1 1 -111.428577,0 55.714287,66.785713 0 1 1 111.428577,0 z"
       transform="matrix(0.05068406,0,0,0.0400958,100.24194,121.6879)" />
    <path
       sodipodi:type="arc"
       style="fill:#000000;fill-opacity:1;stroke:#000000;stroke-width:1.58500004;stroke-miterlimit:4;stroke-opacity:0;stroke-dasharray:none;stroke-dashoffset:0"
       id="path2985-5-0-8-7-9-6"
       sodipodi:cx="112.85714"
       sodipodi:cy="152.00504"
       sodipodi:rx="55.714287"
       sodipodi:ry="66.785713"
       d="m 168.57143,152.00504 a 55.714287,66.785713 0 1 1 -111.428577,0 55.714287,66.785713 0 1 1 111.428577,0 z"
       transform="matrix(0.05068406,0,0,0.0400958,132.74795,121.6879)" />
    <path
       style="fill:none;stroke:#ff0000;stroke-width:0.58355653px;stroke-linecap:butt;stroke-linejoin:miter;stroke-opacity:1"
       d="m 108.79367,127.90964 c 26.74064,0 26.74064,0 26.74064,0"
       id="path3156-5-54-2-6"
       inkscape:connector-curvature="0" />
    <path
       sodipodi:type="arc"
       style="fill:#000000;fill-opacity:1;stroke:#000000;stroke-width:1.58500004;stroke-miterlimit:4;stroke-opacity:0;stroke-dasharray:none;stroke-dashoffset:0"
       id="path2985-5-9-6-4-9-0-1"
       sodipodi:cx="112.85714"
       sodipodi:cy="152.00504"
       sodipodi:rx="55.714287"
       sodipodi:ry="66.785713"
       d="m 168.57143,152.00504 a 55.714287,66.785713 0 1 1 -111.428577,0 55.714287,66.785713 0 1 1 111.428577,0 z"
       transform="matrix(0.05068406,0,0,0.0400958,169.76991,121.88709)" />
    <path
       style="fill:none;stroke:#ff0000;stroke-width:0.63278967px;stroke-linecap:butt;stroke-linejoin:miter;stroke-opacity:1"
       d="m 141.25923,128.08448 c 31.44306,0 31.44306,0 31.44306,0"
       id="path3156-5-9-4-1-1"
       inkscape:connector-curvature="0" />
    <path
       style="fill:none;stroke:#ff0000;stroke-width:1.07353377px;stroke-linecap:butt;stroke-linejoin:miter;stroke-opacity:1"
       d="m 130.60553,125.02762 c 4.97647,2.97281 4.97647,2.97281 4.97647,2.97281"
       id="path3400-9-99-9-2"
       inkscape:connector-curvature="0" />
    <path
       style="fill:none;stroke:#ff0000;stroke-width:1.07353377px;stroke-linecap:butt;stroke-linejoin:miter;stroke-opacity:1"
       d="m 135.58255,127.75454 c -5.23999,3.43166 -4.99025,3.17457 -4.99025,3.17457"
       id="path3402-8-95-4-8"
       inkscape:connector-curvature="0" />
    <path
       style="fill:none;stroke:#fb0000;stroke-width:1.07353377px;stroke-linecap:butt;stroke-linejoin:miter;stroke-opacity:1"
       d="m 167.63179,125.12657 c 4.97647,2.97281 4.97647,2.97281 4.97647,2.97281"
       id="path3400-9-0-7-5-8"
       inkscape:connector-curvature="0" />
    <path
       style="fill:none;stroke:#fb0000;stroke-width:1.07353377px;stroke-linecap:butt;stroke-linejoin:miter;stroke-opacity:1"
       d="m 172.60881,127.85349 c -5.23999,3.43166 -4.99025,3.17457 -4.99025,3.17457"
       id="path3402-8-3-6-3-6"
       inkscape:connector-curvature="0" />
    <path
       style="fill:#ff0000;stroke:#ff0000;stroke-width:0.55575806;stroke-linecap:butt;stroke-linejoin:miter;stroke-miterlimit:4;stroke-opacity:1;stroke-dasharray:none"
       d="m 105.97259,102.48329 c 0,21.87789 0,21.87789 0,21.87789"
       id="path3568-2-9-4"
       inkscape:connector-curvature="0" />
    <path
       style="fill:#ff0000;stroke:#ff0000;stroke-width:1.07353377px;stroke-linecap:butt;stroke-linejoin:miter;stroke-opacity:1"
       d="m 108.72258,119.71123 c -2.85644,5.04418 -2.85644,5.04418 -2.85644,5.04418"
       id="path3400-9-7-35-18-6-8-2"
       inkscape:connector-curvature="0" />
    <path
       style="fill:#ff0000;stroke:#ff0000;stroke-width:1.07353377px;stroke-linecap:butt;stroke-linejoin:miter;stroke-opacity:1"
       d="m 106.11197,124.75025 c -3.55242,-5.15889 -3.28961,-4.91518 -3.28961,-4.91518"
       id="path3402-8-5-11-4-5-2-6"
       inkscape:connector-curvature="0" />
    <path
       style="fill:none;stroke:#ff0000;stroke-width:0.62855858;stroke-linecap:butt;stroke-linejoin:miter;stroke-miterlimit:4;stroke-opacity:1;stroke-dasharray:none"
       d="m 175.57704,125.04182 c -0.0809,-22.98663 -0.0809,-22.98663 -0.0809,-22.98663"
       id="path3568-2-3-3-7"
       inkscape:connector-curvature="0" />
    <path
       style="fill:none;stroke:#ff0000;stroke-width:1.07353377px;stroke-linecap:butt;stroke-linejoin:miter;stroke-opacity:1"
       d="m 172.77121,107.39204 c 2.84499,-5.05065 2.84499,-5.05065 2.84499,-5.05065"
       id="path3400-9-7-35-18-6-4-7-5"
       inkscape:connector-curvature="0" />
    <path
       style="fill:none;stroke:#ff0000;stroke-width:1.07353377px;stroke-linecap:butt;stroke-linejoin:miter;stroke-opacity:1"
       d="m 175.37038,102.34711 c 3.56411,5.15081 3.30075,4.9077 3.30075,4.9077"
       id="path3402-8-5-11-4-5-1-7-0"
       inkscape:connector-curvature="0" />
    <path
       style="fill:none;stroke:#000000;stroke-width:0.2063287;stroke-linecap:butt;stroke-linejoin:miter;stroke-miterlimit:4;stroke-opacity:1;stroke-dasharray:2.47594452, 2.47594452;stroke-dashoffset:0"
       d="m 175.35956,87.915618 c 0,52.464562 0,52.464562 0,52.464562"
       id="path4455-4"
       inkscape:connector-curvature="0" />
    <path
       sodipodi:type="arc"
       style="fill:#000000;fill-opacity:1;stroke:#000000;stroke-width:1.58500004;stroke-miterlimit:4;stroke-opacity:0;stroke-dasharray:none;stroke-dashoffset:0"
       id="path2985-5-0-7-5-1-7-4"
       sodipodi:cx="112.85714"
       sodipodi:cy="152.00504"
       sodipodi:rx="55.714287"
       sodipodi:ry="66.785713"
       d="m 168.57143,152.00504 a 55.714287,66.785713 0 1 1 -111.428577,0 55.714287,66.785713 0 1 1 111.428577,0 z"
       transform="matrix(0.05068406,0,0,0.0400958,67.222798,155.12594)" />
    <path
       sodipodi:type="arc"
       style="fill:#000000;fill-opacity:1;stroke:#000000;stroke-width:1.58500004;stroke-miterlimit:4;stroke-opacity:0;stroke-dasharray:none;stroke-dashoffset:0"
       id="path2985-5-97-5-1-0"
       sodipodi:cx="112.85714"
       sodipodi:cy="152.00504"
       sodipodi:rx="55.714287"
       sodipodi:ry="66.785713"
       d="m 168.57143,152.00504 a 55.714287,66.785713 0 1 1 -111.428577,0 55.714287,66.785713 0 1 1 111.428577,0 z"
       transform="matrix(0.05068406,0,0,0.0400958,100.29847,155.35508)" />
    <path
       sodipodi:type="arc"
       style="fill:#000000;fill-opacity:1;stroke:#000000;stroke-width:1.58500004;stroke-miterlimit:4;stroke-opacity:0;stroke-dasharray:none;stroke-dashoffset:0"
       id="path2985-5-0-8-7-1-5"
       sodipodi:cx="112.85714"
       sodipodi:cy="152.00504"
       sodipodi:rx="55.714287"
       sodipodi:ry="66.785713"
       d="m 168.57143,152.00504 a 55.714287,66.785713 0 1 1 -111.428577,0 55.714287,66.785713 0 1 1 111.428577,0 z"
       transform="matrix(0.05068406,0,0,0.0400958,132.80448,155.35508)" />
    <path
       style="fill:none;stroke:#000000;stroke-width:0.64267957px;stroke-linecap:butt;stroke-linejoin:miter;stroke-opacity:1"
       d="m 72.708678,161.4003 c 32.433582,0 32.433582,0 32.433582,0"
       id="path3156-2-8-6-7-8-0"
       inkscape:connector-curvature="0" />
    <path
       style="fill:none;stroke:#000000;stroke-width:1.07353377px;stroke-linecap:butt;stroke-linejoin:miter;stroke-opacity:1"
       d="m 97.821538,158.41805 c 4.976472,2.97281 4.976472,2.97281 4.976472,2.97281"
       id="path3400-9-3-3-6-0"
       inkscape:connector-curvature="0" />
    <path
       style="fill:none;stroke:#000000;stroke-width:1.07353377px;stroke-linecap:butt;stroke-linejoin:miter;stroke-opacity:1"
       d="m 102.79856,161.14497 c -5.239992,3.43166 -4.990252,3.17457 -4.990252,3.17457"
       id="path3402-8-0-4-7-0"
       inkscape:connector-curvature="0" />
    <path
       sodipodi:type="arc"
       style="fill:#000000;fill-opacity:1;stroke:#000000;stroke-width:1.58500004;stroke-miterlimit:4;stroke-opacity:0;stroke-dasharray:none;stroke-dashoffset:0"
       id="path2985-5-0-7-5-1-20-3-8"
       sodipodi:cx="112.85714"
       sodipodi:cy="152.00504"
       sodipodi:rx="55.714287"
       sodipodi:ry="66.785713"
       d="m 168.57143,152.00504 a 55.714287,66.785713 0 1 1 -111.428577,0 55.714287,66.785713 0 1 1 111.428577,0 z"
       transform="matrix(0.05068406,0,0,0.0400958,67.166268,183.24448)" />
    <path
       sodipodi:type="arc"
       style="fill:#000000;fill-opacity:1;stroke:#000000;stroke-width:1.58500004;stroke-miterlimit:4;stroke-opacity:0;stroke-dasharray:none;stroke-dashoffset:0"
       id="path2985-5-97-5-4-4-2"
       sodipodi:cx="112.85714"
       sodipodi:cy="152.00504"
       sodipodi:rx="55.714287"
       sodipodi:ry="66.785713"
       d="m 168.57143,152.00504 a 55.714287,66.785713 0 1 1 -111.428577,0 55.714287,66.785713 0 1 1 111.428577,0 z"
       transform="matrix(0.05068406,0,0,0.0400958,100.24194,183.47362)" />
    <path
       sodipodi:type="arc"
       style="fill:#000000;fill-opacity:1;stroke:#000000;stroke-width:1.58500004;stroke-miterlimit:4;stroke-opacity:0;stroke-dasharray:none;stroke-dashoffset:0"
       id="path2985-5-0-8-7-9-6-5"
       sodipodi:cx="112.85714"
       sodipodi:cy="152.00504"
       sodipodi:rx="55.714287"
       sodipodi:ry="66.785713"
       d="m 168.57143,152.00504 a 55.714287,66.785713 0 1 1 -111.428577,0 55.714287,66.785713 0 1 1 111.428577,0 z"
       transform="matrix(0.05068406,0,0,0.0400958,132.74795,183.47362)" />
    <path
       style="fill:none;stroke:#ff0000;stroke-width:0.58355653px;stroke-linecap:butt;stroke-linejoin:miter;stroke-opacity:1"
       d="m 108.79367,189.69536 c 26.74064,0 26.74064,0 26.74064,0"
       id="path3156-5-54-2-6-6"
       inkscape:connector-curvature="0" />
    <path
       style="fill:none;stroke:#ff0000;stroke-width:1.07353377px;stroke-linecap:butt;stroke-linejoin:miter;stroke-opacity:1"
       d="m 130.60553,186.81334 c 4.97647,2.97281 4.97647,2.97281 4.97647,2.97281"
       id="path3400-9-99-9-2-1"
       inkscape:connector-curvature="0" />
    <path
       style="fill:none;stroke:#ff0000;stroke-width:1.07353377px;stroke-linecap:butt;stroke-linejoin:miter;stroke-opacity:1"
       d="m 135.58255,189.54026 c -5.23999,3.43166 -4.99025,3.17457 -4.99025,3.17457"
       id="path3402-8-95-4-8-5"
       inkscape:connector-curvature="0" />
    <path
       style="fill:#ff0000;stroke:#ff0000;stroke-width:0.55575806;stroke-linecap:butt;stroke-linejoin:miter;stroke-miterlimit:4;stroke-opacity:1;stroke-dasharray:none"
       d="m 105.97259,164.26901 c 0,21.87789 0,21.87789 0,21.87789"
       id="path3568-2-9-4-8"
       inkscape:connector-curvature="0" />
    <path
       style="fill:#ff0000;stroke:#ff0000;stroke-width:1.07353377px;stroke-linecap:butt;stroke-linejoin:miter;stroke-opacity:1"
       d="m 108.72258,181.49695 c -2.85644,5.04418 -2.85644,5.04418 -2.85644,5.04418"
       id="path3400-9-7-35-18-6-8-2-3"
       inkscape:connector-curvature="0" />
    <path
       style="fill:#ff0000;stroke:#ff0000;stroke-width:1.07353377px;stroke-linecap:butt;stroke-linejoin:miter;stroke-opacity:1"
       d="m 106.11197,186.53597 c -3.55242,-5.15889 -3.28961,-4.91518 -3.28961,-4.91518"
       id="path3402-8-5-11-4-5-2-6-0"
       inkscape:connector-curvature="0" />
    <path
       style="fill:none;stroke:#000000;stroke-width:0.2063287;stroke-linecap:butt;stroke-linejoin:miter;stroke-miterlimit:4;stroke-opacity:1;stroke-dasharray:2.47594452, 2.47594452;stroke-dashoffset:0"
       d="m 138.57385,148.98706 c 0,52.46456 0,52.46456 0,52.46456"
       id="path4455-4-8"
       inkscape:connector-curvature="0" />
    <path
       sodipodi:type="arc"
       style="fill:#000000;fill-opacity:1;stroke:#000000;stroke-width:1.58500004;stroke-miterlimit:4;stroke-opacity:0;stroke-dasharray:none;stroke-dashoffset:0"
       id="path2985-5-0-7-5-1-7-4-7"
       sodipodi:cx="112.85714"
       sodipodi:cy="152.00504"
       sodipodi:rx="55.714287"
       sodipodi:ry="66.785713"
       d="m 168.57143,152.00504 a 55.714287,66.785713 0 1 1 -111.428577,0 55.714287,66.785713 0 1 1 111.428577,0 z"
       transform="matrix(0.05068406,0,0,0.0400958,67.222798,216.19736)" />
    <path
       sodipodi:type="arc"
       style="fill:#000000;fill-opacity:1;stroke:#000000;stroke-width:1.58500004;stroke-miterlimit:4;stroke-opacity:0;stroke-dasharray:none;stroke-dashoffset:0"
       id="path2985-5-97-5-1-0-3"
       sodipodi:cx="112.85714"
       sodipodi:cy="152.00504"
       sodipodi:rx="55.714287"
       sodipodi:ry="66.785713"
       d="m 168.57143,152.00504 a 55.714287,66.785713 0 1 1 -111.428577,0 55.714287,66.785713 0 1 1 111.428577,0 z"
       transform="matrix(0.05068406,0,0,0.0400958,100.29847,216.4265)" />
    <path
       style="fill:none;stroke:#000000;stroke-width:0.64267957px;stroke-linecap:butt;stroke-linejoin:miter;stroke-opacity:1"
       d="m 72.708678,222.47172 c 32.433582,0 32.433582,0 32.433582,0"
       id="path3156-2-8-6-7-8-0-6"
       inkscape:connector-curvature="0" />
    <path
       style="fill:none;stroke:#000000;stroke-width:1.07353377px;stroke-linecap:butt;stroke-linejoin:miter;stroke-opacity:1"
       d="m 97.821538,219.48947 c 4.976472,2.97281 4.976472,2.97281 4.976472,2.97281"
       id="path3400-9-3-3-6-0-9"
       inkscape:connector-curvature="0" />
    <path
       style="fill:none;stroke:#000000;stroke-width:1.07353377px;stroke-linecap:butt;stroke-linejoin:miter;stroke-opacity:1"
       d="m 102.79856,222.21639 c -5.239992,3.43166 -4.990252,3.17457 -4.990252,3.17457"
       id="path3402-8-0-4-7-0-7"
       inkscape:connector-curvature="0" />
    <path
       sodipodi:type="arc"
       style="fill:#000000;fill-opacity:1;stroke:#000000;stroke-width:1.58500004;stroke-miterlimit:4;stroke-opacity:0;stroke-dasharray:none;stroke-dashoffset:0"
       id="path2985-5-0-7-5-1-20-3-8-1"
       sodipodi:cx="112.85714"
       sodipodi:cy="152.00504"
       sodipodi:rx="55.714287"
       sodipodi:ry="66.785713"
       d="m 168.57143,152.00504 a 55.714287,66.785713 0 1 1 -111.428577,0 55.714287,66.785713 0 1 1 111.428577,0 z"
       transform="matrix(0.05068406,0,0,0.0400958,67.166268,244.3159)" />
    <path
       sodipodi:type="arc"
       style="fill:#000000;fill-opacity:1;stroke:#000000;stroke-width:1.58500004;stroke-miterlimit:4;stroke-opacity:0;stroke-dasharray:none;stroke-dashoffset:0"
       id="path2985-5-97-5-4-4-2-5"
       sodipodi:cx="112.85714"
       sodipodi:cy="152.00504"
       sodipodi:rx="55.714287"
       sodipodi:ry="66.785713"
       d="m 168.57143,152.00504 a 55.714287,66.785713 0 1 1 -111.428577,0 55.714287,66.785713 0 1 1 111.428577,0 z"
       transform="matrix(0.05068406,0,0,0.0400958,100.24194,244.54504)" />
    <path
       style="fill:#ff0000;stroke:#ff0000;stroke-width:0.55575806;stroke-linecap:butt;stroke-linejoin:miter;stroke-miterlimit:4;stroke-opacity:1;stroke-dasharray:none"
       d="m 105.97259,225.34043 c 0,21.87789 0,21.87789 0,21.87789"
       id="path3568-2-9-4-8-0"
       inkscape:connector-curvature="0" />
    <path
       style="fill:#ff0000;stroke:#ff0000;stroke-width:1.07353377px;stroke-linecap:butt;stroke-linejoin:miter;stroke-opacity:1"
       d="m 108.72258,242.56837 c -2.85644,5.04418 -2.85644,5.04418 -2.85644,5.04418"
       id="path3400-9-7-35-18-6-8-2-3-2"
       inkscape:connector-curvature="0" />
    <path
       style="fill:#ff0000;stroke:#ff0000;stroke-width:1.07353377px;stroke-linecap:butt;stroke-linejoin:miter;stroke-opacity:1"
       d="m 106.11197,247.60739 c -3.55242,-5.15889 -3.28961,-4.91518 -3.28961,-4.91518"
       id="path3402-8-5-11-4-5-2-6-0-9"
       inkscape:connector-curvature="0" />
    <path
       style="fill:none;stroke:#000000;stroke-width:0.2063287;stroke-linecap:butt;stroke-linejoin:miter;stroke-miterlimit:4;stroke-opacity:1;stroke-dasharray:2.47594452, 2.47594452;stroke-dashoffset:0"
       d="m 106.07385,211.48705 c 0,52.46456 0,52.46456 0,52.46456"
       id="path4455-4-8-3"
       inkscape:connector-curvature="0" />
  </g>
</svg>
