<?xml version="1.0" encoding="UTF-8" standalone="no"?>
<!-- Created with Inkscape (http://www.inkscape.org/) -->

<svg
   xmlns:dc="http://purl.org/dc/elements/1.1/"
   xmlns:cc="http://creativecommons.org/ns#"
   xmlns:rdf="http://www.w3.org/1999/02/22-rdf-syntax-ns#"
   xmlns:svg="http://www.w3.org/2000/svg"
   xmlns="http://www.w3.org/2000/svg"
   xmlns:sodipodi="http://sodipodi.sourceforge.net/DTD/sodipodi-0.dtd"
   xmlns:inkscape="http://www.inkscape.org/namespaces/inkscape"
   width="744.09448819"
   height="1052.3622047"
   id="svg5022"
   version="1.1"
   inkscape:version="0.48.4 r9939"
   sodipodi:docname="aproximados_5.svg">
  <defs
     id="defs5024" />
  <sodipodi:namedview
     id="base"
     pagecolor="#ffffff"
     bordercolor="#666666"
     borderopacity="1.0"
     inkscape:pageopacity="0.0"
     inkscape:pageshadow="2"
     inkscape:zoom="1.979899"
     inkscape:cx="248.70264"
     inkscape:cy="874.84521"
     inkscape:document-units="px"
     inkscape:current-layer="layer1"
     showgrid="false"
     inkscape:window-width="1851"
     inkscape:window-height="1053"
     inkscape:window-x="69"
     inkscape:window-y="27"
     inkscape:window-maximized="1" />
  <metadata
     id="metadata5027">
    <rdf:RDF>
      <cc:Work
         rdf:about="">
        <dc:format>image/svg+xml</dc:format>
        <dc:type
           rdf:resource="http://purl.org/dc/dcmitype/StillImage" />
        <dc:title />
      </cc:Work>
    </rdf:RDF>
  </metadata>
  <g
     inkscape:label="Layer 1"
     inkscape:groupmode="layer"
     id="layer1">
    <path
       sodipodi:type="arc"
       style="fill:#000000;fill-opacity:1;stroke:#000000;stroke-width:1.58500004;stroke-miterlimit:4;stroke-opacity:0;stroke-dasharray:none;stroke-dashoffset:0"
       id="path2985-5-97"
       sodipodi:cx="112.85714"
       sodipodi:cy="152.00504"
       sodipodi:rx="55.714287"
       sodipodi:ry="66.785713"
       d="m 168.57143,152.00504 a 55.714287,66.785713 0 1 1 -111.428577,0 55.714287,66.785713 0 1 1 111.428577,0 z"
       transform="matrix(0.05068406,0,0,0.0400958,266.26202,63.93402)" />
    <path
       sodipodi:type="arc"
       style="fill:#000000;fill-opacity:1;stroke:#000000;stroke-width:1.58500004;stroke-miterlimit:4;stroke-opacity:0;stroke-dasharray:none;stroke-dashoffset:0"
       id="path2985-5-0-8"
       sodipodi:cx="112.85714"
       sodipodi:cy="152.00504"
       sodipodi:rx="55.714287"
       sodipodi:ry="66.785713"
       d="m 168.57143,152.00504 a 55.714287,66.785713 0 1 1 -111.428577,0 55.714287,66.785713 0 1 1 111.428577,0 z"
       transform="matrix(0.05068406,0,0,0.0400958,298.56781,63.93402)" />
    <path
       sodipodi:type="arc"
       style="fill:#000000;fill-opacity:1;stroke:#000000;stroke-width:1.58500004;stroke-miterlimit:4;stroke-opacity:0;stroke-dasharray:none;stroke-dashoffset:0"
       id="path2985-5-9-6-4"
       sodipodi:cx="112.85714"
       sodipodi:cy="152.00504"
       sodipodi:rx="55.714287"
       sodipodi:ry="66.785713"
       d="m 168.57143,152.00504 a 55.714287,66.785713 0 1 1 -111.428577,0 55.714287,66.785713 0 1 1 111.428577,0 z"
       transform="matrix(0.05068406,0,0,0.0400958,335.58977,64.13321)" />
    <path
       sodipodi:type="arc"
       style="fill:#000000;fill-opacity:1;stroke:#000000;stroke-width:1.58500004;stroke-miterlimit:4;stroke-opacity:0;stroke-dasharray:none;stroke-dashoffset:0"
       id="path2985-5-0-7-5-1"
       sodipodi:cx="112.85714"
       sodipodi:cy="152.00504"
       sodipodi:rx="55.714287"
       sodipodi:ry="66.785713"
       d="m 168.57143,152.00504 a 55.714287,66.785713 0 1 1 -111.428577,0 55.714287,66.785713 0 1 1 111.428577,0 z"
       transform="matrix(0.05068406,0,0,0.0400958,368.09579,64.13321)" />
    <path
       style="fill:none;stroke:#000000;stroke-width:0.64267957px;stroke-linecap:butt;stroke-linejoin:miter;stroke-opacity:1"
       d="m 340.91621,70.35494 c 32.43358,0 32.43358,0 32.43358,0"
       id="path3156-2-8-6"
       inkscape:connector-curvature="0" />
    <path
       style="fill:none;stroke:#000000;stroke-width:1.07353377px;stroke-linecap:butt;stroke-linejoin:miter;stroke-opacity:1"
       d="m 366.02907,67.37269 c 4.97647,2.97281 4.97647,2.97281 4.97647,2.97281"
       id="path3400-9-3"
       inkscape:connector-curvature="0" />
    <path
       style="fill:none;stroke:#000000;stroke-width:1.07353377px;stroke-linecap:butt;stroke-linejoin:miter;stroke-opacity:1"
       d="m 371.00609,70.09961 c -5.23999,3.43166 -4.99025,3.17457 -4.99025,3.17457"
       id="path3402-8-0"
       inkscape:connector-curvature="0" />
    <path
       sodipodi:type="arc"
       style="fill:#000000;fill-opacity:1;stroke:#000000;stroke-width:1.58500004;stroke-miterlimit:4;stroke-opacity:0;stroke-dasharray:none;stroke-dashoffset:0"
       id="path2985-5-97-5"
       sodipodi:cx="112.85714"
       sodipodi:cy="152.00504"
       sodipodi:rx="55.714287"
       sodipodi:ry="66.785713"
       d="m 168.57143,152.00504 a 55.714287,66.785713 0 1 1 -111.428577,0 55.714287,66.785713 0 1 1 111.428577,0 z"
       transform="matrix(0.05068406,0,0,0.0400958,401.17146,64.36235)" />
    <path
       sodipodi:type="arc"
       style="fill:#000000;fill-opacity:1;stroke:#000000;stroke-width:1.58500004;stroke-miterlimit:4;stroke-opacity:0;stroke-dasharray:none;stroke-dashoffset:0"
       id="path2985-5-0-8-7"
       sodipodi:cx="112.85714"
       sodipodi:cy="152.00504"
       sodipodi:rx="55.714287"
       sodipodi:ry="66.785713"
       d="m 168.57143,152.00504 a 55.714287,66.785713 0 1 1 -111.428577,0 55.714287,66.785713 0 1 1 111.428577,0 z"
       transform="matrix(0.05068406,0,0,0.0400958,433.67747,64.36235)" />
    <path
       sodipodi:type="arc"
       style="fill:#000000;fill-opacity:1;stroke:#000000;stroke-width:1.58500004;stroke-miterlimit:4;stroke-opacity:0;stroke-dasharray:none;stroke-dashoffset:0"
       id="path2985-5-9-6-4-9"
       sodipodi:cx="112.85714"
       sodipodi:cy="152.00504"
       sodipodi:rx="55.714287"
       sodipodi:ry="66.785713"
       d="m 168.57143,152.00504 a 55.714287,66.785713 0 1 1 -111.428577,0 55.714287,66.785713 0 1 1 111.428577,0 z"
       transform="matrix(0.05068406,0,0,0.0400958,470.69943,64.56154)" />
    <path
       sodipodi:type="arc"
       style="fill:#000000;fill-opacity:1;stroke:#000000;stroke-width:1.58500004;stroke-miterlimit:4;stroke-opacity:0;stroke-dasharray:none;stroke-dashoffset:0"
       id="path2985-5-0-7-5-1-6"
       sodipodi:cx="112.85714"
       sodipodi:cy="152.00504"
       sodipodi:rx="55.714287"
       sodipodi:ry="66.785713"
       d="m 168.57143,152.00504 a 55.714287,66.785713 0 1 1 -111.428577,0 55.714287,66.785713 0 1 1 111.428577,0 z"
       transform="matrix(0.05068406,0,0,0.0400958,503.20545,64.56154)" />
    <path
       style="fill:none;stroke:#000000;stroke-width:0.64267957px;stroke-linecap:butt;stroke-linejoin:miter;stroke-opacity:1"
       d="m 476.02587,70.78327 c 32.43358,0 32.43358,0 32.43358,0"
       id="path3156-2-8-6-9"
       inkscape:connector-curvature="0" />
    <path
       style="fill:none;stroke:#000000;stroke-width:1.07353377px;stroke-linecap:butt;stroke-linejoin:miter;stroke-opacity:1"
       d="m 501.13873,67.80102 c 4.97647,2.97281 4.97647,2.97281 4.97647,2.97281"
       id="path3400-9-3-2"
       inkscape:connector-curvature="0" />
    <path
       style="fill:none;stroke:#000000;stroke-width:1.07353377px;stroke-linecap:butt;stroke-linejoin:miter;stroke-opacity:1"
       d="m 506.11575,70.52794 c -5.23999,3.43166 -4.99025,3.17457 -4.99025,3.17457"
       id="path3402-8-0-3"
       inkscape:connector-curvature="0" />
    <path
       style="fill:none;stroke:#000000;stroke-width:0.64267957px;stroke-linecap:butt;stroke-linejoin:miter;stroke-opacity:1"
       d="m 373.58167,70.40757 c 32.43358,0 32.43358,0 32.43358,0"
       id="path3156-2-8-6-7"
       inkscape:connector-curvature="0" />
    <path
       style="fill:none;stroke:#000000;stroke-width:1.07353377px;stroke-linecap:butt;stroke-linejoin:miter;stroke-opacity:1"
       d="m 398.69453,67.42532 c 4.97647,2.97281 4.97647,2.97281 4.97647,2.97281"
       id="path3400-9-3-3"
       inkscape:connector-curvature="0" />
    <path
       style="fill:none;stroke:#000000;stroke-width:1.07353377px;stroke-linecap:butt;stroke-linejoin:miter;stroke-opacity:1"
       d="m 403.67155,70.15224 c -5.23999,3.43166 -4.99025,3.17457 -4.99025,3.17457"
       id="path3402-8-0-4"
       inkscape:connector-curvature="0" />
    <path
       sodipodi:type="arc"
       style="fill:#000000;fill-opacity:1;stroke:#000000;stroke-width:1.58500004;stroke-miterlimit:4;stroke-opacity:0;stroke-dasharray:none;stroke-dashoffset:0"
       id="path2985-5-0-7-5-1-6-4"
       sodipodi:cx="112.85714"
       sodipodi:cy="152.00504"
       sodipodi:rx="55.714287"
       sodipodi:ry="66.785713"
       d="m 168.57143,152.00504 a 55.714287,66.785713 0 1 1 -111.428577,0 55.714287,66.785713 0 1 1 111.428577,0 z"
       transform="matrix(0.05068406,0,0,0.0400958,536.29869,64.6383)" />
    <path
       style="fill:none;stroke:#000000;stroke-width:0.64267957px;stroke-linecap:butt;stroke-linejoin:miter;stroke-opacity:1"
       d="m 509.11911,70.86003 c 32.43358,0 32.43358,0 32.43358,0"
       id="path3156-2-8-6-9-2"
       inkscape:connector-curvature="0" />
    <path
       style="fill:none;stroke:#000000;stroke-width:1.07353377px;stroke-linecap:butt;stroke-linejoin:miter;stroke-opacity:1"
       d="m 534.23197,67.87778 c 4.97647,2.97281 4.97647,2.97281 4.97647,2.97281"
       id="path3400-9-3-2-1"
       inkscape:connector-curvature="0" />
    <path
       style="fill:none;stroke:#000000;stroke-width:1.07353377px;stroke-linecap:butt;stroke-linejoin:miter;stroke-opacity:1"
       d="m 539.20899,70.6047 c -5.23999,3.43166 -4.99025,3.17457 -4.99025,3.17457"
       id="path3402-8-0-3-5"
       inkscape:connector-curvature="0" />
    <path
       sodipodi:type="arc"
       style="fill:#000000;fill-opacity:1;stroke:#000000;stroke-width:1.58500004;stroke-miterlimit:4;stroke-opacity:0;stroke-dasharray:none;stroke-dashoffset:0"
       id="path2985-5-97-52"
       sodipodi:cx="112.85714"
       sodipodi:cy="152.00504"
       sodipodi:rx="55.714287"
       sodipodi:ry="66.785713"
       d="m 168.57143,152.00504 a 55.714287,66.785713 0 1 1 -111.428577,0 55.714287,66.785713 0 1 1 111.428577,0 z"
       transform="matrix(0.05068406,0,0,0.0400958,266.00527,92.05256)" />
    <path
       sodipodi:type="arc"
       style="fill:#000000;fill-opacity:1;stroke:#000000;stroke-width:1.58500004;stroke-miterlimit:4;stroke-opacity:0;stroke-dasharray:none;stroke-dashoffset:0"
       id="path2985-5-0-8-3"
       sodipodi:cx="112.85714"
       sodipodi:cy="152.00504"
       sodipodi:rx="55.714287"
       sodipodi:ry="66.785713"
       d="m 168.57143,152.00504 a 55.714287,66.785713 0 1 1 -111.428577,0 55.714287,66.785713 0 1 1 111.428577,0 z"
       transform="matrix(0.05068406,0,0,0.0400958,298.51128,92.05256)" />
    <path
       style="fill:none;stroke:#000000;stroke-width:0.64267951px;stroke-linecap:butt;stroke-linejoin:miter;stroke-opacity:1"
       d="m 271.33172,98.2743 c 32.43359,0 32.43359,0 32.43359,0"
       id="path3156-5-6"
       inkscape:connector-curvature="0" />
    <path
       sodipodi:type="arc"
       style="fill:#000000;fill-opacity:1;stroke:#000000;stroke-width:1.58500004;stroke-miterlimit:4;stroke-opacity:0;stroke-dasharray:none;stroke-dashoffset:0"
       id="path2985-5-9-6-4-8"
       sodipodi:cx="112.85714"
       sodipodi:cy="152.00504"
       sodipodi:rx="55.714287"
       sodipodi:ry="66.785713"
       d="m 168.57143,152.00504 a 55.714287,66.785713 0 1 1 -111.428577,0 55.714287,66.785713 0 1 1 111.428577,0 z"
       transform="matrix(0.05068406,0,0,0.0400958,335.53324,92.25175)" />
    <path
       sodipodi:type="arc"
       style="fill:#000000;fill-opacity:1;stroke:#000000;stroke-width:1.58500004;stroke-miterlimit:4;stroke-opacity:0;stroke-dasharray:none;stroke-dashoffset:0"
       id="path2985-5-0-7-5-1-20"
       sodipodi:cx="112.85714"
       sodipodi:cy="152.00504"
       sodipodi:rx="55.714287"
       sodipodi:ry="66.785713"
       d="m 168.57143,152.00504 a 55.714287,66.785713 0 1 1 -111.428577,0 55.714287,66.785713 0 1 1 111.428577,0 z"
       transform="matrix(0.05068406,0,0,0.0400958,368.03926,92.25175)" />
    <path
       style="fill:none;stroke:#000000;stroke-width:0.64267951px;stroke-linecap:butt;stroke-linejoin:miter;stroke-opacity:1"
       d="m 306.02222,98.44914 c 32.43359,0 32.43359,0 32.43359,0"
       id="path3156-5-9-9"
       inkscape:connector-curvature="0" />
    <path
       style="fill:none;stroke:#000000;stroke-width:1.07353377px;stroke-linecap:butt;stroke-linejoin:miter;stroke-opacity:1"
       d="m 296.36886,95.39228 c 4.97647,2.97281 4.97647,2.97281 4.97647,2.97281"
       id="path3400-9-89"
       inkscape:connector-curvature="0" />
    <path
       style="fill:none;stroke:#000000;stroke-width:1.07353377px;stroke-linecap:butt;stroke-linejoin:miter;stroke-opacity:1"
       d="m 301.34588,98.1192 c -5.23999,3.43166 -4.99025,3.17457 -4.99025,3.17457"
       id="path3402-8-8"
       inkscape:connector-curvature="0" />
    <path
       style="fill:none;stroke:#000000;stroke-width:1.07353377px;stroke-linecap:butt;stroke-linejoin:miter;stroke-opacity:1"
       d="m 333.39512,95.49123 c 4.97647,2.97281 4.97647,2.97281 4.97647,2.97281"
       id="path3400-9-0-4"
       inkscape:connector-curvature="0" />
    <path
       style="fill:none;stroke:#000000;stroke-width:1.07353377px;stroke-linecap:butt;stroke-linejoin:miter;stroke-opacity:1"
       d="m 338.37214,98.21815 c -5.23999,3.43166 -4.99025,3.17457 -4.99025,3.17457"
       id="path3402-8-3-4"
       inkscape:connector-curvature="0" />
    <path
       sodipodi:type="arc"
       style="fill:#000000;fill-opacity:1;stroke:#000000;stroke-width:1.58500004;stroke-miterlimit:4;stroke-opacity:0;stroke-dasharray:none;stroke-dashoffset:0"
       id="path2985-5-97-5-4"
       sodipodi:cx="112.85714"
       sodipodi:cy="152.00504"
       sodipodi:rx="55.714287"
       sodipodi:ry="66.785713"
       d="m 168.57143,152.00504 a 55.714287,66.785713 0 1 1 -111.428577,0 55.714287,66.785713 0 1 1 111.428577,0 z"
       transform="matrix(0.05068406,0,0,0.0400958,401.11493,92.48089)" />
    <path
       sodipodi:type="arc"
       style="fill:#000000;fill-opacity:1;stroke:#000000;stroke-width:1.58500004;stroke-miterlimit:4;stroke-opacity:0;stroke-dasharray:none;stroke-dashoffset:0"
       id="path2985-5-0-8-7-9"
       sodipodi:cx="112.85714"
       sodipodi:cy="152.00504"
       sodipodi:rx="55.714287"
       sodipodi:ry="66.785713"
       d="m 168.57143,152.00504 a 55.714287,66.785713 0 1 1 -111.428577,0 55.714287,66.785713 0 1 1 111.428577,0 z"
       transform="matrix(0.05068406,0,0,0.0400958,433.62094,92.48089)" />
    <path
       style="fill:none;stroke:#000000;stroke-width:0.64267951px;stroke-linecap:butt;stroke-linejoin:miter;stroke-opacity:1"
       d="m 406.44138,98.70263 c 32.43359,0 32.43359,0 32.43359,0"
       id="path3156-5-54-2"
       inkscape:connector-curvature="0" />
    <path
       sodipodi:type="arc"
       style="fill:#000000;fill-opacity:1;stroke:#000000;stroke-width:1.58500004;stroke-miterlimit:4;stroke-opacity:0;stroke-dasharray:none;stroke-dashoffset:0"
       id="path2985-5-9-6-4-9-0"
       sodipodi:cx="112.85714"
       sodipodi:cy="152.00504"
       sodipodi:rx="55.714287"
       sodipodi:ry="66.785713"
       d="m 168.57143,152.00504 a 55.714287,66.785713 0 1 1 -111.428577,0 55.714287,66.785713 0 1 1 111.428577,0 z"
       transform="matrix(0.05068406,0,0,0.0400958,470.6429,92.68008)" />
    <path
       sodipodi:type="arc"
       style="fill:#000000;fill-opacity:1;stroke:#000000;stroke-width:1.58500004;stroke-miterlimit:4;stroke-opacity:0;stroke-dasharray:none;stroke-dashoffset:0"
       id="path2985-5-0-7-5-1-6-1"
       sodipodi:cx="112.85714"
       sodipodi:cy="152.00504"
       sodipodi:rx="55.714287"
       sodipodi:ry="66.785713"
       d="m 168.57143,152.00504 a 55.714287,66.785713 0 1 1 -111.428577,0 55.714287,66.785713 0 1 1 111.428577,0 z"
       transform="matrix(0.05068406,0,0,0.0400958,503.14892,92.68008)" />
    <path
       style="fill:none;stroke:#000000;stroke-width:0.64267951px;stroke-linecap:butt;stroke-linejoin:miter;stroke-opacity:1"
       d="m 441.13188,98.87747 c 32.43359,0 32.43359,0 32.43359,0"
       id="path3156-5-9-4-1"
       inkscape:connector-curvature="0" />
    <path
       style="fill:none;stroke:#000000;stroke-width:1.07353377px;stroke-linecap:butt;stroke-linejoin:miter;stroke-opacity:1"
       d="m 431.47852,95.82061 c 4.97647,2.97281 4.97647,2.97281 4.97647,2.97281"
       id="path3400-9-99-9"
       inkscape:connector-curvature="0" />
    <path
       style="fill:none;stroke:#000000;stroke-width:1.07353377px;stroke-linecap:butt;stroke-linejoin:miter;stroke-opacity:1"
       d="m 436.45554,98.54753 c -5.23999,3.43166 -4.99025,3.17457 -4.99025,3.17457"
       id="path3402-8-95-4"
       inkscape:connector-curvature="0" />
    <path
       style="fill:none;stroke:#000000;stroke-width:1.07353377px;stroke-linecap:butt;stroke-linejoin:miter;stroke-opacity:1"
       d="m 468.50478,95.91956 c 4.97647,2.97281 4.97647,2.97281 4.97647,2.97281"
       id="path3400-9-0-7-5"
       inkscape:connector-curvature="0" />
    <path
       style="fill:none;stroke:#000000;stroke-width:1.07353377px;stroke-linecap:butt;stroke-linejoin:miter;stroke-opacity:1"
       d="m 473.4818,98.64648 c -5.23999,3.43166 -4.99025,3.17457 -4.99025,3.17457"
       id="path3402-8-3-6-3"
       inkscape:connector-curvature="0" />
    <path
       sodipodi:type="arc"
       style="fill:#000000;fill-opacity:1;stroke:#000000;stroke-width:1.58500004;stroke-miterlimit:4;stroke-opacity:0;stroke-dasharray:none;stroke-dashoffset:0"
       id="path2985-5-0-7-5-1-6-4-3"
       sodipodi:cx="112.85714"
       sodipodi:cy="152.00504"
       sodipodi:rx="55.714287"
       sodipodi:ry="66.785713"
       d="m 168.57143,152.00504 a 55.714287,66.785713 0 1 1 -111.428577,0 55.714287,66.785713 0 1 1 111.428577,0 z"
       transform="matrix(0.05068406,0,0,0.0400958,536.24216,92.75684)" />
    <path
       style="fill:none;stroke:#000000;stroke-width:0.64300001;stroke-linecap:butt;stroke-linejoin:miter;stroke-miterlimit:4;stroke-opacity:1;stroke-dasharray:none"
       d="m 271.68537,68.8847 c 0,29.28572 0,29.28572 0,29.28572"
       id="path3568-2"
       inkscape:connector-curvature="0" />
    <path
       style="fill:none;stroke:#000000;stroke-width:1.07353377px;stroke-linecap:butt;stroke-linejoin:miter;stroke-opacity:1"
       d="m 274.43535,90.32163 c -2.85644,5.04418 -2.85644,5.04418 -2.85644,5.04418"
       id="path3400-9-7-35-18-6"
       inkscape:connector-curvature="0" />
    <path
       style="fill:none;stroke:#000000;stroke-width:1.07353377px;stroke-linecap:butt;stroke-linejoin:miter;stroke-opacity:1"
       d="m 271.82474,95.36065 c -3.55242,-5.15889 -3.28961,-4.91518 -3.28961,-4.91518"
       id="path3402-8-5-11-4-5"
       inkscape:connector-curvature="0" />
    <path
       style="fill:none;stroke:#000000;stroke-width:0.64300001;stroke-linecap:butt;stroke-linejoin:miter;stroke-miterlimit:4;stroke-opacity:1;stroke-dasharray:none"
       d="m 341.06682,99.61611 c -0.0664,-29.28564 -0.0664,-29.28564 -0.0664,-29.28564"
       id="path3568-2-3"
       inkscape:connector-curvature="0" />
    <path
       style="fill:none;stroke:#000000;stroke-width:1.07353377px;stroke-linecap:butt;stroke-linejoin:miter;stroke-opacity:1"
       d="m 338.26821,78.18548 c 2.84499,-5.05065 2.84499,-5.05065 2.84499,-5.05065"
       id="path3400-9-7-35-18-6-4"
       inkscape:connector-curvature="0" />
    <path
       style="fill:none;stroke:#000000;stroke-width:1.07353377px;stroke-linecap:butt;stroke-linejoin:miter;stroke-opacity:1"
       d="m 340.86738,73.14055 c 3.56411,5.15081 3.30075,4.9077 3.30075,4.9077"
       id="path3402-8-5-11-4-5-1"
       inkscape:connector-curvature="0" />
    <path
       style="fill:none;stroke:#000000;stroke-width:0.64300001;stroke-linecap:butt;stroke-linejoin:miter;stroke-miterlimit:4;stroke-opacity:1;stroke-dasharray:none"
       d="m 406.84558,69.06729 c 0,29.28572 0,29.28572 0,29.28572"
       id="path3568-2-9"
       inkscape:connector-curvature="0" />
    <path
       style="fill:none;stroke:#000000;stroke-width:1.07353377px;stroke-linecap:butt;stroke-linejoin:miter;stroke-opacity:1"
       d="m 409.59557,90.50422 c -2.85644,5.04418 -2.85644,5.04418 -2.85644,5.04418"
       id="path3400-9-7-35-18-6-8"
       inkscape:connector-curvature="0" />
    <path
       style="fill:none;stroke:#000000;stroke-width:1.07353377px;stroke-linecap:butt;stroke-linejoin:miter;stroke-opacity:1"
       d="m 406.98496,95.54324 c -3.55242,-5.15889 -3.28961,-4.91518 -3.28961,-4.91518"
       id="path3402-8-5-11-4-5-2"
       inkscape:connector-curvature="0" />
    <path
       style="fill:none;stroke:#000000;stroke-width:0.64300001;stroke-linecap:butt;stroke-linejoin:miter;stroke-miterlimit:4;stroke-opacity:1;stroke-dasharray:none"
       d="m 476.44281,99.61566 c -0.0664,-29.28564 -0.0664,-29.28564 -0.0664,-29.28564"
       id="path3568-2-3-3"
       inkscape:connector-curvature="0" />
    <path
       style="fill:none;stroke:#000000;stroke-width:1.07353377px;stroke-linecap:butt;stroke-linejoin:miter;stroke-opacity:1"
       d="m 473.6442,78.18503 c 2.84499,-5.05065 2.84499,-5.05065 2.84499,-5.05065"
       id="path3400-9-7-35-18-6-4-7"
       inkscape:connector-curvature="0" />
    <path
       style="fill:none;stroke:#000000;stroke-width:1.07353377px;stroke-linecap:butt;stroke-linejoin:miter;stroke-opacity:1"
       d="m 476.24337,73.1401 c 3.56411,5.15081 3.30075,4.9077 3.30075,4.9077"
       id="path3402-8-5-11-4-5-1-7"
       inkscape:connector-curvature="0" />
    <path
       sodipodi:type="arc"
       style="fill:#000000;fill-opacity:1;stroke:#000000;stroke-width:1.58500004;stroke-miterlimit:4;stroke-opacity:0;stroke-dasharray:none;stroke-dashoffset:0"
       id="path2985-5-97-58"
       sodipodi:cx="112.85714"
       sodipodi:cy="152.00504"
       sodipodi:rx="55.714287"
       sodipodi:ry="66.785713"
       d="m 168.57143,152.00504 a 55.714287,66.785713 0 1 1 -111.428577,0 55.714287,66.785713 0 1 1 111.428577,0 z"
       transform="matrix(0.05068406,0,0,0.0400958,56.792231,64.36235)" />
    <path
       sodipodi:type="arc"
       style="fill:#000000;fill-opacity:1;stroke:#000000;stroke-width:1.58500004;stroke-miterlimit:4;stroke-opacity:0;stroke-dasharray:none;stroke-dashoffset:0"
       id="path2985-5-0-8-8"
       sodipodi:cx="112.85714"
       sodipodi:cy="152.00504"
       sodipodi:rx="55.714287"
       sodipodi:ry="66.785713"
       d="m 168.57143,152.00504 a 55.714287,66.785713 0 1 1 -111.428577,0 55.714287,66.785713 0 1 1 111.428577,0 z"
       transform="matrix(0.05068406,0,0,0.0400958,89.098011,64.36235)" />
    <path
       sodipodi:type="arc"
       style="fill:#000000;fill-opacity:1;stroke:#000000;stroke-width:1.58500004;stroke-miterlimit:4;stroke-opacity:0;stroke-dasharray:none;stroke-dashoffset:0"
       id="path2985-5-9-6-4-6"
       sodipodi:cx="112.85714"
       sodipodi:cy="152.00504"
       sodipodi:rx="55.714287"
       sodipodi:ry="66.785713"
       d="m 168.57143,152.00504 a 55.714287,66.785713 0 1 1 -111.428577,0 55.714287,66.785713 0 1 1 111.428577,0 z"
       transform="matrix(0.05068406,0,0,0.0400958,126.11998,64.56154)" />
    <path
       sodipodi:type="arc"
       style="fill:#000000;fill-opacity:1;stroke:#000000;stroke-width:1.58500004;stroke-miterlimit:4;stroke-opacity:0;stroke-dasharray:none;stroke-dashoffset:0"
       id="path2985-5-0-7-5-1-7"
       sodipodi:cx="112.85714"
       sodipodi:cy="152.00504"
       sodipodi:rx="55.714287"
       sodipodi:ry="66.785713"
       d="m 168.57143,152.00504 a 55.714287,66.785713 0 1 1 -111.428577,0 55.714287,66.785713 0 1 1 111.428577,0 z"
       transform="matrix(0.05068406,0,0,0.0400958,158.626,64.56154)" />
    <path
       style="fill:none;stroke:#000000;stroke-width:0.64267957px;stroke-linecap:butt;stroke-linejoin:miter;stroke-opacity:1"
       d="m 131.44642,70.78327 c 32.43358,0 32.43358,0 32.43358,0"
       id="path3156-2-8-6-4"
       inkscape:connector-curvature="0" />
    <path
       style="fill:none;stroke:#000000;stroke-width:1.07353377px;stroke-linecap:butt;stroke-linejoin:miter;stroke-opacity:1"
       d="m 156.55928,67.80102 c 4.97647,2.97281 4.97647,2.97281 4.97647,2.97281"
       id="path3400-9-3-32"
       inkscape:connector-curvature="0" />
    <path
       style="fill:none;stroke:#000000;stroke-width:1.07353377px;stroke-linecap:butt;stroke-linejoin:miter;stroke-opacity:1"
       d="m 161.5363,70.52794 c -5.23999,3.43166 -4.99025,3.17457 -4.99025,3.17457"
       id="path3402-8-0-31"
       inkscape:connector-curvature="0" />
    <path
       sodipodi:type="arc"
       style="fill:#000000;fill-opacity:1;stroke:#000000;stroke-width:1.58500004;stroke-miterlimit:4;stroke-opacity:0;stroke-dasharray:none;stroke-dashoffset:0"
       id="path2985-5-97-5-49"
       sodipodi:cx="112.85714"
       sodipodi:cy="152.00504"
       sodipodi:rx="55.714287"
       sodipodi:ry="66.785713"
       d="m 168.57143,152.00504 a 55.714287,66.785713 0 1 1 -111.428577,0 55.714287,66.785713 0 1 1 111.428577,0 z"
       transform="matrix(0.05068406,0,0,0.0400958,191.70167,64.79068)" />
    <path
       style="fill:none;stroke:#000000;stroke-width:0.64267957px;stroke-linecap:butt;stroke-linejoin:miter;stroke-opacity:1"
       d="m 164.11188,70.8359 c 32.43358,0 32.43358,0 32.43358,0"
       id="path3156-2-8-6-7-4"
       inkscape:connector-curvature="0" />
    <path
       style="fill:none;stroke:#000000;stroke-width:1.07353377px;stroke-linecap:butt;stroke-linejoin:miter;stroke-opacity:1"
       d="m 189.22474,67.85365 c 4.97647,2.97281 4.97647,2.97281 4.97647,2.97281"
       id="path3400-9-3-3-4"
       inkscape:connector-curvature="0" />
    <path
       style="fill:none;stroke:#000000;stroke-width:1.07353377px;stroke-linecap:butt;stroke-linejoin:miter;stroke-opacity:1"
       d="m 194.20176,70.58057 c -5.23999,3.43166 -4.99025,3.17457 -4.99025,3.17457"
       id="path3402-8-0-4-7"
       inkscape:connector-curvature="0" />
    <path
       sodipodi:type="arc"
       style="fill:#000000;fill-opacity:1;stroke:#000000;stroke-width:1.58500004;stroke-miterlimit:4;stroke-opacity:0;stroke-dasharray:none;stroke-dashoffset:0"
       id="path2985-5-97-52-8"
       sodipodi:cx="112.85714"
       sodipodi:cy="152.00504"
       sodipodi:rx="55.714287"
       sodipodi:ry="66.785713"
       d="m 168.57143,152.00504 a 55.714287,66.785713 0 1 1 -111.428577,0 55.714287,66.785713 0 1 1 111.428577,0 z"
       transform="matrix(0.05068406,0,0,0.0400958,56.535471,92.48089)" />
    <path
       sodipodi:type="arc"
       style="fill:#000000;fill-opacity:1;stroke:#000000;stroke-width:1.58500004;stroke-miterlimit:4;stroke-opacity:0;stroke-dasharray:none;stroke-dashoffset:0"
       id="path2985-5-0-8-3-0"
       sodipodi:cx="112.85714"
       sodipodi:cy="152.00504"
       sodipodi:rx="55.714287"
       sodipodi:ry="66.785713"
       d="m 168.57143,152.00504 a 55.714287,66.785713 0 1 1 -111.428577,0 55.714287,66.785713 0 1 1 111.428577,0 z"
       transform="matrix(0.05068406,0,0,0.0400958,89.041481,92.48089)" />
    <path
       style="fill:none;stroke:#000000;stroke-width:0.64267951px;stroke-linecap:butt;stroke-linejoin:miter;stroke-opacity:1"
       d="m 61.861921,98.70263 c 32.4336,0 32.4336,0 32.4336,0"
       id="path3156-5-6-5"
       inkscape:connector-curvature="0" />
    <path
       sodipodi:type="arc"
       style="fill:#000000;fill-opacity:1;stroke:#000000;stroke-width:1.58500004;stroke-miterlimit:4;stroke-opacity:0;stroke-dasharray:none;stroke-dashoffset:0"
       id="path2985-5-9-6-4-8-7"
       sodipodi:cx="112.85714"
       sodipodi:cy="152.00504"
       sodipodi:rx="55.714287"
       sodipodi:ry="66.785713"
       d="m 168.57143,152.00504 a 55.714287,66.785713 0 1 1 -111.428577,0 55.714287,66.785713 0 1 1 111.428577,0 z"
       transform="matrix(0.05068406,0,0,0.0400958,126.06345,92.68008)" />
    <path
       sodipodi:type="arc"
       style="fill:#000000;fill-opacity:1;stroke:#000000;stroke-width:1.58500004;stroke-miterlimit:4;stroke-opacity:0;stroke-dasharray:none;stroke-dashoffset:0"
       id="path2985-5-0-7-5-1-20-6"
       sodipodi:cx="112.85714"
       sodipodi:cy="152.00504"
       sodipodi:rx="55.714287"
       sodipodi:ry="66.785713"
       d="m 168.57143,152.00504 a 55.714287,66.785713 0 1 1 -111.428577,0 55.714287,66.785713 0 1 1 111.428577,0 z"
       transform="matrix(0.05068406,0,0,0.0400958,158.56947,92.68008)" />
    <path
       style="fill:none;stroke:#000000;stroke-width:0.64267951px;stroke-linecap:butt;stroke-linejoin:miter;stroke-opacity:1"
       d="m 96.552431,98.87747 c 32.433589,0 32.433589,0 32.433589,0"
       id="path3156-5-9-9-4"
       inkscape:connector-curvature="0" />
    <path
       style="fill:none;stroke:#000000;stroke-width:1.07353377px;stroke-linecap:butt;stroke-linejoin:miter;stroke-opacity:1"
       d="m 86.899061,95.82061 c 4.97648,2.97281 4.97648,2.97281 4.97648,2.97281"
       id="path3400-9-89-5"
       inkscape:connector-curvature="0" />
    <path
       style="fill:none;stroke:#000000;stroke-width:1.07353377px;stroke-linecap:butt;stroke-linejoin:miter;stroke-opacity:1"
       d="m 91.876091,98.54753 c -5.24,3.43166 -4.99026,3.17457 -4.99026,3.17457"
       id="path3402-8-8-4"
       inkscape:connector-curvature="0" />
    <path
       style="fill:none;stroke:#000000;stroke-width:1.07353377px;stroke-linecap:butt;stroke-linejoin:miter;stroke-opacity:1"
       d="m 123.92533,95.91956 c 4.97647,2.97281 4.97647,2.97281 4.97647,2.97281"
       id="path3400-9-0-4-3"
       inkscape:connector-curvature="0" />
    <path
       style="fill:none;stroke:#000000;stroke-width:1.07353377px;stroke-linecap:butt;stroke-linejoin:miter;stroke-opacity:1"
       d="m 128.90235,98.64648 c -5.23999,3.43166 -4.99025,3.17457 -4.99025,3.17457"
       id="path3402-8-3-4-0"
       inkscape:connector-curvature="0" />
    <path
       sodipodi:type="arc"
       style="fill:#000000;fill-opacity:1;stroke:#000000;stroke-width:1.58500004;stroke-miterlimit:4;stroke-opacity:0;stroke-dasharray:none;stroke-dashoffset:0"
       id="path2985-5-97-5-4-8"
       sodipodi:cx="112.85714"
       sodipodi:cy="152.00504"
       sodipodi:rx="55.714287"
       sodipodi:ry="66.785713"
       d="m 168.57143,152.00504 a 55.714287,66.785713 0 1 1 -111.428577,0 55.714287,66.785713 0 1 1 111.428577,0 z"
       transform="matrix(0.05068406,0,0,0.0400958,191.64514,92.90922)" />
    <path
       style="fill:none;stroke:#000000;stroke-width:0.64300001;stroke-linecap:butt;stroke-linejoin:miter;stroke-miterlimit:4;stroke-opacity:1;stroke-dasharray:none"
       d="m 62.215571,69.31303 c 0,29.28572 0,29.28572 0,29.28572"
       id="path3568-2-0"
       inkscape:connector-curvature="0" />
    <path
       style="fill:none;stroke:#000000;stroke-width:1.07353377px;stroke-linecap:butt;stroke-linejoin:miter;stroke-opacity:1"
       d="m 64.965561,90.74996 c -2.85644,5.04418 -2.85644,5.04418 -2.85644,5.04418"
       id="path3400-9-7-35-18-6-0"
       inkscape:connector-curvature="0" />
    <path
       style="fill:none;stroke:#000000;stroke-width:1.07353377px;stroke-linecap:butt;stroke-linejoin:miter;stroke-opacity:1"
       d="m 62.354951,95.78898 c -3.55242,-5.15889 -3.28961,-4.91518 -3.28961,-4.91518"
       id="path3402-8-5-11-4-5-6"
       inkscape:connector-curvature="0" />
    <path
       style="fill:none;stroke:#000000;stroke-width:0.64300001;stroke-linecap:butt;stroke-linejoin:miter;stroke-miterlimit:4;stroke-opacity:1;stroke-dasharray:none"
       d="M 131.59703,100.04444 C 131.53063,70.7588 131.53063,70.7588 131.53063,70.7588"
       id="path3568-2-3-6"
       inkscape:connector-curvature="0" />
    <path
       style="fill:none;stroke:#000000;stroke-width:1.07353377px;stroke-linecap:butt;stroke-linejoin:miter;stroke-opacity:1"
       d="m 128.79842,78.61381 c 2.84499,-5.05065 2.84499,-5.05065 2.84499,-5.05065"
       id="path3400-9-7-35-18-6-4-6"
       inkscape:connector-curvature="0" />
    <path
       style="fill:none;stroke:#000000;stroke-width:1.07353377px;stroke-linecap:butt;stroke-linejoin:miter;stroke-opacity:1"
       d="m 131.39759,73.56888 c 3.56411,5.15081 3.30075,4.9077 3.30075,4.9077"
       id="path3402-8-5-11-4-5-1-6"
       inkscape:connector-curvature="0" />
    <text
       xml:space="preserve"
       style="font-size:10px;font-style:normal;font-weight:normal;line-height:125%;letter-spacing:0px;word-spacing:0px;fill:#000000;fill-opacity:1;stroke:none;font-family:Sans"
       x="127.7843"
       y="131.04382"
       id="text3660"
       sodipodi:linespacing="125%"><tspan
         sodipodi:role="line"
         id="tspan3662"
         x="127.7843"
         y="131.04382">(a)</tspan></text>
    <text
       xml:space="preserve"
       style="font-size:10px;font-style:normal;font-weight:normal;line-height:125%;letter-spacing:0px;word-spacing:0px;fill:#000000;fill-opacity:1;stroke:none;font-family:Sans"
       x="417.75485"
       y="131.04382"
       id="text3664"
       sodipodi:linespacing="125%"><tspan
         sodipodi:role="line"
         id="tspan3666"
         x="417.75485"
         y="131.04382">(b)</tspan></text>
  </g>
</svg>
