<?xml version="1.0" encoding="UTF-8" standalone="no"?>
<!-- Created with Inkscape (http://www.inkscape.org/) -->

<svg
   xmlns:dc="http://purl.org/dc/elements/1.1/"
   xmlns:cc="http://creativecommons.org/ns#"
   xmlns:rdf="http://www.w3.org/1999/02/22-rdf-syntax-ns#"
   xmlns:svg="http://www.w3.org/2000/svg"
   xmlns="http://www.w3.org/2000/svg"
   xmlns:sodipodi="http://sodipodi.sourceforge.net/DTD/sodipodi-0.dtd"
   xmlns:inkscape="http://www.inkscape.org/namespaces/inkscape"
   width="744.09448819"
   height="1052.3622047"
   id="svg5022"
   version="1.1"
   inkscape:version="0.48.4 r9939"
   sodipodi:docname="aproximados_3.svg">
  <defs
     id="defs5024" />
  <sodipodi:namedview
     id="base"
     pagecolor="#ffffff"
     bordercolor="#666666"
     borderopacity="1.0"
     inkscape:pageopacity="0.0"
     inkscape:pageshadow="2"
     inkscape:zoom="3.959798"
     inkscape:cx="186.17405"
     inkscape:cy="827.64222"
     inkscape:document-units="px"
     inkscape:current-layer="layer1"
     showgrid="false"
     inkscape:window-width="1851"
     inkscape:window-height="1053"
     inkscape:window-x="69"
     inkscape:window-y="27"
     inkscape:window-maximized="1" />
  <metadata
     id="metadata5027">
    <rdf:RDF>
      <cc:Work
         rdf:about="">
        <dc:format>image/svg+xml</dc:format>
        <dc:type
           rdf:resource="http://purl.org/dc/dcmitype/StillImage" />
        <dc:title></dc:title>
      </cc:Work>
    </rdf:RDF>
  </metadata>
  <g
     inkscape:label="Layer 1"
     inkscape:groupmode="layer"
     id="layer1">
    <path
       sodipodi:type="arc"
       style="fill:#000000;fill-opacity:1;stroke:#000000;stroke-width:1.58500004;stroke-miterlimit:4;stroke-opacity:0;stroke-dasharray:none;stroke-dashoffset:0"
       id="path2985-5-97"
       sodipodi:cx="112.85714"
       sodipodi:cy="152.00504"
       sodipodi:rx="55.714287"
       sodipodi:ry="66.785713"
       d="m 168.57143,152.00504 a 55.714287,66.785713 0 1 1 -111.428577,0 55.714287,66.785713 0 1 1 111.428577,0 z"
       transform="matrix(0.05068406,0,0,0.0400958,59.933798,163.09726)" />
    <path
       sodipodi:type="arc"
       style="fill:#000000;fill-opacity:1;stroke:#000000;stroke-width:1.58500004;stroke-miterlimit:4;stroke-opacity:0;stroke-dasharray:none;stroke-dashoffset:0"
       id="path2985-5-0-8"
       sodipodi:cx="112.85714"
       sodipodi:cy="152.00504"
       sodipodi:rx="55.714287"
       sodipodi:ry="66.785713"
       d="m 168.57143,152.00504 a 55.714287,66.785713 0 1 1 -111.428577,0 55.714287,66.785713 0 1 1 111.428577,0 z"
       transform="matrix(0.05068406,0,0,0.0400958,92.439808,163.09726)" />
    <path
       style="fill:none;stroke:#000000;stroke-width:0.64267951px;stroke-linecap:butt;stroke-linejoin:miter;stroke-opacity:1"
       d="m 65.260248,169.319 c 32.43359,0 32.43359,0 32.43359,0"
       id="path3156-5"
       inkscape:connector-curvature="0" />
    <path
       sodipodi:type="arc"
       style="fill:#000000;fill-opacity:1;stroke:#000000;stroke-width:1.58500004;stroke-miterlimit:4;stroke-opacity:0;stroke-dasharray:none;stroke-dashoffset:0"
       id="path2985-5-2-6"
       sodipodi:cx="112.85714"
       sodipodi:cy="152.00504"
       sodipodi:rx="55.714287"
       sodipodi:ry="66.785713"
       d="m 168.57143,152.00504 a 55.714287,66.785713 0 1 1 -111.428577,0 55.714287,66.785713 0 1 1 111.428577,0 z"
       transform="matrix(0.05035362,0,0,0.04014758,129.48065,191.93316)" />
    <path
       sodipodi:type="arc"
       style="fill:#000000;fill-opacity:1;stroke:#000000;stroke-width:1.58500004;stroke-miterlimit:4;stroke-opacity:0;stroke-dasharray:none;stroke-dashoffset:0"
       id="path2985-5-0-0-0"
       sodipodi:cx="112.85714"
       sodipodi:cy="152.00504"
       sodipodi:rx="55.714287"
       sodipodi:ry="66.785713"
       d="m 168.57143,152.00504 a 55.714287,66.785713 0 1 1 -111.428577,0 55.714287,66.785713 0 1 1 111.428577,0 z"
       transform="matrix(0.05035362,0,0,0.04014758,161.77471,191.93316)" />
    <path
       style="fill:none;stroke:#000000;stroke-width:0.64099455px;stroke-linecap:butt;stroke-linejoin:miter;stroke-opacity:1"
       d="m 134.77234,198.06269 c 32.22215,0 32.22215,0 32.22215,0"
       id="path3156-6-0"
       inkscape:connector-curvature="0" />
    <path
       sodipodi:type="arc"
       style="fill:#000000;fill-opacity:1;stroke:#000000;stroke-width:1.58500004;stroke-miterlimit:4;stroke-opacity:0;stroke-dasharray:none;stroke-dashoffset:0"
       id="path2985-5-21-1"
       sodipodi:cx="112.85714"
       sodipodi:cy="152.00504"
       sodipodi:rx="55.714287"
       sodipodi:ry="66.785713"
       d="m 168.57143,152.00504 a 55.714287,66.785713 0 1 1 -111.428577,0 55.714287,66.785713 0 1 1 111.428577,0 z"
       transform="matrix(0.05068406,0,0,0.0400958,59.933798,191.57352)" />
    <path
       sodipodi:type="arc"
       style="fill:#000000;fill-opacity:1;stroke:#000000;stroke-width:1.58500004;stroke-miterlimit:4;stroke-opacity:0;stroke-dasharray:none;stroke-dashoffset:0"
       id="path2985-5-0-6-7"
       sodipodi:cx="112.85714"
       sodipodi:cy="152.00504"
       sodipodi:rx="55.714287"
       sodipodi:ry="66.785713"
       d="m 168.57143,152.00504 a 55.714287,66.785713 0 1 1 -111.428577,0 55.714287,66.785713 0 1 1 111.428577,0 z"
       transform="matrix(0.05068406,0,0,0.0400958,92.439808,191.57352)" />
    <path
       style="fill:none;stroke:#000000;stroke-width:0.64267951px;stroke-linecap:butt;stroke-linejoin:miter;stroke-opacity:1"
       d="m 65.260248,197.79527 c 32.43359,0 32.43359,0 32.43359,0"
       id="path3156-0-0"
       inkscape:connector-curvature="0" />
    <path
       sodipodi:type="arc"
       style="fill:#000000;fill-opacity:1;stroke:#000000;stroke-width:1.58500004;stroke-miterlimit:4;stroke-opacity:0;stroke-dasharray:none;stroke-dashoffset:0"
       id="path2985-5-9-6-4"
       sodipodi:cx="112.85714"
       sodipodi:cy="152.00504"
       sodipodi:rx="55.714287"
       sodipodi:ry="66.785713"
       d="m 168.57143,152.00504 a 55.714287,66.785713 0 1 1 -111.428577,0 55.714287,66.785713 0 1 1 111.428577,0 z"
       transform="matrix(0.05068406,0,0,0.0400958,129.46177,163.29645)" />
    <path
       sodipodi:type="arc"
       style="fill:#000000;fill-opacity:1;stroke:#000000;stroke-width:1.58500004;stroke-miterlimit:4;stroke-opacity:0;stroke-dasharray:none;stroke-dashoffset:0"
       id="path2985-5-0-7-5-1"
       sodipodi:cx="112.85714"
       sodipodi:cy="152.00504"
       sodipodi:rx="55.714287"
       sodipodi:ry="66.785713"
       d="m 168.57143,152.00504 a 55.714287,66.785713 0 1 1 -111.428577,0 55.714287,66.785713 0 1 1 111.428577,0 z"
       transform="matrix(0.05068406,0,0,0.0400958,161.96779,163.29645)" />
    <path
       style="fill:none;stroke:#000000;stroke-width:0.64267957px;stroke-linecap:butt;stroke-linejoin:miter;stroke-opacity:1"
       d="m 134.78821,169.51818 c 32.43358,0 32.43358,0 32.43358,0"
       id="path3156-2-8-6"
       inkscape:connector-curvature="0" />
    <path
       sodipodi:type="arc"
       style="fill:#000000;fill-opacity:1;stroke:#000000;stroke-width:1.58500004;stroke-miterlimit:4;stroke-opacity:0;stroke-dasharray:none;stroke-dashoffset:0"
       id="path2985-5-0-0-7-8"
       sodipodi:cx="112.85714"
       sodipodi:cy="152.00504"
       sodipodi:rx="55.714287"
       sodipodi:ry="66.785713"
       d="m 168.57143,152.00504 a 55.714287,66.785713 0 1 1 -111.428577,0 55.714287,66.785713 0 1 1 111.428577,0 z"
       transform="matrix(0.05035362,0,0,0.04014758,229.65702,192.1035)" />
    <path
       sodipodi:type="arc"
       style="fill:#000000;fill-opacity:1;stroke:#000000;stroke-width:1.58500004;stroke-miterlimit:4;stroke-opacity:0;stroke-dasharray:none;stroke-dashoffset:0"
       id="path2985-5-0-7-5-7-4"
       sodipodi:cx="112.85714"
       sodipodi:cy="152.00504"
       sodipodi:rx="55.714287"
       sodipodi:ry="66.785713"
       d="m 168.57143,152.00504 a 55.714287,66.785713 0 1 1 -111.428577,0 55.714287,66.785713 0 1 1 111.428577,0 z"
       transform="matrix(0.05068406,0,0,0.0400958,229.85011,163.46679)" />
    <path
       sodipodi:type="arc"
       style="fill:#000000;fill-opacity:1;stroke:#000000;stroke-width:1.58500004;stroke-miterlimit:4;stroke-opacity:0;stroke-dasharray:none;stroke-dashoffset:0"
       id="path2985-5-2-7-5"
       sodipodi:cx="112.85714"
       sodipodi:cy="152.00504"
       sodipodi:rx="55.714287"
       sodipodi:ry="66.785713"
       d="m 168.57143,152.00504 a 55.714287,66.785713 0 1 1 -111.428577,0 55.714287,66.785713 0 1 1 111.428577,0 z"
       transform="matrix(0.05035362,0,0,0.04014758,265.50024,192.1035)" />
    <path
       sodipodi:type="arc"
       style="fill:#000000;fill-opacity:1;stroke:#000000;stroke-width:1.58500004;stroke-miterlimit:4;stroke-opacity:0;stroke-dasharray:none;stroke-dashoffset:0"
       id="path2985-5-0-0-1-5"
       sodipodi:cx="112.85714"
       sodipodi:cy="152.00504"
       sodipodi:rx="55.714287"
       sodipodi:ry="66.785713"
       d="m 168.57143,152.00504 a 55.714287,66.785713 0 1 1 -111.428577,0 55.714287,66.785713 0 1 1 111.428577,0 z"
       transform="matrix(0.05035362,0,0,0.04014758,297.79428,192.1035)" />
    <path
       style="fill:none;stroke:#000000;stroke-width:0.64099455px;stroke-linecap:butt;stroke-linejoin:miter;stroke-opacity:1"
       d="m 270.79193,198.33326 c 32.22213,0 32.22213,0 32.22213,0"
       id="path3156-6-3-7"
       inkscape:connector-curvature="0" />
    <path
       sodipodi:type="arc"
       style="fill:#000000;fill-opacity:1;stroke:#000000;stroke-width:1.58500004;stroke-miterlimit:4;stroke-opacity:0;stroke-dasharray:none;stroke-dashoffset:0"
       id="path2985-5-9-6-8-2"
       sodipodi:cx="112.85714"
       sodipodi:cy="152.00504"
       sodipodi:rx="55.714287"
       sodipodi:ry="66.785713"
       d="m 168.57143,152.00504 a 55.714287,66.785713 0 1 1 -111.428577,0 55.714287,66.785713 0 1 1 111.428577,0 z"
       transform="matrix(0.05068406,0,0,0.0400958,265.48136,163.46679)" />
    <path
       sodipodi:type="arc"
       style="fill:#000000;fill-opacity:1;stroke:#000000;stroke-width:1.58500004;stroke-miterlimit:4;stroke-opacity:0;stroke-dasharray:none;stroke-dashoffset:0"
       id="path2985-5-0-7-5-5-4"
       sodipodi:cx="112.85714"
       sodipodi:cy="152.00504"
       sodipodi:rx="55.714287"
       sodipodi:ry="66.785713"
       d="m 168.57143,152.00504 a 55.714287,66.785713 0 1 1 -111.428577,0 55.714287,66.785713 0 1 1 111.428577,0 z"
       transform="matrix(0.05068406,0,0,0.0400958,297.98737,163.46679)" />
    <path
       style="fill:none;stroke:#000000;stroke-width:0.64267957px;stroke-linecap:butt;stroke-linejoin:miter;stroke-opacity:1"
       d="m 270.8078,169.68853 c 32.43357,0 32.43357,0 32.43357,0"
       id="path3156-2-8-7-4"
       inkscape:connector-curvature="0" />
    <text
       xml:space="preserve"
       style="font-size:6.88291693px;font-style:normal;font-weight:normal;line-height:125%;letter-spacing:0px;word-spacing:0px;fill:#000000;fill-opacity:1;stroke:none;font-family:Sans"
       x="78.156433"
       y="231.70697"
       id="text4598-0"
       sodipodi:linespacing="125%"
       transform="scale(1.0101506,0.9899514)"><tspan
         sodipodi:role="line"
         id="tspan4600-0"
         x="78.156433"
         y="231.70697">$\vdots$</tspan></text>
    <text
       xml:space="preserve"
       style="font-size:6.88291693px;font-style:normal;font-weight:normal;line-height:125%;letter-spacing:0px;word-spacing:0px;fill:#000000;fill-opacity:1;stroke:none;font-family:Sans"
       x="147.4677"
       y="232.05115"
       id="text4602-6"
       sodipodi:linespacing="125%"
       transform="scale(1.0101506,0.9899514)"><tspan
         sodipodi:role="line"
         id="tspan4604-5"
         x="147.4677"
         y="232.05115">$\vdots$</tspan></text>
    <text
       xml:space="preserve"
       style="font-size:6.88291693px;font-style:normal;font-weight:normal;line-height:125%;letter-spacing:0px;word-spacing:0px;fill:#000000;fill-opacity:1;stroke:none;font-family:Sans"
       x="193.21623"
       y="174.20795"
       id="text4606-2"
       sodipodi:linespacing="125%"
       transform="scale(1.0101506,0.9899514)"><tspan
         sodipodi:role="line"
         x="193.21623"
         y="174.20795"
         id="tspan4610-20">$\dots$</tspan></text>
    <text
       xml:space="preserve"
       style="font-size:6.88291693px;font-style:normal;font-weight:normal;line-height:125%;letter-spacing:0px;word-spacing:0px;fill:#000000;fill-opacity:1;stroke:none;font-family:Sans"
       x="193.21623"
       y="202.12781"
       id="text4606-8-2"
       sodipodi:linespacing="125%"
       transform="scale(1.0101506,0.9899514)"><tspan
         sodipodi:role="line"
         x="193.21623"
         y="202.12781"
         id="tspan4610-2-9">$\dots$</tspan></text>
    <text
       xml:space="preserve"
       style="font-size:6.88291693px;font-style:normal;font-weight:normal;line-height:125%;letter-spacing:0px;word-spacing:0px;fill:#000000;fill-opacity:1;stroke:none;font-family:Sans"
       x="282.10114"
       y="231.90979"
       id="text4602-5-7"
       sodipodi:linespacing="125%"
       transform="scale(1.0101506,0.9899514)"><tspan
         sodipodi:role="line"
         id="tspan4604-1-4"
         x="282.10114"
         y="231.90979">$\vdots$</tspan></text>
    <path
       style="fill:none;stroke:#000000;stroke-width:0.64267951px;stroke-linecap:butt;stroke-linejoin:miter;stroke-opacity:1"
       d="m 99.95075,169.49384 c 32.43359,0 32.43359,0 32.43359,0"
       id="path3156-5-9"
       inkscape:connector-curvature="0" />
    <path
       style="fill:none;stroke:#000000;stroke-width:0.64267951px;stroke-linecap:butt;stroke-linejoin:miter;stroke-opacity:1"
       d="m 236.01634,169.48886 c 32.43359,0 32.43359,0 32.43359,0"
       id="path3156-5-9-5"
       inkscape:connector-curvature="0" />
    <path
       style="fill:none;stroke:#000000;stroke-width:0.64267951px;stroke-linecap:butt;stroke-linejoin:miter;stroke-opacity:1"
       d="m 99.84534,197.87284 c 32.4336,0 32.4336,0 32.4336,0"
       id="path3156-5-9-1"
       inkscape:connector-curvature="0" />
    <path
       style="fill:none;stroke:#000000;stroke-width:0.64267951px;stroke-linecap:butt;stroke-linejoin:miter;stroke-opacity:1"
       d="m 236.32133,198.27821 c 32.4336,0 32.4336,0 32.4336,0"
       id="path3156-5-9-5-1"
       inkscape:connector-curvature="0" />
    <path
       sodipodi:type="arc"
       style="fill:#000000;fill-opacity:1;stroke:#000000;stroke-width:1.58500004;stroke-miterlimit:4;stroke-opacity:0;stroke-dasharray:none;stroke-dashoffset:0"
       id="path2985-5-97-9"
       sodipodi:cx="112.85714"
       sodipodi:cy="152.00504"
       sodipodi:rx="55.714287"
       sodipodi:ry="66.785713"
       d="m 168.57143,152.00504 a 55.714287,66.785713 0 1 1 -111.428577,0 55.714287,66.785713 0 1 1 111.428577,0 z"
       transform="matrix(0.05068406,0,0,0.0400958,59.934268,247.30108)" />
    <path
       sodipodi:type="arc"
       style="fill:#000000;fill-opacity:1;stroke:#000000;stroke-width:1.58500004;stroke-miterlimit:4;stroke-opacity:0;stroke-dasharray:none;stroke-dashoffset:0"
       id="path2985-5-0-8-5"
       sodipodi:cx="112.85714"
       sodipodi:cy="152.00504"
       sodipodi:rx="55.714287"
       sodipodi:ry="66.785713"
       d="m 168.57143,152.00504 a 55.714287,66.785713 0 1 1 -111.428577,0 55.714287,66.785713 0 1 1 111.428577,0 z"
       transform="matrix(0.05068406,0,0,0.0400958,92.440278,247.30108)" />
    <path
       style="fill:none;stroke:#000000;stroke-width:0.64267951px;stroke-linecap:butt;stroke-linejoin:miter;stroke-opacity:1"
       d="m 65.260718,253.52282 c 32.43359,0 32.43359,0 32.43359,0"
       id="path3156-5-5"
       inkscape:connector-curvature="0" />
    <path
       sodipodi:type="arc"
       style="fill:#000000;fill-opacity:1;stroke:#000000;stroke-width:1.58500004;stroke-miterlimit:4;stroke-opacity:0;stroke-dasharray:none;stroke-dashoffset:0"
       id="path2985-5-2-6-1"
       sodipodi:cx="112.85714"
       sodipodi:cy="152.00504"
       sodipodi:rx="55.714287"
       sodipodi:ry="66.785713"
       d="m 168.57143,152.00504 a 55.714287,66.785713 0 1 1 -111.428577,0 55.714287,66.785713 0 1 1 111.428577,0 z"
       transform="matrix(0.05035362,0,0,0.04014758,129.48112,276.13698)" />
    <path
       sodipodi:type="arc"
       style="fill:#000000;fill-opacity:1;stroke:#000000;stroke-width:1.58500004;stroke-miterlimit:4;stroke-opacity:0;stroke-dasharray:none;stroke-dashoffset:0"
       id="path2985-5-0-0-0-9"
       sodipodi:cx="112.85714"
       sodipodi:cy="152.00504"
       sodipodi:rx="55.714287"
       sodipodi:ry="66.785713"
       d="m 168.57143,152.00504 a 55.714287,66.785713 0 1 1 -111.428577,0 55.714287,66.785713 0 1 1 111.428577,0 z"
       transform="matrix(0.05035362,0,0,0.04014758,161.77518,276.13698)" />
    <path
       style="fill:none;stroke:#000000;stroke-width:0.64099455px;stroke-linecap:butt;stroke-linejoin:miter;stroke-opacity:1"
       d="m 134.77281,282.26651 c 32.22215,0 32.22215,0 32.22215,0"
       id="path3156-6-0-7"
       inkscape:connector-curvature="0" />
    <path
       sodipodi:type="arc"
       style="fill:#000000;fill-opacity:1;stroke:#000000;stroke-width:1.58500004;stroke-miterlimit:4;stroke-opacity:0;stroke-dasharray:none;stroke-dashoffset:0"
       id="path2985-5-21-1-6"
       sodipodi:cx="112.85714"
       sodipodi:cy="152.00504"
       sodipodi:rx="55.714287"
       sodipodi:ry="66.785713"
       d="m 168.57143,152.00504 a 55.714287,66.785713 0 1 1 -111.428577,0 55.714287,66.785713 0 1 1 111.428577,0 z"
       transform="matrix(0.05068406,0,0,0.0400958,59.934268,275.77734)" />
    <path
       sodipodi:type="arc"
       style="fill:#000000;fill-opacity:1;stroke:#000000;stroke-width:1.58500004;stroke-miterlimit:4;stroke-opacity:0;stroke-dasharray:none;stroke-dashoffset:0"
       id="path2985-5-0-6-7-6"
       sodipodi:cx="112.85714"
       sodipodi:cy="152.00504"
       sodipodi:rx="55.714287"
       sodipodi:ry="66.785713"
       d="m 168.57143,152.00504 a 55.714287,66.785713 0 1 1 -111.428577,0 55.714287,66.785713 0 1 1 111.428577,0 z"
       transform="matrix(0.05068406,0,0,0.0400958,92.440278,275.77734)" />
    <path
       style="fill:none;stroke:#000000;stroke-width:0.64267951px;stroke-linecap:butt;stroke-linejoin:miter;stroke-opacity:1"
       d="m 65.260718,281.99909 c 32.43359,0 32.43359,0 32.43359,0"
       id="path3156-0-0-9"
       inkscape:connector-curvature="0" />
    <path
       sodipodi:type="arc"
       style="fill:#000000;fill-opacity:1;stroke:#000000;stroke-width:1.58500004;stroke-miterlimit:4;stroke-opacity:0;stroke-dasharray:none;stroke-dashoffset:0"
       id="path2985-5-9-6-4-1"
       sodipodi:cx="112.85714"
       sodipodi:cy="152.00504"
       sodipodi:rx="55.714287"
       sodipodi:ry="66.785713"
       d="m 168.57143,152.00504 a 55.714287,66.785713 0 1 1 -111.428577,0 55.714287,66.785713 0 1 1 111.428577,0 z"
       transform="matrix(0.05068406,0,0,0.0400958,129.46224,247.50027)" />
    <path
       sodipodi:type="arc"
       style="fill:#000000;fill-opacity:1;stroke:#000000;stroke-width:1.58500004;stroke-miterlimit:4;stroke-opacity:0;stroke-dasharray:none;stroke-dashoffset:0"
       id="path2985-5-0-7-5-1-2"
       sodipodi:cx="112.85714"
       sodipodi:cy="152.00504"
       sodipodi:rx="55.714287"
       sodipodi:ry="66.785713"
       d="m 168.57143,152.00504 a 55.714287,66.785713 0 1 1 -111.428577,0 55.714287,66.785713 0 1 1 111.428577,0 z"
       transform="matrix(0.05068406,0,0,0.0400958,161.96826,247.50027)" />
    <path
       style="fill:none;stroke:#000000;stroke-width:0.64267957px;stroke-linecap:butt;stroke-linejoin:miter;stroke-opacity:1"
       d="m 134.78868,253.722 c 32.43358,0 32.43358,0 32.43358,0"
       id="path3156-2-8-6-4"
       inkscape:connector-curvature="0" />
    <path
       sodipodi:type="arc"
       style="fill:#000000;fill-opacity:1;stroke:#000000;stroke-width:1.58500004;stroke-miterlimit:4;stroke-opacity:0;stroke-dasharray:none;stroke-dashoffset:0"
       id="path2985-5-0-0-7-8-83"
       sodipodi:cx="112.85714"
       sodipodi:cy="152.00504"
       sodipodi:rx="55.714287"
       sodipodi:ry="66.785713"
       d="m 168.57143,152.00504 a 55.714287,66.785713 0 1 1 -111.428577,0 55.714287,66.785713 0 1 1 111.428577,0 z"
       transform="matrix(0.05035362,0,0,0.04014758,229.65749,276.30732)" />
    <path
       sodipodi:type="arc"
       style="fill:#000000;fill-opacity:1;stroke:#000000;stroke-width:1.58500004;stroke-miterlimit:4;stroke-opacity:0;stroke-dasharray:none;stroke-dashoffset:0"
       id="path2985-5-0-7-5-7-4-4"
       sodipodi:cx="112.85714"
       sodipodi:cy="152.00504"
       sodipodi:rx="55.714287"
       sodipodi:ry="66.785713"
       d="m 168.57143,152.00504 a 55.714287,66.785713 0 1 1 -111.428577,0 55.714287,66.785713 0 1 1 111.428577,0 z"
       transform="matrix(0.05068406,0,0,0.0400958,229.85058,247.67061)" />
    <path
       sodipodi:type="arc"
       style="fill:#000000;fill-opacity:1;stroke:#000000;stroke-width:1.58500004;stroke-miterlimit:4;stroke-opacity:0;stroke-dasharray:none;stroke-dashoffset:0"
       id="path2985-5-2-7-5-5"
       sodipodi:cx="112.85714"
       sodipodi:cy="152.00504"
       sodipodi:rx="55.714287"
       sodipodi:ry="66.785713"
       d="m 168.57143,152.00504 a 55.714287,66.785713 0 1 1 -111.428577,0 55.714287,66.785713 0 1 1 111.428577,0 z"
       transform="matrix(0.05035362,0,0,0.04014758,265.50071,276.30732)" />
    <path
       sodipodi:type="arc"
       style="fill:#000000;fill-opacity:1;stroke:#000000;stroke-width:1.58500004;stroke-miterlimit:4;stroke-opacity:0;stroke-dasharray:none;stroke-dashoffset:0"
       id="path2985-5-0-0-1-5-6"
       sodipodi:cx="112.85714"
       sodipodi:cy="152.00504"
       sodipodi:rx="55.714287"
       sodipodi:ry="66.785713"
       d="m 168.57143,152.00504 a 55.714287,66.785713 0 1 1 -111.428577,0 55.714287,66.785713 0 1 1 111.428577,0 z"
       transform="matrix(0.05035362,0,0,0.04014758,297.79475,276.30732)" />
    <path
       style="fill:none;stroke:#000000;stroke-width:0.64099455px;stroke-linecap:butt;stroke-linejoin:miter;stroke-opacity:1"
       d="m 270.7924,282.53708 c 32.22213,0 32.22213,0 32.22213,0"
       id="path3156-6-3-7-8"
       inkscape:connector-curvature="0" />
    <path
       sodipodi:type="arc"
       style="fill:#000000;fill-opacity:1;stroke:#000000;stroke-width:1.58500004;stroke-miterlimit:4;stroke-opacity:0;stroke-dasharray:none;stroke-dashoffset:0"
       id="path2985-5-9-6-8-2-0"
       sodipodi:cx="112.85714"
       sodipodi:cy="152.00504"
       sodipodi:rx="55.714287"
       sodipodi:ry="66.785713"
       d="m 168.57143,152.00504 a 55.714287,66.785713 0 1 1 -111.428577,0 55.714287,66.785713 0 1 1 111.428577,0 z"
       transform="matrix(0.05068406,0,0,0.0400958,265.48183,247.67061)" />
    <path
       sodipodi:type="arc"
       style="fill:#000000;fill-opacity:1;stroke:#000000;stroke-width:1.58500004;stroke-miterlimit:4;stroke-opacity:0;stroke-dasharray:none;stroke-dashoffset:0"
       id="path2985-5-0-7-5-5-4-1"
       sodipodi:cx="112.85714"
       sodipodi:cy="152.00504"
       sodipodi:rx="55.714287"
       sodipodi:ry="66.785713"
       d="m 168.57143,152.00504 a 55.714287,66.785713 0 1 1 -111.428577,0 55.714287,66.785713 0 1 1 111.428577,0 z"
       transform="matrix(0.05068406,0,0,0.0400958,297.98784,247.67061)" />
    <path
       style="fill:none;stroke:#000000;stroke-width:0.64267957px;stroke-linecap:butt;stroke-linejoin:miter;stroke-opacity:1"
       d="m 270.80827,253.89235 c 32.43357,0 32.43357,0 32.43357,0"
       id="path3156-2-8-7-4-1"
       inkscape:connector-curvature="0" />
    <text
       xml:space="preserve"
       style="font-size:6.88291693px;font-style:normal;font-weight:normal;line-height:125%;letter-spacing:0px;word-spacing:0px;fill:#000000;fill-opacity:1;stroke:none;font-family:Sans"
       x="193.21667"
       y="259.26648"
       id="text4606-2-8"
       sodipodi:linespacing="125%"
       transform="scale(1.0101506,0.9899514)"><tspan
         sodipodi:role="line"
         x="193.21667"
         y="259.26648"
         id="tspan4610-20-8">$\dots$</tspan></text>
    <text
       xml:space="preserve"
       style="font-size:6.88291693px;font-style:normal;font-weight:normal;line-height:125%;letter-spacing:0px;word-spacing:0px;fill:#000000;fill-opacity:1;stroke:none;font-family:Sans"
       x="193.21667"
       y="287.18634"
       id="text4606-8-2-0"
       sodipodi:linespacing="125%"
       transform="scale(1.0101506,0.9899514)"><tspan
         sodipodi:role="line"
         x="193.21667"
         y="287.18634"
         id="tspan4610-2-9-8">$\dots$</tspan></text>
    <path
       style="fill:none;stroke:#000000;stroke-width:0.64267951px;stroke-linecap:butt;stroke-linejoin:miter;stroke-opacity:1"
       d="m 99.951218,253.69766 c 32.433592,0 32.433592,0 32.433592,0"
       id="path3156-5-9-59"
       inkscape:connector-curvature="0" />
    <path
       style="fill:none;stroke:#000000;stroke-width:0.64267951px;stroke-linecap:butt;stroke-linejoin:miter;stroke-opacity:1"
       d="m 236.01681,253.69268 c 32.43359,0 32.43359,0 32.43359,0"
       id="path3156-5-9-5-3"
       inkscape:connector-curvature="0" />
    <path
       style="fill:none;stroke:#000000;stroke-width:0.64267951px;stroke-linecap:butt;stroke-linejoin:miter;stroke-opacity:1"
       d="m 99.845808,282.07666 c 32.433602,0 32.433602,0 32.433602,0"
       id="path3156-5-9-1-2"
       inkscape:connector-curvature="0" />
    <path
       style="fill:none;stroke:#000000;stroke-width:0.64267951px;stroke-linecap:butt;stroke-linejoin:miter;stroke-opacity:1"
       d="m 236.3218,282.48203 c 32.4336,0 32.4336,0 32.4336,0"
       id="path3156-5-9-5-1-5"
       inkscape:connector-curvature="0" />
    <path
       sodipodi:type="arc"
       style="fill:#000000;fill-opacity:1;stroke:#000000;stroke-width:1.58500004;stroke-miterlimit:4;stroke-opacity:0;stroke-dasharray:none;stroke-dashoffset:0"
       id="path2985-5-2-6-1-1"
       sodipodi:cx="112.85714"
       sodipodi:cy="152.00504"
       sodipodi:rx="55.714287"
       sodipodi:ry="66.785713"
       d="m 168.57143,152.00504 a 55.714287,66.785713 0 1 1 -111.428577,0 55.714287,66.785713 0 1 1 111.428577,0 z"
       transform="matrix(0.05035362,0,0,0.04014758,129.48112,305.33947)" />
    <path
       sodipodi:type="arc"
       style="fill:#000000;fill-opacity:1;stroke:#000000;stroke-width:1.58500004;stroke-miterlimit:4;stroke-opacity:0;stroke-dasharray:none;stroke-dashoffset:0"
       id="path2985-5-0-0-0-9-3"
       sodipodi:cx="112.85714"
       sodipodi:cy="152.00504"
       sodipodi:rx="55.714287"
       sodipodi:ry="66.785713"
       d="m 168.57143,152.00504 a 55.714287,66.785713 0 1 1 -111.428577,0 55.714287,66.785713 0 1 1 111.428577,0 z"
       transform="matrix(0.05035362,0,0,0.04014758,161.77518,305.33947)" />
    <path
       style="fill:none;stroke:#000000;stroke-width:0.64099455px;stroke-linecap:butt;stroke-linejoin:miter;stroke-opacity:1"
       d="m 134.77281,311.469 c 32.22215,0 32.22215,0 32.22215,0"
       id="path3156-6-0-7-0"
       inkscape:connector-curvature="0" />
    <path
       sodipodi:type="arc"
       style="fill:#000000;fill-opacity:1;stroke:#000000;stroke-width:1.58500004;stroke-miterlimit:4;stroke-opacity:0;stroke-dasharray:none;stroke-dashoffset:0"
       id="path2985-5-21-1-6-6"
       sodipodi:cx="112.85714"
       sodipodi:cy="152.00504"
       sodipodi:rx="55.714287"
       sodipodi:ry="66.785713"
       d="m 168.57143,152.00504 a 55.714287,66.785713 0 1 1 -111.428577,0 55.714287,66.785713 0 1 1 111.428577,0 z"
       transform="matrix(0.05068406,0,0,0.0400958,59.934268,304.97983)" />
    <path
       sodipodi:type="arc"
       style="fill:#000000;fill-opacity:1;stroke:#000000;stroke-width:1.58500004;stroke-miterlimit:4;stroke-opacity:0;stroke-dasharray:none;stroke-dashoffset:0"
       id="path2985-5-0-6-7-6-4"
       sodipodi:cx="112.85714"
       sodipodi:cy="152.00504"
       sodipodi:rx="55.714287"
       sodipodi:ry="66.785713"
       d="m 168.57143,152.00504 a 55.714287,66.785713 0 1 1 -111.428577,0 55.714287,66.785713 0 1 1 111.428577,0 z"
       transform="matrix(0.05068406,0,0,0.0400958,92.440278,304.97983)" />
    <path
       style="fill:none;stroke:#000000;stroke-width:0.64267951px;stroke-linecap:butt;stroke-linejoin:miter;stroke-opacity:1"
       d="m 65.260718,311.20158 c 32.43359,0 32.43359,0 32.43359,0"
       id="path3156-0-0-9-1"
       inkscape:connector-curvature="0" />
    <path
       sodipodi:type="arc"
       style="fill:#000000;fill-opacity:1;stroke:#000000;stroke-width:1.58500004;stroke-miterlimit:4;stroke-opacity:0;stroke-dasharray:none;stroke-dashoffset:0"
       id="path2985-5-0-0-7-8-83-5"
       sodipodi:cx="112.85714"
       sodipodi:cy="152.00504"
       sodipodi:rx="55.714287"
       sodipodi:ry="66.785713"
       d="m 168.57143,152.00504 a 55.714287,66.785713 0 1 1 -111.428577,0 55.714287,66.785713 0 1 1 111.428577,0 z"
       transform="matrix(0.05035362,0,0,0.04014758,229.65749,305.50981)" />
    <path
       sodipodi:type="arc"
       style="fill:#000000;fill-opacity:1;stroke:#000000;stroke-width:1.58500004;stroke-miterlimit:4;stroke-opacity:0;stroke-dasharray:none;stroke-dashoffset:0"
       id="path2985-5-2-7-5-5-0"
       sodipodi:cx="112.85714"
       sodipodi:cy="152.00504"
       sodipodi:rx="55.714287"
       sodipodi:ry="66.785713"
       d="m 168.57143,152.00504 a 55.714287,66.785713 0 1 1 -111.428577,0 55.714287,66.785713 0 1 1 111.428577,0 z"
       transform="matrix(0.05035362,0,0,0.04014758,265.50071,305.50981)" />
    <path
       sodipodi:type="arc"
       style="fill:#000000;fill-opacity:1;stroke:#000000;stroke-width:1.58500004;stroke-miterlimit:4;stroke-opacity:0;stroke-dasharray:none;stroke-dashoffset:0"
       id="path2985-5-0-0-1-5-6-8"
       sodipodi:cx="112.85714"
       sodipodi:cy="152.00504"
       sodipodi:rx="55.714287"
       sodipodi:ry="66.785713"
       d="m 168.57143,152.00504 a 55.714287,66.785713 0 1 1 -111.428577,0 55.714287,66.785713 0 1 1 111.428577,0 z"
       transform="matrix(0.05035362,0,0,0.04014758,297.79475,305.50981)" />
    <path
       style="fill:none;stroke:#000000;stroke-width:0.64099455px;stroke-linecap:butt;stroke-linejoin:miter;stroke-opacity:1"
       d="m 270.7924,311.73957 c 32.22213,0 32.22213,0 32.22213,0"
       id="path3156-6-3-7-8-7"
       inkscape:connector-curvature="0" />
    <text
       xml:space="preserve"
       style="font-size:6.88291693px;font-style:normal;font-weight:normal;line-height:125%;letter-spacing:0px;word-spacing:0px;fill:#000000;fill-opacity:1;stroke:none;font-family:Sans"
       x="193.21667"
       y="316.68524"
       id="text4606-8-2-0-2"
       sodipodi:linespacing="125%"
       transform="scale(1.0101506,0.9899514)"><tspan
         sodipodi:role="line"
         x="193.21667"
         y="316.68524"
         id="tspan4610-2-9-8-2">$\dots$</tspan></text>
    <path
       style="fill:none;stroke:#000000;stroke-width:0.64267951px;stroke-linecap:butt;stroke-linejoin:miter;stroke-opacity:1"
       d="m 99.845808,311.27915 c 32.433602,0 32.433602,0 32.433602,0"
       id="path3156-5-9-1-2-1"
       inkscape:connector-curvature="0" />
    <path
       style="fill:none;stroke:#000000;stroke-width:0.64267951px;stroke-linecap:butt;stroke-linejoin:miter;stroke-opacity:1"
       d="m 236.3218,311.68452 c 32.4336,0 32.4336,0 32.4336,0"
       id="path3156-5-9-5-1-5-2"
       inkscape:connector-curvature="0" />
    <path
       style="fill:none;stroke:#000000;stroke-width:0.643;stroke-linecap:butt;stroke-linejoin:miter;stroke-opacity:1;stroke-miterlimit:4;stroke-dasharray:none"
       d="m 303.57143,169.86219 c 0,28.92857 0,28.92857 0,28.92857 l -0.35715,0.35714"
       id="path3564"
       inkscape:connector-curvature="0" />
    <path
       style="fill:none;stroke:#000000;stroke-width:0.643;stroke-linecap:butt;stroke-linejoin:miter;stroke-opacity:1;stroke-miterlimit:4;stroke-dasharray:none"
       d="m 303.57143,254.1479 c 0,27.85714 0,27.5 0,27.5"
       id="path3566"
       inkscape:connector-curvature="0" />
    <path
       style="fill:none;stroke:#000000;stroke-width:0.643;stroke-linecap:butt;stroke-linejoin:miter;stroke-opacity:1;stroke-miterlimit:4;stroke-dasharray:none"
       d="m 65.357142,281.6479 c 0,29.28572 0,29.28572 0,29.28572"
       id="path3568"
       inkscape:connector-curvature="0" />
    <path
       style="fill:none;stroke:#000000;stroke-width:1.07353377px;stroke-linecap:butt;stroke-linejoin:miter;stroke-opacity:1"
       d="m 90.297388,166.43698 c 4.97647,2.97281 4.97647,2.97281 4.97647,2.97281"
       id="path3400-9"
       inkscape:connector-curvature="0" />
    <path
       style="fill:none;stroke:#000000;stroke-width:1.07353377px;stroke-linecap:butt;stroke-linejoin:miter;stroke-opacity:1"
       d="m 95.274408,169.1639 c -5.23999,3.43166 -4.99025,3.17457 -4.99025,3.17457"
       id="path3402-8"
       inkscape:connector-curvature="0" />
    <path
       style="fill:none;stroke:#000000;stroke-width:1.07353377px;stroke-linecap:butt;stroke-linejoin:miter;stroke-opacity:1"
       d="m 127.32365,166.53593 c 4.97647,2.97281 4.97647,2.97281 4.97647,2.97281"
       id="path3400-9-0"
       inkscape:connector-curvature="0" />
    <path
       style="fill:none;stroke:#000000;stroke-width:1.07353377px;stroke-linecap:butt;stroke-linejoin:miter;stroke-opacity:1"
       d="m 132.30067,169.26285 c -5.23999,3.43166 -4.99025,3.17457 -4.99025,3.17457"
       id="path3402-8-3"
       inkscape:connector-curvature="0" />
    <path
       style="fill:none;stroke:#000000;stroke-width:1.07353377px;stroke-linecap:butt;stroke-linejoin:miter;stroke-opacity:1"
       d="m 159.90107,166.53593 c 4.97647,2.97281 4.97647,2.97281 4.97647,2.97281"
       id="path3400-9-3"
       inkscape:connector-curvature="0" />
    <path
       style="fill:none;stroke:#000000;stroke-width:1.07353377px;stroke-linecap:butt;stroke-linejoin:miter;stroke-opacity:1"
       d="m 164.87809,169.26285 c -5.23999,3.43166 -4.99025,3.17457 -4.99025,3.17457"
       id="path3402-8-0"
       inkscape:connector-curvature="0" />
    <path
       style="fill:none;stroke:#000000;stroke-width:1.07353377px;stroke-linecap:butt;stroke-linejoin:miter;stroke-opacity:1"
       d="m 263.18916,166.53594 c 4.97647,2.97281 4.97647,2.97281 4.97647,2.97281"
       id="path3400-9-5"
       inkscape:connector-curvature="0" />
    <path
       style="fill:none;stroke:#000000;stroke-width:1.07353377px;stroke-linecap:butt;stroke-linejoin:miter;stroke-opacity:1"
       d="m 268.16618,169.26286 c -5.23999,3.43166 -4.99025,3.17457 -4.99025,3.17457"
       id="path3402-8-6"
       inkscape:connector-curvature="0" />
    <path
       style="fill:none;stroke:#000000;stroke-width:1.07353377px;stroke-linecap:butt;stroke-linejoin:miter;stroke-opacity:1"
       d="m 296.27166,166.78847 c 4.97647,2.97281 4.97647,2.97281 4.97647,2.97281"
       id="path3400-9-1"
       inkscape:connector-curvature="0" />
    <path
       style="fill:none;stroke:#000000;stroke-width:1.07353377px;stroke-linecap:butt;stroke-linejoin:miter;stroke-opacity:1"
       d="m 301.24868,169.51539 c -5.23999,3.43166 -4.99025,3.17457 -4.99025,3.17457"
       id="path3402-8-59"
       inkscape:connector-curvature="0" />
    <path
       style="fill:none;stroke:#000000;stroke-width:1.07353377px;stroke-linecap:butt;stroke-linejoin:miter;stroke-opacity:1"
       d="m 90.453083,250.63114 c 4.97647,2.97281 4.97647,2.97281 4.97647,2.97281"
       id="path3400-9-9"
       inkscape:connector-curvature="0" />
    <path
       style="fill:none;stroke:#000000;stroke-width:1.07353377px;stroke-linecap:butt;stroke-linejoin:miter;stroke-opacity:1"
       d="m 95.430103,253.35806 c -5.23999,3.43166 -4.99025,3.17457 -4.99025,3.17457"
       id="path3402-8-2"
       inkscape:connector-curvature="0" />
    <path
       style="fill:none;stroke:#000000;stroke-width:1.07353377px;stroke-linecap:butt;stroke-linejoin:miter;stroke-opacity:1"
       d="m 127.07111,250.88367 c 4.97647,2.97281 4.97647,2.97281 4.97647,2.97281"
       id="path3400-9-02"
       inkscape:connector-curvature="0" />
    <path
       style="fill:none;stroke:#000000;stroke-width:1.07353377px;stroke-linecap:butt;stroke-linejoin:miter;stroke-opacity:1"
       d="m 132.04813,253.61059 c -5.23999,3.43166 -4.99025,3.17457 -4.99025,3.17457"
       id="path3402-8-7"
       inkscape:connector-curvature="0" />
    <path
       style="fill:none;stroke:#000000;stroke-width:1.07353377px;stroke-linecap:butt;stroke-linejoin:miter;stroke-opacity:1"
       d="m 159.64853,250.88367 c 4.97647,2.97281 4.97647,2.97281 4.97647,2.97281"
       id="path3400-9-6"
       inkscape:connector-curvature="0" />
    <path
       style="fill:none;stroke:#000000;stroke-width:1.07353377px;stroke-linecap:butt;stroke-linejoin:miter;stroke-opacity:1"
       d="m 164.62555,253.61059 c -5.23999,3.43166 -4.99025,3.17457 -4.99025,3.17457"
       id="path3402-8-30"
       inkscape:connector-curvature="0" />
    <path
       style="fill:none;stroke:#000000;stroke-width:1.07353377px;stroke-linecap:butt;stroke-linejoin:miter;stroke-opacity:1"
       d="m 263.18917,250.88367 c 4.97647,2.97281 4.97647,2.97281 4.97647,2.97281"
       id="path3400-9-8"
       inkscape:connector-curvature="0" />
    <path
       style="fill:none;stroke:#000000;stroke-width:1.07353377px;stroke-linecap:butt;stroke-linejoin:miter;stroke-opacity:1"
       d="m 268.16619,253.61059 c -5.23999,3.43166 -4.99025,3.17457 -4.99025,3.17457"
       id="path3402-8-27"
       inkscape:connector-curvature="0" />
    <path
       style="fill:none;stroke:#000000;stroke-width:1.07353377px;stroke-linecap:butt;stroke-linejoin:miter;stroke-opacity:1"
       d="m 295.76659,251.13621 c 4.97647,2.97281 4.97647,2.97281 4.97647,2.97281"
       id="path3400-9-2"
       inkscape:connector-curvature="0" />
    <path
       style="fill:none;stroke:#000000;stroke-width:1.07353377px;stroke-linecap:butt;stroke-linejoin:miter;stroke-opacity:1"
       d="m 300.74361,253.86313 c -5.23999,3.43166 -4.99025,3.17457 -4.99025,3.17457"
       id="path3402-8-9"
       inkscape:connector-curvature="0" />
    <path
       style="fill:none;stroke:#000000;stroke-width:1.07353377px;stroke-linecap:butt;stroke-linejoin:miter;stroke-opacity:1"
       d="m 90.200548,308.46237 c 4.97647,2.97281 4.97647,2.97281 4.97647,2.97281"
       id="path3400-9-92"
       inkscape:connector-curvature="0" />
    <path
       style="fill:none;stroke:#000000;stroke-width:1.07353377px;stroke-linecap:butt;stroke-linejoin:miter;stroke-opacity:1"
       d="m 95.177568,311.18929 c -5.23999,3.43166 -4.99025,3.17457 -4.99025,3.17457"
       id="path3402-8-63"
       inkscape:connector-curvature="0" />
    <path
       style="fill:none;stroke:#000000;stroke-width:1.07353377px;stroke-linecap:butt;stroke-linejoin:miter;stroke-opacity:1"
       d="m 126.81858,308.46236 c 4.97646,2.97281 4.97646,2.97281 4.97646,2.97281"
       id="path3400-9-4"
       inkscape:connector-curvature="0" />
    <path
       style="fill:none;stroke:#000000;stroke-width:1.07353377px;stroke-linecap:butt;stroke-linejoin:miter;stroke-opacity:1"
       d="m 131.79559,311.18928 c -5.23998,3.43166 -4.99024,3.17457 -4.99024,3.17457"
       id="path3402-8-76"
       inkscape:connector-curvature="0" />
    <path
       style="fill:none;stroke:#000000;stroke-width:1.07353377px;stroke-linecap:butt;stroke-linejoin:miter;stroke-opacity:1"
       d="m 159.396,308.7149 c 4.97647,2.97281 4.97647,2.97281 4.97647,2.97281"
       id="path3400-9-15"
       inkscape:connector-curvature="0" />
    <path
       style="fill:none;stroke:#000000;stroke-width:1.07353377px;stroke-linecap:butt;stroke-linejoin:miter;stroke-opacity:1"
       d="m 164.37302,311.44182 c -5.23999,3.43166 -4.99025,3.17457 -4.99025,3.17457"
       id="path3402-8-64"
       inkscape:connector-curvature="0" />
    <path
       style="fill:none;stroke:#000000;stroke-width:1.07353377px;stroke-linecap:butt;stroke-linejoin:miter;stroke-opacity:1"
       d="m 263.18916,308.7149 c 4.97647,2.97281 4.97647,2.97281 4.97647,2.97281"
       id="path3400-9-88"
       inkscape:connector-curvature="0" />
    <path
       style="fill:none;stroke:#000000;stroke-width:1.07353377px;stroke-linecap:butt;stroke-linejoin:miter;stroke-opacity:1"
       d="m 268.16618,311.44182 c -5.23999,3.43166 -4.99025,3.17457 -4.99025,3.17457"
       id="path3402-8-1"
       inkscape:connector-curvature="0" />
    <path
       style="fill:none;stroke:#000000;stroke-width:1.07353377px;stroke-linecap:butt;stroke-linejoin:miter;stroke-opacity:1"
       d="m 295.26152,308.96745 c 4.97647,2.97281 4.97647,2.97281 4.97647,2.97281"
       id="path3400-9-79"
       inkscape:connector-curvature="0" />
    <path
       style="fill:none;stroke:#000000;stroke-width:1.07353377px;stroke-linecap:butt;stroke-linejoin:miter;stroke-opacity:1"
       d="m 300.23854,311.69437 c -5.23999,3.43166 -4.99025,3.17457 -4.99025,3.17457"
       id="path3402-8-98"
       inkscape:connector-curvature="0" />
    <path
       style="fill:none;stroke:#000000;stroke-width:1.07353377px;stroke-linecap:butt;stroke-linejoin:miter;stroke-opacity:1"
       d="m 279.0325,201.23106 c -5.00648,-2.922 -5.00648,-2.922 -5.00648,-2.922"
       id="path3400-9-7-1"
       inkscape:connector-curvature="0" />
    <path
       style="fill:none;stroke:#000000;stroke-width:1.07353377px;stroke-linecap:butt;stroke-linejoin:miter;stroke-opacity:1"
       d="m 274.02797,198.55493 c 5.20479,-3.48481 4.95768,-3.2252 4.95768,-3.2252"
       id="path3402-8-5-1"
       inkscape:connector-curvature="0" />
    <path
       style="fill:none;stroke:#000000;stroke-width:1.07353377px;stroke-linecap:butt;stroke-linejoin:miter;stroke-opacity:1"
       d="m 243.42463,200.97852 c -5.00648,-2.922 -5.00648,-2.922 -5.00648,-2.922"
       id="path3400-9-7-8"
       inkscape:connector-curvature="0" />
    <path
       style="fill:none;stroke:#000000;stroke-width:1.07353377px;stroke-linecap:butt;stroke-linejoin:miter;stroke-opacity:1"
       d="m 238.4201,198.30239 c 5.20479,-3.48481 4.95768,-3.2252 4.95768,-3.2252"
       id="path3402-8-5-5"
       inkscape:connector-curvature="0" />
    <path
       style="fill:none;stroke:#000000;stroke-width:1.07353377px;stroke-linecap:butt;stroke-linejoin:miter;stroke-opacity:1"
       d="m 143.16698,200.97852 c -5.00648,-2.922 -5.00648,-2.922 -5.00648,-2.922"
       id="path3400-9-7-86"
       inkscape:connector-curvature="0" />
    <path
       style="fill:none;stroke:#000000;stroke-width:1.07353377px;stroke-linecap:butt;stroke-linejoin:miter;stroke-opacity:1"
       d="m 138.16245,198.30239 c 5.20479,-3.48481 4.95768,-3.2252 4.95768,-3.2252"
       id="path3402-8-5-19"
       inkscape:connector-curvature="0" />
    <path
       style="fill:none;stroke:#000000;stroke-width:1.07353377px;stroke-linecap:butt;stroke-linejoin:miter;stroke-opacity:1"
       d="m 106.54895,200.72598 c -5.00648,-2.922 -5.00648,-2.922 -5.00648,-2.922"
       id="path3400-9-7-7"
       inkscape:connector-curvature="0" />
    <path
       style="fill:none;stroke:#000000;stroke-width:1.07353377px;stroke-linecap:butt;stroke-linejoin:miter;stroke-opacity:1"
       d="m 101.54442,198.04985 c 5.20479,-3.48481 4.95768,-3.2252 4.95768,-3.2252"
       id="path3402-8-5-3"
       inkscape:connector-curvature="0" />
    <path
       style="fill:none;stroke:#000000;stroke-width:1.07353377px;stroke-linecap:butt;stroke-linejoin:miter;stroke-opacity:1"
       d="m 73.971528,200.47344 c -5.00648,-2.922 -5.00648,-2.922 -5.00648,-2.922"
       id="path3400-9-7-6"
       inkscape:connector-curvature="0" />
    <path
       style="fill:none;stroke:#000000;stroke-width:1.07353377px;stroke-linecap:butt;stroke-linejoin:miter;stroke-opacity:1"
       d="m 68.966998,197.79731 c 5.20479,-3.48481 4.95768,-3.2252 4.95768,-3.2252"
       id="path3402-8-5-14"
       inkscape:connector-curvature="0" />
    <path
       style="fill:none;stroke:#000000;stroke-width:1.07353377px;stroke-linecap:butt;stroke-linejoin:miter;stroke-opacity:1"
       d="m 279.28503,285.32625 c -5.00648,-2.922 -5.00648,-2.922 -5.00648,-2.922"
       id="path3400-9-7-5"
       inkscape:connector-curvature="0" />
    <path
       style="fill:none;stroke:#000000;stroke-width:1.07353377px;stroke-linecap:butt;stroke-linejoin:miter;stroke-opacity:1"
       d="m 274.2805,282.65012 c 5.20479,-3.48481 4.95768,-3.2252 4.95768,-3.2252"
       id="path3402-8-5-31"
       inkscape:connector-curvature="0" />
    <path
       style="fill:none;stroke:#000000;stroke-width:1.07353377px;stroke-linecap:butt;stroke-linejoin:miter;stroke-opacity:1"
       d="m 243.42462,285.32626 c -5.00648,-2.922 -5.00648,-2.922 -5.00648,-2.922"
       id="path3400-9-7-9"
       inkscape:connector-curvature="0" />
    <path
       style="fill:none;stroke:#000000;stroke-width:1.07353377px;stroke-linecap:butt;stroke-linejoin:miter;stroke-opacity:1"
       d="m 238.42009,282.65013 c 5.20479,-3.48481 4.95768,-3.2252 4.95768,-3.2252"
       id="path3402-8-5-9"
       inkscape:connector-curvature="0" />
    <path
       style="fill:none;stroke:#000000;stroke-width:1.07353377px;stroke-linecap:butt;stroke-linejoin:miter;stroke-opacity:1"
       d="m 143.16698,285.07372 c -5.00648,-2.922 -5.00648,-2.922 -5.00648,-2.922"
       id="path3400-9-7-87"
       inkscape:connector-curvature="0" />
    <path
       style="fill:none;stroke:#000000;stroke-width:1.07353377px;stroke-linecap:butt;stroke-linejoin:miter;stroke-opacity:1"
       d="m 138.16245,282.39759 c 5.20479,-3.48481 4.95768,-3.2252 4.95768,-3.2252"
       id="path3402-8-5-2"
       inkscape:connector-curvature="0" />
    <path
       style="fill:none;stroke:#000000;stroke-width:1.07353377px;stroke-linecap:butt;stroke-linejoin:miter;stroke-opacity:1"
       d="m 106.29641,284.82118 c -5.00648,-2.922 -5.00648,-2.922 -5.00648,-2.922"
       id="path3400-9-7-3"
       inkscape:connector-curvature="0" />
    <path
       style="fill:none;stroke:#000000;stroke-width:1.07353377px;stroke-linecap:butt;stroke-linejoin:miter;stroke-opacity:1"
       d="m 101.29188,282.14505 c 5.20479,-3.48481 4.95768,-3.2252 4.95768,-3.2252"
       id="path3402-8-5-58"
       inkscape:connector-curvature="0" />
    <path
       style="fill:none;stroke:#000000;stroke-width:1.07353377px;stroke-linecap:butt;stroke-linejoin:miter;stroke-opacity:1"
       d="m 73.718998,284.82118 c -5.00648,-2.922 -5.00648,-2.922 -5.00648,-2.922"
       id="path3400-9-7-4"
       inkscape:connector-curvature="0" />
    <path
       style="fill:none;stroke:#000000;stroke-width:1.07353377px;stroke-linecap:butt;stroke-linejoin:miter;stroke-opacity:1"
       d="m 68.714468,282.14505 c 5.20479,-3.48481 4.95768,-3.2252 4.95768,-3.2252"
       id="path3402-8-5-52"
       inkscape:connector-curvature="0" />
    <path
       style="fill:none;stroke:#000000;stroke-width:1.07353377px;stroke-linecap:butt;stroke-linejoin:miter;stroke-opacity:1"
       d="m 306.2506,190.45282 c -2.85644,5.04418 -2.85644,5.04418 -2.85644,5.04418"
       id="path3400-9-7-35-6"
       inkscape:connector-curvature="0" />
    <path
       style="fill:none;stroke:#000000;stroke-width:1.07353377px;stroke-linecap:butt;stroke-linejoin:miter;stroke-opacity:1"
       d="m 303.63999,195.49184 c -3.55242,-5.15889 -3.28961,-4.91518 -3.28961,-4.91518"
       id="path3402-8-5-11-2"
       inkscape:connector-curvature="0" />
    <path
       style="fill:none;stroke:#000000;stroke-width:1.07353377px;stroke-linecap:butt;stroke-linejoin:miter;stroke-opacity:1"
       d="m 306.25059,274.54802 c -2.85644,5.04418 -2.85644,5.04418 -2.85644,5.04418"
       id="path3400-9-7-35-1"
       inkscape:connector-curvature="0" />
    <path
       style="fill:none;stroke:#000000;stroke-width:1.07353377px;stroke-linecap:butt;stroke-linejoin:miter;stroke-opacity:1"
       d="m 303.63998,279.58704 c -3.55242,-5.15889 -3.28961,-4.91518 -3.28961,-4.91518"
       id="path3402-8-5-11-1"
       inkscape:connector-curvature="0" />
    <path
       style="fill:none;stroke:#000000;stroke-width:1.07353377px;stroke-linecap:butt;stroke-linejoin:miter;stroke-opacity:1"
       d="m 68.107128,303.08483 c -2.85644,5.04418 -2.85644,5.04418 -2.85644,5.04418"
       id="path3400-9-7-35-18"
       inkscape:connector-curvature="0" />
    <path
       style="fill:none;stroke:#000000;stroke-width:1.07353377px;stroke-linecap:butt;stroke-linejoin:miter;stroke-opacity:1"
       d="m 65.496518,308.12385 c -3.55242,-5.15889 -3.28961,-4.91518 -3.28961,-4.91518"
       id="path3402-8-5-11-4"
       inkscape:connector-curvature="0" />
  </g>
</svg>
