<?xml version="1.0" encoding="UTF-8" standalone="no"?>
<!-- Created with Inkscape (http://www.inkscape.org/) -->

<svg
   xmlns:dc="http://purl.org/dc/elements/1.1/"
   xmlns:cc="http://creativecommons.org/ns#"
   xmlns:rdf="http://www.w3.org/1999/02/22-rdf-syntax-ns#"
   xmlns:svg="http://www.w3.org/2000/svg"
   xmlns="http://www.w3.org/2000/svg"
   xmlns:sodipodi="http://sodipodi.sourceforge.net/DTD/sodipodi-0.dtd"
   xmlns:inkscape="http://www.inkscape.org/namespaces/inkscape"
   width="744.09448819"
   height="1052.3622047"
   id="svg2"
   version="1.1"
   inkscape:version="0.48.4 r9939"
   sodipodi:docname="exactos_6.svg">
  <defs
     id="defs4" />
  <sodipodi:namedview
     id="base"
     pagecolor="#ffffff"
     bordercolor="#666666"
     borderopacity="1.0"
     inkscape:pageopacity="0.0"
     inkscape:pageshadow="2"
     inkscape:zoom="2"
     inkscape:cx="239.68329"
     inkscape:cy="848.945"
     inkscape:document-units="px"
     inkscape:current-layer="layer1"
     showgrid="false"
     inkscape:window-width="1851"
     inkscape:window-height="1053"
     inkscape:window-x="69"
     inkscape:window-y="27"
     inkscape:window-maximized="1"
     showguides="true"
     inkscape:guide-bbox="true" />
  <metadata
     id="metadata7">
    <rdf:RDF>
      <cc:Work
         rdf:about="">
        <dc:format>image/svg+xml</dc:format>
        <dc:type
           rdf:resource="http://purl.org/dc/dcmitype/StillImage" />
        <dc:title />
      </cc:Work>
    </rdf:RDF>
  </metadata>
  <g
     inkscape:label="Layer 1"
     inkscape:groupmode="layer"
     id="layer1">
    <path
       sodipodi:type="arc"
       style="fill:#000000;fill-opacity:1;stroke:#000000;stroke-width:322.14245605;stroke-miterlimit:4;stroke-opacity:0;stroke-dasharray:644.2849178, 1932.85475354;stroke-dashoffset:0"
       id="path2985-5-0-2-2-2"
       sodipodi:cx="112.85714"
       sodipodi:cy="152.00504"
       sodipodi:rx="55.714287"
       sodipodi:ry="66.785713"
       d="m 168.57143,152.00504 a 55.714287,66.785713 0 1 1 -111.428577,0 55.714287,66.785713 0 1 1 111.428577,0 z"
       transform="matrix(0.06682497,0,0,0.05747595,341.06011,61.853028)" />
    <path
       style="fill:none;stroke:#000000;stroke-width:0.80828387px;stroke-linecap:butt;stroke-linejoin:miter;stroke-opacity:1"
       d="M 348.59138,71.343843 C 215.79176,110.31703 215.79176,110.31703 215.79176,110.31703"
       id="path5337"
       inkscape:connector-curvature="0" />
    <path
       sodipodi:type="arc"
       style="fill:#000000;fill-opacity:1;stroke:#000000;stroke-width:322.14245605;stroke-miterlimit:4;stroke-opacity:0;stroke-dasharray:644.2849178, 1932.85475354;stroke-dashoffset:0"
       id="path2985-5-0-2-2-2-8"
       sodipodi:cx="112.85714"
       sodipodi:cy="152.00504"
       sodipodi:rx="55.714287"
       sodipodi:ry="66.785713"
       d="m 168.57143,152.00504 a 55.714287,66.785713 0 1 1 -111.428577,0 55.714287,66.785713 0 1 1 111.428577,0 z"
       transform="matrix(0.06283962,0,0,0.05115352,209.26981,103.11457)" />
    <path
       style="fill:none;stroke:#000000;stroke-width:0.72345573px;stroke-linecap:butt;stroke-linejoin:miter;stroke-opacity:1"
       d="m 215.83406,110.84763 c -42.2613,33.32689 -42.2613,33.32689 -42.2613,33.32689 l 0,0"
       id="path5357"
       inkscape:connector-curvature="0" />
    <path
       style="fill:none;stroke:#000000;stroke-width:0.8925156px;stroke-linecap:butt;stroke-linejoin:miter;stroke-opacity:1"
       d="m 216.31971,110.35926 c -10.1752,34.87677 -10.1752,34.87677 -10.1752,34.87677"
       id="path5359"
       inkscape:connector-curvature="0" />
    <path
       style="fill:none;stroke:#000000;stroke-width:0.80338484px;stroke-linecap:butt;stroke-linejoin:miter;stroke-opacity:1"
       d="m 216.35927,110.88771 c 54.72061,34.96614 54.72061,34.96614 54.72061,34.96614"
       id="path5361"
       inkscape:connector-curvature="0" />
    <path
       sodipodi:type="arc"
       style="fill:#000000;fill-opacity:1;stroke:#000000;stroke-width:322.14245605;stroke-miterlimit:4;stroke-opacity:0;stroke-dasharray:644.2849178, 1932.85475354;stroke-dashoffset:0"
       id="path2985-5-0-2-2-2-0"
       sodipodi:cx="112.85714"
       sodipodi:cy="152.00504"
       sodipodi:rx="55.714287"
       sodipodi:ry="66.785713"
       d="m 168.57143,152.00504 a 55.714287,66.785713 0 1 1 -111.428577,0 55.714287,66.785713 0 1 1 111.428577,0 z"
       transform="matrix(0.06283962,0,0,0.05115352,164.96024,136.92952)" />
    <path
       sodipodi:type="arc"
       style="fill:#000000;fill-opacity:1;stroke:#000000;stroke-width:322.14245605;stroke-miterlimit:4;stroke-opacity:0;stroke-dasharray:644.2849178, 1932.85475354;stroke-dashoffset:0"
       id="path2985-5-0-2-2-2-3"
       sodipodi:cx="112.85714"
       sodipodi:cy="152.00504"
       sodipodi:rx="55.714287"
       sodipodi:ry="66.785713"
       d="m 168.57143,152.00504 a 55.714287,66.785713 0 1 1 -111.428577,0 55.714287,66.785713 0 1 1 111.428577,0 z"
       transform="matrix(0.06283962,0,0,0.05115352,199.72753,136.92953)" />
    <path
       sodipodi:type="arc"
       style="fill:#000000;fill-opacity:1;stroke:#000000;stroke-width:322.14245605;stroke-miterlimit:4;stroke-opacity:0;stroke-dasharray:644.2849178, 1932.85475354;stroke-dashoffset:0"
       id="path2985-5-0-2-2-2-36"
       sodipodi:cx="112.85714"
       sodipodi:cy="152.00504"
       sodipodi:rx="55.714287"
       sodipodi:ry="66.785713"
       d="m 168.57143,152.00504 a 55.714287,66.785713 0 1 1 -111.428577,0 55.714287,66.785713 0 1 1 111.428577,0 z"
       transform="matrix(0.06283962,0,0,0.05115352,261.68489,137.5486)" />
    <path
       sodipodi:type="arc"
       style="fill:#000000;fill-opacity:1;stroke:#000000;stroke-width:322.14245605;stroke-miterlimit:4;stroke-opacity:0;stroke-dasharray:644.2849178, 1932.85475354;stroke-dashoffset:0"
       id="path2985-5-0-2-2-2-8-0"
       sodipodi:cx="112.85714"
       sodipodi:cy="152.00504"
       sodipodi:rx="55.714287"
       sodipodi:ry="66.785713"
       d="m 168.57143,152.00504 a 55.714287,66.785713 0 1 1 -111.428577,0 55.714287,66.785713 0 1 1 111.428577,0 z"
       transform="matrix(0.06283962,0,0,0.05115352,330.17563,103.11457)" />
    <path
       style="fill:none;stroke:#000000;stroke-width:0.74386722px;stroke-linecap:butt;stroke-linejoin:miter;stroke-opacity:1"
       d="m 336.72969,110.28472 c -43.95081,33.87956 -43.95081,33.87956 -43.95081,33.87956 l 0,0"
       id="path5357-2"
       inkscape:connector-curvature="0" />
    <path
       style="fill:none;stroke:#000000;stroke-width:0.8994264px;stroke-linecap:butt;stroke-linejoin:miter;stroke-opacity:1"
       d="m 337.22208,110.36273 c -10.1683,35.44298 -10.1683,35.44298 -10.1683,35.44298"
       id="path5359-7"
       inkscape:connector-curvature="0" />
    <path
       style="fill:none;stroke:#000000;stroke-width:0.75519001px;stroke-linecap:butt;stroke-linejoin:miter;stroke-opacity:1"
       d="m 337.24106,110.86355 c 50.77897,33.29506 50.77897,33.29506 50.77897,33.29506"
       id="path5361-9"
       inkscape:connector-curvature="0" />
    <path
       sodipodi:type="arc"
       style="fill:#000000;fill-opacity:1;stroke:#000000;stroke-width:322.14245605;stroke-miterlimit:4;stroke-opacity:0;stroke-dasharray:644.2849178, 1932.85475354;stroke-dashoffset:0"
       id="path2985-5-0-2-2-2-0-1"
       sodipodi:cx="112.85714"
       sodipodi:cy="152.00504"
       sodipodi:rx="55.714287"
       sodipodi:ry="66.785713"
       d="m 168.57143,152.00504 a 55.714287,66.785713 0 1 1 -111.428577,0 55.714287,66.785713 0 1 1 111.428577,0 z"
       transform="matrix(0.06283962,0,0,0.05115352,285.86605,136.92952)" />
    <path
       sodipodi:type="arc"
       style="fill:#000000;fill-opacity:1;stroke:#000000;stroke-width:322.14245605;stroke-miterlimit:4;stroke-opacity:0;stroke-dasharray:644.2849178, 1932.85475354;stroke-dashoffset:0"
       id="path2985-5-0-2-2-2-3-1"
       sodipodi:cx="112.85714"
       sodipodi:cy="152.00504"
       sodipodi:rx="55.714287"
       sodipodi:ry="66.785713"
       d="m 168.57143,152.00504 a 55.714287,66.785713 0 1 1 -111.428577,0 55.714287,66.785713 0 1 1 111.428577,0 z"
       transform="matrix(0.06283962,0,0,0.05115352,320.63334,136.92953)" />
    <path
       sodipodi:type="arc"
       style="fill:#000000;fill-opacity:1;stroke:#000000;stroke-width:322.14245605;stroke-miterlimit:4;stroke-opacity:0;stroke-dasharray:644.2849178, 1932.85475354;stroke-dashoffset:0"
       id="path2985-5-0-2-2-2-36-0"
       sodipodi:cx="112.85714"
       sodipodi:cy="152.00504"
       sodipodi:rx="55.714287"
       sodipodi:ry="66.785713"
       d="m 168.57143,152.00504 a 55.714287,66.785713 0 1 1 -111.428577,0 55.714287,66.785713 0 1 1 111.428577,0 z"
       transform="matrix(0.06283962,0,0,0.05115352,382.5907,137.5486)" />
    <path
       style="fill:none;stroke:#000000;stroke-width:0.80828387px;stroke-linecap:butt;stroke-linejoin:miter;stroke-opacity:1"
       d="M 348.59138,70.770708 C 337.19227,110.89017 337.19227,110.89017 337.19227,110.89017"
       id="path5464"
       inkscape:connector-curvature="0" />
    <path
       sodipodi:type="arc"
       style="fill:#000000;fill-opacity:1;stroke:#000000;stroke-width:322.14245605;stroke-miterlimit:4;stroke-opacity:0;stroke-dasharray:644.2849178, 1932.85475354;stroke-dashoffset:0"
       id="path2985-5-0-2-2-2-8-5"
       sodipodi:cx="112.85714"
       sodipodi:cy="152.00504"
       sodipodi:rx="55.714287"
       sodipodi:ry="66.785713"
       d="m 168.57143,152.00504 a 55.714287,66.785713 0 1 1 -111.428577,0 55.714287,66.785713 0 1 1 111.428577,0 z"
       transform="matrix(0.06283962,0,0,0.05115352,507.50413,103.11457)" />
    <path
       style="fill:none;stroke:#000000;stroke-width:0.73296273px;stroke-linecap:butt;stroke-linejoin:miter;stroke-opacity:1"
       d="m 514.06364,110.85239 c -43.39173,33.31736 -43.39173,33.31736 -43.39173,33.31736 l 0,0"
       id="path5357-25"
       inkscape:connector-curvature="0" />
    <path
       style="fill:none;stroke:#000000;stroke-width:0.8994264px;stroke-linecap:butt;stroke-linejoin:miter;stroke-opacity:1"
       d="m 514.55058,110.36273 c -10.16829,35.44298 -10.16829,35.44298 -10.16829,35.44298"
       id="path5359-1"
       inkscape:connector-curvature="0" />
    <path
       style="fill:none;stroke:#000000;stroke-width:0.78043014px;stroke-linecap:butt;stroke-linejoin:miter;stroke-opacity:1"
       d="m 514.58214,110.8762 c 52.46368,34.41602 52.46368,34.41602 52.46368,34.41602"
       id="path5361-7"
       inkscape:connector-curvature="0" />
    <path
       sodipodi:type="arc"
       style="fill:#000000;fill-opacity:1;stroke:#000000;stroke-width:322.14245605;stroke-miterlimit:4;stroke-opacity:0;stroke-dasharray:644.2849178, 1932.85475354;stroke-dashoffset:0"
       id="path2985-5-0-2-2-2-0-9"
       sodipodi:cx="112.85714"
       sodipodi:cy="152.00504"
       sodipodi:rx="55.714287"
       sodipodi:ry="66.785713"
       d="m 168.57143,152.00504 a 55.714287,66.785713 0 1 1 -111.428577,0 55.714287,66.785713 0 1 1 111.428577,0 z"
       transform="matrix(0.06283962,0,0,0.05115352,463.19456,136.92952)" />
    <path
       sodipodi:type="arc"
       style="fill:#000000;fill-opacity:1;stroke:#000000;stroke-width:322.14245605;stroke-miterlimit:4;stroke-opacity:0;stroke-dasharray:644.2849178, 1932.85475354;stroke-dashoffset:0"
       id="path2985-5-0-2-2-2-3-7"
       sodipodi:cx="112.85714"
       sodipodi:cy="152.00504"
       sodipodi:rx="55.714287"
       sodipodi:ry="66.785713"
       d="m 168.57143,152.00504 a 55.714287,66.785713 0 1 1 -111.428577,0 55.714287,66.785713 0 1 1 111.428577,0 z"
       transform="matrix(0.06283962,0,0,0.05115352,497.96184,136.92953)" />
    <path
       sodipodi:type="arc"
       style="fill:#000000;fill-opacity:1;stroke:#000000;stroke-width:322.14245605;stroke-miterlimit:4;stroke-opacity:0;stroke-dasharray:644.2849178, 1932.85475354;stroke-dashoffset:0"
       id="path2985-5-0-2-2-2-36-9"
       sodipodi:cx="112.85714"
       sodipodi:cy="152.00504"
       sodipodi:rx="55.714287"
       sodipodi:ry="66.785713"
       d="m 168.57143,152.00504 a 55.714287,66.785713 0 1 1 -111.428577,0 55.714287,66.785713 0 1 1 111.428577,0 z"
       transform="matrix(0.06283962,0,0,0.05115352,559.91921,137.5486)" />
    <path
       style="fill:none;stroke:#000000;stroke-width:0.94337308px;stroke-linecap:butt;stroke-linejoin:miter;stroke-opacity:1"
       d="m 348.65873,70.83844 c 165.15235,39.98399 165.15235,39.98399 165.15235,39.98399"
       id="path5485"
       inkscape:connector-curvature="0" />
    <path
       sodipodi:type="arc"
       style="fill:#000000;fill-opacity:1;stroke:#000000;stroke-width:322.14245605;stroke-miterlimit:4;stroke-opacity:0;stroke-dasharray:644.2849178, 1932.85475354;stroke-dashoffset:0"
       id="path2985-5-0-2-2-2-8-03"
       sodipodi:cx="112.85714"
       sodipodi:cy="152.00504"
       sodipodi:rx="55.714287"
       sodipodi:ry="66.785713"
       d="m 168.57143,152.00504 a 55.714287,66.785713 0 1 1 -111.428577,0 55.714287,66.785713 0 1 1 111.428577,0 z"
       transform="matrix(0.06283962,0,0,0.05115352,135.66188,167.36182)" />
    <path
       sodipodi:type="arc"
       style="fill:#000000;fill-opacity:1;stroke:#000000;stroke-width:322.14245605;stroke-miterlimit:4;stroke-opacity:0;stroke-dasharray:644.2849178, 1932.85475354;stroke-dashoffset:0"
       id="path2985-5-0-2-2-2-8-03-1"
       sodipodi:cx="112.85714"
       sodipodi:cy="152.00504"
       sodipodi:rx="55.714287"
       sodipodi:ry="66.785713"
       d="m 168.57143,152.00504 a 55.714287,66.785713 0 1 1 -111.428577,0 55.714287,66.785713 0 1 1 111.428577,0 z"
       transform="matrix(0.06283962,0,0,0.05115352,192.60119,168.17135)" />
    <path
       sodipodi:type="arc"
       style="fill:#000000;fill-opacity:1;stroke:#000000;stroke-width:322.14245605;stroke-miterlimit:4;stroke-opacity:0;stroke-dasharray:644.2849178, 1932.85475354;stroke-dashoffset:0"
       id="path2985-5-0-2-2-2-8-03-1-1"
       sodipodi:cx="112.85714"
       sodipodi:cy="152.00504"
       sodipodi:rx="55.714287"
       sodipodi:ry="66.785713"
       d="m 168.57143,152.00504 a 55.714287,66.785713 0 1 1 -111.428577,0 55.714287,66.785713 0 1 1 111.428577,0 z"
       transform="matrix(0.06283962,0,0,0.05115352,154.46351,167.67135)" />
    <path
       style="fill:none;stroke:#000000;stroke-width:0.77868825px;stroke-linecap:butt;stroke-linejoin:miter;stroke-opacity:1"
       d="m 171.32051,144.11711 c 28.7474,32.27158 28.7474,32.27158 28.7474,32.27158"
       id="path5561"
       inkscape:connector-curvature="0" />
    <path
       sodipodi:type="arc"
       style="fill:#000000;fill-opacity:1;stroke:#000000;stroke-width:322.14245605;stroke-miterlimit:4;stroke-opacity:0;stroke-dasharray:644.2849178, 1932.85475354;stroke-dashoffset:0"
       id="path2985-5-0-2-2-2-1"
       sodipodi:cx="112.85714"
       sodipodi:cy="152.00504"
       sodipodi:rx="55.714287"
       sodipodi:ry="66.785713"
       d="m 168.57143,152.00504 a 55.714287,66.785713 0 1 1 -111.428577,0 55.714287,66.785713 0 1 1 111.428577,0 z"
       transform="matrix(0.06283962,0,0,0.05115352,121.76803,225.1923)" />
    <path
       sodipodi:type="arc"
       style="fill:#000000;fill-opacity:1;stroke:#000000;stroke-width:322.14245605;stroke-miterlimit:4;stroke-opacity:0;stroke-dasharray:644.2849178, 1932.85475354;stroke-dashoffset:0"
       id="path2985-5-4-9-9-5-3"
       sodipodi:cx="112.85714"
       sodipodi:cy="152.00504"
       sodipodi:rx="55.714287"
       sodipodi:ry="66.785713"
       d="m 168.57143,152.00504 a 55.714287,66.785713 0 1 1 -111.428577,0 55.714287,66.785713 0 1 1 111.428577,0 z"
       transform="matrix(0.06283962,0,0,0.05115352,121.76803,246.91326)" />
    <path
       sodipodi:type="arc"
       style="fill:#000000;fill-opacity:1;stroke:#000000;stroke-width:322.14245605;stroke-miterlimit:4;stroke-opacity:0;stroke-dasharray:644.2849178, 1932.85475354;stroke-dashoffset:0"
       id="path2985-5-0-2-2-2-1-3"
       sodipodi:cx="112.85714"
       sodipodi:cy="152.00504"
       sodipodi:rx="55.714287"
       sodipodi:ry="66.785713"
       d="m 168.57143,152.00504 a 55.714287,66.785713 0 1 1 -111.428577,0 55.714287,66.785713 0 1 1 111.428577,0 z"
       transform="matrix(0.06283962,0,0,0.05115352,158.03977,225.1923)" />
    <path
       sodipodi:type="arc"
       style="fill:#000000;fill-opacity:1;stroke:#000000;stroke-width:322.14245605;stroke-miterlimit:4;stroke-opacity:0;stroke-dasharray:644.2849178, 1932.85475354;stroke-dashoffset:0"
       id="path2985-5-4-9-9-5-3-3"
       sodipodi:cx="112.85714"
       sodipodi:cy="152.00504"
       sodipodi:rx="55.714287"
       sodipodi:ry="66.785713"
       d="m 168.57143,152.00504 a 55.714287,66.785713 0 1 1 -111.428577,0 55.714287,66.785713 0 1 1 111.428577,0 z"
       transform="matrix(0.06283962,0,0,0.05115352,158.03977,246.91326)" />
    <path
       sodipodi:type="arc"
       style="fill:#000000;fill-opacity:1;stroke:#000000;stroke-width:322.14245605;stroke-miterlimit:4;stroke-opacity:0;stroke-dasharray:644.2849178, 1932.85475354;stroke-dashoffset:0"
       id="path2985-5-0-2-2-2-1-2"
       sodipodi:cx="112.85714"
       sodipodi:cy="152.00504"
       sodipodi:rx="55.714287"
       sodipodi:ry="66.785713"
       d="m 168.57143,152.00504 a 55.714287,66.785713 0 1 1 -111.428577,0 55.714287,66.785713 0 1 1 111.428577,0 z"
       transform="matrix(0.06283962,0,0,0.05115352,198.3417,225.1923)" />
    <path
       sodipodi:type="arc"
       style="fill:#000000;fill-opacity:1;stroke:#000000;stroke-width:322.14245605;stroke-miterlimit:4;stroke-opacity:0;stroke-dasharray:644.2849178, 1932.85475354;stroke-dashoffset:0"
       id="path2985-5-4-9-9-5-3-6"
       sodipodi:cx="112.85714"
       sodipodi:cy="152.00504"
       sodipodi:rx="55.714287"
       sodipodi:ry="66.785713"
       d="m 168.57143,152.00504 a 55.714287,66.785713 0 1 1 -111.428577,0 55.714287,66.785713 0 1 1 111.428577,0 z"
       transform="matrix(0.06283962,0,0,0.05115352,198.3417,246.91326)" />
    <path
       sodipodi:type="arc"
       style="fill:#000000;fill-opacity:1;stroke:#000000;stroke-width:322.14245605;stroke-miterlimit:4;stroke-opacity:0;stroke-dasharray:644.2849178, 1932.85475354;stroke-dashoffset:0"
       id="path2985-5-0-2-2-2-1-3-5"
       sodipodi:cx="112.85714"
       sodipodi:cy="152.00504"
       sodipodi:rx="55.714287"
       sodipodi:ry="66.785713"
       d="m 168.57143,152.00504 a 55.714287,66.785713 0 1 1 -111.428577,0 55.714287,66.785713 0 1 1 111.428577,0 z"
       transform="matrix(0.06283962,0,0,0.05115352,238.64363,225.1923)" />
    <path
       sodipodi:type="arc"
       style="fill:#000000;fill-opacity:1;stroke:#000000;stroke-width:322.14245605;stroke-miterlimit:4;stroke-opacity:0;stroke-dasharray:644.2849178, 1932.85475354;stroke-dashoffset:0"
       id="path2985-5-4-9-9-5-3-3-0"
       sodipodi:cx="112.85714"
       sodipodi:cy="152.00504"
       sodipodi:rx="55.714287"
       sodipodi:ry="66.785713"
       d="m 168.57143,152.00504 a 55.714287,66.785713 0 1 1 -111.428577,0 55.714287,66.785713 0 1 1 111.428577,0 z"
       transform="matrix(0.06283962,0,0,0.05115352,238.64363,246.91326)" />
    <path
       sodipodi:type="arc"
       style="fill:#000000;fill-opacity:1;stroke:#000000;stroke-width:322.14245605;stroke-miterlimit:4;stroke-opacity:0;stroke-dasharray:644.2849178, 1932.85475354;stroke-dashoffset:0"
       id="path2985-5-0-2-2-2-1-3-3"
       sodipodi:cx="112.85714"
       sodipodi:cy="152.00504"
       sodipodi:rx="55.714287"
       sodipodi:ry="66.785713"
       d="m 168.57143,152.00504 a 55.714287,66.785713 0 1 1 -111.428577,0 55.714287,66.785713 0 1 1 111.428577,0 z"
       transform="matrix(0.06283962,0,0,0.05115352,498.29941,225.1923)" />
    <path
       sodipodi:type="arc"
       style="fill:#000000;fill-opacity:1;stroke:#000000;stroke-width:322.14245605;stroke-miterlimit:4;stroke-opacity:0;stroke-dasharray:644.2849178, 1932.85475354;stroke-dashoffset:0"
       id="path2985-5-4-9-9-5-3-3-7"
       sodipodi:cx="112.85714"
       sodipodi:cy="152.00504"
       sodipodi:rx="55.714287"
       sodipodi:ry="66.785713"
       d="m 168.57143,152.00504 a 55.714287,66.785713 0 1 1 -111.428577,0 55.714287,66.785713 0 1 1 111.428577,0 z"
       transform="matrix(0.06283962,0,0,0.05115352,498.29941,246.91326)" />
    <path
       sodipodi:type="arc"
       style="fill:#000000;fill-opacity:1;stroke:#000000;stroke-width:322.14245605;stroke-miterlimit:4;stroke-opacity:0;stroke-dasharray:644.2849178, 1932.85475354;stroke-dashoffset:0"
       id="path2985-5-0-2-2-2-1-2-4"
       sodipodi:cx="112.85714"
       sodipodi:cy="152.00504"
       sodipodi:rx="55.714287"
       sodipodi:ry="66.785713"
       d="m 168.57143,152.00504 a 55.714287,66.785713 0 1 1 -111.428577,0 55.714287,66.785713 0 1 1 111.428577,0 z"
       transform="matrix(0.06283962,0,0,0.05115352,538.60134,225.1923)" />
    <path
       sodipodi:type="arc"
       style="fill:#000000;fill-opacity:1;stroke:#000000;stroke-width:322.14245605;stroke-miterlimit:4;stroke-opacity:0;stroke-dasharray:644.2849178, 1932.85475354;stroke-dashoffset:0"
       id="path2985-5-4-9-9-5-3-6-6"
       sodipodi:cx="112.85714"
       sodipodi:cy="152.00504"
       sodipodi:rx="55.714287"
       sodipodi:ry="66.785713"
       d="m 168.57143,152.00504 a 55.714287,66.785713 0 1 1 -111.428577,0 55.714287,66.785713 0 1 1 111.428577,0 z"
       transform="matrix(0.06283962,0,0,0.05115352,538.60134,246.91326)" />
    <path
       sodipodi:type="arc"
       style="fill:#000000;fill-opacity:1;stroke:#000000;stroke-width:322.14245605;stroke-miterlimit:4;stroke-opacity:0;stroke-dasharray:644.2849178, 1932.85475354;stroke-dashoffset:0"
       id="path2985-5-0-2-2-2-1-3-5-4"
       sodipodi:cx="112.85714"
       sodipodi:cy="152.00504"
       sodipodi:rx="55.714287"
       sodipodi:ry="66.785713"
       d="m 168.57143,152.00504 a 55.714287,66.785713 0 1 1 -111.428577,0 55.714287,66.785713 0 1 1 111.428577,0 z"
       transform="matrix(0.06283962,0,0,0.05115352,578.90328,225.1923)" />
    <path
       sodipodi:type="arc"
       style="fill:#000000;fill-opacity:1;stroke:#000000;stroke-width:322.14245605;stroke-miterlimit:4;stroke-opacity:0;stroke-dasharray:644.2849178, 1932.85475354;stroke-dashoffset:0"
       id="path2985-5-4-9-9-5-3-3-0-5"
       sodipodi:cx="112.85714"
       sodipodi:cy="152.00504"
       sodipodi:rx="55.714287"
       sodipodi:ry="66.785713"
       d="m 168.57143,152.00504 a 55.714287,66.785713 0 1 1 -111.428577,0 55.714287,66.785713 0 1 1 111.428577,0 z"
       transform="matrix(0.06283962,0,0,0.05115352,578.90328,246.91326)" />
    <path
       style="fill:none;stroke:#000000;stroke-width:0.80828387px;stroke-linecap:butt;stroke-linejoin:miter;stroke-opacity:1"
       d="m 128.74569,232.92033 c 0,21.77912 0,21.77912 0,21.77912"
       id="path5768"
       inkscape:connector-curvature="0" />
    <path
       style="fill:none;stroke:#000000;stroke-width:0.80828387px;stroke-linecap:butt;stroke-linejoin:miter;stroke-opacity:1"
       d="m 165.01743,232.92033 c 0,21.77912 0,21.77912 0,21.77912"
       id="path5768-5"
       inkscape:connector-curvature="0" />
    <path
       style="fill:none;stroke:#000000;stroke-width:0.80828387px;stroke-linecap:butt;stroke-linejoin:miter;stroke-opacity:1"
       d="m 205.53255,232.4355 c 0,21.77913 0,21.77913 0,21.77913"
       id="path5768-4"
       inkscape:connector-curvature="0" />
    <path
       style="fill:none;stroke:#000000;stroke-width:0.80828387px;stroke-linecap:butt;stroke-linejoin:miter;stroke-opacity:1"
       d="m 245.42943,233.54104 c 0,21.77912 0,21.77912 0,21.77912"
       id="path5768-45"
       inkscape:connector-curvature="0" />
    <path
       style="fill:none;stroke:#000000;stroke-width:0.80828387px;stroke-linecap:butt;stroke-linejoin:miter;stroke-opacity:1"
       d="m 505.32911,232.39478 c 0,21.77912 0,21.77912 0,21.77912"
       id="path5768-6"
       inkscape:connector-curvature="0" />
    <path
       style="fill:none;stroke:#000000;stroke-width:0.80828387px;stroke-linecap:butt;stroke-linejoin:miter;stroke-opacity:1"
       d="m 545.79595,234.11418 c 0,21.77912 0,21.77912 0,21.77912"
       id="path5768-8"
       inkscape:connector-curvature="0" />
    <path
       style="fill:none;stroke:#000000;stroke-width:0.80828387px;stroke-linecap:butt;stroke-linejoin:miter;stroke-opacity:1"
       d="m 586.26278,231.82164 c 0,21.77912 0,21.77912 0,21.77912"
       id="path5768-59"
       inkscape:connector-curvature="0" />
    <text
       xml:space="preserve"
       style="font-size:8.08283901px;font-style:normal;font-weight:normal;line-height:125%;letter-spacing:0px;word-spacing:0px;fill:#000000;fill-opacity:1;stroke:none;font-family:Sans"
       x="158.66699"
       y="210.03062"
       id="text5832"
       sodipodi:linespacing="125%"
       transform="scale(0.9972223,1.0027854)"><tspan
         sodipodi:role="line"
         id="tspan5834"
         x="158.66699"
         y="210.03062">$\dots$</tspan></text>
    <text
       xml:space="preserve"
       style="font-size:8.08283901px;font-style:normal;font-weight:normal;line-height:125%;letter-spacing:0px;word-spacing:0px;fill:#000000;fill-opacity:1;stroke:none;font-family:Sans"
       x="367.28018"
       y="244.89473"
       id="text5836"
       sodipodi:linespacing="125%"
       transform="scale(0.9972223,1.0027854)"><tspan
         sodipodi:role="line"
         id="tspan5838"
         x="367.28018"
         y="244.89473">$\dots$</tspan></text>
    <text
       xml:space="preserve"
       style="font-size:8.08283901px;font-style:normal;font-weight:normal;line-height:125%;letter-spacing:0px;word-spacing:0px;fill:#000000;fill-opacity:1;stroke:none;font-family:Sans"
       x="239.99461"
       y="175.91011"
       id="text5847"
       sodipodi:linespacing="125%"
       transform="scale(0.9972223,1.0027854)"><tspan
         sodipodi:role="line"
         id="tspan5849"
         x="239.99461"
         y="175.91011">$\dots$</tspan></text>
    <path
       style="fill:none;stroke:#000000;stroke-width:0.808;stroke-linecap:butt;stroke-linejoin:miter;stroke-opacity:1;stroke-miterlimit:4;stroke-dasharray:4.848,4.848;stroke-dashoffset:0"
       d="M 284.18641,75.928923 C 356.0008,113.75583 422.68558,75.355788 422.68558,75.355788"
       id="path5851"
       inkscape:connector-curvature="0" />
    <path
       style="fill:none;stroke:#000000;stroke-width:0.808;stroke-linecap:butt;stroke-linejoin:miter;stroke-opacity:1;stroke-miterlimit:4;stroke-dasharray:4.848,4.848;stroke-dashoffset:0"
       d="m 189.57382,117.19465 c 25.64799,17.76718 51.86593,-0.57314 51.86593,-0.57314"
       id="path5853"
       inkscape:connector-curvature="0" />
    <path
       style="fill:none;stroke:#000000;stroke-width:0.808;stroke-linecap:butt;stroke-linejoin:miter;stroke-opacity:1;stroke-miterlimit:4;stroke-dasharray:4.848,4.848;stroke-dashoffset:0"
       d="m 310.11939,118.76412 c 25.64799,17.76718 51.86594,-0.57314 51.86594,-0.57314"
       id="path5853-2"
       inkscape:connector-curvature="0" />
    <path
       style="fill:none;stroke:#000000;stroke-width:0.808;stroke-linecap:butt;stroke-linejoin:miter;stroke-opacity:1;stroke-miterlimit:4;stroke-dasharray:4.848,4.848;stroke-dashoffset:0"
       d="m 490.79525,119.33725 c 25.64799,17.76718 51.86594,-0.57313 51.86594,-0.57313"
       id="path5853-4"
       inkscape:connector-curvature="0" />
    <path
       style="fill:none;stroke:#000000;stroke-width:0.808;stroke-linecap:butt;stroke-linejoin:miter;stroke-opacity:1;stroke-miterlimit:4;stroke-dasharray:4.848,4.848;stroke-dashoffset:0"
       d="m 153.66662,155.02155 c 17.66862,14.9015 34.76728,0 34.76728,0"
       id="path5880"
       inkscape:connector-curvature="0" />
    <text
       xml:space="preserve"
       style="font-size:8.08283901px;font-style:normal;font-weight:normal;line-height:125%;letter-spacing:0px;word-spacing:0px;fill:#000000;fill-opacity:1;stroke:none;font-family:Sans"
       x="426.72064"
       y="75.71801"
       id="text5882"
       sodipodi:linespacing="125%"
       transform="scale(0.9972223,1.0027854)"><tspan
         sodipodi:role="line"
         id="tspan5884"
         x="426.72064"
         y="75.71801">$k$</tspan></text>
    <text
       xml:space="preserve"
       style="font-size:8.08283901px;font-style:normal;font-weight:normal;line-height:125%;letter-spacing:0px;word-spacing:0px;fill:#000000;fill-opacity:1;stroke:none;font-family:Sans"
       x="244.96997"
       y="118.01218"
       id="text5886"
       sodipodi:linespacing="125%"
       transform="scale(0.9972223,1.0027854)"><tspan
         sodipodi:role="line"
         id="tspan5888"
         x="244.96997"
         y="118.01218">$k - 1$</tspan></text>
    <text
       xml:space="preserve"
       style="font-size:8.08283901px;font-style:normal;font-weight:normal;line-height:125%;letter-spacing:0px;word-spacing:0px;fill:#000000;fill-opacity:1;stroke:none;font-family:Sans"
       x="365.75845"
       y="118.20259"
       id="text5886-1"
       sodipodi:linespacing="125%"
       transform="scale(0.9972223,1.0027854)"><tspan
         sodipodi:role="line"
         id="tspan5888-9"
         x="365.75845"
         y="118.20259">$k - 1$</tspan></text>
    <text
       xml:space="preserve"
       style="font-size:8.08283901px;font-style:normal;font-weight:normal;line-height:125%;letter-spacing:0px;word-spacing:0px;fill:#000000;fill-opacity:1;stroke:none;font-family:Sans"
       x="546.93762"
       y="119.91722"
       id="text5886-7"
       sodipodi:linespacing="125%"
       transform="scale(0.9972223,1.0027854)"><tspan
         sodipodi:role="line"
         id="tspan5888-2"
         x="546.93762"
         y="119.91722">$k - 1$</tspan></text>
    <text
       xml:space="preserve"
       style="font-size:8.08283901px;font-style:normal;font-weight:normal;line-height:125%;letter-spacing:0px;word-spacing:0px;fill:#000000;fill-opacity:1;stroke:none;font-family:Sans"
       x="192.6805"
       y="161.41805"
       id="text5920"
       sodipodi:linespacing="125%"
       transform="scale(0.9972223,1.0027854)"><tspan
         sodipodi:role="line"
         id="tspan5922"
         x="192.6805"
         y="161.41805">$k - 2$</tspan></text>
    <text
       xml:space="preserve"
       style="font-size:10px;font-style:normal;font-weight:normal;line-height:125%;letter-spacing:0px;word-spacing:0px;fill:#000000;fill-opacity:1;stroke:none;font-family:Sans"
       x="59.438477"
       y="40.628307"
       id="text5924"
       sodipodi:linespacing="125%"><tspan
         sodipodi:role="line"
         x="59.438477"
         y="40.628307"
         id="tspan5962">Cantidad de</tspan><tspan
         sodipodi:role="line"
         x="59.438477"
         y="53.128307"
         id="tspan5928" /></text>
    <text
       xml:space="preserve"
       style="font-size:10px;font-style:normal;font-weight:normal;line-height:125%;letter-spacing:0px;word-spacing:0px;fill:#000000;fill-opacity:1;stroke:none;font-family:Sans"
       x="84.169922"
       y="77.720482"
       id="text5932"
       sodipodi:linespacing="125%"><tspan
         sodipodi:role="line"
         id="tspan5934"
         x="84.169922"
         y="77.720482">$0$</tspan></text>
    <text
       xml:space="preserve"
       style="font-size:10px;font-style:normal;font-weight:normal;line-height:125%;letter-spacing:0px;word-spacing:0px;fill:#000000;fill-opacity:1;stroke:none;font-family:Sans"
       x="84.169922"
       y="112.36246"
       id="text5936"
       sodipodi:linespacing="125%"><tspan
         sodipodi:role="line"
         id="tspan5938"
         x="84.169922"
         y="112.36246">$1$</tspan></text>
    <text
       xml:space="preserve"
       style="font-size:10px;font-style:normal;font-weight:normal;line-height:125%;letter-spacing:0px;word-spacing:0px;fill:#000000;fill-opacity:1;stroke:none;font-family:Sans"
       x="84.169922"
       y="146.76245"
       id="text5940"
       sodipodi:linespacing="125%"><tspan
         sodipodi:role="line"
         id="tspan5942"
         x="84.169922"
         y="146.76245">$2$</tspan></text>
    <text
       xml:space="preserve"
       style="font-size:10px;font-style:normal;font-weight:normal;line-height:125%;letter-spacing:0px;word-spacing:0px;fill:#000000;fill-opacity:1;stroke:none;font-family:Sans"
       x="84.169922"
       y="180.36243"
       id="text5944"
       sodipodi:linespacing="125%"><tspan
         sodipodi:role="line"
         id="tspan5946"
         x="84.169922"
         y="180.36243">$3$</tspan></text>
    <text
       xml:space="preserve"
       style="font-size:10px;font-style:normal;font-weight:normal;line-height:125%;letter-spacing:0px;word-spacing:0px;fill:#000000;fill-opacity:1;stroke:none;font-family:Sans"
       x="79.5"
       y="236.16254"
       id="text5948"
       sodipodi:linespacing="125%"><tspan
         sodipodi:role="line"
         id="tspan5950"
         x="79.5"
         y="236.16254">$k - 1$</tspan></text>
    <text
       xml:space="preserve"
       style="font-size:10px;font-style:normal;font-weight:normal;line-height:125%;letter-spacing:0px;word-spacing:0px;fill:#000000;fill-opacity:1;stroke:none;font-family:Sans"
       x="84.169922"
       y="258.06247"
       id="text5952"
       sodipodi:linespacing="125%"><tspan
         sodipodi:role="line"
         id="tspan5954"
         x="84.169922"
         y="258.06247">$k$</tspan></text>
    <text
       xml:space="preserve"
       style="font-size:10px;font-style:normal;font-weight:normal;line-height:125%;letter-spacing:0px;word-spacing:0px;fill:#000000;fill-opacity:1;stroke:none;font-family:Sans"
       x="38"
       y="304.86218"
       id="text5956"
       sodipodi:linespacing="125%"><tspan
         sodipodi:role="line"
         id="tspan5958" /></text>
    <text
       xml:space="preserve"
       style="font-size:10px;font-style:normal;font-weight:normal;line-height:125%;letter-spacing:0px;word-spacing:0px;fill:#000000;fill-opacity:1;stroke:none;font-family:Sans"
       x="59.448242"
       y="54.862072"
       id="text5970"
       sodipodi:linespacing="125%"><tspan
         sodipodi:role="line"
         id="tspan5972"
         x="59.448242"
         y="54.862072">aristas en $\pi$</tspan></text>
    <text
       xml:space="preserve"
       style="font-size:8.08283901px;font-style:normal;font-weight:normal;line-height:125%;letter-spacing:0px;word-spacing:0px;fill:#000000;fill-opacity:1;stroke:none;font-family:Sans"
       x="170.76309"
       y="171.53104"
       id="text5847-1"
       sodipodi:linespacing="125%"
       transform="scale(0.99722232,1.0027854)"><tspan
         sodipodi:role="line"
         id="tspan5849-2"
         x="170.76309"
         y="171.53104">$\dots$</tspan></text>
    <text
       xml:space="preserve"
       style="font-size:8.08283901px;font-style:normal;font-weight:normal;line-height:125%;letter-spacing:0px;word-spacing:0px;fill:#000000;fill-opacity:1;stroke:none;font-family:Sans"
       x="218.61108"
       y="138.47131"
       id="text5847-7"
       sodipodi:linespacing="125%"
       transform="scale(0.9972223,1.0027854)"><tspan
         sodipodi:role="line"
         id="tspan5849-3"
         x="218.61108"
         y="138.47131">$\dots$</tspan></text>
    <text
       xml:space="preserve"
       style="font-size:8.08283901px;font-style:normal;font-weight:normal;line-height:125%;letter-spacing:0px;word-spacing:0px;fill:#000000;fill-opacity:1;stroke:none;font-family:Sans"
       x="341.95593"
       y="138.9254"
       id="text5847-8"
       sodipodi:linespacing="125%"
       transform="scale(0.9972223,1.0027854)"><tspan
         sodipodi:role="line"
         id="tspan5849-35"
         x="341.95593"
         y="138.9254">$\dots$</tspan></text>
    <text
       xml:space="preserve"
       style="font-size:8.08283901px;font-style:normal;font-weight:normal;line-height:125%;letter-spacing:0px;word-spacing:0px;fill:#000000;fill-opacity:1;stroke:none;font-family:Sans"
       x="413.29825"
       y="127.119"
       id="text5847-5"
       sodipodi:linespacing="125%"
       transform="scale(0.9972223,1.0027854)"><tspan
         sodipodi:role="line"
         id="tspan5849-29"
         x="413.29825"
         y="127.119">$\dots$</tspan></text>
    <text
       xml:space="preserve"
       style="font-size:8.08283901px;font-style:normal;font-weight:normal;line-height:125%;letter-spacing:0px;word-spacing:0px;fill:#000000;fill-opacity:1;stroke:none;font-family:Sans"
       x="520.31165"
       y="139.3795"
       id="text5847-56"
       sodipodi:linespacing="125%"
       transform="scale(0.9972223,1.0027854)"><tspan
         sodipodi:role="line"
         id="tspan5849-7"
         x="520.31165"
         y="139.3795">$\dots$</tspan></text>
    <path
       style="fill:none;stroke:#000000;stroke-width:0.42218772px;stroke-linecap:butt;stroke-linejoin:miter;stroke-opacity:1"
       d="m 171.02586,145.04814 c -9.05172,30.12808 -9.05172,30.12808 -9.05172,30.12808"
       id="path5561-8"
       inkscape:connector-curvature="0" />
    <path
       style="fill:none;stroke:#000000;stroke-width:0.72917974px;stroke-linecap:butt;stroke-linejoin:miter;stroke-opacity:1"
       d="m 170.87236,145.45164 c -27.74472,29.32108 -27.74472,29.32108 -27.74472,29.32108"
       id="path5561-8-8"
       inkscape:connector-curvature="0" />
  </g>
</svg>
