<?xml version="1.0" encoding="UTF-8" standalone="no"?>
<!-- Created with Inkscape (http://www.inkscape.org/) -->

<svg
   xmlns:dc="http://purl.org/dc/elements/1.1/"
   xmlns:cc="http://creativecommons.org/ns#"
   xmlns:rdf="http://www.w3.org/1999/02/22-rdf-syntax-ns#"
   xmlns:svg="http://www.w3.org/2000/svg"
   xmlns="http://www.w3.org/2000/svg"
   xmlns:sodipodi="http://sodipodi.sourceforge.net/DTD/sodipodi-0.dtd"
   xmlns:inkscape="http://www.inkscape.org/namespaces/inkscape"
   width="744.09448819"
   height="1052.3622047"
   id="svg2"
   version="1.1"
   inkscape:version="0.48.4 r9939"
   sodipodi:docname="exactos_1.svg">
  <defs
     id="defs4" />
  <sodipodi:namedview
     id="base"
     pagecolor="#ffffff"
     bordercolor="#666666"
     borderopacity="1.0"
     inkscape:pageopacity="0.0"
     inkscape:pageshadow="2"
     inkscape:zoom="2.1685791"
     inkscape:cx="321.52489"
     inkscape:cy="930.77775"
     inkscape:document-units="px"
     inkscape:current-layer="layer1"
     showgrid="false"
     inkscape:window-width="1851"
     inkscape:window-height="1053"
     inkscape:window-x="69"
     inkscape:window-y="27"
     inkscape:window-maximized="1"
     showguides="true"
     inkscape:guide-bbox="true" />
  <metadata
     id="metadata7">
    <rdf:RDF>
      <cc:Work
         rdf:about="">
        <dc:format>image/svg+xml</dc:format>
        <dc:type
           rdf:resource="http://purl.org/dc/dcmitype/StillImage" />
        <dc:title />
      </cc:Work>
    </rdf:RDF>
  </metadata>
  <g
     inkscape:label="Layer 1"
     inkscape:groupmode="layer"
     id="layer1">
    <path
       sodipodi:type="arc"
       style="fill:#000000;fill-opacity:1;stroke:#000000;stroke-width:1.58500004;stroke-miterlimit:4;stroke-opacity:0;stroke-dasharray:none;stroke-dashoffset:0"
       id="path2985-5"
       sodipodi:cx="112.85714"
       sodipodi:cy="152.00504"
       sodipodi:rx="55.714287"
       sodipodi:ry="66.785713"
       d="m 168.57143,152.00504 a 55.714287,66.785713 0 1 1 -111.428577,0 55.714287,66.785713 0 1 1 111.428577,0 z"
       transform="matrix(0.05831753,0,0,0.04425232,61.70326,78.738651)" />
    <path
       sodipodi:type="arc"
       style="fill:#000000;fill-opacity:1;stroke:#000000;stroke-width:1.58500004;stroke-miterlimit:4;stroke-opacity:0;stroke-dasharray:none;stroke-dashoffset:0"
       id="path2985-5-0"
       sodipodi:cx="112.85714"
       sodipodi:cy="152.00504"
       sodipodi:rx="55.714287"
       sodipodi:ry="66.785713"
       d="m 168.57143,152.00504 a 55.714287,66.785713 0 1 1 -111.428577,0 55.714287,66.785713 0 1 1 111.428577,0 z"
       transform="matrix(0.05831753,0,0,0.04425232,99.104971,78.738651)" />
    <path
       sodipodi:type="arc"
       style="fill:#000000;fill-opacity:1;stroke:#000000;stroke-width:1.58500004;stroke-miterlimit:4;stroke-opacity:0;stroke-dasharray:none;stroke-dashoffset:0"
       id="path2985-5-0-2"
       sodipodi:cx="112.85714"
       sodipodi:cy="152.00504"
       sodipodi:rx="55.714287"
       sodipodi:ry="66.785713"
       d="m 168.57143,152.00504 a 55.714287,66.785713 0 1 1 -111.428577,0 55.714287,66.785713 0 1 1 111.428577,0 z"
       transform="matrix(0.05831753,0,0,0.04425232,136.50667,78.738651)" />
    <path
       sodipodi:type="arc"
       style="fill:#000000;fill-opacity:1;stroke:#000000;stroke-width:1.58500004;stroke-miterlimit:4;stroke-opacity:0;stroke-dasharray:none;stroke-dashoffset:0"
       id="path2985-5-0-2-2"
       sodipodi:cx="112.85714"
       sodipodi:cy="152.00504"
       sodipodi:rx="55.714287"
       sodipodi:ry="66.785713"
       d="m 168.57143,152.00504 a 55.714287,66.785713 0 1 1 -111.428577,0 55.714287,66.785713 0 1 1 111.428577,0 z"
       transform="matrix(0.05831753,0,0,0.04425232,173.90839,78.738651)" />
    <path
       sodipodi:type="arc"
       style="fill:#000000;fill-opacity:1;stroke:#000000;stroke-width:1.58500004;stroke-miterlimit:4;stroke-opacity:0;stroke-dasharray:none;stroke-dashoffset:0"
       id="path2985-5-0-2-2-2"
       sodipodi:cx="112.85714"
       sodipodi:cy="152.00504"
       sodipodi:rx="55.714287"
       sodipodi:ry="66.785713"
       d="m 168.57143,152.00504 a 55.714287,66.785713 0 1 1 -111.428577,0 55.714287,66.785713 0 1 1 111.428577,0 z"
       transform="matrix(0.05831753,0,0,0.04425232,211.3101,78.738651)" />
    <path
       sodipodi:type="arc"
       style="fill:#000000;fill-opacity:1;stroke:#000000;stroke-width:1.58500004;stroke-miterlimit:4;stroke-opacity:0;stroke-dasharray:none;stroke-dashoffset:0"
       id="path2985-5-0-2-2-2-4"
       sodipodi:cx="112.85714"
       sodipodi:cy="152.00504"
       sodipodi:rx="55.714287"
       sodipodi:ry="66.785713"
       d="m 168.57143,152.00504 a 55.714287,66.785713 0 1 1 -111.428577,0 55.714287,66.785713 0 1 1 111.428577,0 z"
       transform="matrix(0.05831753,0,0,0.04425232,248.71179,78.738651)" />
    <path
       style="fill:none;stroke:#000000;stroke-width:0.72423071px;stroke-linecap:butt;stroke-linejoin:miter;stroke-opacity:1"
       d="m 67.831914,85.605354 c 37.318366,0 37.318366,0 37.318366,0"
       id="path3156"
       inkscape:connector-curvature="0" />
    <path
       style="fill:none;stroke:#000000;stroke-width:0.72423071px;stroke-linecap:butt;stroke-linejoin:miter;stroke-opacity:1"
       d="m 106.00396,85.605354 c 37.31838,0 37.31838,0 37.31838,0"
       id="path3156-1"
       inkscape:connector-curvature="0" />
    <path
       style="fill:none;stroke:#000000;stroke-width:0.72423071px;stroke-linecap:butt;stroke-linejoin:miter;stroke-opacity:1"
       d="m 143.56624,85.605354 c 37.31836,0 37.31836,0 37.31836,0"
       id="path3156-3"
       inkscape:connector-curvature="0" />
    <path
       style="fill:none;stroke:#000000;stroke-width:0.72423071px;stroke-linecap:butt;stroke-linejoin:miter;stroke-opacity:1"
       d="m 180.39678,85.605353 c 37.31836,0 37.31836,0 37.31836,0"
       id="path3156-7"
       inkscape:connector-curvature="0" />
    <path
       style="fill:none;stroke:#000000;stroke-width:0.72423071px;stroke-linecap:butt;stroke-linejoin:miter;stroke-opacity:1"
       d="m 217.95907,85.605354 c 37.31835,0 37.31835,0 37.31835,0"
       id="path3156-6"
       inkscape:connector-curvature="0" />
    <path
       sodipodi:type="arc"
       style="fill:#000000;fill-opacity:1;stroke:#000000;stroke-width:1.58500004;stroke-miterlimit:4;stroke-opacity:0;stroke-dasharray:none;stroke-dashoffset:0"
       id="path2985-5-4"
       sodipodi:cx="112.85714"
       sodipodi:cy="152.00504"
       sodipodi:rx="55.714287"
       sodipodi:ry="66.785713"
       d="m 168.57143,152.00504 a 55.714287,66.785713 0 1 1 -111.428577,0 55.714287,66.785713 0 1 1 111.428577,0 z"
       transform="matrix(0.05831753,0,0,0.04425232,99.104971,43.679409)" />
    <path
       sodipodi:type="arc"
       style="fill:#000000;fill-opacity:1;stroke:#000000;stroke-width:1.58500004;stroke-miterlimit:4;stroke-opacity:0;stroke-dasharray:none;stroke-dashoffset:0"
       id="path2985-5-4-9"
       sodipodi:cx="112.85714"
       sodipodi:cy="152.00504"
       sodipodi:rx="55.714287"
       sodipodi:ry="66.785713"
       d="m 168.57143,152.00504 a 55.714287,66.785713 0 1 1 -111.428577,0 55.714287,66.785713 0 1 1 111.428577,0 z"
       transform="matrix(0.05831753,0,0,0.04425232,99.104971,113.79789)" />
    <path
       style="fill:none;stroke:#000000;stroke-width:0.72423071px;stroke-linecap:butt;stroke-linejoin:miter;stroke-opacity:1"
       d="m 105.70671,85.450589 c 0,-34.920544 0,-34.920544 0,-34.920544"
       id="path3335"
       inkscape:connector-curvature="0" />
    <path
       style="fill:none;stroke:#000000;stroke-width:0.72423071px;stroke-linecap:butt;stroke-linejoin:miter;stroke-opacity:1"
       d="m 105.70672,120.37114 c 0,-34.92055 0,-34.92055 0,-34.92055"
       id="path3335-3"
       inkscape:connector-curvature="0" />
    <path
       sodipodi:type="arc"
       style="fill:#000000;fill-opacity:1;stroke:#000000;stroke-width:1.58500004;stroke-miterlimit:4;stroke-opacity:0;stroke-dasharray:none;stroke-dashoffset:0"
       id="path2985-5-4-2"
       sodipodi:cx="112.85714"
       sodipodi:cy="152.00504"
       sodipodi:rx="55.714287"
       sodipodi:ry="66.785713"
       d="m 168.57143,152.00504 a 55.714287,66.785713 0 1 1 -111.428577,0 55.714287,66.785713 0 1 1 111.428577,0 z"
       transform="matrix(0.05831753,0,0,0.04425232,136.50667,43.679407)" />
    <path
       sodipodi:type="arc"
       style="fill:#000000;fill-opacity:1;stroke:#000000;stroke-width:1.58500004;stroke-miterlimit:4;stroke-opacity:0;stroke-dasharray:none;stroke-dashoffset:0"
       id="path2985-5-4-9-9"
       sodipodi:cx="112.85714"
       sodipodi:cy="152.00504"
       sodipodi:rx="55.714287"
       sodipodi:ry="66.785713"
       d="m 168.57143,152.00504 a 55.714287,66.785713 0 1 1 -111.428577,0 55.714287,66.785713 0 1 1 111.428577,0 z"
       transform="matrix(0.05831753,0,0,0.04425232,136.50667,113.79789)" />
    <path
       style="fill:none;stroke:#000000;stroke-width:0.72423071px;stroke-linecap:butt;stroke-linejoin:miter;stroke-opacity:1"
       d="m 143.10843,85.450587 c 0,-34.920545 0,-34.920545 0,-34.920545"
       id="path3335-8"
       inkscape:connector-curvature="0" />
    <path
       style="fill:none;stroke:#000000;stroke-width:0.72423071px;stroke-linecap:butt;stroke-linejoin:miter;stroke-opacity:1"
       d="m 143.10843,120.37114 c 0,-34.920552 0,-34.920552 0,-34.920552"
       id="path3335-3-0"
       inkscape:connector-curvature="0" />
    <path
       sodipodi:type="arc"
       style="fill:#000000;fill-opacity:1;stroke:#000000;stroke-width:1.58500004;stroke-miterlimit:4;stroke-opacity:0;stroke-dasharray:none;stroke-dashoffset:0"
       id="path2985-5-4-2-2"
       sodipodi:cx="112.85714"
       sodipodi:cy="152.00504"
       sodipodi:rx="55.714287"
       sodipodi:ry="66.785713"
       d="m 168.57143,152.00504 a 55.714287,66.785713 0 1 1 -111.428577,0 55.714287,66.785713 0 1 1 111.428577,0 z"
       transform="matrix(0.05831753,0,0,0.04425232,173.90839,43.679401)" />
    <path
       sodipodi:type="arc"
       style="fill:#000000;fill-opacity:1;stroke:#000000;stroke-width:1.58500004;stroke-miterlimit:4;stroke-opacity:0;stroke-dasharray:none;stroke-dashoffset:0"
       id="path2985-5-4-9-9-5"
       sodipodi:cx="112.85714"
       sodipodi:cy="152.00504"
       sodipodi:rx="55.714287"
       sodipodi:ry="66.785713"
       d="m 168.57143,152.00504 a 55.714287,66.785713 0 1 1 -111.428577,0 55.714287,66.785713 0 1 1 111.428577,0 z"
       transform="matrix(0.05831753,0,0,0.04425232,173.90839,113.79789)" />
    <path
       style="fill:none;stroke:#000000;stroke-width:0.72423071px;stroke-linecap:butt;stroke-linejoin:miter;stroke-opacity:1"
       d="m 180.51012,85.450581 c 0,-34.920544 0,-34.920544 0,-34.920544"
       id="path3335-8-3"
       inkscape:connector-curvature="0" />
    <path
       style="fill:none;stroke:#000000;stroke-width:0.72423071px;stroke-linecap:butt;stroke-linejoin:miter;stroke-opacity:1"
       d="m 180.51013,120.37114 c 0,-34.920558 0,-34.920558 0,-34.920558"
       id="path3335-3-0-0"
       inkscape:connector-curvature="0" />
    <path
       sodipodi:type="arc"
       style="fill:#000000;fill-opacity:1;stroke:#000000;stroke-width:1.58500004;stroke-miterlimit:4;stroke-opacity:0;stroke-dasharray:none;stroke-dashoffset:0"
       id="path2985-5-4-2-2-6"
       sodipodi:cx="112.85714"
       sodipodi:cy="152.00504"
       sodipodi:rx="55.714287"
       sodipodi:ry="66.785713"
       d="m 168.57143,152.00504 a 55.714287,66.785713 0 1 1 -111.428577,0 55.714287,66.785713 0 1 1 111.428577,0 z"
       transform="matrix(0.05831753,0,0,0.04425232,211.3101,43.679399)" />
    <path
       sodipodi:type="arc"
       style="fill:#000000;fill-opacity:1;stroke:#000000;stroke-width:1.58500004;stroke-miterlimit:4;stroke-opacity:0;stroke-dasharray:none;stroke-dashoffset:0"
       id="path2985-5-4-9-9-5-3"
       sodipodi:cx="112.85714"
       sodipodi:cy="152.00504"
       sodipodi:rx="55.714287"
       sodipodi:ry="66.785713"
       d="m 168.57143,152.00504 a 55.714287,66.785713 0 1 1 -111.428577,0 55.714287,66.785713 0 1 1 111.428577,0 z"
       transform="matrix(0.05831753,0,0,0.04425232,211.3101,113.79789)" />
    <path
       style="fill:none;stroke:#000000;stroke-width:0.72423071px;stroke-linecap:butt;stroke-linejoin:miter;stroke-opacity:1"
       d="m 217.91184,85.450578 c 0,-34.920544 0,-34.920544 0,-34.920544"
       id="path3335-8-3-1"
       inkscape:connector-curvature="0" />
    <path
       style="fill:none;stroke:#000000;stroke-width:0.72423071px;stroke-linecap:butt;stroke-linejoin:miter;stroke-opacity:1"
       d="m 217.91185,120.37114 c 0,-34.920561 0,-34.920561 0,-34.920561"
       id="path3335-3-0-0-1"
       inkscape:connector-curvature="0" />
    <path
       style="fill:none;stroke:#000000;stroke-width:0.72423071px;stroke-linecap:butt;stroke-linejoin:miter;stroke-opacity:1"
       d="m 108.81119,81.24719 c 17.2471,-20.370317 29.66501,-1.293354 29.66501,-1.293354"
       id="path3436"
       inkscape:connector-curvature="0" />
    <path
       style="fill:none;stroke:#000000;stroke-width:0.90599823px;stroke-linecap:butt;stroke-linejoin:miter;stroke-opacity:1"
       d="m 138.4903,75.997439 c 0.8821,4.824683 0.8821,4.824683 0.8821,4.824683"
       id="path3400-9"
       inkscape:connector-curvature="0" />
    <path
       style="fill:none;stroke:#000000;stroke-width:0.90599823px;stroke-linecap:butt;stroke-linejoin:miter;stroke-opacity:1"
       d="m 139.52826,80.68522 c -5.07978,-1.417409 -4.77851,-1.402072 -4.77851,-1.402072"
       id="path3402-8"
       inkscape:connector-curvature="0" />
    <path
       style="fill:none;stroke:#000000;stroke-width:0.72423071px;stroke-linecap:butt;stroke-linejoin:miter;stroke-opacity:1"
       d="M 146.5268,81.097814 C 163.77391,60.727496 176.19183,79.80446 176.19183,79.80446"
       id="path3436-7"
       inkscape:connector-curvature="0" />
    <path
       style="fill:none;stroke:#000000;stroke-width:0.90599823px;stroke-linecap:butt;stroke-linejoin:miter;stroke-opacity:1"
       d="m 176.20592,75.848064 c 0.88208,4.824682 0.88208,4.824682 0.88208,4.824682"
       id="path3400-9-5"
       inkscape:connector-curvature="0" />
    <path
       style="fill:none;stroke:#000000;stroke-width:0.90599823px;stroke-linecap:butt;stroke-linejoin:miter;stroke-opacity:1"
       d="m 177.24387,80.535843 c -5.07976,-1.417409 -4.77851,-1.402072 -4.77851,-1.402072"
       id="path3402-8-7"
       inkscape:connector-curvature="0" />
    <path
       style="fill:none;stroke:#000000;stroke-width:0.72423071px;stroke-linecap:butt;stroke-linejoin:miter;stroke-opacity:1"
       d="M 184.12548,81.421152 C 201.37259,61.050835 213.7905,80.127798 213.7905,80.127798"
       id="path3436-8"
       inkscape:connector-curvature="0" />
    <path
       style="fill:none;stroke:#000000;stroke-width:0.90599823px;stroke-linecap:butt;stroke-linejoin:miter;stroke-opacity:1"
       d="m 213.80459,76.171402 c 0.8821,4.824683 0.8821,4.824683 0.8821,4.824683"
       id="path3400-9-8"
       inkscape:connector-curvature="0" />
    <path
       style="fill:none;stroke:#000000;stroke-width:0.90599823px;stroke-linecap:butt;stroke-linejoin:miter;stroke-opacity:1"
       d="m 214.84255,80.859182 c -5.07977,-1.417409 -4.7785,-1.402073 -4.7785,-1.402073"
       id="path3402-8-4"
       inkscape:connector-curvature="0" />
    <text
       xml:space="preserve"
       style="font-size:7.24230766px;font-style:normal;font-weight:normal;line-height:125%;letter-spacing:0px;word-spacing:0px;fill:#000000;fill-opacity:1;stroke:none;font-family:Sans"
       x="117.70541"
       y="71.560822"
       id="text3572"
       sodipodi:linespacing="125%"
       transform="scale(1.0328671,0.96817873)"><tspan
         sodipodi:role="line"
         id="tspan3574"
         x="117.70541"
         y="71.560822">$1$</tspan></text>
    <text
       xml:space="preserve"
       style="font-size:7.24230766px;font-style:normal;font-weight:normal;line-height:125%;letter-spacing:0px;word-spacing:0px;fill:#000000;fill-opacity:1;stroke:none;font-family:Sans"
       x="154.10767"
       y="71.560822"
       id="text3576"
       sodipodi:linespacing="125%"
       transform="scale(1.0328671,0.96817873)"><tspan
         sodipodi:role="line"
         id="tspan3578"
         x="154.10767"
         y="71.560822">$2$</tspan></text>
    <text
       xml:space="preserve"
       style="font-size:7.24230766px;font-style:normal;font-weight:normal;line-height:125%;letter-spacing:0px;word-spacing:0px;fill:#000000;fill-opacity:1;stroke:none;font-family:Sans"
       x="190.84386"
       y="71.894791"
       id="text3580"
       sodipodi:linespacing="125%"
       transform="scale(1.0328671,0.96817873)"><tspan
         sodipodi:role="line"
         id="tspan3582"
         x="190.84386"
         y="71.894791">$3$</tspan></text>
  </g>
</svg>
